<?xml version="1.0" encoding="UTF-8" standalone="no"?>
<!-- Created with Inkscape (http://www.inkscape.org/) -->

<svg
   xmlns:dc="http://purl.org/dc/elements/1.1/"
   xmlns:cc="http://creativecommons.org/ns#"
   xmlns:rdf="http://www.w3.org/1999/02/22-rdf-syntax-ns#"
   xmlns:svg="http://www.w3.org/2000/svg"
   xmlns="http://www.w3.org/2000/svg"
   xmlns:sodipodi="http://sodipodi.sourceforge.net/DTD/sodipodi-0.dtd"
   xmlns:inkscape="http://www.inkscape.org/namespaces/inkscape"
   width="210mm"
   height="297mm"
   viewBox="0 0 210 297"
   version="1.1"
   id="svg8"
   inkscape:version="0.92.3 (2405546, 2018-03-11)"
   sodipodi:docname="Boite_ecran9pouce.svg">
  <sodipodi:namedview
     id="base"
     pagecolor="#ffffff"
     bordercolor="#666666"
     borderopacity="1.0"
     inkscape:pageopacity="0.0"
     inkscape:pageshadow="2"
     inkscape:zoom="0.35"
     inkscape:cx="166.2031"
     inkscape:cy="297.01311"
     inkscape:document-units="mm"
     inkscape:current-layer="layer1"
     showgrid="false"
     inkscape:window-width="1853"
     inkscape:window-height="1025"
     inkscape:window-x="67"
     inkscape:window-y="27"
     inkscape:window-maximized="1"
     showguides="false" />
  <defs
     id="defs2" />
  <metadata
     id="metadata5">
    <rdf:RDF>
      <cc:Work
         rdf:about="">
        <dc:format>image/svg+xml</dc:format>
        <dc:type
           rdf:resource="http://purl.org/dc/dcmitype/StillImage" />
        <dc:title />
      </cc:Work>
    </rdf:RDF>
  </metadata>
  <g
     id="layer1"
     inkscape:groupmode="layer"
     inkscape:label="Calque 1">
    <path
       style="fill:none;stroke:#ff0000;stroke-width:1;stroke-miterlimit:4;stroke-dasharray:none"
       d="m -46.499195,100.14257 v 8.09305 h 2.9998 v 7.94369 h -2.9998 v 8.1437 h 2.9998 v 7.94319 h -2.9998 v 8.14369 h 2.9998 v 7.94319 h -2.9998 v 8.14369 h 2.9998 v 7.94316 h -2.9998 v 8.14369 h 2.9998 v 7.94372 h -2.9998 v 8.14316 h 2.9998 v 7.94371 h -2.9998 v 8.14316 h 2.9998 v 7.94369 h -2.9998 v 8.14369 h 2.9998 v 7.94319 h -2.9998 v 8.14369 h 2.9998 v 7.67242 h 0.044 v 5.53815 H 185.44821 v -5.76554 h 0.05 v -7.44503 h 2.9998 v -8.14369 h -2.9998 v -7.94319 h 2.9998 v -8.14369 h -2.9998 v -7.94369 h 2.9998 v -8.14316 h -2.9998 v -7.94371 h 2.9998 v -8.14316 h -2.9998 v -7.94372 h 2.9998 v -8.14369 h -2.9998 v -7.94316 h 2.9998 v -8.14369 h -2.9998 v -7.94319 h 2.9998 v -8.14369 h -2.9998 v -7.94319 h 2.9998 v -8.1437 h -2.9998 v -7.94369 h 2.9998 v -8.09305 h -8.1535 v 2.99982 h -8.0031 v -2.99982 h -8.203 v 2.99982 h -8.0031 v -2.99982 h -8.2041 v 2.99982 h -8.0031 v -2.99982 h -8.203 v 2.99982 h -8.0037 v -2.99982 h -8.203 v 2.99982 h -8.0042 v -2.99982 h -8.203005 v 2.99982 h -8.0031 v -2.99982 h -8.2041 v 2.99982 h -8.0031 v -2.99982 h -8.2031 v 2.99982 h -8.0041 v -2.99982 h -8.2031 v 2.99982 h -8.003 v -2.99982 h -8.2042 v 2.99982 h -8.0025 v -2.99982 h -8.2036 v 2.99982 h -8.0041 v -2.99982 H 2.0701051 v 2.99982 h -8.003 v -2.99982 h -8.2042001 v 2.99982 h -8.0025 v -2.99982 h -8.2036 v 2.99982 h -8.0037 v -2.99982 z m 18.499,27.99983 H 169.99901 V 240.1423 H -28.000195 Z"
       id="path4674"
       inkscape:connector-curvature="0"
       inkscape:label="PlaqueHautSupportEcran" />
    <path
       style="fill:none;stroke:#ff0000;stroke-width:1"
       d="m -48.362134,258.80815 v 8.32559 h 2.99982 v 8.17573 h -2.99982 v 8.37623 h 2.99982 v 8.17573 h -2.99982 v 8.37571 h 2.99982 v 8.17573 h -2.99982 v 8.37623 h 2.99982 v 8.17573 h -2.99982 v 8.37573 h 2.99982 v 8.17573 h -2.99982 v 8.37623 h 2.99982 v 8.17571 h -2.99982 v 8.37573 h 2.99982 v 8.17623 h -2.99982 v 8.37573 h 2.99982 v 8.17573 h -2.99982 v 8.3757 h 2.99982 v 8.17626 h -2.99982 v 8.3757 h 2.99982 v 8.17574 h -2.99982 v 8.37572 h 2.99982 v 8.17624 h -2.99982 v 8.37573 h 2.99982 v 8.17573 h -2.99982 v 8.37623 h 2.99982 v 8.1757 h -2.99982 v 8.37573 h 2.99982 v 8.17573 h -2.99982 v 8.3261 h 8.153506 v -3.00032 h 8.003117 v 3.00032 h 8.203644 v -3.00032 h 8.003646 v 3.00032 h 8.2031151 v -3.00032 h 8.00364496 v 3.00032 H 8.4121571 v -3.00032 H 16.4153 v 3.00032 h 8.203645 v -3.00032 h 8.003116 v 3.00032 h 8.203644 v -3.00032 h 8.003646 v 3.00032 h 8.203115 v -3.00032 h 8.003646 v 3.00032 h 8.203618 v -3.00032 h 8.003143 v 3.00032 h 8.203618 v -3.00032 h 8.003143 v 3.00032 h 8.203616 v -3.00032 h 8.00365 v 3.00032 h 8.20311 v -3.00032 h 8.00365 v 3.00032 h 8.20365 v -3.00032 h 8.00311 v 3.00032 h 8.20365 v -3.00032 h 8.00364 v 3.00032 h 8.20312 v -3.00032 h 8.00364 v 3.00032 h 8.15351 v -8.3261 h -3.00032 v -8.17573 h 3.00032 v -8.37573 h -3.00032 v -8.1757 h 3.00032 v -8.37623 h -3.00032 v -8.17573 h 3.00032 v -8.37573 h -3.00032 v -8.17624 h 3.00032 v -8.37572 h -3.00032 v -8.17574 h 3.00032 v -8.3757 h -3.00032 v -8.17626 h 3.00032 v -8.3757 h -3.00032 v -8.17573 h 3.00032 v -8.37573 h -3.00032 v -8.17623 h 3.00032 v -8.37573 h -3.00032 v -8.17571 h 3.00032 v -8.37623 h -3.00032 v -8.17573 h 3.00032 v -8.37573 h -3.00032 v -8.17573 h 3.00032 v -8.37623 h -3.00032 v -8.17573 h 3.00032 v -8.37571 h -3.00032 v -8.17573 h 3.00032 v -8.37623 h -3.00032 v -8.17573 h 3.00032 v -8.32559 h -8.15351 v 2.99982 h -8.00364 v -2.99982 h -8.20312 v 2.99982 h -8.00364 v -2.99982 h -8.20365 v 2.99982 h -8.00311 v -2.99982 h -8.20365 v 2.99982 h -8.00365 v -2.99982 h -8.20311 v 2.99982 h -8.00365 v -2.99982 h -8.203616 v 2.99982 h -8.003143 v -2.99982 h -8.203618 v 2.99982 H 73.23973 v -2.99982 h -8.203618 v 2.99982 h -8.003646 v -2.99982 h -8.203115 v 2.99982 h -8.003646 v -2.99982 h -8.203644 v 2.99982 h -8.003116 v -2.99982 H 16.4153 v 2.99982 H 8.4121571 v -2.99982 H 0.20853906 v 2.99982 H -7.7951059 v -2.99982 h -8.2031151 v 2.99982 h -8.003646 v -2.99982 h -8.203644 v 2.99982 h -8.003117 v -2.99982 z m 8.252725,86.95439 h 8.200019 v 3.10007 h -8.200019 z m 16.175222,0 h 8.20002 v 3.10007 h -8.20002 z m 16.2749971,0 h 8.19999296 v 3.10007 H -7.6591899 Z m 16.175223,0 h 8.2000189 v 3.10007 H 8.5160331 Z m 16.1747189,0 h 8.20002 v 3.10007 h -8.20002 z m 16.274997,0 h 8.199993 v 3.10007 h -8.199993 z m 16.175223,0 h 8.200019 v 3.10007 h -8.200019 z m 16.269811,0 h 8.200019 v 3.10007 h -8.200019 z m 16.175249,0 h 8.200019 v 3.10007 h -8.200019 z m 16.174718,0 h 8.20002 v 3.10007 h -8.20002 z m 16.17522,0 h 8.20003 v 3.10007 h -8.20003 z m 16.275,0 h 8.20002 v 3.10007 h -8.20002 z m 16.17472,0 h 8.20002 v 3.10007 h -8.20002 z m 16.17523,0 h 8.20002 v 3.10007 h -8.20002 z"
       id="BiteHolo_bottom"
       inkscape:connector-curvature="0" />
    <path
       style="fill:none;stroke:#ff0000"
       id="BiteHolo_top"
       d="m 189.63782,258.8079 h 8.15345 v 3 h 8.00345 v -3 h 8.20344 v 3 h 8.00345 v -3 h 8.20345 v 3 h 8.00345 v -3 h 8.20345 v 3 h 8.00344 v -3 h 8.20345 v 3 h 8.00345 v -3 h 8.20345 v 3 h 8.00345 v -3 h 8.20345 v 3 h 8.00345 v -3 h 8.20344 v 3 h 8.00345 v -3 h 8.20345 v 3 h 8.00345 v -3 h 8.20345 v 3 h 8.00345 v -3 h 8.20344 v 3 h 8.00345 v -3 h 8.20345 v 3 h 8.00345 v -3 h 8.20345 v 3 h 8.00345 v -3 h 8.20344 v 3 h 8.00345 v -3 h 8.15345 v 8.32586 h -3 v 8.17586 h 3 v 8.37586 h -3 v 8.17587 h 3 v 8.37586 h -3 v 8.17586 h 3 v 8.37586 h -3 v 8.17586 h 3 v 8.37587 h -3 v 8.17586 h 3 v 8.37586 h -3 v 8.17586 h 3 v 8.37587 h -3 v 8.17586 h 3 v 8.37586 h -3 v 8.17586 h 3 v 8.37587 h -3 v 8.17586 h 3 v 8.37586 h -3 v 8.17586 h 3 v 8.37586 h -3 v 8.17587 h 3 v 8.37586 h -3 v 8.17586 h 3 v 8.37586 h -3 v 8.17586 h 3 v 8.37587 h -3 v 8.17586 h 3 v 8.32586 h -8.15345 v -3 h -8.00345 v 3 h -8.20344 v -3 h -8.00345 v 3 h -8.20345 v -3 h -8.00345 v 3 h -8.20345 v -3 h -8.00345 v 3 h -8.20344 v -3 h -8.00345 v 3 h -8.20345 v -3 h -8.00345 v 3 h -8.20345 v -3 h -8.00345 v 3 h -8.20344 v -3 h -8.00345 v 3 h -8.20345 v -3 h -8.00345 v 3 h -8.20345 v -3 h -8.00345 v 3 h -8.20345 v -3 h -8.00344 v 3 h -8.20345 v -3 h -8.00345 v 3 h -8.20345 v -3 h -8.00345 v 3 h -8.20344 v -3 h -8.00345 v 3 h -8.15345 v -8.32586 h 3 v -8.17586 h -3 v -8.37587 h 3 v -8.17586 h -3 v -8.37586 h 3 v -8.17586 h -3 v -8.37586 h 3 V 432.651 h -3 v -8.37586 h 3 v -8.17586 h -3 v -8.37586 h 3 v -8.17586 h -3 v -8.37587 h 3 v -8.17586 h -3 v -8.37586 h 3 v -8.17586 h -3 v -8.37587 h 3 v -8.17586 h -3 v -8.37586 h 3 v -8.17586 h -3 v -8.37587 h 3 v -8.17586 h -3 v -8.37586 h 3 v -8.17586 h -3 v -8.37586 h 3 v -8.17587 h -3 v -8.37586 h 3 v -8.17586 h -3 z"
       inkscape:connector-curvature="0" />
    <path
       style="fill:none;stroke:#ff0000;stroke-width:1;stroke-miterlimit:4;stroke-dasharray:none"
       d="m -44.994055,506.16336 v 2.99982 h -8.053255 v 8.82788 h 2.999816 v 7.968 0.14572 8.36073 h -2.999816 v 8.87698 h 2.999816 v 8.67802 h -2.999816 v 8.8775 h 2.999816 v 8.67802 h -2.999816 v 8.87751 h 2.999816 v 8.67807 h -2.999816 v 8.82791 h 8.053255 v 2.99982 h 8.203633 v -2.99982 h 8.003646 v 2.99982 h 8.203118 v -2.99982 h 8.003646 v 2.99982 h 8.2036331 v -2.99982 h 8.003645 v 2.99982 h 8.2036329 v -2.99982 h 8.003129 v 2.99982 h 8.203634 v -2.99982 h 8.003646 v 2.99982 h 8.203117 v -2.99982 h 8.003645 v 2.99982 h 8.203635 v -2.99982 h 8.003127 v 2.99982 h 8.203633 v -2.99982 h 8.00313 v 2.99982 h 8.203634 v -2.99982 h 8.003651 v 2.99982 h 8.20311 v -2.99982 h 8.00365 v 2.99982 h 8.20363 v -2.99982 h 8.00313 v 2.99982 h 8.20364 v -2.99982 h 8.00364 v 2.99982 h 8.20312 v -2.99982 h 8.00364 v 2.99982 h 8.20312 v -2.99982 h 8.05377 v -8.82791 H 178.953 v -8.67807 h 3.00033 v -8.87751 H 178.953 v -8.67802 h 3.00033 v -8.8775 H 178.953 v -8.67802 h 3.00033 v -8.87698 H 178.953 v -8.36073 -0.14572 -7.968 h 3.00033 v -8.82788 h -8.05377 v -2.99982 h -8.20312 v 2.99982 h -8.00364 v -2.99982 h -8.20312 v 2.99982 h -8.00364 v -2.99982 h -8.20364 v 2.99982 h -8.00313 v -2.99982 h -8.20363 v 2.99982 h -8.00365 v -2.99982 h -8.20311 v 2.99982 h -8.003651 v -2.99982 h -8.203634 v 2.99982 h -8.00313 v -2.99982 h -8.203633 v 2.99982 h -8.003127 v -2.99982 H 52.24807 v 2.99982 h -8.003645 v -2.99982 h -8.203117 v 2.99982 h -8.003646 v -2.99982 h -8.203634 v 2.99982 h -8.003129 v -2.99982 H 3.6272661 v 2.99982 h -8.003645 v -2.99982 h -8.2036331 v 2.99982 h -8.003646 v -2.99982 h -8.203118 v 2.99982 h -8.003646 v -2.99982 z m 10.446909,32.79593 H 163.45317 v 53.99989 H -34.547146 Z"
       id="BiteHolo_font"
       inkscape:connector-curvature="0" />
    <path
       style="opacity:1;fill:none;fill-opacity:1;stroke:#ff0000;stroke-width:0.61119914;stroke-miterlimit:4;stroke-dasharray:none;stroke-opacity:1"
       d="M 194.40939,103.14239 V 240.1423 H 422.90916 V 103.14239 Z m 15.2502,15.0001 H 407.65936 V 230.1424 H 209.65959 Z"
       id="rect867"
       inkscape:connector-curvature="0"
       inkscape:label="PlaqueBas" />
    <path
       style="opacity:1;fill:none;fill-opacity:1;stroke:#0000ff;stroke-width:1.72699881;stroke-miterlimit:4;stroke-dasharray:none;stroke-opacity:1"
       d="M 195.46261,-60.34472 V 82.655292 H 423.46264 V -60.34472 Z m 93.00003,5.510237 h 50 v 1.98956 h 80.9997 V 74.155055 H 207.46239 V -52.844923 h 81.00025 z"
       id="rect905"
       inkscape:connector-curvature="0"
       inkscape:label="CaleECcran" />
    <path
       style="fill:none;stroke:#ff0000;stroke-width:1;stroke-miterlimit:4;stroke-dasharray:none"
       d="m -49.303883,610.10024 v 2.99983 h -5.22602 v 7.73854 0.98909 h -2.99982 v 7.73855 1.04593 7.83208 h 2.99982 v 8.67751 h -2.99982 v 8.878 h 2.99982 v 8.67751 h -2.99982 v 8.87801 h 2.99982 v 8.67751 h -2.99982 v 8.87801 h 2.99982 v 8.72763 h 5.22602 v 3.00034 h 8.37573 v -3.00034 h 8.17573 v 3.00034 h 8.37623 v -3.00034 h 8.17573 v 3.00034 h 8.3757101 v -3.00034 h 8.17572996 v 3.00034 H 8.7272071 v -3.00034 h 8.1757299 v 3.00034 h 8.37572 v -3.00034 h 8.17573 v 3.00034 h 8.37623 v -3.00034 h 8.17573 v 3.00034 h 8.37571 v -3.00034 h 8.17625 v 3.00034 h 8.37571 v -3.00034 h 8.17573 v 3.00034 h 8.37572 v -3.00034 h 8.17624 v 3.00034 h 8.375723 v -3.00034 h 8.17573 v 3.00034 h 8.37571 v -3.00034 h 8.17625 v 3.00034 h 8.37572 v -3.00034 h 8.17572 v 3.00034 h 8.37624 v -3.00034 h 8.17572 v 3.00034 h 8.37572 v -3.00034 h 5.22604 v -8.72763 h 2.99982 v -8.87801 h -2.99982 v -8.67751 h 2.99982 v -8.87801 h -2.99982 v -8.67751 h 2.99982 v -8.878 h -2.99982 v -8.67751 h 2.99982 v -7.83208 -1.04593 -7.73855 h -2.99982 v -0.98909 -7.73854 h -5.22604 v -2.99983 h -8.37572 v 2.99983 h -8.17572 v -2.99983 h -8.37624 v 2.99983 h -8.17572 v -2.99983 h -8.37572 v 2.99983 h -8.17625 v -2.99983 h -8.37571 v 2.99983 h -8.17573 v -2.99983 h -8.375723 v 2.99983 h -8.17624 v -2.99983 h -8.37572 v 2.99983 h -8.17573 v -2.99983 h -8.37571 v 2.99983 h -8.17625 v -2.99983 h -8.37571 v 2.99983 h -8.17573 v -2.99983 h -8.37623 v 2.99983 h -8.17573 v -2.99983 h -8.37572 v 2.99983 H 8.7272071 v -2.99983 H 0.35097706 v 2.99983 H -7.8247529 v -2.99983 h -8.3757101 v 2.99983 h -8.17573 v -2.99983 h -8.37623 v 2.99983 h -8.17573 v -2.99983 z m 5.00486,29.80853 h 8.20002 v 3.10007 h -8.20002 z m 16.075,0 h 8.20002 v 3.10007 h -8.20002 z m 16.075,0 h 8.2000201 v 3.10007 h -8.2000201 z m 16.0749701,0 h 8.2000199 v 3.10007 H 3.9259471 Z m 16.0749899,0 h 8.20002 v 3.10007 h -8.20002 z m 16.07499,0 h 8.20002 v 3.10007 h -8.20002 z m 16.07499,0 h 8.20001 v 3.10007 h -8.20001 z m 16.17524,0 h 8.20002 v 3.10007 h -8.20002 z m 16.07499,0 h 8.20001 v 3.10007 h -8.20001 z"
       id="path952"
       inkscape:connector-curvature="0"
       inkscape:label="BoiteDroite" />
    <path
       style="fill:none;stroke:#ff0000;stroke-width:1;stroke-miterlimit:4;stroke-dasharray:none"
       d="m 179.91023,37.314919 h -5.0131 v -3.00037 h -8.2031 v 3.00037 h -8.00354 v -3.00037 h -8.20307 v 3.00037 h -8.00364 v -3.00037 h -8.20357 v 3.00037 h -8.00314 v -3.00037 h -8.20357 v 3.00037 h -8.00404 v -3.00037 h -8.20317 v 3.00037 h -8.003545 v -3.00037 h -8.20367 v 3.00037 h -8.00304 v -3.00037 h -8.20354 v 3.00037 h -8.00307 v -3.00037 h -8.20364 v 3.00037 h -8.00357 v -3.00037 h -8.20304 v 3.00037 h -8.00367 v -3.00037 h -8.20404 v 3.00037 h -8.00307 v -3.00037 H 4.6247551 v 3.00037 h -8.00307 v -3.00037 h -8.2035401 v 3.00037 h -8.00367 v -3.00037 h -8.20304 v 3.00037 h -8.00367 v -3.00037 h -8.20354 v 3.00037 h -4.76817 v 12.669938 30.439808 14.19131 h 4.76817 v 2.9998 h 8.20354 v -2.9998 h 8.00367 v 2.9998 h 8.20304 v -2.9998 h 8.00367 v 2.9998 h 8.2035401 v -2.9998 h 8.00307 v 2.9998 h 8.2036399 v -2.9998 h 8.00307 v 2.9998 h 8.20404 v -2.9998 h 8.00367 v 2.9998 h 8.20304 v -2.9998 h 8.00357 v 2.9998 h 8.20364 v -2.9998 h 8.00307 v 2.9998 h 8.20354 v -2.9998 h 8.00304 v 2.9998 h 8.20367 v -2.9998 h 8.003545 v 2.9998 h 8.20317 v -2.9998 h 8.00404 v 2.9998 h 8.20357 v -2.9998 h 8.00314 v 2.9998 h 8.20357 v -2.9998 h 8.00364 v 2.9998 h 8.20307 v -2.9998 h 8.00354 v 2.9998 h 8.2031 v -2.9998 h 5.0131 V 80.424665 49.984857 Z"
       id="path954"
       inkscape:connector-curvature="0" />
    <path
       style="fill:none;stroke:#ff0000;stroke-width:1;stroke-miterlimit:4;stroke-dasharray:none"
       d="m 198.14738,505.90384 v 2.99982 h -8.05325 v 8.82788 h 2.99982 v 7.96799 0.14573 8.36073 h -2.99982 v 8.87698 h 2.99982 v 8.67802 h -2.99982 v 8.87749 h 2.99982 v 8.67803 h -2.99982 v 8.87749 h 2.99982 v 8.67803 h -2.99982 v 8.82788 h 8.05325 v 2.99982 h 8.20365 v -2.99982 h 8.00364 v 2.99982 h 8.20312 v -2.99982 h 8.00364 v 2.99982 h 8.20365 v -2.99982 h 8.00364 v 2.99982 h 8.20362 v -2.99982 h 8.00314 v 2.99982 h 8.20363 v -2.99982 h 8.00364 v 2.99982 h 8.20312 v -2.99982 h 8.00365 v 2.99982 h 8.20363 v -2.99982 h 8.00313 v 2.99982 h 8.20363 v -2.99982 h 8.00313 v 2.99982 h 8.20364 v -2.99982 h 8.00364 v 2.99982 h 8.20312 v -2.99982 h 8.00365 v 2.99982 h 8.20363 v -2.99982 h 8.00313 v 2.99982 h 8.20363 v -2.99982 h 8.00365 v 2.99982 h 8.20311 v -2.99982 h 8.00365 v 2.99982 h 8.20311 v -2.99982 h 8.05378 v -8.82788 h -3.00034 V 578.194 h 3.00034 v -8.87749 h -3.00034 v -8.67803 h 3.00034 v -8.87749 h -3.00034 v -8.67802 h 3.00034 v -8.87698 h -3.00034 v -8.36073 -0.14573 -7.96799 h 3.00034 v -8.82788 H 417.041 v -2.99982 h -8.20311 v 2.99982 h -8.00365 v -2.99982 h -8.20311 v 2.99982 h -8.00365 v -2.99982 h -8.20363 v 2.99982 h -8.00313 v -2.99982 h -8.20363 v 2.99982 h -8.00365 v -2.99982 h -8.20312 v 2.99982 h -8.00364 v -2.99982 h -8.20364 v 2.99982 h -8.00313 v -2.99982 h -8.20363 v 2.99982 h -8.00313 v -2.99982 h -8.20363 v 2.99982 h -8.00365 v -2.99982 h -8.20312 v 2.99982 h -8.00364 v -2.99982 h -8.20363 v 2.99982 h -8.00314 v -2.99982 h -8.20362 v 2.99982 h -8.00364 v -2.99982 h -8.20365 v 2.99982 h -8.00364 v -2.99982 h -8.20312 v 2.99982 h -8.00364 v -2.99982 z m 102.0775,61.70166 a 5.9999998,5.9999998 0 0 1 6.00015,6.00015 5.9999998,5.9999998 0 0 1 -6.00015,6.00015 5.9999998,5.9999998 0 0 1 -6.00015,-6.00015 5.9999998,5.9999998 0 0 1 6.00015,-6.00015 z m -96.04838,0.53847 h 54.99973 v 17.99994 H 204.1765 Z m 116.24043,1.60145 h 12.0003 v 8.00003 h -12.0003 z"
       id="path1050"
       inkscape:connector-curvature="0"
       inkscape:label="Boite_Arriere" />
    <path
       inkscape:label="BoiteGauche"
       inkscape:connector-curvature="0"
       id="path1074"
       d="m -45.519158,-64.346844 v 2.99983 h -5.226017 v 7.738534 0.98909 h -2.99982 v 7.738547 1.045927 7.832077 h 2.99982 v 8.677504 h -2.99982 v 8.877997 h 2.99982 v 8.6775079 h -2.99982 v 8.87800996 h 2.99982 V 7.7856899 h -2.99982 v 8.8780091 h 2.99982 v 8.72763 h 5.226017 v 3.00034 h 8.375724 v -3.00034 h 8.175727 v 3.00034 h 8.376224 v -3.00034 h 8.175727 v 3.00034 h 8.3757041 v -3.00034 h 8.175724 v 3.00034 h 8.3762269 v -3.00034 h 8.175724 v 3.00034 h 8.375716 v -3.00034 h 8.175724 v 3.00034 h 8.376227 v -3.00034 h 8.175723 v 3.00034 h 8.375708 v -3.00034 h 8.176243 v 3.00034 h 8.375704 v -3.00034 h 8.175727 v 3.00034 h 8.375714 v -3.00034 h 8.176241 v 3.00034 h 8.37571 v -3.00034 h 8.17573 v 3.00034 h 8.3757 v -3.00034 h 8.17625 v 3.00034 h 8.37572 v -3.00034 h 8.17572 v 3.00034 h 8.37624 v -3.00034 h 8.17572 v 3.00034 h 8.37572 v -3.00034 h 5.22604 v -8.72763 h 2.99982 V 7.7856899 h -2.99982 v -8.67751004 h 2.99982 V -9.7698301 h -2.99982 v -8.6775079 h 2.99982 v -8.877997 h -2.99982 v -8.677504 h 2.99982 v -7.832077 -1.045927 -7.738547 h -2.99982 v -0.98909 -7.738534 h -5.22604 v -2.99983 h -8.37572 v 2.99983 h -8.17572 v -2.99983 h -8.37624 v 2.99983 h -8.17572 v -2.99983 h -8.37572 v 2.99983 h -8.17625 v -2.99983 h -8.3757 v 2.99983 h -8.17573 v -2.99983 h -8.37571 v 2.99983 h -8.176241 v -2.99983 h -8.375714 v 2.99983 h -8.175727 v -2.99983 h -8.375704 v 2.99983 h -8.176243 v -2.99983 h -8.375708 v 2.99983 H 45.61529 v -2.99983 h -8.376227 v 2.99983 h -8.175724 v -2.99983 h -8.375716 v 2.99983 h -8.175724 v -2.99983 H 4.1356721 v 2.99983 h -8.175724 v -2.99983 h -8.3757041 v 2.99983 h -8.175727 v -2.99983 h -8.376224 v 2.99983 h -8.175727 v -2.99983 z m 5.004857,29.808515 h 8.200014 v 3.100067 h -8.200014 z m 16.074991,0 h 8.200014 v 3.100067 h -8.200014 z m 16.0749911,0 h 8.20001396 v 3.100067 H -8.3643189 Z m 16.074961,0 h 8.2000139 v 3.100067 H 7.7106421 Z m 16.0749809,0 h 8.200013 v 3.100067 h -8.200013 z m 16.07498,0 h 8.200013 v 3.100067 h -8.200013 z m 16.074981,0 h 8.200003 v 3.100067 h -8.200003 z m 16.175231,0 h 8.200013 v 3.100067 h -8.200013 z m 16.074981,0 h 8.200003 v 3.100067 h -8.200003 z"
       style="fill:none;stroke:#ff0000;stroke-width:1;stroke-miterlimit:4;stroke-dasharray:none" />
    <path
       style="opacity:1;fill:none;fill-opacity:1;stroke:#ff0000;stroke-width:0.87831277;stroke-miterlimit:4;stroke-dasharray:none;stroke-opacity:1"
       d="m 193.05344,-49.472751 v 136.99982 h 228.50027 v -136.99982 z m 89.25036,6.691573 h 50.00006 v 2.999821 H 282.3038 Z"
       id="rect1076"
       inkscape:connector-curvature="0"
       inkscape:label="SupportCarteEcran" />
  </g>
</svg>
