<?xml version="1.0" encoding="UTF-8" standalone="no"?>
<!-- Created with Inkscape (http://www.inkscape.org/) -->

<svg
   xmlns:dc="http://purl.org/dc/elements/1.1/"
   xmlns:cc="http://creativecommons.org/ns#"
   xmlns:rdf="http://www.w3.org/1999/02/22-rdf-syntax-ns#"
   xmlns:svg="http://www.w3.org/2000/svg"
   xmlns="http://www.w3.org/2000/svg"
   xmlns:sodipodi="http://sodipodi.sourceforge.net/DTD/sodipodi-0.dtd"
   xmlns:inkscape="http://www.inkscape.org/namespaces/inkscape"
   width="210mm"
   height="297mm"
   viewBox="0 0 210 297"
   version="1.1"
   id="svg8"
   inkscape:version="0.92.3 (2405546, 2018-03-11)"
   sodipodi:docname="Boite_ecran15pouce.svg">
  <sodipodi:namedview
     id="base"
     pagecolor="#ffffff"
     bordercolor="#666666"
     borderopacity="1.0"
     inkscape:pageopacity="0.0"
     inkscape:pageshadow="2"
     inkscape:zoom="0.49497476"
     inkscape:cx="3587.2317"
     inkscape:cy="-2240.9296"
     inkscape:document-units="mm"
     inkscape:current-layer="layer1"
     showgrid="false"
     inkscape:window-width="1853"
     inkscape:window-height="1025"
     inkscape:window-x="67"
     inkscape:window-y="27"
     inkscape:window-maximized="1"
     showguides="false" />
  <defs
     id="defs2" />
  <metadata
     id="metadata5">
    <rdf:RDF>
      <cc:Work
         rdf:about="">
        <dc:format>image/svg+xml</dc:format>
        <dc:type
           rdf:resource="http://purl.org/dc/dcmitype/StillImage" />
        <dc:title />
      </cc:Work>
    </rdf:RDF>
  </metadata>
  <g
     inkscape:label="Calque 1"
     inkscape:groupmode="layer"
     id="layer1">
    <path
       inkscape:label="PlaquePyramide"
       inkscape:connector-curvature="0"
       id="rect850"
       d="M 710.74431,-53.694435 V 188.30576 H 1027.7438 V -53.694435 Z m 5.9996,6.00014 H 1021.7437 V 182.30561 H 716.74391 Z"
       style="opacity:1;fill:none;fill-opacity:1;stroke:#ff0000;stroke-width:0.1;stroke-miterlimit:4;stroke-dasharray:none;stroke-opacity:1" />
    <path
       inkscape:connector-curvature="0"
       id="rect878"
       d="m 374.49334,202.82732 v 9.04957 h 3.00032 v 8.90024 h -3.00032 v 9.09968 h 3.00032 v 8.90024 h -3.00032 v 9.10021 h 3.00032 v 8.89974 h -3.00032 v 9.10021 h 3.00032 v 8.89971 h -3.00032 v 9.10021 h 3.00032 v 8.89974 h -3.00032 v 9.10021 h 3.00032 v 8.90024 h -3.00032 v 9.04957 h 8.23204 v 3.00032 h 8.38245 v -3.00032 h 8.18192 v 3.00032 h 8.38192 v -3.00032 h 8.18192 v 3.00032 h 8.38245 v -3.00032 h 8.18192 v 3.00032 h 8.38192 v -3.00032 h 8.18192 v 3.00032 h 8.38243 v -3.00032 h 8.18195 v 3.00032 h 8.38192 v -3.00032 h 8.18192 v 3.00032 h 8.38242 v -3.00032 h 8.18195 v 3.00032 h 8.38189 v -3.00032 h 8.18195 v 3.00032 h 8.38243 v -3.00032 h 8.18192 v 3.00032 h 8.38192 v -3.00032 h 8.18195 v 3.00032 h 8.38242 v -3.00032 h 8.18192 v 3.00032 h 8.38192 v -3.00032 h 8.18192 v 3.00032 h 8.38245 v -3.00032 h 8.18193 v 3.00032 h 8.38192 v -3.00032 h 8.18192 v 3.00032 h 8.38245 v -3.00032 h 8.18192 v 3.00032 h 8.38192 v -3.00032 h 8.18192 v 3.00032 h 8.38245 v -3.00032 h 8.18192 v 3.00032 h 8.38192 v -3.00032 h 8.18193 v 3.00032 h 8.38242 v -3.00032 h 8.23206 v -9.04957 h -3.00032 v -8.90024 h 3.00032 v -9.10021 h -3.00032 v -8.89974 h 3.00032 v -9.10021 h -3.00032 v -8.89971 h 3.00032 V 256.777 h -3.00032 v -8.89974 h 3.00032 v -9.10021 h -3.00032 v -8.90024 h 3.00032 v -9.09968 h -3.00032 v -8.90024 h 3.00032 v -9.04957 h -8.2088 v 3.37601 H 579.28497 v -3.37601 h -5.97226 -8.38192 -8.18192 -8.38242 -8.18195 -8.38192 -8.18192 -8.38243 -8.18195 -8.38189 -8.18195 -8.38242 -8.18192 -8.38192 -8.18195 -8.38243 -8.18192 -8.38192 -8.18192 -8.38245 -8.18192 -8.38192 -8.18192 -8.38245 z"
       style="opacity:1;fill:none;fill-opacity:1;stroke:#ff0000;stroke-width:0.1;stroke-miterlimit:4;stroke-dasharray:none;stroke-opacity:1"
       inkscape:label="BoiteInterieure_Arriere" />
    <path
       inkscape:connector-curvature="0"
       d="m 371.2118,-60.173095 h 8.33205 v 3 h 8.18205 v -3 h 8.38205 v 3 H 404.29 v -3 h 8.38206 v 3 h 8.18205 v -3 h 8.38205 v 3 h 8.18205 v -3 h 8.38205 v 3 h 8.18205 v -3 h 8.38205 v 3 h 8.18205 v -3 h 8.38206 v 3 h 8.18205 v -3 h 8.38205 v 3 h 8.18205 v -3 h 8.38205 v 3 h 8.18205 v -3 h 8.38205 v 3 h 8.18206 v -3 h 8.38205 v 3 h 8.18205 v -3 h 8.38205 v 3 h 8.18205 v -3 h 8.38205 v 3 h 8.18205 v -3 h 8.38205 v 3 h 8.18206 v -3 h 8.38205 v 3 h 8.18205 v -3 h 8.38205 v 3 h 8.18205 v -3 h 8.38205 v 3 h 8.18205 v -3 h 8.38205 v 3 h 8.18206 v -3 h 8.38205 v 3 h 8.18205 v -3 h 8.33205 v 8.05 h -3 v 7.9 h 3 v 8.1 h -3 v 7.9 h 3 v 8.1 h -3 v 7.9 h 3 v 8.0999999 h -3 v 7.9 h 3 v 8.1000001 h -3 v 7.9 h 3 v 8.1 h -3 v 7.9 h 3 v 8.1 h -3 v 7.9 h 3 v 8.1 h -3 v 7.9 h 3 v 8.1 h -3 v 7.9 h 3 v 8.1 h -3 v 7.9 h 3 v 8.099995 h -3 v 7.9 h 3 v 8.1 h -3 v 7.9 h 3 v 8.1 h -3 v 7.9 h 3 v 8.1 h -3 v 7.9 h 3 v 8.1 h -3 v 7.9 h 3 v 8.05 h -8.33205 v -3 h -8.18205 v 3 h -8.38205 v -3 h -8.18206 v 3 h -8.38205 v -3 h -8.18205 v 3 h -8.38205 v -3 h -8.18205 v 3 h -8.38205 v -3 h -8.18205 v 3 h -8.38205 v -3 h -8.18206 v 3 h -8.38205 v -3 h -8.18205 v 3 h -8.38205 v -3 h -8.18205 v 3 h -8.38205 v -3 h -8.18205 v 3 h -8.38205 v -3 h -8.18206 v 3 h -8.38205 v -3 h -8.18205 v 3 h -8.38205 v -3 h -8.18205 v 3 h -8.38205 v -3 h -8.18205 v 3 h -8.38206 v -3 h -8.18205 v 3 h -8.38205 v -3 h -8.18205 v 3 h -8.38205 v -3 h -8.18205 v 3 h -8.38205 v -3 h -8.18205 v 3 H 404.29 v -3 h -8.18205 v 3 h -8.38205 v -3 h -8.18205 v 3 h -8.33205 v -8.05 h 3 v -7.9 h -3 v -8.1 h 3 v -7.9 h -3 v -8.1 h 3 v -7.9 h -3 v -8.1 h 3 v -7.9 h -3 v -8.1 h 3 v -7.9 h -3 v -8.099995 h 3 v -7.9 h -3 v -8.1 h 3 v -7.9 h -3 v -8.1 h 3 v -7.9 h -3 v -8.1 h 3 v -7.9 h -3 v -8.1 h 3 v -7.9 h -3 v -8.1 h 3 v -7.9 h -3 V 3.7769049 h 3 v -7.9 h -3 v -8.0999999 h 3 v -7.9 h -3 v -8.1 h 3 v -7.9 h -3 v -8.1 h 3 v -7.9 h -3 z"
       id="Boite15pouce_bottom"
       style="fill:none;stroke:#ff0000;stroke-width:0.1;stroke-miterlimit:4;stroke-dasharray:none"
       inkscape:label="BoiteInterieur_bottom" />
    <path
       inkscape:connector-curvature="0"
       id="Boite15pouce_left_side"
       d="m 718.25536,198.11848 v 8.94984 9.10022 8.89971 9.10021 8.90024 9.09971 8.90023 9.09969 8.90024 9.0997 8.90024 9.10022 8.94984 h 4.95008 v 2.9998 h 8.09975 v -2.9998 h 7.9003 v 2.9998 h 8.09977 v -2.9998 h 7.89977 v 2.9998 h 8.10027 v -2.9998 h 7.89979 v 2.9998 h 8.10028 v -2.9998 h 7.89977 v 2.9998 h 8.10029 v -2.9998 h 7.89977 v 2.9998 h 8.10028 v -2.9998 h 7.89977 v 2.9998 h 8.09977 v -2.9998 h 7.90029 v 2.9998 h 8.09977 v -2.9998 h 7.9003 v 2.9998 h 8.09975 v -2.9998 h 7.90029 v 2.9998 h 8.09977 v -2.9998 h 7.9003 v 2.9998 h 8.09975 v -2.9998 h 7.89979 v 2.9998 h 8.10027 v -2.9998 h 7.89977 v 2.9998 h 8.1003 v -2.9998 h 7.89977 v 2.9998 h 8.10031 v -2.9998 h 7.8998 v 2.9998 h 8.1003 v -2.9998 h 4.9496 v -8.94984 h 3.0003 v -9.10022 h -3.0003 v -8.90024 h 3.0003 v -9.0997 h -3.0003 v -8.90024 h 3.0003 v -9.09969 h -3.0003 v -8.90023 h 3.0003 v -9.09971 h -3.0003 v -8.90024 h 3.0003 v -9.10021 h -3.0003 v -8.89971 h 3.0003 v -9.10022 h -3.0003 v -8.94984 h -4.9496 -8.1003 -7.8998 -8.10031 -7.89977 -8.1003 -7.89977 -8.10027 -7.89979 -8.09975 -7.9003 -8.09977 -7.90029 -8.09975 -7.9003 -8.09977 -7.90029 -8.09977 -7.89977 -8.10028 -7.89977 -8.10029 -7.89977 -8.10028 -7.89979 -8.10027 -7.89977 -8.09977 -7.9003 -8.09975 z"
       style="fill:none;stroke:#ff0000;stroke-width:0.1;stroke-miterlimit:4;stroke-dasharray:none"
       inkscape:label="BoiteInterieure_left_side" />
    <path
       inkscape:label="BoiteInterieure_droite"
       style="fill:none;stroke:#ff0000;stroke-width:0.1;stroke-miterlimit:4;stroke-dasharray:none"
       d="m 744.17117,21.554105 v 8.94984 9.10022 8.89971 9.10021 8.90024 9.09971 8.90023 9.09969 8.900235 9.0997 8.90024 9.10022 8.94984 h 4.95008 v 2.9998 h 8.09975 v -2.9998 h 7.9003 v 2.9998 h 8.09977 v -2.9998 h 7.89974 v 2.9998 h 8.1003 v -2.9998 h 7.8999 v 2.9998 h 8.1003 v -2.9998 h 7.8998 v 2.9998 h 8.1003 v -2.9998 h 7.8999 v 2.9998 h 8.1003 v -2.9998 h 7.8998 v 2.9998 h 8.0998 v -2.9998 h 7.9004 v 2.9998 h 8.0998 v -2.9998 h 7.9003 v 2.9998 h 8.0998 v -2.9998 h 7.9003 v 2.9998 h 8.0998 v -2.9998 h 7.9004 v 2.9998 h 8.0998 v -2.9998 h 7.8998 v 2.9998 h 8.1003 v -2.9998 h 7.89994 v 2.9998 h 8.1003 v -2.9998 h 7.8998 v 2.9998 h 8.1004 v -2.9998 h 7.8998 v 2.9998 h 8.1003 v -2.9998 h 4.9496 v -8.94984 h 3.0003 v -9.10022 h -3.0003 v -8.90024 h 3.0003 v -9.0997 h -3.0003 v -8.900235 h 3.0003 v -9.09969 h -3.0003 v -8.90023 h 3.0003 v -9.09971 h -3.0003 v -8.90024 h 3.0003 v -9.10021 h -3.0003 v -8.89971 h 3.0003 v -9.10022 h -3.0003 v -8.94984 h -4.9496 -8.1003 -7.8998 -8.1004 -7.8998 -8.1003 -7.89994 -8.1003 -7.8998 -8.0998 -7.9004 -8.0998 -7.9003 -8.0998 -7.9003 -8.0998 -7.9004 -8.0998 -7.8998 -8.1003 -7.8999 -8.1003 -7.8998 -8.1003 -7.8999 -8.1003 -7.89974 -8.09977 -7.9003 -8.09975 z"
       id="path919"
       inkscape:connector-curvature="0" />
    <path
       transform="translate(754.27403,369.72007)"
       style="fill:none;stroke:#800000;stroke-width:0.1;stroke-miterlimit:4;stroke-dasharray:none"
       id="Exterieur_bottom"
       d="m 0,0 h 8.05 v 3 h 7.9 V 0 h 8.1 v 3 h 7.9 V 0 h 8.1 v 3 h 7.9 V 0 h 8.1 v 3 h 7.9 V 0 h 8.1 v 3 h 7.9 V 0 h 8.1 v 3 h 7.9 V 0 h 8.1 v 3 h 7.9 V 0 h 8.1 v 3 h 7.9 V 0 h 8.1 v 3 h 7.9 V 0 h 8.1 v 3 h 7.9 V 0 h 8.1 v 3 h 7.9 V 0 h 8.1 v 3 h 7.9 V 0 h 8.1 v 3 h 7.9 V 0 h 8.1 v 3 h 7.9 V 0 h 8.1 v 3 h 7.9 V 0 h 8.1 v 3 h 7.9 V 0 h 8.1 v 3 h 7.9 V 0 h 8.1 v 3 h 7.9 V 0 h 8.1 v 3 h 7.9 V 0 h 8.1 v 3 h 7.9 V 0 h 8.1 v 3 h 7.9 V 0 H 344 v 8.2722222 h -3 v 8.1222218 h 3 v 8.322223 h -3 v 8.122222 h 3 v 8.322222 h -3 v 8.122222 h 3 v 8.322223 h -3 v 8.122222 h 3 V 74.05 h -3 v 8.122222 h 3 v 8.322222 h -3 v 8.122223 h 3 v 8.322223 h -3 v 8.12222 h 3 v 8.32222 h -3 v 8.12223 h 3 v 8.32222 h -3 V 147.95 h 3 v 8.32222 h -3 v 8.12222 h 3 v 8.32223 h -3 v 8.12222 h 3 v 8.32222 h -3 v 8.12222 h 3 v 8.32223 h -3 v 8.12222 h 3 V 222.05 h -3 v 8.12222 h 3 v 8.32222 h -3 v 8.12223 h 3 v 8.32222 h -3 v 8.12222 h 3 v 8.32222 h -3 v 8.12223 h 3 v 8.32222 h -3 V 295.95 h 3 v 8.32222 h -3 v 8.12222 h 3 v 8.32223 h -3 v 8.12222 h 3 v 8.32222 h -3 v 8.12222 h 3 v 8.32223 h -3 v 8.12222 h 3 V 370 h -8.05 v -3 h -7.9 v 3 h -8.1 v -3 h -7.9 v 3 h -8.1 v -3 h -7.9 v 3 h -8.1 v -3 h -7.9 v 3 h -8.1 v -3 h -7.9 v 3 h -8.1 v -3 h -7.9 v 3 h -8.1 v -3 h -7.9 v 3 h -8.1 v -3 h -7.9 v 3 h -8.1 v -3 h -7.9 v 3 h -8.1 v -3 h -7.9 v 3 h -8.1 v -3 h -7.9 v 3 h -8.1 v -3 h -7.9 v 3 h -8.1 v -3 h -7.9 v 3 h -8.1 v -3 h -7.9 v 3 h -8.1 v -3 h -7.9 v 3 h -8.1 v -3 h -7.9 v 3 h -8.1 v -3 h -7.9 v 3 h -8.1 v -3 h -7.9 v 3 h -8.1 v -3 h -7.9 v 3 h -8.1 v -3 h -7.9 v 3 h -8.1 v -3 h -7.9 v 3 H 0 v -8.27222 h 3 v -8.12222 H 0 v -8.32223 h 3 v -8.12222 H 0 v -8.32222 h 3 v -8.12222 H 0 v -8.32223 h 3 v -8.12222 H 0 V 295.95 h 3 v -8.12222 H 0 v -8.32222 h 3 v -8.12223 H 0 v -8.32222 h 3 v -8.12222 H 0 v -8.32222 h 3 v -8.12223 H 0 v -8.32222 H 3 V 222.05 H 0 v -8.32222 h 3 v -8.12222 H 0 v -8.32223 h 3 v -8.12222 H 0 v -8.32222 h 3 v -8.12222 H 0 v -8.32223 h 3 v -8.12222 H 0 V 147.95 h 3 v -8.12222 H 0 v -8.32222 h 3 v -8.12223 H 0 v -8.32222 h 3 v -8.12222 H 0 V 98.616667 H 3 V 90.494444 H 0 V 82.172222 H 3 V 74.05 H 0 V 65.727778 H 3 V 57.605556 H 0 V 49.283333 H 3 V 41.161111 H 0 V 32.838889 H 3 V 24.716667 H 0 V 16.394444 H 3 V 8.2722222 H 0 Z"
       inkscape:connector-curvature="0" />
    <path
       style="fill:none;stroke:#800000;stroke-width:0.1;stroke-miterlimit:4;stroke-dasharray:none"
       id="Exterieur_top"
       d="m 0,0 h 8.05 v 3 h 7.9 V 0 h 8.1 v 3 h 7.9 V 0 h 8.1 v 3 h 7.9 V 0 h 8.1 v 3 h 7.9 V 0 h 8.1 v 3 h 7.9 V 0 h 8.1 v 3 h 7.9 V 0 h 8.1 v 3 h 7.9 V 0 h 8.1 v 3 h 7.9 V 0 h 8.1 v 3 h 7.9 V 0 h 8.1 v 3 h 7.9 V 0 h 8.1 v 3 h 7.9 V 0 h 8.1 v 3 h 7.9 V 0 h 8.1 v 3 h 7.9 V 0 h 8.1 v 3 h 7.9 V 0 h 8.1 v 3 h 7.9 V 0 h 8.1 v 3 h 7.9 V 0 h 8.1 v 3 h 7.9 V 0 h 8.1 v 3 h 7.9 V 0 h 8.1 v 3 h 7.9 V 0 h 8.1 v 3 h 7.9 V 0 h 8.1 v 3 h 7.9 V 0 H 344 v 8.2722222 h -3 v 8.1222218 h 3 v 8.322223 h -3 v 8.122222 h 3 v 8.322222 h -3 v 8.122222 h 3 v 8.322223 h -3 v 8.122222 h 3 V 74.05 h -3 v 8.122222 h 3 v 8.322222 h -3 v 8.122223 h 3 v 8.322223 h -3 v 8.12222 h 3 v 8.32222 h -3 v 8.12223 h 3 v 8.32222 h -3 V 147.95 h 3 v 8.32222 h -3 v 8.12222 h 3 v 8.32223 h -3 v 8.12222 h 3 v 8.32222 h -3 v 8.12222 h 3 v 8.32223 h -3 v 8.12222 h 3 V 222.05 h -3 v 8.12222 h 3 v 8.32222 h -3 v 8.12223 h 3 v 8.32222 h -3 v 8.12222 h 3 v 8.32222 h -3 v 8.12223 h 3 v 8.32222 h -3 V 295.95 h 3 v 8.32222 h -3 v 8.12222 h 3 v 8.32223 h -3 v 8.12222 h 3 v 8.32222 h -3 v 8.12222 h 3 v 8.32223 h -3 v 8.12222 h 3 V 370 h -8.05 v -3 h -7.9 v 3 h -8.1 v -3 h -7.9 v 3 h -8.1 v -3 h -7.9 v 3 h -8.1 v -3 h -7.9 v 3 h -8.1 v -3 h -7.9 v 3 h -8.1 v -3 h -7.9 v 3 h -8.1 v -3 h -7.9 v 3 h -8.1 v -3 h -7.9 v 3 h -8.1 v -3 h -7.9 v 3 h -8.1 v -3 h -7.9 v 3 h -8.1 v -3 h -7.9 v 3 h -8.1 v -3 h -7.9 v 3 h -8.1 v -3 h -7.9 v 3 h -8.1 v -3 h -7.9 v 3 h -8.1 v -3 h -7.9 v 3 h -8.1 v -3 h -7.9 v 3 h -8.1 v -3 h -7.9 v 3 h -8.1 v -3 h -7.9 v 3 h -8.1 v -3 h -7.9 v 3 h -8.1 v -3 h -7.9 v 3 h -8.1 v -3 h -7.9 v 3 H 0 v -8.27222 h 3 v -8.12222 H 0 v -8.32223 h 3 v -8.12222 H 0 v -8.32222 h 3 v -8.12222 H 0 v -8.32223 h 3 v -8.12222 H 0 V 295.95 h 3 v -8.12222 H 0 v -8.32222 h 3 v -8.12223 H 0 v -8.32222 h 3 v -8.12222 H 0 v -8.32222 h 3 v -8.12223 H 0 v -8.32222 H 3 V 222.05 H 0 v -8.32222 h 3 v -8.12222 H 0 v -8.32223 h 3 v -8.12222 H 0 v -8.32222 h 3 v -8.12222 H 0 v -8.32223 h 3 v -8.12222 H 0 V 147.95 h 3 v -8.12222 H 0 v -8.32222 h 3 v -8.12223 H 0 v -8.32222 h 3 v -8.12222 H 0 V 98.616667 H 3 V 90.494444 H 0 V 82.172222 H 3 V 74.05 H 0 V 65.727778 H 3 V 57.605556 H 0 V 49.283333 H 3 V 41.161111 H 0 V 32.838889 H 3 V 24.716667 H 0 V 16.394444 H 3 V 8.2722222 H 0 Z"
       inkscape:connector-curvature="0"
       transform="translate(1101.274,369.72007)" />
    <path
       style="fill:none;stroke:#800000;stroke-width:0.37795275;stroke-miterlimit:4;stroke-dasharray:none"
       d="m 4192.3418,2804.4102 v 11.3378 h -30.0469 v 32.0684 h 11.3399 v 31.502 h -11.3399 v 32.2578 h 11.3399 v 31.5 h -11.3399 v 32.2578 h 11.3399 v 31.5019 h -11.3399 v 32.2579 h 11.3399 v 31.5019 h -11.3399 v 32.2559 h 11.3399 v 31.5019 h -11.3399 v 32.2578 h 11.3399 v 31.502 h -11.3399 v 32.2578 h 11.3399 v 31.5 h -11.3399 v 32.2578 h 11.3399 v 31.502 h -11.3399 v 32.2578 h 11.3399 v 31.5019 h -11.3399 v 32.2559 h 11.3399 v 31.5019 h -11.3399 v 32.2578 h 11.3399 v 31.502 h -11.3399 v 32.0684 h 30.0469 v 11.3379 h 30.6152 v -11.3379 h 29.8575 v 11.3379 h 30.6152 v -11.3379 h 29.8574 v 11.3379 h 30.6152 v -11.3379 h 29.8575 v 11.3379 h 30.6152 v -11.3379 h 29.8574 v 11.3379 h 30.6133 v -11.3379 h 29.8594 v 11.3379 h 30.6133 v -11.3379 h 29.8593 v 11.3379 h 30.6133 v -11.3379 h 29.8594 v 11.3379 h 30.6133 v -11.3379 h 29.8593 v 11.3379 h 30.6133 v -11.3379 h 29.8575 v 11.3379 h 30.6152 v -11.3379 h 29.8574 v 11.3379 h 30.6152 v -11.3379 h 29.8575 v 11.3379 h 30.6152 v -11.3379 h 29.8574 v 11.3379 h 30.6153 v -11.3379 h 29.8574 v 11.3379 h 30.6133 v -11.3379 h 29.8593 v 11.3379 h 30.6133 v -11.3379 h 29.8594 v 11.3379 h 30.6133 v -11.3379 h 29.8593 v 11.3379 h 30.6133 v -11.3379 h 29.8594 v 11.3379 h 30.6133 v -11.3379 h 29.8574 v 11.3379 h 30.6152 v -11.3379 h 29.8575 v 11.3379 h 30.6152 v -11.3379 h 29.8574 v 11.3379 h 30.6152 v -11.3379 h 30.0469 v -32.0684 h -11.3379 v -31.502 h 11.3379 v -32.2578 h -11.3379 v -31.5019 h 11.3379 v -32.2559 h -11.3379 v -31.5019 h 11.3379 v -32.2578 h -11.3379 v -31.502 h 11.3379 v -32.2578 h -11.3379 v -31.5 h 11.3379 v -32.2578 h -11.3379 v -31.502 h 11.3379 v -32.2578 h -11.3379 v -31.5019 h 11.3379 v -32.2559 h -11.3379 v -31.5019 h 11.3379 v -32.2579 h -11.3379 v -31.5019 h 11.3379 v -32.2578 h -11.3379 v -31.5 h 11.3379 v -32.2578 h -11.3379 v -31.502 h 11.3379 v -32.0684 h -30.0469 v -11.3378 h -30.6152 v 11.3378 h -29.8574 v -11.3378 h -30.6152 v 11.3378 h -29.8575 v -11.3378 h -30.6152 v 11.3378 h -29.8574 v -11.3378 h -30.6133 v 11.3378 h -29.8594 v -11.3378 h -30.6133 v 11.3378 h -29.8593 v -11.3378 h -30.6133 v 11.3378 h -29.8594 v -11.3378 h -30.6133 v 11.3378 h -29.8593 v -11.3378 h -30.6133 v 11.3378 h -29.8574 v -11.3378 h -30.6153 v 11.3378 h -29.8574 v -11.3378 h -30.6152 v 11.3378 h -29.8575 v -11.3378 h -30.6152 v 11.3378 h -29.8574 v -11.3378 h -30.6152 v 11.3378 h -29.8575 v -11.3378 h -30.6133 v 11.3378 h -29.8593 v -11.3378 h -30.6133 v 11.3378 h -29.8594 v -11.3378 h -30.6133 v 11.3378 h -29.8593 v -11.3378 h -30.6133 v 11.3378 h -29.8594 v -11.3378 h -30.6133 v 11.3378 h -29.8574 v -11.3378 h -30.6152 v 11.3378 h -29.8575 v -11.3378 h -30.6152 v 11.3378 h -29.8574 v -11.3378 h -30.6152 v 11.3378 h -29.8575 v -11.3378 z m 43.6543,298.582 H 5388.752 v 434.6465 H 4235.9961 Z"
       transform="scale(0.26458333)"
       id="Exterieur_font"
       inkscape:connector-curvature="0" />
    <path
       style="fill:none;stroke:#800000;stroke-width:0.37795275;stroke-miterlimit:4;stroke-dasharray:none"
       d="m 2880.8477,2804.4102 v 11.3378 h -30.0489 v 32.0684 h 11.3399 v 31.502 h -11.3399 v 32.2578 h 11.3399 v 31.5 h -11.3399 v 32.2578 h 11.3399 v 31.5019 h -11.3399 v 32.2579 h 11.3399 v 31.5019 h -11.3399 v 32.2559 h 11.3399 v 31.5019 h -11.3399 v 32.2578 h 11.3399 v 31.502 h -11.3399 v 32.2578 h 11.3399 v 31.5 h -11.3399 v 32.2578 h 11.3399 v 31.502 h -11.3399 v 32.2578 h 11.3399 v 31.5019 h -11.3399 v 32.2559 h 11.3399 v 31.5019 h -11.3399 v 32.2578 h 11.3399 v 31.502 h -11.3399 v 32.0684 h 30.0489 v 11.3379 h 30.6132 v -11.3379 h 29.8575 v 11.3379 h 30.6152 v -11.3379 h 29.8574 v 11.3379 h 30.6152 v -11.3379 -66.8575 a 18.897638,18.897638 0 0 1 -0.7148,-5.1308 18.897638,18.897638 0 0 1 18.8984,-18.8985 18.897638,18.897638 0 0 1 18.8184,17.295 h 0.793 v 84.9297 h 22.6777 v -11.3379 h 29.8574 v 11.3379 h 30.6153 v -11.3379 h 29.8574 v 11.3379 h 30.6133 v -11.3379 h 29.8593 v 11.3379 h 30.6133 v -11.3379 h 29.8594 v 11.3379 h 30.6133 v -11.3379 h 29.8594 v 11.3379 h 30.6132 v -11.3379 h 29.8594 v 11.3379 h 30.6133 v -11.3379 h 29.8574 v 11.3379 h 30.6152 v -11.3379 h 29.8575 v 11.3379 h 30.6152 v -11.3379 h 29.8574 v 11.3379 h 30.6153 v -11.3379 h 29.8574 v 11.3379 h 30.6152 v -11.3379 h 29.8574 v 11.3379 h 30.6133 v -11.3379 h 29.8594 v 11.3379 h 30.6133 v -11.3379 h 29.8593 v 11.3379 h 30.6133 v -11.3379 h 29.8594 v 11.3379 h 30.6133 v -11.3379 h 29.8574 v 11.3379 h 30.6152 v -11.3379 h 29.8575 v 11.3379 h 30.6152 v -11.3379 h 29.8574 v 11.3379 h 30.6153 v -11.3379 h 30.0468 v -32.0684 h -11.3379 v -31.502 h 11.3379 v -32.2578 h -11.3379 v -31.5019 h 11.3379 v -32.2559 h -11.3379 v -31.5019 h 11.3379 v -32.2578 h -11.3379 v -31.502 h 11.3379 v -32.2578 h -11.3379 v -31.5 h 11.3379 v -32.2578 h -11.3379 v -31.502 h 11.3379 v -32.2578 h -11.3379 v -31.5019 h 11.3379 v -32.2559 h -11.3379 v -31.5019 h 11.3379 v -32.2579 h -11.3379 v -31.5019 h 11.3379 v -32.2578 h -11.3379 v -31.5 h 11.3379 v -32.2578 h -11.3379 v -31.502 h 11.3379 v -32.0684 h -30.0468 v -11.3378 h -30.6153 v 11.3378 h -29.8574 v -11.3378 h -30.6152 v 11.3378 h -29.8575 v -11.3378 h -30.6152 v 11.3378 h -29.8574 v -11.3378 h -30.6133 v 11.3378 h -29.8594 v -11.3378 h -30.6133 v 11.3378 h -29.8593 v -11.3378 h -30.6133 v 11.3378 h -29.8594 v -11.3378 h -30.6133 v 11.3378 h -29.8574 v -11.3378 h -30.6152 v 11.3378 h -29.8574 v -11.3378 h -30.6153 v 11.3378 h -29.8574 v -11.3378 h -30.6152 v 11.3378 h -29.8575 v -11.3378 h -30.6152 v 11.3378 h -29.8574 v -11.3378 h -30.6133 v 11.3378 h -29.8594 v -11.3378 h -30.6132 v 11.3378 h -29.8594 v -11.3378 h -30.6133 v 11.3378 h -29.8594 v -11.3378 h -30.6133 v 11.3378 h -29.8593 v -11.3378 h -30.6133 v 11.3378 h -29.8574 v -11.3378 h -30.6153 v 11.3378 h -29.8574 v -11.3378 h -30.6152 v 11.3378 h -29.8575 v -11.3378 h -30.6152 v 11.3378 h -29.8574 v -11.3378 h -30.6152 v 11.3378 h -29.8575 v -11.3378 z m 869.6679,619.8418 h 249.4492 v 113.3867 h -249.4492 z"
       transform="scale(0.26458333)"
       id="Exterieur_back"
       inkscape:connector-curvature="0" />
    <path
       style="fill:none;stroke:#800000;stroke-width:0.37795275;stroke-miterlimit:4;stroke-dasharray:none"
       d="m 4291.4512,3574.375 v 11.3379 h -19.5489 v 31.6914 h -11.3398 v 32.2578 h 11.3398 v 31.502 h -11.3398 v 32.2558 h 11.3398 v 31.502 h -11.3398 v 32.2578 h 11.3398 v 31.5019 h -11.3398 v 32.2579 h 11.3398 v 31.5 h -11.3398 v 32.2578 h 11.3398 v 31.5019 h -11.3398 v 32.2578 h 11.3398 v 31.502 h -11.3398 v 32.2558 h 11.3398 v 31.502 h -11.3398 v 32.2578 h 11.3398 v 31.502 h -11.3398 v 32.2578 h 11.3398 v 31.5 h -11.3398 v 32.2578 h 11.3398 v 31.5019 h -11.3398 v 32.2579 h 11.3398 v 31.6894 h 19.5489 v 11.3398 h 31.4531 v -11.3398 h 30.6973 v 11.3398 h 31.455 v -11.3398 h 30.6973 v 11.3398 h 31.4551 v -11.3398 h 30.6972 v 11.3398 h 31.4551 v -11.3398 h 30.6973 v 11.3398 h 31.4551 v -11.3398 h 30.6972 v 11.3398 h 31.4551 v -11.3398 h 30.6973 v 11.3398 h 31.4551 v -11.3398 h 30.6972 v 11.3398 h 31.4551 v -11.3398 h 30.6973 v 11.3398 h 31.455 v -11.3398 h 30.6973 v 11.3398 h 31.4551 v -11.3398 h 30.6973 v 11.3398 h 31.4531 v -11.3398 h 30.6992 v 11.3398 h 31.4531 v -11.3398 h 30.6992 v 11.3398 h 31.4532 v -11.3398 h 30.6992 v 11.3398 h 31.4531 v -11.3398 h 30.6992 v 11.3398 h 31.4532 v -11.3398 h 30.6992 v 11.3398 h 31.4531 v -11.3398 h 30.6992 v 11.3398 h 31.4531 v -11.3398 h 30.6993 v 11.3398 h 31.4531 v -11.3398 h 8.2402 v -63.668 -0.5761 a 18.897638,18.897638 0 0 1 18.8789,-18.3223 18.897638,18.897638 0 0 1 18.8672,18.3223 h 0.037 v 0.5761 75.0078 h 16.1289 v -11.3398 h 30.6973 v 11.3398 h 31.4551 v -11.3398 h 30.6972 v 11.3398 h 31.4551 v -11.3398 h 30.6973 v 11.3398 h 31.4551 v -11.3398 h 19.5488 v -31.6894 h 11.3379 v -32.2579 h -11.3379 v -31.5019 h 11.3379 v -32.2578 h -11.3379 v -31.5 h 11.3379 v -32.2578 h -11.3379 v -31.502 h 11.3379 v -32.2578 h -11.3379 v -31.502 h 11.3379 v -32.2558 h -11.3379 v -31.502 h 11.3379 v -32.2578 h -11.3379 v -31.5019 h 11.3379 v -32.2578 h -11.3379 v -31.5 h 11.3379 v -32.2579 h -11.3379 v -31.5019 h 11.3379 v -32.2578 h -11.3379 v -31.502 h 11.3379 v -32.2558 h -11.3379 v -31.502 h 11.3379 v -32.2578 h -11.3379 v -31.6914 h -19.5488 v -11.3379 h -31.4551 v 11.3379 h -30.6973 v -11.3379 h -31.4551 v 11.3379 h -30.6972 v -11.3379 h -31.4551 v 11.3379 h -30.6973 v -11.3379 h -31.4531 v 11.3379 h -30.6992 v -11.3379 h -31.4531 v 11.3379 h -30.6993 v -11.3379 h -31.4531 v 11.3379 h -30.6992 v -11.3379 h -31.4531 v 11.3379 h -30.6992 v -11.3379 h -31.4532 v 11.3379 h -30.6992 v -11.3379 h -31.4531 v 11.3379 h -30.6992 v -11.3379 h -31.4532 v 11.3379 h -30.6992 v -11.3379 h -31.4531 v 11.3379 h -30.6992 v -11.3379 h -31.4531 v 11.3379 h -30.6973 v -11.3379 h -31.4551 v 11.3379 h -30.6973 v -11.3379 h -31.455 v 11.3379 h -30.6973 v -11.3379 h -31.4551 v 11.3379 h -30.6972 v -11.3379 h -31.4551 v 11.3379 h -30.6973 v -11.3379 h -31.4551 v 11.3379 h -30.6972 v -11.3379 h -31.4551 v 11.3379 h -30.6973 v -11.3379 h -31.4551 v 11.3379 h -30.6972 v -11.3379 h -31.4551 v 11.3379 h -30.6973 v -11.3379 h -31.455 v 11.3379 h -30.6973 v -11.3379 z m 248.3808,98.252 v 0 c 9.2531,-0.019 17.7796,4.7356 29.6231,16.5156 19.9177,19.8113 24.3731,23.8317 32.6465,29.4727 7.3326,4.9997 14.8396,8.1906 21.9863,9.3437 4.1401,0.6681 11.8158,0.3059 16.1933,-0.7636 2.3547,-0.5752 3.1197,-0.5791 4.6036,-0.021 2.55,0.9573 4.1952,3.5229 2.9004,4.5215 -0.223,0.1716 -0.4043,0.9781 -0.4043,1.791 0,1.1329 -0.8429,2.695 -3.6114,6.6953 -11.6817,16.8808 -21.9013,26.0474 -33.4531,30.0059 -3.8377,1.3151 -4.5083,1.3892 -12.7598,1.3847 -8.0488,0 -9.0482,-0.1083 -13.166,-1.3554 -7.4524,-2.2576 -15.1074,-4.2813 -20.8613,-5.5137 -4.515,-0.9671 -6.917,-1.169 -13.7734,-1.1641 -8.0168,0.01 -8.413,0.054 -11.4668,1.3965 -3.433,1.5088 -6.1754,3.7708 -7.5254,6.209 -0.8455,1.5267 -0.8567,1.8976 -0.8575,27.7949 0,19.2325 0.2271,32.1893 0.8477,48.4824 0.9695,25.4253 0.8911,45.0285 -0.2148,53.5332 -2.3263,17.8768 -6.8326,30.1187 -14.9219,40.5547 -10.5944,13.6672 -25.8866,22.0442 -48.7774,26.7168 -10.47,2.1373 -18.7275,2.6316 -28.0429,1.6777 h -0.01 c -19.9706,-2.0446 -34.4153,-11.9614 -39.8809,-27.3789 -1.1649,-3.2866 -2.6835,-10.4879 -2.6835,-12.7246 0,-0.864 -0.2087,-1.8346 -0.4668,-2.1543 -0.5968,-0.7446 -0.5685,-8.3713 0.037,-8.6211 0.2381,-0.098 0.4336,-0.9776 0.4336,-1.9531 0,-2.7583 1.533,-11.473 2.8554,-16.2344 6.7144,-24.1742 28.2777,-45.6805 53.7676,-53.625 18.0541,-5.6273 34.6017,-4.5377 54.1328,3.5625 2.6544,1.101 5.207,1.9343 5.6719,1.8516 l 0.8437,-0.1523 0.2051,-80.8575 0.2031,-80.8574 1.0137,-2.0996 c 0.5567,-1.155 1.9844,-3.0873 3.1739,-4.2949 9.4318,-9.5748 13.4093,-11.723 21.7382,-11.7402 z m 617.1426,14.289 v 0 c 9.253,-0.019 17.7815,4.7355 29.625,16.5156 19.9177,19.8112 24.3712,23.8317 32.6445,29.4726 7.3327,4.9998 14.8416,8.1906 21.9883,9.3438 4.1401,0.668 11.8136,0.3078 16.1914,-0.7617 2.3547,-0.5752 3.1217,-0.5801 4.6055,-0.023 2.55,0.9573 4.1953,3.5229 2.9004,4.5215 -0.223,0.1716 -0.4063,0.9782 -0.4063,1.791 0,1.133 -0.8428,2.6951 -3.6113,6.6954 -11.6818,16.8808 -21.9014,26.0491 -33.4531,30.0078 -3.8377,1.3149 -4.5083,1.3873 -12.7598,1.3828 -8.0489,0 -9.0482,-0.1067 -13.166,-1.3555 -7.4525,-2.2575 -15.1074,-4.2793 -20.8613,-5.5117 -4.515,-0.9671 -6.917,-1.171 -13.7735,-1.166 -8.0167,0.01 -8.4129,0.054 -11.4668,1.3965 -3.4329,1.5087 -6.1753,3.7708 -7.5254,6.2089 -0.8453,1.527 -0.8566,1.8976 -0.8574,27.795 -3e-4,19.2325 0.2271,32.1892 0.8477,48.4824 0.9694,25.4253 0.891,45.0285 -0.2149,53.5332 -2.3263,17.8768 -6.8306,30.1206 -14.9199,40.5566 -10.5944,13.6672 -25.8866,22.0422 -48.7773,26.7149 -10.4701,2.1373 -18.7295,2.6317 -28.0449,1.6777 h -0.01 c -19.9707,-2.0448 -34.4153,-11.9615 -39.8809,-27.3789 -1.1652,-3.2867 -2.6836,-10.4879 -2.6836,-12.7246 0,-0.864 -0.2086,-1.8325 -0.4668,-2.1523 -0.5967,-0.7446 -0.5667,-8.3713 0.039,-8.6211 0.2381,-0.098 0.4316,-0.9796 0.4316,-1.9551 0,-2.7583 1.5331,-11.473 2.8555,-16.2344 6.7143,-24.1743 28.2777,-45.6805 53.7676,-53.625 18.054,-5.6274 34.6017,-4.5378 54.1328,3.5625 2.6544,1.1009 5.207,1.9344 5.6719,1.8516 l 0.8437,-0.1524 0.2051,-80.8554 0.2031,-80.8594 1.0137,-2.0996 c 0.5567,-1.155 1.9844,-3.0874 3.1738,-4.295 9.4322,-9.5748 13.4094,-11.7231 21.7383,-11.7402 z m -342.2402,179.7871 v 0 c 0.1171,0 0.2128,33.8773 0.209,75.2813 0,73.1123 -0.039,75.3483 -0.6192,77.7109 -2.7549,10.9304 -14.456,20.9034 -27.2168,23.1953 -10.2429,1.8399 -18.9191,-2.3932 -21.375,-10.4277 -0.4486,-1.4676 -0.7907,-5.196 -0.3965,-4.3203 0.2495,0.5582 0.2898,0.5184 0.3125,-0.3203 0.087,-2.9756 2.5521,-9.3787 4.7461,-12.3203 1.6343,-2.1906 5.7121,-6.1907 8.3574,-8.1973 3.258,-2.4714 8.8264,-5.2484 12.5137,-6.2383 3.4424,-0.9241 9.4206,-0.9758 13.1211,-0.1133 1.3202,0.3062 2.7845,0.5765 3.2539,0.5957 0.4694,0 0.8279,0.1779 0.7988,0.3555 -0.038,0.1739 0.2078,0.2755 0.5313,0.2188 0.3666,-0.061 0.6472,0.1347 0.75,0.5292 0.2192,0.8322 1.3197,1.1185 1.6289,0.4219 0.1285,-0.291 0.1635,-26.8329 0.076,-58.9804 -0.087,-32.1472 -0.052,-58.384 0.08,-58.3028 0.1323,0.083 0.2382,-0.076 0.2382,-0.3515 0,-0.2759 -0.2159,-0.4981 -0.4804,-0.4981 -0.2646,0 -0.4805,-0.2161 -0.4805,-0.4805 0,-0.2646 -0.079,-0.4804 -0.1738,-0.4804 -0.095,0 -7.8355,1.4492 -17.1993,3.2187 -9.3636,1.7696 -18.1059,3.4196 -19.4257,3.666 -5.596,1.0451 -13.1833,2.4826 -21.1192,4.002 -11.828,2.2647 -25.4005,4.8399 -36.3203,6.8926 -5.1039,0.9596 -9.4581,1.8101 -9.6758,1.8906 -0.3137,0.1172 -0.4139,14.489 -0.4804,68.0801 l -0.082,67.9316 -0.8418,2.2578 c -1.0768,2.8952 -1.6309,3.9569 -3.498,6.7012 -5.9879,8.8025 -17.9076,15.2428 -28.0957,15.1797 -1.8826,0 -4.1936,-0.2316 -5.166,-0.4863 -5.7525,-1.5179 -10.0114,-5.4362 -11.541,-10.6172 -0.4719,-1.5988 -5e-4,-5.5509 1.0566,-9.0371 3.0633,-10.0109 14.2956,-19.7169 25.7695,-22.2696 3.4726,-0.7725 10.5401,-0.4906 13.6739,0.545 1.2322,0.407 2.5278,0.7451 2.8789,0.7519 0.3515,0 0.6411,0.1544 0.6445,0.332 0.038,1.0485 1.5165,1.5673 1.8691,0.6485 0.2948,-31.6706 0.1289,-65.3017 0.1289,-95.4102 0.057,-30.1493 -6e-4,-38.8379 -0.3105,-38.8379 -0.2117,0 -0.075,-0.2167 0.3027,-0.4824 0.378,-0.2645 3.3974,-0.9908 6.711,-1.6152 3.3131,-0.6244 9.7698,-1.8575 14.3457,-2.7403 4.5762,-0.8833 9.3985,-1.8013 10.7187,-2.041 1.3198,-0.2381 6.5779,-1.2314 11.6817,-2.2031 8.6155,-1.6399 20.6063,-3.9184 44,-8.3594 5.192,-0.9857 12.4434,-2.3539 16.1171,-3.041 4.026,-0.7532 6.8974,-1.4463 7.2266,-1.7441 0.2986,-0.2721 0.6415,-0.4942 0.7598,-0.4942 z m 715.0058,0.01 c 0.1172,0 0.2128,33.8769 0.209,75.2813 0,73.1123 -0.039,75.3483 -0.6191,77.7109 -2.7549,10.9304 -14.456,20.9034 -27.2168,23.1953 -10.2429,1.8399 -18.9191,-2.3932 -21.375,-10.4277 -0.4486,-1.4676 -0.7907,-5.196 -0.3965,-4.3203 0.2494,0.5582 0.2898,0.5184 0.3125,-0.3203 0.087,-2.9756 2.5521,-9.3787 4.7461,-12.3203 1.6343,-2.1906 5.7121,-6.1907 8.3574,-8.1973 3.258,-2.4714 8.8264,-5.2484 12.5137,-6.2383 3.4424,-0.9241 9.4205,-0.9758 13.1211,-0.1133 1.3202,0.3062 2.7845,0.5765 3.2539,0.5957 0.4694,0 0.8279,0.1779 0.7988,0.3555 -0.038,0.1739 0.2077,0.2755 0.5313,0.2188 0.3666,-0.061 0.6472,0.1347 0.75,0.5293 0.2192,0.8322 1.3197,1.1184 1.6289,0.4218 0.1285,-0.291 0.1631,-26.8329 0.076,-58.9804 -0.087,-32.1476 -0.052,-58.384 0.08,-58.3028 0.1323,0.083 0.2383,-0.076 0.2383,-0.3515 0,-0.2759 -0.2159,-0.4981 -0.4805,-0.4981 -0.2645,0 -0.4804,-0.2159 -0.4804,-0.4804 0,-0.2646 -0.079,-0.4805 -0.1739,-0.4805 -0.095,0 -7.8354,1.4492 -17.1992,3.2187 -9.3638,1.7696 -18.106,3.4177 -19.4258,3.6641 -5.5959,1.045 -13.1832,2.4845 -21.1191,4.0039 -11.828,2.2647 -25.4005,4.8399 -36.3203,6.8926 -5.1039,0.9596 -9.4581,1.8101 -9.6758,1.8906 -0.3137,0.1172 -0.4139,14.4886 -0.4805,68.0801 l -0.082,67.9316 -0.8418,2.2578 c -1.0768,2.8952 -1.631,3.9569 -3.498,6.7012 -5.9879,8.8025 -17.9077,15.2428 -28.0957,15.1797 -1.8826,0 -4.1936,-0.2316 -5.1661,-0.4863 v 0 c -5.7524,-1.5179 -10.0114,-5.4362 -11.541,-10.6172 -0.472,-1.5988 -5e-4,-5.5509 1.0567,-9.0371 3.0633,-10.0109 14.2956,-19.7169 25.7695,-22.2696 3.4726,-0.7725 10.5398,-0.4906 13.6738,0.545 1.2321,0.407 2.5278,0.7451 2.8789,0.7519 0.3515,0 0.6412,0.1544 0.6446,0.332 0.038,1.0485 1.5165,1.5673 1.8691,0.6485 0.2948,-31.6706 0.1289,-65.3017 0.1289,-95.4102 0.057,-30.1496 -6e-4,-38.8379 -0.3105,-38.8379 -0.2117,0 -0.075,-0.2167 0.3027,-0.4824 0.3779,-0.2645 3.3974,-0.9908 6.7109,-1.6152 3.3132,-0.6244 9.7699,-1.8574 14.3457,-2.7402 4.5763,-0.8833 9.3986,-1.8014 10.7188,-2.0411 1.3198,-0.2381 6.5777,-1.2314 11.6816,-2.2031 8.6155,-1.6399 20.6063,-3.9184 44,-8.3594 5.192,-0.9857 12.4435,-2.3539 16.1172,-3.041 4.026,-0.7532 6.8974,-1.4463 7.2266,-1.7441 0.2986,-0.2721 0.6414,-0.4942 0.7597,-0.4942 z"
       transform="scale(0.26458333)"
       id="Exterieur_left_side"
       inkscape:connector-curvature="0" />
    <path
       style="fill:none;stroke:#800000;stroke-width:0.37795275;stroke-miterlimit:4;stroke-dasharray:none"
       d="m 2881.6875,3574.375 v 11.3379 h -19.5488 v 31.6914 h -11.3399 v 32.2578 h 11.3399 v 31.502 h -11.3399 v 32.2558 h 11.3399 v 31.502 h -11.3399 v 32.2578 h 11.3399 v 31.5019 h -11.3399 v 32.2579 h 11.3399 v 31.5 h -11.3399 v 32.2578 h 11.3399 v 31.5019 h -11.3399 v 32.2578 h 11.3399 v 31.502 h -11.3399 v 32.2558 h 11.3399 v 31.502 h -11.3399 v 32.2578 h 11.3399 v 31.502 h -11.3399 v 32.2578 h 11.3399 v 31.5 h -11.3399 v 32.2578 h 11.3399 v 31.5019 h -11.3399 v 32.2579 h 11.3399 v 31.6894 h 19.5488 v 11.3398 h 31.4531 v -11.3398 h 30.6973 v 11.3398 h 31.4551 v -11.3398 h 30.6972 v 11.3398 h 31.4551 v -11.3398 h 30.6973 v 11.3398 h 31.4551 v -11.3398 h 30.6972 v 11.3398 h 31.4551 v -11.3398 h 30.6973 v 11.3398 h 31.455 v -11.3398 h 30.6973 v 11.3398 h 31.4551 v -11.3398 h 30.6973 v 11.3398 h 31.455 v -11.3398 h 30.6973 v 11.3398 h 31.4551 v -11.3398 h 30.6972 v 11.3398 h 31.4551 v -11.3398 h 30.6973 v 11.3398 h 31.4531 v -11.3398 h 30.6992 v 11.3398 h 31.4532 v -11.3398 h 30.6992 v 11.3398 h 31.4531 v -11.3398 h 30.6992 v 11.3398 h 31.4531 v -11.3398 h 30.6993 v 11.3398 h 31.4531 v -11.3398 h 30.6992 v 11.3398 h 31.4531 v -11.3398 h 30.6992 v 11.3398 h 31.4532 v -11.3398 h 30.6992 v 11.3398 h 31.4531 v -11.3398 h 30.6992 v 11.3398 h 31.4532 v -11.3398 h 30.6972 v 11.3398 h 31.4551 v -11.3398 h 30.6973 v 11.3398 h 31.455 v -11.3398 h 30.6973 v 11.3398 h 31.4551 v -11.3398 h 19.5488 v -31.6894 h 11.3379 v -32.2579 h -11.3379 v -31.5019 h 11.3379 v -32.2578 h -11.3379 v -31.5 h 11.3379 v -32.2578 h -11.3379 v -31.502 h 11.3379 v -32.2578 h -11.3379 v -31.502 h 11.3379 v -32.2558 h -11.3379 v -31.502 h 11.3379 v -32.2578 h -11.3379 v -31.5019 h 11.3379 v -32.2578 h -11.3379 v -31.5 h 11.3379 v -32.2579 h -11.3379 v -31.5019 h 11.3379 v -32.2578 h -11.3379 v -31.502 h 11.3379 v -32.2558 h -11.3379 v -31.502 h 11.3379 v -32.2578 h -11.3379 v -31.6914 h -19.5488 v -11.3379 h -31.4551 v 11.3379 h -30.6973 v -11.3379 h -31.455 v 11.3379 h -30.6973 v -11.3379 h -31.4551 v 11.3379 h -30.6972 v -11.3379 h -31.4532 v 11.3379 h -30.6992 v -11.3379 h -31.4531 v 11.3379 h -30.6992 v -11.3379 h -31.4532 v 11.3379 h -30.6992 v -11.3379 h -31.4531 v 11.3379 h -30.6992 v -11.3379 h -31.4531 v 11.3379 h -30.6993 v -11.3379 h -31.4531 v 11.3379 h -30.6992 v -11.3379 h -31.4531 v 11.3379 h -30.6992 v -11.3379 h -31.4532 v 11.3379 h -30.6992 v -11.3379 h -31.4531 v 11.3379 h -30.6973 v -11.3379 h -31.4551 v 11.3379 h -30.6972 v -11.3379 h -31.4551 v 11.3379 h -30.6973 v -11.3379 h -31.455 v 11.3379 h -30.6973 v -11.3379 h -31.4551 v 11.3379 h -30.6973 v -11.3379 h -31.455 v 11.3379 H 3161.75 v -11.3379 h -31.4551 v 11.3379 h -30.6972 v -11.3379 h -31.4551 v 11.3379 h -30.6973 v -11.3379 h -31.4551 v 11.3379 h -30.6972 v -11.3379 h -31.4551 v 11.3379 h -30.6973 v -11.3379 z m 235.8496,90.1719 v 0 c 9.253,-0.019 17.7815,4.7336 29.625,16.5137 19.9177,19.8112 24.3712,23.8336 32.6445,29.4746 7.3327,4.9997 14.8416,8.1886 21.9883,9.3418 4.1401,0.668 11.8136,0.3078 16.1914,-0.7617 2.3547,-0.5752 3.1197,-0.5808 4.6035,-0.023 2.5501,0.9571 4.1973,3.5229 2.9024,4.5214 -0.223,0.1716 -0.4063,0.9782 -0.4063,1.791 0,1.1329 -0.8428,2.6951 -3.6113,6.6954 -11.6818,16.8808 -21.9014,26.0493 -33.4531,30.0078 -3.8377,1.3151 -4.5083,1.3873 -12.7598,1.3828 -8.0489,0 -9.0482,-0.1063 -13.166,-1.3535 -7.4525,-2.2576 -15.1074,-4.2813 -20.8613,-5.5137 -4.515,-0.9671 -6.917,-1.171 -13.7735,-1.166 -8.0167,0.01 -8.4129,0.054 -11.4668,1.3965 -3.4329,1.5087 -6.1756,3.7707 -7.5253,6.209 -0.8455,1.5267 -0.8567,1.8977 -0.8575,27.7949 -3e-4,19.2325 0.2271,32.1892 0.8477,48.4824 0.9694,25.4252 0.891,45.0285 -0.2149,53.5332 -2.3263,17.8768 -6.8306,30.1206 -14.9199,40.5566 -10.5944,13.6672 -25.8866,22.0423 -48.7773,26.7149 -10.4701,2.1373 -18.7295,2.6317 -28.0449,1.6777 h -0.01 c -19.9707,-2.0447 -34.4153,-11.9615 -39.8809,-27.3789 -1.1652,-3.2867 -2.6836,-10.4879 -2.6836,-12.7246 0,-0.864 -0.2086,-1.8325 -0.4668,-2.1523 -0.5967,-0.7445 -0.5665,-8.3712 0.039,-8.6211 0.2381,-0.098 0.4316,-0.9796 0.4316,-1.9551 0,-2.7583 1.5331,-11.473 2.8555,-16.2344 6.7143,-24.1743 28.2777,-45.6805 53.7676,-53.625 18.054,-5.6274 34.6017,-4.5378 54.1328,3.5625 2.6544,1.1009 5.207,1.9344 5.6719,1.8516 l 0.8437,-0.1524 0.2051,-80.8554 0.2031,-80.8575 1.0137,-2.1015 c 0.5567,-1.1549 1.9844,-3.0873 3.1738,-4.2949 9.4322,-9.5749 13.4094,-11.7211 21.7383,-11.7383 z m 617.1426,14.289 v 0 c 9.253,-0.019 17.7815,4.7355 29.625,16.5156 19.9176,19.8112 24.3711,23.8317 32.6445,29.4727 7.3327,4.9997 14.8416,8.1906 21.9883,9.3437 4.1401,0.6681 11.8136,0.3058 16.1914,-0.7637 2.3547,-0.575 3.1216,-0.5799 4.6055,-0.023 2.55,0.9573 4.1952,3.525 2.9004,4.5234 -0.223,0.1716 -0.4063,0.9762 -0.4063,1.7891 0,1.133 -0.8428,2.697 -3.6113,6.6973 -11.6818,16.8808 -21.9014,26.0472 -33.4531,30.0058 -3.8378,1.3149 -4.5083,1.3874 -12.7598,1.3828 -8.0489,0 -9.0483,-0.1047 -13.166,-1.3535 -7.4525,-2.2575 -15.1074,-4.2812 -20.8613,-5.5136 -4.5151,-0.9671 -6.917,-1.171 -13.7735,-1.1661 -8.0167,0.01 -8.4129,0.054 -11.4668,1.3965 -3.4329,1.5088 -6.1753,3.7708 -7.5254,6.209 -0.8455,1.5269 -0.8566,1.8978 -0.8574,27.7949 -4e-4,19.2325 0.2271,32.1912 0.8477,48.4844 0.9694,25.4253 0.891,45.0266 -0.2149,53.5313 -2.3263,17.8767 -6.8306,30.1206 -14.9199,40.5566 -10.5944,13.6672 -25.8866,22.0442 -48.7773,26.7168 -10.4701,2.1373 -18.7296,2.6297 -28.045,1.6758 h -0.01 c -19.9707,-2.0447 -34.4153,-11.9614 -39.8809,-27.3789 -1.1652,-3.2866 -2.6836,-10.4879 -2.6836,-12.7246 0,-0.864 -0.2086,-1.8327 -0.4668,-2.1524 -0.5968,-0.7446 -0.5667,-8.3713 0.039,-8.6211 0.2381,-0.098 0.4316,-0.9796 0.4316,-1.9551 0,-2.7582 1.533,-11.471 2.8555,-16.2324 6.7143,-24.1743 28.2777,-45.6805 53.7676,-53.625 18.054,-5.6274 34.6017,-4.5397 54.1328,3.5606 2.6543,1.101 5.207,1.9343 5.6719,1.8515 l 0.8437,-0.1504 0.2051,-80.8574 0.2031,-80.8574 1.0137,-2.0996 c 0.5567,-1.1549 1.9863,-3.0894 3.1758,-4.2969 9.4321,-9.5749 13.4073,-11.7212 21.7363,-11.7383 z m -342.2559,179.7911 v 0 c 0.1172,0 0.2128,33.8753 0.209,75.2793 0,73.1123 -0.037,75.3504 -0.6172,77.7129 -2.7549,10.9304 -14.4579,20.9015 -27.2187,23.1934 -10.2429,1.8399 -18.9191,-2.3913 -21.375,-10.4258 -0.4486,-1.4676 -0.7907,-5.196 -0.3965,-4.3203 0.2495,0.5582 0.2898,0.5164 0.3125,-0.3223 0.087,-2.9756 2.5521,-9.3787 4.7461,-12.3203 1.6343,-2.1906 5.7121,-6.1908 8.3574,-8.1973 3.258,-2.4715 8.8283,-5.2464 12.5156,-6.2363 3.4424,-0.9241 9.4186,-0.9758 13.1192,-0.1133 1.3202,0.3061 2.7845,0.5745 3.2539,0.5938 0.4694,0 0.8279,0.1777 0.7988,0.3554 -0.038,0.1738 0.2077,0.2755 0.5313,0.2188 0.3666,-0.06 0.6472,0.1366 0.75,0.5312 0.2192,0.8322 1.3217,1.1165 1.6308,0.4199 0.1285,-0.291 0.1616,-26.8328 0.074,-58.9804 -0.087,-32.1471 -0.052,-58.3821 0.08,-58.3008 0.1323,0.083 0.2383,-0.076 0.2383,-0.3516 0,-0.2759 -0.2159,-0.5 -0.4805,-0.5 -0.2645,0 -0.4804,-0.214 -0.4804,-0.4785 0,-0.2646 -0.079,-0.4804 -0.1739,-0.4805 -0.094,0 -7.8354,1.4472 -17.1992,3.2168 -9.3638,1.7696 -18.1059,3.4197 -19.4258,3.6661 -5.5959,1.0451 -13.1832,2.4825 -21.1191,4.0019 -11.828,2.2647 -25.4005,4.8418 -36.3203,6.8945 -5.1039,0.9596 -9.4581,1.8102 -9.6758,1.8907 -0.3137,0.1172 -0.4139,14.4872 -0.4805,68.0781 l -0.082,67.9316 -0.8418,2.2579 c -1.0768,2.895 -1.629,3.9568 -3.4961,6.7011 -5.9879,8.8025 -17.9095,15.2428 -28.0976,15.1797 -1.8826,0 -4.1916,-0.2297 -5.1641,-0.4844 h -0.01 c -5.7524,-1.5178 -10.0114,-5.4342 -11.541,-10.6152 -0.472,-1.5987 -5e-4,-5.5528 1.0566,-9.0391 3.0633,-10.0108 14.2957,-19.7168 25.7696,-22.2695 3.4726,-0.7725 10.5398,-0.4907 13.6738,0.5449 1.2321,0.4071 2.5278,0.7452 2.8789,0.752 0.3515,0 0.6411,0.1563 0.6445,0.334 0.038,1.0484 1.5166,1.5652 1.8692,0.6465 0.2948,-31.6706 0.1289,-65.2999 0.1289,-95.4083 0.057,-30.1493 0,-38.8398 -0.3086,-38.8398 -0.2116,0 -0.077,-0.2148 0.3008,-0.4805 0.3779,-0.2645 3.3994,-0.9929 6.7129,-1.6172 3.3131,-0.6244 9.7679,-1.8573 14.3437,-2.7402 4.5763,-0.8833 9.4005,-1.8015 10.7207,-2.041 1.3198,-0.2381 6.5759,-1.2295 11.6797,-2.2012 8.6155,-1.6399 20.6063,-3.9185 44,-8.3594 5.192,-0.9856 12.4455,-2.3538 16.1192,-3.041 4.0259,-0.7532 6.8954,-1.4463 7.2246,-1.7441 0.2986,-0.2721 0.6414,-0.4941 0.7597,-0.4941 z m 715.0215,0 c 0.1172,0 0.2128,33.8769 0.209,75.2813 0,73.1123 -0.039,75.3503 -0.6191,77.7128 -2.7549,10.9304 -14.456,20.9015 -27.2168,23.1934 -10.2429,1.8399 -18.9191,-2.3913 -21.375,-10.4258 -0.4487,-1.4676 -0.7907,-5.196 -0.3965,-4.3203 0.2494,0.5582 0.2898,0.5164 0.3125,-0.3223 0.087,-2.9756 2.5521,-9.3787 4.7461,-12.3203 1.6342,-2.1906 5.7121,-6.1907 8.3574,-8.1972 3.2579,-2.4715 8.8283,-5.2465 12.5156,-6.2364 3.4424,-0.9241 9.4186,-0.9757 13.1192,-0.1132 1.3201,0.3061 2.7844,0.5744 3.2539,0.5937 0.4694,0 0.8279,0.1778 0.7988,0.3555 -0.038,0.1738 0.2077,0.2754 0.5312,0.2187 0.3667,-0.06 0.6472,0.1367 0.75,0.5313 0.2193,0.8322 1.3217,1.1165 1.6309,0.4199 0.1285,-0.291 0.1611,-26.8329 0.074,-58.9805 -0.087,-32.1475 -0.052,-58.382 0.08,-58.3007 0.1323,0.083 0.2383,-0.076 0.2383,-0.3516 0,-0.2759 -0.2159,-0.5 -0.4805,-0.5 -0.2646,0 -0.4805,-0.2159 -0.4805,-0.4805 0,-0.2645 -0.079,-0.4785 -0.1738,-0.4785 -0.095,0 -7.8354,1.4472 -17.1992,3.2168 -9.3638,1.7696 -18.106,3.4196 -19.4258,3.666 -5.596,1.0451 -13.1833,2.4826 -21.1191,4.002 -11.8281,2.2647 -25.4005,4.8399 -36.3203,6.8925 -5.1039,0.9597 -9.4581,1.8121 -9.6758,1.8926 -0.3137,0.1172 -0.414,14.4867 -0.4805,68.0781 l -0.082,67.9317 -0.8418,2.2578 c -1.0768,2.8951 -1.631,3.9569 -3.4981,6.7012 -5.9879,8.8025 -17.9076,15.2428 -28.0957,15.1797 -1.8826,0 -4.1935,-0.2297 -5.166,-0.4844 v 0 c -5.7524,-1.5178 -10.0114,-5.4342 -11.541,-10.6152 -0.4721,-1.5987 -5e-4,-5.5528 1.0566,-9.0391 3.0633,-10.0108 14.2957,-19.7168 25.7696,-22.2695 3.4726,-0.7725 10.5398,-0.4907 13.6738,0.5449 1.2321,0.4071 2.5278,0.7452 2.8789,0.752 0.3515,0 0.6411,0.1563 0.6445,0.334 0.038,1.0484 1.5165,1.5653 1.8692,0.6465 0.2948,-31.6706 0.1289,-65.2998 0.1289,-95.4082 0.057,-30.1497 0,-38.8399 -0.3086,-38.8399 -0.2117,0 -0.077,-0.2148 0.3008,-0.4805 0.3779,-0.2645 3.3993,-0.9928 6.7129,-1.6171 3.3131,-0.6244 9.7678,-1.8574 14.3437,-2.7403 4.5763,-0.8833 9.3986,-1.8014 10.7188,-2.041 1.3198,-0.2381 6.5777,-1.2314 11.6816,-2.2031 8.6154,-1.64 20.6062,-3.9165 44,-8.3574 5.1919,-0.9857 12.4454,-2.3559 16.1191,-3.043 4.026,-0.7533 6.8955,-1.4444 7.2246,-1.7422 0.2986,-0.2721 0.6415,-0.4961 0.7598,-0.4961 z m -210.7637,340.2949 a 22.677165,22.677165 0 0 1 22.6758,22.6778 22.677165,22.677165 0 0 1 -22.6758,22.6757 22.677165,22.677165 0 0 1 -22.6777,-22.6757 22.677165,22.677165 0 0 1 22.6777,-22.6778 z"
       transform="scale(0.26458333)"
       id="Exterieur_right_side"
       inkscape:connector-curvature="0" />
    <g
       id="g909"
       transform="translate(0,-1.5874677)"
       style="stroke:#800000;stroke-width:0.1;stroke-miterlimit:4;stroke-dasharray:none">
      <circle
         r="10"
         cy="818.33197"
         cx="816.08484"
         id="path885"
         style="opacity:1;fill:none;fill-opacity:1;stroke:#800000;stroke-width:0.1;stroke-miterlimit:4;stroke-dasharray:none;stroke-opacity:1" />
      <circle
         style="opacity:1;fill:none;fill-opacity:1;stroke:#800000;stroke-width:0.1;stroke-miterlimit:4;stroke-dasharray:none;stroke-opacity:1"
         id="circle887"
         cx="849.34686"
         cy="818.33197"
         r="10" />
      <circle
         r="10"
         cy="818.33197"
         cx="882.60883"
         id="circle889"
         style="opacity:1;fill:none;fill-opacity:1;stroke:#800000;stroke-width:0.1;stroke-miterlimit:4;stroke-dasharray:none;stroke-opacity:1" />
      <circle
         style="opacity:1;fill:none;fill-opacity:1;stroke:#800000;stroke-width:0.1;stroke-miterlimit:4;stroke-dasharray:none;stroke-opacity:1"
         id="circle891"
         cx="915.87091"
         cy="818.33197"
         r="10" />
      <circle
         r="10"
         cy="818.33197"
         cx="949.13281"
         id="circle893"
         style="opacity:1;fill:none;fill-opacity:1;stroke:#800000;stroke-width:0.1;stroke-miterlimit:4;stroke-dasharray:none;stroke-opacity:1" />
      <circle
         style="opacity:1;fill:none;fill-opacity:1;stroke:#800000;stroke-width:0.1;stroke-miterlimit:4;stroke-dasharray:none;stroke-opacity:1"
         id="circle895"
         cx="1015.6569"
         cy="818.33197"
         r="10" />
      <circle
         r="10"
         cy="818.33197"
         cx="982.39484"
         id="circle897"
         style="opacity:1;fill:none;fill-opacity:1;stroke:#800000;stroke-width:0.1;stroke-miterlimit:4;stroke-dasharray:none;stroke-opacity:1" />
      <circle
         style="opacity:1;fill:none;fill-opacity:1;stroke:#800000;stroke-width:0.1;stroke-miterlimit:4;stroke-dasharray:none;stroke-opacity:1"
         id="circle899"
         cx="1048.9188"
         cy="818.33197"
         r="10" />
    </g>
    <circle
       style="opacity:1;fill:none;fill-opacity:1;stroke:#800000;stroke-width:0.1;stroke-miterlimit:4;stroke-dasharray:none;stroke-opacity:1"
       id="circle913"
       cx="849.34686"
       cy="853.78613"
       r="10" />
    <circle
       r="10"
       cy="853.78613"
       cx="882.60883"
       id="circle915"
       style="opacity:1;fill:none;fill-opacity:1;stroke:#800000;stroke-width:0.1;stroke-miterlimit:4;stroke-dasharray:none;stroke-opacity:1" />
    <circle
       style="opacity:1;fill:none;fill-opacity:1;stroke:#800000;stroke-width:0.1;stroke-miterlimit:4;stroke-dasharray:none;stroke-opacity:1"
       id="circle917"
       cx="915.87091"
       cy="853.78613"
       r="10" />
    <circle
       r="10"
       cy="853.78613"
       cx="949.13281"
       id="circle919"
       style="opacity:1;fill:none;fill-opacity:1;stroke:#800000;stroke-width:0.1;stroke-miterlimit:4;stroke-dasharray:none;stroke-opacity:1" />
    <circle
       style="opacity:1;fill:none;fill-opacity:1;stroke:#800000;stroke-width:0.1;stroke-miterlimit:4;stroke-dasharray:none;stroke-opacity:1"
       id="circle921"
       cx="1015.6569"
       cy="853.78613"
       r="10" />
    <circle
       r="10"
       cy="853.78613"
       cx="982.39484"
       id="circle923"
       style="opacity:1;fill:none;fill-opacity:1;stroke:#800000;stroke-width:0.1;stroke-miterlimit:4;stroke-dasharray:none;stroke-opacity:1" />
    <circle
       r="10"
       cy="779.70282"
       cx="849.34686"
       id="circle931"
       style="opacity:1;fill:none;fill-opacity:1;stroke:#800000;stroke-width:0.1;stroke-miterlimit:4;stroke-dasharray:none;stroke-opacity:1" />
    <circle
       style="opacity:1;fill:none;fill-opacity:1;stroke:#800000;stroke-width:0.1;stroke-miterlimit:4;stroke-dasharray:none;stroke-opacity:1"
       id="circle933"
       cx="882.60883"
       cy="779.70282"
       r="10" />
    <circle
       r="10"
       cy="779.70282"
       cx="915.87091"
       id="circle935"
       style="opacity:1;fill:none;fill-opacity:1;stroke:#800000;stroke-width:0.1;stroke-miterlimit:4;stroke-dasharray:none;stroke-opacity:1" />
    <circle
       style="opacity:1;fill:none;fill-opacity:1;stroke:#800000;stroke-width:0.1;stroke-miterlimit:4;stroke-dasharray:none;stroke-opacity:1"
       id="circle937"
       cx="949.13281"
       cy="779.70282"
       r="10" />
    <circle
       r="10"
       cy="779.70282"
       cx="1015.6569"
       id="circle939"
       style="opacity:1;fill:none;fill-opacity:1;stroke:#800000;stroke-width:0.1;stroke-miterlimit:4;stroke-dasharray:none;stroke-opacity:1" />
    <circle
       style="opacity:1;fill:none;fill-opacity:1;stroke:#800000;stroke-width:0.1;stroke-miterlimit:4;stroke-dasharray:none;stroke-opacity:1"
       id="circle941"
       cx="982.39484"
       cy="779.70282"
       r="10" />
    <path
       inkscape:connector-curvature="0"
       id="path1178"
       d="m 1321.6984,638.92416 c -3.2456,-1.35229 -5.5558,-3.40957 -7.1429,-6.36225 -1.1551,-2.14839 -1.2818,-2.89679 -1.2818,-7.57897 0,-4.53093 0.1467,-5.48381 1.1699,-7.45241 1.59,-3.06779 5.1867,-5.93425 8.5348,-6.80179 7.9569,-2.06173 15.7591,0.74639 18.8975,6.80179 1.0197,1.9686 1.1698,2.92148 1.1698,7.45241 0,5.95705 -0.8305,8.21217 -4.1183,11.18474 -2.9631,2.67916 -5.1574,3.45593 -10.2719,3.63664 -3.9126,0.13806 -4.774,0.0307 -6.9571,-0.88016 z m -135.3947,-0.11378 c -0.1698,-0.38146 -0.3047,-6.69344 -0.3047,-14.0263 0,-14.69804 -0.059,-14.48656 3.0687,-14.22572 l 1.645,0.13755 0.2462,12.33862 0.2461,12.33863 7.048,0.21629 c 4.2442,0.13039 7.2694,0.41061 7.6059,0.70488 0.3047,0.26846 0.4864,1.04795 0.3926,1.73176 l -0.1641,1.24332 -9.7432,0.1171 c -8.5589,0.1028 -9.7796,0.0306 -10.0481,-0.57659 z m 21.0314,0.0521 c 0,-0.90256 11.2572,-27.04812 11.9668,-27.79447 0.8574,-0.90139 4.7601,-0.76603 5.3437,0.1851 0.4689,0.76011 4.974,11.23889 9.2814,21.57715 1.2032,2.88744 2.1878,5.56619 2.1878,5.95287 0,1.04819 -4.2249,0.9991 -4.7049,-0.0547 -0.1876,-0.41674 -0.9113,-2.12139 -1.6047,-3.7882 -0.6926,-1.66677 -1.5102,-3.17368 -1.8166,-3.34862 -0.9846,-0.56205 -12.1145,-0.39014 -12.5606,0.19431 -0.2227,0.28892 -1.0777,2.09114 -1.9035,4.00461 l -1.502,3.47911 -2.3436,0.13192 c -1.8515,0.1043 -2.3438,-0.0104 -2.3438,-0.53925 z m 32.4784,0.0789 c -0.1349,-0.29964 -0.1817,-6.77749 -0.1111,-14.39507 l 0.1284,-13.85014 2.1457,-0.13449 c 1.1798,-0.0741 2.4538,0.0889 2.8312,0.36204 0.3751,0.27304 3.8774,5.30172 7.7788,11.17455 l 7.0925,10.67784 0.1348,-10.57199 c 0.088,-6.91203 0.3223,-10.77142 0.6811,-11.14808 0.8374,-0.88067 3.2824,-0.71607 3.882,0.2613 0.5568,0.90538 0.7314,25.46804 0.1933,27.21503 -0.2754,0.90563 -0.545,0.98264 -3.0351,0.86589 l -2.73,-0.12833 -6.8721,-10.3601 c -3.7794,-5.69802 -7.1001,-10.55881 -7.3784,-10.8017 -0.3458,-0.30015 -0.5041,2.83252 -0.5041,9.78352 0,5.62381 -0.1348,10.53329 -0.2988,10.90994 -0.3633,0.83282 -3.5844,0.94709 -3.9396,0.1401 z m 31.3893,0.27664 c -0.1934,-0.17027 -0.3516,-6.58758 -0.3516,-14.26111 0,-15.41417 -0.211,-14.47745 3.2304,-14.47745 0.913,0 1.9557,0.25772 2.316,0.5729 0.3634,0.315 3.7784,5.28306 7.5943,11.03983 3.8163,5.75681 7.1059,10.46691 7.3104,10.46691 0.2052,0 0.4337,-4.91923 0.5041,-10.93162 l 0.1348,-10.93157 1.5307,-0.13039 c 0.8815,-0.0752 1.7794,0.13039 2.1157,0.48475 0.4279,0.45049 0.551,4.30736 0.4513,14.41717 l -0.1284,13.80213 h -2.7217 c -3.2256,0 -2.4039,0.92159 -11.6678,-13.08012 l -5.9544,-8.99953 -0.2461,11.03982 -0.2462,11.03983 -1.754,0.12885 c -0.9654,0.0711 -1.9141,-0.0104 -2.1093,-0.1805 z m 31.7136,-0.39475 c -0.17,-0.38862 -0.3106,-6.70668 -0.3106,-14.03955 0,-14.69804 -0.059,-14.48655 3.0692,-14.22571 l 1.645,0.13754 v 14.28683 14.28683 l -2.0459,0.13038 c -1.5296,0.0977 -2.1245,-0.046 -2.3572,-0.57658 z m 45.5761,0.14419 c -0.1406,-0.31447 -0.1935,-6.80382 -0.1177,-14.4214 l 0.1284,-13.85015 2.2329,-0.11298 c 1.2277,-0.0619 2.4778,0.0357 2.7778,0.2163 0.299,0.18101 3.7515,5.15108 7.671,11.04441 3.9195,5.89329 7.2472,10.71513 7.3944,10.71513 0.1464,5e-5 0.1875,-4.55333 0.094,-10.1186 -0.1231,-7.01261 0,-10.40146 0.3868,-11.03987 0.6311,-1.02938 2.9156,-1.26439 3.9043,-0.4019 0.6986,0.60951 0.858,27.02265 0.1699,27.97083 -0.2754,0.37941 -1.2688,0.52218 -3.0094,0.4331 l -2.5979,-0.13346 -7.031,-10.70663 c -3.8675,-5.88864 -7.1945,-10.71041 -7.3949,-10.71512 -0.1993,-0.005 -0.422,4.81329 -0.4982,10.70663 l -0.1348,10.71512 -1.8642,0.13448 c -1.2056,0.087 -1.954,-0.0675 -2.1164,-0.43668 z m -24.4305,-44.40523 c -0.4923,-0.29453 -0.5966,-6.33673 -0.4982,-28.70252 l 0.1284,-28.32968 h 19.5996 c 19.1513,0 19.646,0.0205 21.6069,0.93764 2.6173,1.22267 5.9514,4.40688 7.3047,6.9765 0.882,1.67511 1.0789,2.86264 1.0919,6.58918 0,4.28856 -0.076,4.69609 -1.5743,7.20161 -0.8749,1.46069 -2.5323,3.35904 -3.6834,4.21845 -1.1503,0.85945 -1.9978,1.6373 -1.8824,1.72853 0.1178,0.091 1.1318,0.57137 2.2582,1.06691 4.9498,2.17718 8.1274,7.25177 8.1186,12.96736 0,7.04969 -4.7958,12.08295 -13.8884,14.60683 -2.3273,0.64592 -5.3238,0.78362 -20.344,0.93473 -9.6888,0.0977 -17.8959,0.0104 -18.2393,-0.19534 z m -27.1575,-0.52684 c -0.164,-0.23419 -4.7781,-11.97194 -10.2502,-26.08429 -5.4715,-14.11231 -10.1769,-25.90232 -10.4565,-26.19996 -0.3926,-0.41522 -4.6885,-0.53962 -18.4351,-0.53451 -9.8593,0.003 -18.2048,0.16056 -18.5447,0.34924 -0.3399,0.18818 -2.3313,4.71501 -4.426,10.05913 -2.0938,5.34406 -4.025,9.96498 -4.2904,10.26861 -0.3634,0.41419 -2.3549,0.52239 -7.9793,0.43311 -7.144,-0.11356 -7.4928,-0.15954 -7.4318,-0.98504 0.059,-0.47607 4.1241,-11.09392 9.0869,-23.5949 4.9622,-12.50097 12.6003,-31.80378 16.9734,-42.89515 4.3726,-11.09136 8.1463,-20.44273 8.3848,-20.78084 0.34,-0.48423 2.2757,-0.64357 9.105,-0.75053 8.5999,-0.13449 8.676,-0.12784 9.3992,0.86585 0.3986,0.55091 8.9276,21.16556 18.948,45.81034 10.0198,24.64477 20.8649,51.31323 24.1,59.26317 3.235,7.94995 5.7627,14.62252 5.6173,14.82798 -0.375,0.52827 -19.4248,0.4781 -19.8006,-0.0522 z M 1184.014,565.87751 v -27.72637 l 5.5823,0.12222 5.5822,0.12221 0.1284,23.27019 c 0.071,12.79862 0.1817,23.30962 0.2461,23.35773 0.064,0.046 7.4887,0.19431 16.4948,0.32471 l 16.3745,0.23725 v 3.89642 3.8964 l -22.2053,0.11252 -22.2047,0.11252 z m -0.7642,-36.8979 c -0.1285,-0.2976 -0.1817,-13.20453 -0.1111,-28.6819 l 0.1285,-28.14071 20.8403,-0.12016 c 11.4621,-0.0659 21.3425,-0.0154 21.9567,0.11659 1.0772,0.22856 1.1165,0.41162 1.1165,5.20104 v 4.96423 l -15.2581,0.11459 -15.2581,0.1146 -0.1348,6.81872 -0.1348,6.81872 h 11.9538 c 7.2912,0 12.3285,0.17487 12.9139,0.44793 0.8428,0.39373 0.9594,0.93672 0.9594,4.45923 0,2.54248 -0.2168,4.20127 -0.5954,4.53058 -0.4337,0.37634 -3.9916,0.51951 -12.901,0.51951 H 1196.42 v 11.00439 c 0,6.05247 -0.1347,11.31262 -0.2988,11.68922 -0.252,0.57362 -1.3022,0.68484 -6.466,0.68484 -4.4752,0 -6.2304,-0.14829 -6.4021,-0.54115 z m 140.8122,-28.97818 0.1284,-27.84443 h 18.6074 c 17.92,0 18.6919,0.0358 20.8848,0.91898 4.4254,1.78585 7.402,5.47143 8.4627,10.47791 0.5627,2.66424 0.3282,4.7709 -0.906,8.08515 -0.5965,1.60208 -1.6246,2.86692 -3.9553,4.86687 -1.7324,1.48621 -3.1495,2.79585 -3.1495,2.91029 0,0.11448 1.1228,0.62957 2.4955,1.14474 5.533,2.07661 9.418,8.21032 8.7468,13.80954 -0.6961,5.8123 -4.6269,9.95006 -11.6227,12.23447 -2.6853,0.87675 -3.8831,0.93769 -21.332,1.08491 l -18.4867,0.15595 z"
       style="fill:none;stroke:#800000;stroke-width:0.1;stroke-miterlimit:4;stroke-dasharray:none;stroke-opacity:1"
       sodipodi:nodetypes="ccscccsccccscccccccccccccccsccccccccccccccccccccccccsccccssccsccccccsccccccccsccccccccccccccccccccccccccccccscccccccccccccccccccccccccccccccccccccccccccccccccscccccscscscscsccccsccccscccccc" />
    <circle
       style="opacity:1;fill:none;fill-opacity:1;stroke:#800000;stroke-width:0.1;stroke-miterlimit:4;stroke-dasharray:none;stroke-opacity:1"
       id="path1579"
       cx="1372.4927"
       cy="656.0177"
       r="10" />
    <circle
       r="10"
       cy="626.91357"
       cx="1393.2814"
       id="circle1583"
       style="opacity:1;fill:none;fill-opacity:1;stroke:#800000;stroke-width:0.1;stroke-miterlimit:4;stroke-dasharray:none;stroke-opacity:1" />
    <circle
       style="opacity:1;fill:none;fill-opacity:1;stroke:#800000;stroke-width:0.1;stroke-miterlimit:4;stroke-dasharray:none;stroke-opacity:1"
       id="circle1633"
       cx="1408.4004"
       cy="591.76178"
       r="10" />
    <circle
       r="10"
       cy="675.29449"
       cx="1343.3885"
       id="circle1635"
       style="opacity:1;fill:none;fill-opacity:1;stroke:#800000;stroke-width:0.1;stroke-miterlimit:4;stroke-dasharray:none;stroke-opacity:1" />
    <circle
       style="opacity:1;fill:none;fill-opacity:1;stroke:#800000;stroke-width:0.1;stroke-miterlimit:4;stroke-dasharray:none;stroke-opacity:1"
       id="circle1637"
       cx="1310.5046"
       cy="688.90167"
       r="10" />
    <circle
       r="10"
       cy="694.1933"
       cx="1275.3529"
       id="circle1639"
       style="opacity:1;fill:none;fill-opacity:1;stroke:#800000;stroke-width:0.1;stroke-miterlimit:4;stroke-dasharray:none;stroke-opacity:1" />
    <circle
       style="opacity:1;fill:none;fill-opacity:1;stroke:#800000;stroke-width:0.1;stroke-miterlimit:4;stroke-dasharray:none;stroke-opacity:1"
       id="circle1641"
       cx="1237.1774"
       cy="690.41357"
       r="10" />
    <circle
       r="10"
       cy="676.42847"
       cx="1204.2935"
       id="circle1643"
       style="opacity:1;fill:none;fill-opacity:1;stroke:#800000;stroke-width:0.1;stroke-miterlimit:4;stroke-dasharray:none;stroke-opacity:1" />
    <circle
       style="opacity:1;fill:none;fill-opacity:1;stroke:#800000;stroke-width:0.1;stroke-miterlimit:4;stroke-dasharray:none;stroke-opacity:1"
       id="circle1645"
       cx="1175.1893"
       cy="654.50586"
       r="10" />
    <circle
       r="10"
       cy="626.91357"
       cx="1151.3768"
       id="circle1647"
       style="opacity:1;fill:none;fill-opacity:1;stroke:#800000;stroke-width:0.1;stroke-miterlimit:4;stroke-dasharray:none;stroke-opacity:1" />
    <circle
       style="opacity:1;fill:none;fill-opacity:1;stroke:#800000;stroke-width:0.1;stroke-miterlimit:4;stroke-dasharray:none;stroke-opacity:1"
       id="circle1649"
       cx="1138.9036"
       cy="592.51776"
       r="10" />
    <circle
       r="10"
       cy="556.60999"
       cx="1132.1"
       id="circle1651"
       style="opacity:1;fill:none;fill-opacity:1;stroke:#800000;stroke-width:0.1;stroke-miterlimit:4;stroke-dasharray:none;stroke-opacity:1" />
    <circle
       style="opacity:1;fill:none;fill-opacity:1;stroke:#800000;stroke-width:0.1;stroke-miterlimit:4;stroke-dasharray:none;stroke-opacity:1"
       id="circle1653"
       cx="1138.9036"
       cy="519.94629"
       r="10" />
    <circle
       r="10"
       cy="484.79446"
       cx="1149.4869"
       id="circle1655"
       style="opacity:1;fill:none;fill-opacity:1;stroke:#800000;stroke-width:0.1;stroke-miterlimit:4;stroke-dasharray:none;stroke-opacity:1" />
    <circle
       style="opacity:1;fill:none;fill-opacity:1;stroke:#800000;stroke-width:0.1;stroke-miterlimit:4;stroke-dasharray:none;stroke-opacity:1"
       id="circle1657"
       cx="1172.1655"
       cy="455.69031"
       r="10" />
    <circle
       style="opacity:1;fill:none;fill-opacity:1;stroke:#800000;stroke-width:0.1;stroke-miterlimit:4;stroke-dasharray:none;stroke-opacity:1"
       id="circle1659"
       cx="1203.9155"
       cy="433.38971"
       r="10" />
    <circle
       r="10"
       cy="420.53851"
       cx="1234.9095"
       id="circle1661"
       style="opacity:1;fill:none;fill-opacity:1;stroke:#800000;stroke-width:0.1;stroke-miterlimit:4;stroke-dasharray:none;stroke-opacity:1" />
    <circle
       style="opacity:1;fill:none;fill-opacity:1;stroke:#800000;stroke-width:0.1;stroke-miterlimit:4;stroke-dasharray:none;stroke-opacity:1"
       id="circle1663"
       cx="1272.7072"
       cy="415.24686"
       r="10" />
    <circle
       r="10"
       cy="419.02661"
       cx="1309.7488"
       id="circle1665"
       style="opacity:1;fill:none;fill-opacity:1;stroke:#800000;stroke-width:0.1;stroke-miterlimit:4;stroke-dasharray:none;stroke-opacity:1" />
    <circle
       style="opacity:1;fill:none;fill-opacity:1;stroke:#800000;stroke-width:0.1;stroke-miterlimit:4;stroke-dasharray:none;stroke-opacity:1"
       id="circle1667"
       cx="1344.5226"
       cy="431.87781"
       r="10" />
    <circle
       r="10"
       cy="453.04446"
       cx="1373.2488"
       id="circle1669"
       style="opacity:1;fill:none;fill-opacity:1;stroke:#800000;stroke-width:0.1;stroke-miterlimit:4;stroke-dasharray:none;stroke-opacity:1" />
    <circle
       style="opacity:1;fill:none;fill-opacity:1;stroke:#800000;stroke-width:0.1;stroke-miterlimit:4;stroke-dasharray:none;stroke-opacity:1"
       id="circle1671"
       cx="1395.5493"
       cy="482.90457"
       r="10" />
    <path
       style="opacity:1;fill:none;fill-opacity:1;stroke:#800000;stroke-width:0.1;stroke-miterlimit:4;stroke-dasharray:none;stroke-opacity:1"
       d="m 1419.1564,516.92246 a 10,10 0 0 1 -10,10 10,10 0 0 1 -10,-10 10,10 0 0 1 10,-10 10,10 0 0 1 10,10 z"
       id="circle1673"
       inkscape:connector-curvature="0" />
    <circle
       style="opacity:1;fill:none;fill-opacity:1;stroke:#800000;stroke-width:0.1;stroke-miterlimit:4;stroke-dasharray:none;stroke-opacity:1"
       id="circle1675"
       cx="1414.4481"
       cy="555.854"
       r="10" />
  </g>
</svg>
