<?xml version="1.0" encoding="UTF-8" standalone="no"?>
<!-- Created with Inkscape (http://www.inkscape.org/) -->

<svg
   xmlns:dc="http://purl.org/dc/elements/1.1/"
   xmlns:cc="http://creativecommons.org/ns#"
   xmlns:rdf="http://www.w3.org/1999/02/22-rdf-syntax-ns#"
   xmlns:svg="http://www.w3.org/2000/svg"
   xmlns="http://www.w3.org/2000/svg"
   xmlns:sodipodi="http://sodipodi.sourceforge.net/DTD/sodipodi-0.dtd"
   xmlns:inkscape="http://www.inkscape.org/namespaces/inkscape"
   width="210mm"
   height="297mm"
   viewBox="0 0 210 297"
   version="1.1"
   id="svg8"
   inkscape:version="0.92.3 (2405546, 2018-03-11)"
   sodipodi:docname="Boite_ecran9pouce_v2.svg">
  <sodipodi:namedview
     id="base"
     pagecolor="#ffffff"
     bordercolor="#666666"
     borderopacity="1.0"
     inkscape:pageopacity="0.0"
     inkscape:pageshadow="2"
     inkscape:zoom="0.49497475"
     inkscape:cx="970.18828"
     inkscape:cy="1169.5212"
     inkscape:document-units="mm"
     inkscape:current-layer="layer1"
     showgrid="false"
     inkscape:window-width="1853"
     inkscape:window-height="1025"
     inkscape:window-x="67"
     inkscape:window-y="27"
     inkscape:window-maximized="1"
     showguides="false" />
  <defs
     id="defs2" />
  <metadata
     id="metadata5">
    <rdf:RDF>
      <cc:Work
         rdf:about="">
        <dc:format>image/svg+xml</dc:format>
        <dc:type
           rdf:resource="http://purl.org/dc/dcmitype/StillImage" />
        <dc:title />
      </cc:Work>
    </rdf:RDF>
  </metadata>
  <g
     id="layer1"
     inkscape:groupmode="layer"
     inkscape:label="Calque 1">
    <path
       style="fill:none;stroke:#008000;stroke-width:1;stroke-miterlimit:4;stroke-dasharray:none"
       d="m -43.284614,-142.09689 v 8.09305 h 2.999817 v 7.94371 h -2.999817 v 8.14373 h 2.999817 v 7.94322 h -2.999817 v 8.14368 h 2.999817 v 7.943183 h -2.999817 v 8.143683 h 2.999817 v 7.943178 h -2.999817 v 8.143684 h 2.999817 v 7.943697 h -2.999817 v 8.143164 h 2.999817 v 7.943697 h -2.999817 v 8.143174 h 2.999817 v 7.943701 h -2.999817 v 8.143688 h 2.999817 v 7.943175 h -2.999817 v 8.1436794 h 2.999817 v 7.6723942 h 0.0434 V 4.9034543 H 188.66216 V 2.1372176 h 0.0501 v -7.4450142 h 2.99982 v -8.1436794 h -2.99982 v -7.943175 h 2.99982 v -8.143688 h -2.99982 v -7.943701 h 2.99982 v -8.143174 h -2.99982 v -7.943697 h 2.99982 v -8.143164 h -2.99982 v -7.943697 h 2.99982 v -8.143684 h -2.99982 v -7.943178 h 2.99982 v -8.143683 h -2.99982 v -7.943183 h 2.99982 v -8.14368 h -2.99982 v -7.94322 h 2.99982 v -8.14373 h -2.99982 v -7.94371 h 2.99982 v -8.09305 h -8.15351 v 2.99982 h -8.00313 v -2.99982 h -8.20311 v 2.99982 h -8.00313 v -2.99982 h -8.20415 v 2.99982 h -8.00313 v -2.99982 h -8.20264 v 2.99982 h -8.00369 v -2.99982 h -8.20316 v 2.99982 h -8.00421 v -2.99982 h -8.20315 v 2.99982 h -8.003124 v -2.99982 h -8.204157 v 2.99982 h -8.003124 v -2.99982 h -8.203127 v 2.99982 h -8.004154 v -2.99982 h -8.203117 v 2.99982 h -8.002614 v -2.99982 h -8.204677 v 2.99982 h -8.002094 v -2.99982 h -8.203637 v 2.99982 h -8.004164 v -2.99982 H 5.2839743 v 2.99982 h -8.0031229 v -2.99982 h -8.2041574 v 2.99982 h -8.002623 v -2.99982 h -8.203604 v 2.99982 h -8.003657 v -2.99982 z m 17.498138,19.91613 H 174.21393 V -7.1810655 H -25.786476 Z"
       id="path4674"
       inkscape:connector-curvature="0"
       inkscape:label="PlaqueDessusEcran" />
    <path
       style="fill:none;stroke:#ff0000;stroke-width:1"
       d="m -48.362134,258.80815 v 8.32559 h 2.99982 v 8.17573 h -2.99982 v 8.37623 h 2.99982 v 8.17573 h -2.99982 v 8.37571 h 2.99982 v 8.17573 h -2.99982 v 8.37623 h 2.99982 v 8.17573 h -2.99982 v 8.37573 h 2.99982 v 8.17573 h -2.99982 v 8.37623 h 2.99982 v 8.17571 h -2.99982 v 8.37573 h 2.99982 v 8.17623 h -2.99982 v 8.37573 h 2.99982 v 8.17573 h -2.99982 v 8.3757 h 2.99982 v 8.17626 h -2.99982 v 8.3757 h 2.99982 v 8.17574 h -2.99982 v 8.37572 h 2.99982 v 8.17624 h -2.99982 v 8.37573 h 2.99982 v 8.17573 h -2.99982 v 8.37623 h 2.99982 v 8.1757 h -2.99982 v 8.37573 h 2.99982 v 8.17573 h -2.99982 v 8.3261 h 8.153506 v -3.00032 h 8.003117 v 3.00032 h 8.203644 v -3.00032 h 8.003646 v 3.00032 h 8.2031151 v -3.00032 h 8.00364496 v 3.00032 H 8.4121571 v -3.00032 H 16.4153 v 3.00032 h 8.203645 v -3.00032 h 8.003116 v 3.00032 h 8.203644 v -3.00032 h 8.003646 v 3.00032 h 8.203115 v -3.00032 h 8.003646 v 3.00032 h 8.203618 v -3.00032 h 8.003143 v 3.00032 h 8.203618 v -3.00032 h 8.003143 v 3.00032 h 8.203616 v -3.00032 h 8.00365 v 3.00032 h 8.20311 v -3.00032 h 8.00365 v 3.00032 h 8.20365 v -3.00032 h 8.00311 v 3.00032 h 8.20365 v -3.00032 h 8.00364 v 3.00032 h 8.20312 v -3.00032 h 8.00364 v 3.00032 h 8.15351 v -8.3261 h -3.00032 v -8.17573 h 3.00032 v -8.37573 h -3.00032 v -8.1757 h 3.00032 v -8.37623 h -3.00032 v -8.17573 h 3.00032 v -8.37573 h -3.00032 v -8.17624 h 3.00032 v -8.37572 h -3.00032 v -8.17574 h 3.00032 v -8.3757 h -3.00032 v -8.17626 h 3.00032 v -8.3757 h -3.00032 v -8.17573 h 3.00032 v -8.37573 h -3.00032 v -8.17623 h 3.00032 v -8.37573 h -3.00032 v -8.17571 h 3.00032 v -8.37623 h -3.00032 v -8.17573 h 3.00032 v -8.37573 h -3.00032 v -8.17573 h 3.00032 v -8.37623 h -3.00032 v -8.17573 h 3.00032 v -8.37571 h -3.00032 v -8.17573 h 3.00032 v -8.37623 h -3.00032 v -8.17573 h 3.00032 v -8.32559 h -8.15351 v 2.99982 h -8.00364 v -2.99982 h -8.20312 v 2.99982 h -8.00364 v -2.99982 h -8.20365 v 2.99982 h -8.00311 v -2.99982 h -8.20365 v 2.99982 h -8.00365 v -2.99982 h -8.20311 v 2.99982 h -8.00365 v -2.99982 h -8.203616 v 2.99982 h -8.003143 v -2.99982 h -8.203618 v 2.99982 H 73.23973 v -2.99982 h -8.203618 v 2.99982 h -8.003646 v -2.99982 h -8.203115 v 2.99982 h -8.003646 v -2.99982 h -8.203644 v 2.99982 h -8.003116 v -2.99982 H 16.4153 v 2.99982 H 8.4121571 v -2.99982 H 0.20853906 v 2.99982 H -7.7951059 v -2.99982 h -8.2031151 v 2.99982 h -8.003646 v -2.99982 h -8.203644 v 2.99982 h -8.003117 v -2.99982 z m 8.252725,86.95439 h 8.200019 v 3.10007 h -8.200019 z m 16.175222,0 h 8.20002 v 3.10007 h -8.20002 z m 16.2749971,0 h 8.19999296 v 3.10007 H -7.6591899 Z m 16.175223,0 h 8.2000189 v 3.10007 H 8.5160331 Z m 16.1747189,0 h 8.20002 v 3.10007 h -8.20002 z m 16.274997,0 h 8.199993 v 3.10007 h -8.199993 z m 16.175223,0 h 8.200019 v 3.10007 h -8.200019 z m 16.269811,0 h 8.200019 v 3.10007 h -8.200019 z m 16.175249,0 h 8.200019 v 3.10007 h -8.200019 z m 16.174718,0 h 8.20002 v 3.10007 h -8.20002 z m 16.17522,0 h 8.20003 v 3.10007 h -8.20003 z m 16.275,0 h 8.20002 v 3.10007 h -8.20002 z m 16.17472,0 h 8.20002 v 3.10007 h -8.20002 z m 16.17523,0 h 8.20002 v 3.10007 h -8.20002 z"
       id="BiteHolo_bottom"
       inkscape:connector-curvature="0" />
    <path
       style="fill:none;stroke:#ff0000"
       id="BiteHolo_top"
       d="m 189.63782,258.8079 h 8.15345 v 3 h 8.00345 v -3 h 8.20344 v 3 h 8.00345 v -3 h 8.20345 v 3 h 8.00345 v -3 h 8.20345 v 3 h 8.00344 v -3 h 8.20345 v 3 h 8.00345 v -3 h 8.20345 v 3 h 8.00345 v -3 h 8.20345 v 3 h 8.00345 v -3 h 8.20344 v 3 h 8.00345 v -3 h 8.20345 v 3 h 8.00345 v -3 h 8.20345 v 3 h 8.00345 v -3 h 8.20344 v 3 h 8.00345 v -3 h 8.20345 v 3 h 8.00345 v -3 h 8.20345 v 3 h 8.00345 v -3 h 8.20344 v 3 h 8.00345 v -3 h 8.15345 v 8.32586 h -3 v 8.17586 h 3 v 8.37586 h -3 v 8.17587 h 3 v 8.37586 h -3 v 8.17586 h 3 v 8.37586 h -3 v 8.17586 h 3 v 8.37587 h -3 v 8.17586 h 3 v 8.37586 h -3 v 8.17586 h 3 v 8.37587 h -3 v 8.17586 h 3 v 8.37586 h -3 v 8.17586 h 3 v 8.37587 h -3 v 8.17586 h 3 v 8.37586 h -3 v 8.17586 h 3 v 8.37586 h -3 v 8.17587 h 3 v 8.37586 h -3 v 8.17586 h 3 v 8.37586 h -3 v 8.17586 h 3 v 8.37587 h -3 v 8.17586 h 3 v 8.32586 h -8.15345 v -3 h -8.00345 v 3 h -8.20344 v -3 h -8.00345 v 3 h -8.20345 v -3 h -8.00345 v 3 h -8.20345 v -3 h -8.00345 v 3 h -8.20344 v -3 h -8.00345 v 3 h -8.20345 v -3 h -8.00345 v 3 h -8.20345 v -3 h -8.00345 v 3 h -8.20344 v -3 h -8.00345 v 3 h -8.20345 v -3 h -8.00345 v 3 h -8.20345 v -3 h -8.00345 v 3 h -8.20345 v -3 h -8.00344 v 3 h -8.20345 v -3 h -8.00345 v 3 h -8.20345 v -3 h -8.00345 v 3 h -8.20344 v -3 h -8.00345 v 3 h -8.15345 v -8.32586 h 3 v -8.17586 h -3 v -8.37587 h 3 v -8.17586 h -3 v -8.37586 h 3 v -8.17586 h -3 v -8.37586 h 3 V 432.651 h -3 v -8.37586 h 3 v -8.17586 h -3 v -8.37586 h 3 v -8.17586 h -3 v -8.37587 h 3 v -8.17586 h -3 v -8.37586 h 3 v -8.17586 h -3 v -8.37587 h 3 v -8.17586 h -3 v -8.37586 h 3 v -8.17586 h -3 v -8.37587 h 3 v -8.17586 h -3 v -8.37586 h 3 v -8.17586 h -3 v -8.37586 h 3 v -8.17587 h -3 v -8.37586 h 3 v -8.17586 h -3 z"
       inkscape:connector-curvature="0" />
    <path
       style="fill:none;stroke:#ff0000;stroke-width:1;stroke-miterlimit:4;stroke-dasharray:none"
       d="m -44.994055,506.16336 v 2.99982 h -8.053255 v 8.82788 h 2.999816 v 7.968 0.14572 8.36073 h -2.999816 v 8.87698 h 2.999816 v 8.67802 h -2.999816 v 8.8775 h 2.999816 v 8.67802 h -2.999816 v 8.87751 h 2.999816 v 8.67807 h -2.999816 v 8.82791 h 8.053255 v 2.99982 h 8.203633 v -2.99982 h 8.003646 v 2.99982 h 8.203118 v -2.99982 h 8.003646 v 2.99982 h 8.2036331 v -2.99982 h 8.003645 v 2.99982 h 8.2036329 v -2.99982 h 8.003129 v 2.99982 h 8.203634 v -2.99982 h 8.003646 v 2.99982 h 8.203117 v -2.99982 h 8.003645 v 2.99982 h 8.203635 v -2.99982 h 8.003127 v 2.99982 h 8.203633 v -2.99982 h 8.00313 v 2.99982 h 8.203634 v -2.99982 h 8.003651 v 2.99982 h 8.20311 v -2.99982 h 8.00365 v 2.99982 h 8.20363 v -2.99982 h 8.00313 v 2.99982 h 8.20364 v -2.99982 h 8.00364 v 2.99982 h 8.20312 v -2.99982 h 8.00364 v 2.99982 h 8.20312 v -2.99982 h 8.05377 v -8.82791 H 178.953 v -8.67807 h 3.00033 v -8.87751 H 178.953 v -8.67802 h 3.00033 v -8.8775 H 178.953 v -8.67802 h 3.00033 v -8.87698 H 178.953 v -8.36073 -0.14572 -7.968 h 3.00033 v -8.82788 h -8.05377 v -2.99982 h -8.20312 v 2.99982 h -8.00364 v -2.99982 h -8.20312 v 2.99982 h -8.00364 v -2.99982 h -8.20364 v 2.99982 h -8.00313 v -2.99982 h -8.20363 v 2.99982 h -8.00365 v -2.99982 h -8.20311 v 2.99982 h -8.003651 v -2.99982 h -8.203634 v 2.99982 h -8.00313 v -2.99982 h -8.203633 v 2.99982 h -8.003127 v -2.99982 H 52.24807 v 2.99982 h -8.003645 v -2.99982 h -8.203117 v 2.99982 h -8.003646 v -2.99982 h -8.203634 v 2.99982 h -8.003129 v -2.99982 H 3.6272661 v 2.99982 h -8.003645 v -2.99982 h -8.2036331 v 2.99982 h -8.003646 v -2.99982 h -8.203118 v 2.99982 h -8.003646 v -2.99982 z m 10.446909,32.79593 H 163.45317 v 53.99989 H -34.547146 Z"
       id="BiteHolo_font"
       inkscape:connector-curvature="0" />
    <path
       style="opacity:1;fill:none;fill-opacity:1;stroke:#008000;stroke-width:0.61119914;stroke-miterlimit:4;stroke-dasharray:none;stroke-opacity:1"
       d="M 201.24665,-138.60563 V -1.6056168 H 429.7464 V -138.60563 Z m 14.2906,13.86895 H 415.53692 V -10.736837 H 215.53725 Z"
       id="rect867"
       inkscape:connector-curvature="0" />
    <path
       style="opacity:1;fill:none;fill-opacity:1;stroke:#0000ff;stroke-width:0.1;stroke-miterlimit:4;stroke-dasharray:none;stroke-opacity:1"
       d="M 196.94402,-141.5161 V 1.4838076 H 424.94436 V -141.5161 Z m 93.00009,5.51023 h 50.00002 v 1.98955 h 80.99993 V -7.0164158 H 208.94381 V -134.01631 h 81.0003 z"
       id="rect905"
       inkscape:connector-curvature="0"
       inkscape:label="CaleECcran" />
    <path
       style="fill:none;stroke:#ff0000;stroke-width:1;stroke-miterlimit:4;stroke-dasharray:none"
       d="m -49.303883,610.10024 v 2.99983 h -5.22602 v 7.73854 0.98909 h -2.99982 v 7.73855 1.04593 7.83208 h 2.99982 v 8.67751 h -2.99982 v 8.878 h 2.99982 v 8.67751 h -2.99982 v 8.87801 h 2.99982 v 8.67751 h -2.99982 v 8.87801 h 2.99982 v 8.72763 h 5.22602 v 3.00034 h 8.37573 v -3.00034 h 8.17573 v 3.00034 h 8.37623 v -3.00034 h 8.17573 v 3.00034 h 8.3757101 v -3.00034 h 8.17572996 v 3.00034 H 8.7272071 v -3.00034 h 8.1757299 v 3.00034 h 8.37572 v -3.00034 h 8.17573 v 3.00034 h 8.37623 v -3.00034 h 8.17573 v 3.00034 h 8.37571 v -3.00034 h 8.17625 v 3.00034 h 8.37571 v -3.00034 h 8.17573 v 3.00034 h 8.37572 v -3.00034 h 8.17624 v 3.00034 h 8.375723 v -3.00034 h 8.17573 v 3.00034 h 8.37571 v -3.00034 h 8.17625 v 3.00034 h 8.37572 v -3.00034 h 8.17572 v 3.00034 h 8.37624 v -3.00034 h 8.17572 v 3.00034 h 8.37572 v -3.00034 h 5.22604 v -8.72763 h 2.99982 v -8.87801 h -2.99982 v -8.67751 h 2.99982 v -8.87801 h -2.99982 v -8.67751 h 2.99982 v -8.878 h -2.99982 v -8.67751 h 2.99982 v -7.83208 -1.04593 -7.73855 h -2.99982 v -0.98909 -7.73854 h -5.22604 v -2.99983 h -8.37572 v 2.99983 h -8.17572 v -2.99983 h -8.37624 v 2.99983 h -8.17572 v -2.99983 h -8.37572 v 2.99983 h -8.17625 v -2.99983 h -8.37571 v 2.99983 h -8.17573 v -2.99983 h -8.375723 v 2.99983 h -8.17624 v -2.99983 h -8.37572 v 2.99983 h -8.17573 v -2.99983 h -8.37571 v 2.99983 h -8.17625 v -2.99983 h -8.37571 v 2.99983 h -8.17573 v -2.99983 h -8.37623 v 2.99983 h -8.17573 v -2.99983 h -8.37572 v 2.99983 H 8.7272071 v -2.99983 H 0.35097706 v 2.99983 H -7.8247529 v -2.99983 h -8.3757101 v 2.99983 h -8.17573 v -2.99983 h -8.37623 v 2.99983 h -8.17573 v -2.99983 z m 5.00486,29.80853 h 8.20002 v 3.10007 h -8.20002 z m 16.075,0 h 8.20002 v 3.10007 h -8.20002 z m 16.075,0 h 8.2000201 v 3.10007 h -8.2000201 z m 16.0749701,0 h 8.2000199 v 3.10007 H 3.9259471 Z m 16.0749899,0 h 8.20002 v 3.10007 h -8.20002 z m 16.07499,0 h 8.20002 v 3.10007 h -8.20002 z m 16.07499,0 h 8.20001 v 3.10007 h -8.20001 z m 16.17524,0 h 8.20002 v 3.10007 h -8.20002 z m 16.07499,0 h 8.20001 v 3.10007 h -8.20001 z"
       id="path952"
       inkscape:connector-curvature="0"
       inkscape:label="BoiteDroite" />
    <path
       style="fill:none;stroke:#ff0000;stroke-width:1;stroke-miterlimit:4;stroke-dasharray:none"
       d="m 420.09352,514.84407 h -5.0131 v -3.00037 h -8.2031 v 3.00037 h -8.00354 v -3.00037 h -8.20307 v 3.00037 h -8.00364 v -3.00037 h -8.20357 v 3.00037 h -8.00314 v -3.00037 h -8.20357 v 3.00037 h -8.00404 v -3.00037 h -8.20317 v 3.00037 h -8.00354 v -3.00037 h -8.20367 v 3.00037 h -8.00304 v -3.00037 h -8.20354 v 3.00037 h -8.00307 v -3.00037 h -8.20364 v 3.00037 h -8.00357 v -3.00037 h -8.20304 v 3.00037 h -8.00367 v -3.00037 h -8.20404 v 3.00037 h -8.00307 v -3.00037 h -8.20364 v 3.00037 h -8.00307 v -3.00037 h -8.20354 v 3.00037 h -8.00367 v -3.00037 h -8.20304 v 3.00037 h -8.00367 v -3.00037 h -8.20354 v 3.00037 h -4.76817 v 12.66994 30.43981 14.19131 h 4.76817 v 2.9998 h 8.20354 v -2.9998 h 8.00367 v 2.9998 h 8.20304 v -2.9998 h 8.00367 v 2.9998 h 8.20354 v -2.9998 h 8.00307 v 2.9998 h 8.20364 v -2.9998 h 8.00307 v 2.9998 h 8.20404 v -2.9998 h 8.00367 v 2.9998 h 8.20304 v -2.9998 h 8.00357 v 2.9998 h 8.20364 v -2.9998 h 8.00307 v 2.9998 h 8.20354 v -2.9998 h 8.00304 v 2.9998 h 8.20367 v -2.9998 h 8.00354 v 2.9998 h 8.20317 v -2.9998 h 8.00404 v 2.9998 h 8.20357 v -2.9998 h 8.00314 v 2.9998 h 8.20357 v -2.9998 h 8.00364 v 2.9998 h 8.20307 v -2.9998 h 8.00354 v 2.9998 h 8.2031 v -2.9998 h 5.0131 v -14.19131 -30.43981 z"
       id="path954"
       inkscape:connector-curvature="0"
       inkscape:label="InterieurMilieu" />
    <path
       style="fill:none;stroke:#008000;stroke-width:1;stroke-miterlimit:4;stroke-dasharray:none"
       d="m -34.134354,8.9875416 v 2.9998194 h -8.053255 v 8.827874 h 2.999817 v 7.968007 0.14573 8.360724 h -2.999817 v 8.876984 h 2.999817 v 8.678017 h -2.999817 v 8.877484 h 2.999817 v 8.677984 h -2.999817 v 8.877469 h 2.999817 v 8.677972 h -2.999817 v 8.827793 h 8.053255 v 2.999801 h 8.203634 v -2.999801 h 8.003646 v 2.999801 h 8.2031147 v -2.999801 h 8.0036441 V 101.7832 H 6.4833183 V 98.783399 H 14.486964 V 101.7832 H 22.6906 v -2.999801 h 8.003129 v 2.999801 h 8.203637 v -2.999801 h 8.003646 v 2.999801 h 8.203115 v -2.999801 h 8.003645 v 2.999801 h 8.203645 v -2.999801 h 8.003116 v 2.999801 h 8.203644 v -2.999801 h 8.003116 v 2.999801 h 8.203647 v -2.999801 h 8.00366 v 2.999801 h 8.20312 v -2.999801 h 8.00364 v 2.999801 h 8.20362 v -2.999801 h 8.00314 v 2.999801 h 8.20362 v -2.999801 h 8.00365 v 2.999801 h 8.20311 v -2.999801 h 8.00365 v 2.999801 h 8.20314 v -2.999801 h 8.05376 v -8.827793 h -3.00032 v -8.677972 h 3.00032 v -8.877469 h -3.00032 v -8.677984 h 3.00032 v -8.877484 h -3.00032 V 46.16668 h 3.00032 v -8.876984 h -3.00032 v -8.360724 -0.14573 -7.968007 h 3.00032 v -8.827874 h -8.05376 V 8.9875416 h -8.20314 V 11.987361 H 168.5525 V 8.9875416 h -8.20311 v 2.9998194 h -8.00365 V 8.9875416 h -8.20362 v 2.9998194 h -8.00314 V 8.9875416 h -8.20362 v 2.9998194 h -8.00364 V 8.9875416 h -8.20312 v 2.9998194 h -8.00366 V 8.9875416 H 95.521293 V 11.987361 H 87.518177 V 8.9875416 H 79.314533 V 11.987361 H 71.311417 V 8.9875416 H 63.107772 V 11.987361 H 55.104127 V 8.9875416 H 46.901012 V 11.987361 H 38.897366 V 8.9875416 H 30.693729 V 11.987361 H 22.6906 V 8.9875416 H 14.486964 V 11.987361 H 6.4833183 V 8.9875416 H -1.7203152 V 11.987361 H -9.7239593 V 8.9875416 H -17.927074 V 11.987361 H -25.93072 V 8.9875416 Z M 117.97835,75.912594 a 5.9999998,5.9999998 0 0 1 5.99961,5.999607 5.9999998,5.9999998 0 0 1 -5.99961,6.000148 5.9999998,5.9999998 0 0 1 -6.00017,-6.000148 5.9999998,5.9999998 0 0 1 6.00017,-5.999607 z M -6.1779213,84.436079 a 5.9999998,5.9999998 0 0 1 6.00014803,6.000117 5.9999998,5.9999998 0 0 1 -6.00014803,5.999575 5.9999998,5.9999998 0 0 1 -6.0001517,-5.999575 5.9999998,5.9999998 0 0 1 6.0001517,-6.000117 z m 33.5653913,1.30069 h 15.00012 v 9.999838 H 27.38747 Z"
       id="path1050"
       inkscape:connector-curvature="0"
       inkscape:label="BoiteFond" />
    <path
       style="fill:none;stroke:#008000;stroke-width:1;stroke-miterlimit:4;stroke-dasharray:none"
       d="m 206.43745,5.1238333 v 2.999817 h -5.22604 v 7.7385457 0.989087 h -2.99982 v 7.738544 1.045932 7.832079 h 2.99982 v 8.677505 h -2.99982 v 8.878014 h 2.99982 v 8.677507 h -2.99982 v 8.878014 h 2.99982 v 8.677487 h -2.99982 v 8.877962 h 2.99982 v 8.727616 h 5.22604 v 3.00033 h 8.37571 v -3.00033 h 8.17573 v 3.00033 h 8.37623 v -3.00033 h 8.17573 v 3.00033 h 8.37572 v -3.00033 h 8.17573 v 3.00033 h 8.37623 v -3.00033 h 8.17573 v 3.00033 h 8.37571 v -3.00033 h 8.17573 v 3.00033 h 8.37624 v -3.00033 h 8.17572 v 3.00033 h 8.37572 v -3.00033 h 8.17624 v 3.00033 h 8.37572 v -3.00033 h 8.17573 v 3.00033 h 8.37571 v -3.00033 h 8.17626 v 3.00033 h 8.37571 v -3.00033 h 8.17573 v 3.00033 h 8.37572 v -3.00033 h 8.17624 v 3.00033 h 8.37572 v -3.00033 h 8.17573 v 3.00033 h 8.37623 v -3.00033 h 8.17573 v 3.00033 h 8.37571 v -3.00033 h 5.22604 v -8.727616 h 2.99982 v -8.877962 h -2.99982 v -8.677487 h 2.99982 v -8.878014 h -2.99982 v -8.677507 h 2.99982 v -8.878014 h -2.99982 v -8.677505 h 2.99982 V 25.635759 24.589827 16.851283 H 435.2116 V 15.862196 8.1236503 h -5.22604 v -2.999817 h -8.37571 v 2.999817 h -8.17573 v -2.999817 h -8.37623 v 2.999817 h -8.17573 v -2.999817 h -8.37572 v 2.999817 h -8.17624 v -2.999817 h -8.37572 v 2.999817 h -8.17573 v -2.999817 h -8.37571 v 2.999817 h -8.17626 v -2.999817 h -8.37571 v 2.999817 h -8.17573 v -2.999817 h -8.37572 v 2.999817 h -8.17624 v -2.999817 h -8.37572 v 2.999817 h -8.17572 v -2.999817 h -8.37624 v 2.999817 h -8.17573 v -2.999817 h -8.37571 v 2.999817 h -8.17573 v -2.999817 h -8.37623 v 2.999817 h -8.17573 v -2.999817 h -8.37572 v 2.999817 h -8.17573 v -2.999817 h -8.37623 v 2.999817 h -8.17573 v -2.999817 z m 5.00486,29.8085127 h 8.20002 v 3.10007 h -8.20002 z m 16.07499,0 h 8.20001 v 3.10007 h -8.20001 z m 16.07498,0 h 8.20002 v 3.10007 h -8.20002 z m 16.07499,0 h 8.20002 v 3.10007 h -8.20002 z m 16.07499,0 h 8.20002 v 3.10007 h -8.20002 z m 16.07499,0 h 8.20001 v 3.10007 h -8.20001 z m 16.07499,0 h 8.20001 v 3.10007 h -8.20001 z m 16.17524,0 h 8.20001 v 3.10007 h -8.20001 z m 16.07498,0 h 8.20002 v 3.10007 h -8.20002 z m 17.12351,36.336292 h 55.00026 v 18.999788 h -55.00026 z"
       id="path1074"
       inkscape:connector-curvature="0"
       inkscape:label="BoiteGauche" />
    <path
       style="opacity:1;fill:none;fill-opacity:1;stroke:#ff0000;stroke-width:0.87831277;stroke-miterlimit:4;stroke-dasharray:none;stroke-opacity:1"
       d="M -45.827914,117.44144 V 254.44132 H 182.67227 V 117.44144 Z m 89.250307,6.69158 h 50.000033 v 2.99982 H 43.422393 Z"
       id="rect1076"
       inkscape:connector-curvature="0"
       inkscape:label="SupportCarteEcran" />
  </g>
</svg>
