<?xml version="1.0" encoding="UTF-8" standalone="no"?>
<!-- Created with Inkscape (http://www.inkscape.org/) -->

<svg
   xmlns:dc="http://purl.org/dc/elements/1.1/"
   xmlns:cc="http://creativecommons.org/ns#"
   xmlns:rdf="http://www.w3.org/1999/02/22-rdf-syntax-ns#"
   xmlns:svg="http://www.w3.org/2000/svg"
   xmlns="http://www.w3.org/2000/svg"
   xmlns:sodipodi="http://sodipodi.sourceforge.net/DTD/sodipodi-0.dtd"
   xmlns:inkscape="http://www.inkscape.org/namespaces/inkscape"
   inkscape:version="0.91 r"
   version="1.1"
   id="svg2"
   viewBox="0 0 744.09448819 1052.3622047"
   height="297mm"
   width="210mm"
   sodipodi:docname="bord projet Pyramide.svg">
  <sodipodi:namedview
     inkscape:window-maximized="1"
     inkscape:window-y="0"
     inkscape:window-x="0"
     inkscape:window-height="715"
     inkscape:window-width="1366"
     showgrid="false"
     inkscape:current-layer="svg2"
     inkscape:document-units="px"
     inkscape:cy="584.65214"
     inkscape:cx="-60.65331"
     inkscape:zoom="0.41397292"
     inkscape:pageshadow="2"
     inkscape:pageopacity="0.0"
     borderopacity="1.0"
     bordercolor="#666666"
     pagecolor="#ffffff"
     id="base" />
  <defs
     id="defs4" />
  <metadata
     id="metadata7">
    <rdf:RDF>
      <cc:Work
         rdf:about="">
        <dc:format>image/svg+xml</dc:format>
        <dc:type
           rdf:resource="http://purl.org/dc/dcmitype/StillImage" />
        <dc:title></dc:title>
      </cc:Work>
    </rdf:RDF>
  </metadata>
  <g
     id="layer1"
     inkscape:groupmode="layer"
     inkscape:label="Calque 1" />
  <path
     transform="translate(109.13948285,1632.95838448)"
     style="fill:none;stroke:#FF0000;"
     id="box_left_side"
     d="m 10.6299212598,0.0 134.645669291,0.0 0.0,37.8748716164 10.6299212598,0.0 0.0,38.4063676875 -10.6299212598,0.0 0.0,37.6977062596 10.6299212598,0.0 0.0,38.4063676875 -10.6299212598,0.0 0.0,37.6977062596 10.6299212598,0.0 0.0,38.4063676875 -10.6299212598,0.0 0.0,37.6977062596 10.6299212598,0.0 0.0,38.4063676875 -10.6299212598,0.0 0.0,37.6977062596 10.6299212598,0.0 0.0,38.4063676875 -10.6299212598,0.0 0.0,37.6977062596 10.6299212598,0.0 0.0,38.4063676875 -10.6299212598,0.0 0.0,37.6977062596 10.6299212598,0.0 0.0,38.4063676875 -10.6299212598,0.0 0.0,37.6977062596 10.6299212598,0.0 0.0,38.4063676875 -10.6299212598,0.0 0.0,37.6977062596 10.6299212598,0.0 0.0,38.4063676875 -10.6299212598,0.0 0.0,37.6977062596 10.6299212598,0.0 0.0,38.4063676875 -10.6299212598,0.0 0.0,37.6977062596 10.6299212598,0.0 0.0,38.4063676875 -10.6299212598,0.0 0.0,37.8748716164 -24.6259842492,0.0 0.0,10.6299212598 -35.78740158,0.0 0.0,-10.6299212598 -35.0787401521,0.0 0.0,10.6299212598 -35.78740158,0.0 0.0,-10.6299212598 -24.6259842492,0.0 0.0,-37.8748716164 -10.6299212598,0.0 0.0,-38.4063676875 10.6299212598,0.0 0.0,-37.6977062596 -10.6299212598,0.0 0.0,-38.4063676875 10.6299212598,0.0 0.0,-37.6977062596 -10.6299212598,0.0 0.0,-38.4063676875 10.6299212598,0.0 0.0,-37.6977062596 -10.6299212598,0.0 0.0,-38.4063676875 10.6299212598,0.0 0.0,-37.6977062596 -10.6299212598,0.0 0.0,-38.4063676875 10.6299212598,0.0 0.0,-37.6977062596 -10.6299212598,0.0 0.0,-38.4063676875 10.6299212598,0.0 0.0,-37.6977062596 -10.6299212598,0.0 0.0,-38.4063676875 10.6299212598,0.0 0.0,-37.6977062596 -10.6299212598,0.0 0.0,-38.4063676875 10.6299212598,0.0 0.0,-37.6977062596 -10.6299212598,0.0 0.0,-38.4063676875 10.6299212598,0.0 0.0,-37.6977062596 -10.6299212598,0.0 0.0,-38.4063676875 10.6299212598,0.0 0.0,-37.6977062596 -10.6299212598,0.0 0.0,-38.4063676875 10.6299212598,0.0 0.0,-37.8748716164 z" />
  <path
     transform="translate(-78.6557927402,1632.95838448)"
     style="fill:none;stroke:#FF0000;"
     id="box_right_side"
     d="m 10.6299212598,0.0 134.645669291,0.0 0.0,37.8748716164 10.6299212598,0.0 0.0,38.4063676875 -10.6299212598,0.0 0.0,37.6977062596 10.6299212598,0.0 0.0,38.4063676875 -10.6299212598,0.0 0.0,37.6977062596 10.6299212598,0.0 0.0,38.4063676875 -10.6299212598,0.0 0.0,37.6977062596 10.6299212598,0.0 0.0,38.4063676875 -10.6299212598,0.0 0.0,37.6977062596 10.6299212598,0.0 0.0,38.4063676875 -10.6299212598,0.0 0.0,37.6977062596 10.6299212598,0.0 0.0,38.4063676875 -10.6299212598,0.0 0.0,37.6977062596 10.6299212598,0.0 0.0,38.4063676875 -10.6299212598,0.0 0.0,37.6977062596 10.6299212598,0.0 0.0,38.4063676875 -10.6299212598,0.0 0.0,37.6977062596 10.6299212598,0.0 0.0,38.4063676875 -10.6299212598,0.0 0.0,37.6977062596 10.6299212598,0.0 0.0,38.4063676875 -10.6299212598,0.0 0.0,37.6977062596 10.6299212598,0.0 0.0,38.4063676875 -10.6299212598,0.0 0.0,37.8748716164 -24.6259842492,0.0 0.0,10.6299212598 -35.78740158,0.0 0.0,-10.6299212598 -35.0787401521,0.0 0.0,10.6299212598 -35.78740158,0.0 0.0,-10.6299212598 -24.6259842492,0.0 0.0,-37.8748716164 -10.6299212598,0.0 0.0,-38.4063676875 10.6299212598,0.0 0.0,-37.6977062596 -10.6299212598,0.0 0.0,-38.4063676875 10.6299212598,0.0 0.0,-37.6977062596 -10.6299212598,0.0 0.0,-38.4063676875 10.6299212598,0.0 0.0,-37.6977062596 -10.6299212598,0.0 0.0,-38.4063676875 10.6299212598,0.0 0.0,-37.6977062596 -10.6299212598,0.0 0.0,-38.4063676875 10.6299212598,0.0 0.0,-37.6977062596 -10.6299212598,0.0 0.0,-38.4063676875 10.6299212598,0.0 0.0,-37.6977062596 -10.6299212598,0.0 0.0,-38.4063676875 10.6299212598,0.0 0.0,-37.6977062596 -10.6299212598,0.0 0.0,-38.4063676875 10.6299212598,0.0 0.0,-37.6977062596 -10.6299212598,0.0 0.0,-38.4063676875 10.6299212598,0.0 0.0,-37.6977062596 -10.6299212598,0.0 0.0,-38.4063676875 10.6299212598,0.0 0.0,-37.6977062596 -10.6299212598,0.0 0.0,-38.4063676875 10.6299212598,0.0 0.0,-37.8748716164 z" />
  <path
     style="opacity:1;fill:none;fill-opacity:1;fill-rule:nonzero;stroke:#000080;stroke-width:0.57023132;stroke-miterlimit:4;stroke-dasharray:none;stroke-opacity:1"
     d="M -912.04688 81.199219 L -1009.0684 178.6582 L -1009.0684 587.84375 L -912.37695 684.76172 L -221.02148 684.76172 L -123.80859 587.48438 L -123.80859 178.74805 L -220.82617 81.199219 L -234.4668 81.199219 L -455.78125 81.199219 L -898.4082 81.199219 L -912.04688 81.199219 z M -917.93359 121.83984 L -214.94336 121.83984 L -214.94336 644.12305 L -917.93359 644.12305 L -917.93359 121.83984 z "
     id="rect4275" />
</svg>
