<?xml version="1.0" encoding="UTF-8" standalone="no"?>
<!-- Created with Inkscape (http://www.inkscape.org/) -->

<svg
   xmlns:dc="http://purl.org/dc/elements/1.1/"
   xmlns:cc="http://creativecommons.org/ns#"
   xmlns:rdf="http://www.w3.org/1999/02/22-rdf-syntax-ns#"
   xmlns:svg="http://www.w3.org/2000/svg"
   xmlns="http://www.w3.org/2000/svg"
   xmlns:sodipodi="http://sodipodi.sourceforge.net/DTD/sodipodi-0.dtd"
   xmlns:inkscape="http://www.inkscape.org/namespaces/inkscape"
   width="210mm"
   height="297mm"
   viewBox="0 0 210 297"
   version="1.1"
   id="svg8"
   inkscape:version="0.92.3 (2405546, 2018-03-11)"
   sodipodi:docname="Fabolo.svg">
  <defs
     id="defs2" />
  <sodipodi:namedview
     id="base"
     pagecolor="#ffffff"
     bordercolor="#666666"
     borderopacity="1.0"
     inkscape:pageopacity="0.0"
     inkscape:pageshadow="2"
     inkscape:zoom="2.8"
     inkscape:cx="588.79302"
     inkscape:cy="985.98528"
     inkscape:document-units="mm"
     inkscape:current-layer="layer1"
     showgrid="false"
     inkscape:window-width="1853"
     inkscape:window-height="1025"
     inkscape:window-x="67"
     inkscape:window-y="27"
     inkscape:window-maximized="1" />
  <metadata
     id="metadata5">
    <rdf:RDF>
      <cc:Work
         rdf:about="">
        <dc:format>image/svg+xml</dc:format>
        <dc:type
           rdf:resource="http://purl.org/dc/dcmitype/StillImage" />
        <dc:title />
      </cc:Work>
    </rdf:RDF>
  </metadata>
  <g
     inkscape:label="Calque 1"
     inkscape:groupmode="layer"
     id="layer1">
    <g
       id="g829"
       transform="translate(-28.72619,-14.363095)"
       style="stroke-width:0.5;stroke-miterlimit:4;stroke-dasharray:none">
      <path
         inkscape:connector-curvature="0"
         id="path912"
         d="m 103.66164,35.355351 c -0.30511,-0.0056 -0.60491,0.01197 -0.89963,0.05274 l -1.01566,0.140293 c -0.99247,0.137298 -1.918416,0.529205 -2.777849,1.174562 -0.921249,-0.732848 -2.123649,-1.099933 -3.608448,-1.099933 H 74.021515 c -2.162278,0 -4.025766,0.532975 -5.590573,1.598871 -1.564807,1.065896 -2.347123,2.335355 -2.347123,3.808229 v 27.005961 c 0,1.220938 0.626002,2.248111 1.877846,3.081446 1.223394,0.85272 2.702794,1.278991 4.438308,1.278991 h 0.08519 c 1.763965,0 3.27202,-0.426271 4.523865,-1.278991 1.223395,-0.852713 1.83525,-1.879885 1.83525,-3.081446 V 56.146471 L 94.671929,56.642772 93.0838,84.217291 c -0.131506,2.196565 0.553831,4.143951 2.055932,5.842218 1.471345,1.672275 3.113784,2.382998 4.927428,2.132097 l 0.79828,-0.110499 c 1.37837,-0.190685 2.48885,-0.798256 3.33157,-1.822497 0.83169,-0.962194 1.19858,-2.16249 1.10086,-3.601215 l -0.67344,-11.025694 13.74748,-1.901872 0.81702,2.1996 c 0.48253,1.264474 0.95894,4.091693 3.42374,5.412637 1.16439,0.746568 3.83949,2.072184 4.87601,1.702245 l 2.60195,-0.928521 c 0.72606,-0.259134 1.81596,-1.438409 1.47944,-3.424531 -1.32251,-3.558074 -0.22744,-1.629567 -1.32264,-3.557968 L 112.3385,41.435173 c -1.10178,-2.02595 -2.57444,-3.592299 -4.41774,-4.698775 -1.51733,-0.896294 -2.93696,-1.356543 -4.25912,-1.381047 z m -24.817363,6.779443 16.515776,0.5232 c 0.06061,0.0023 0.120655,1.35e-4 0.181031,5.41e-4 -0.06708,0.41922 -0.113754,0.852597 -0.138802,1.301141 l -0.351042,6.097228 -16.206963,0.508168 z m 26.107323,4.724355 10.30134,18.951746 -11.78885,1.631044 z"
         style="font-style:normal;font-variant:normal;font-weight:normal;font-stretch:normal;font-size:119.79160309px;line-height:1.25;font-family:Dyuthi;-inkscape-font-specification:'Dyuthi, Normal';font-variant-ligatures:normal;font-variant-caps:normal;font-variant-numeric:normal;font-feature-settings:normal;text-align:start;letter-spacing:0px;word-spacing:0px;writing-mode:lr-tb;text-anchor:start;fill:none;fill-opacity:1;stroke:#000000;stroke-width:0.5;stroke-opacity:1;stroke-miterlimit:4;stroke-dasharray:none" />
      <path
         d="m 144.06988,64.460217 q -1.87377,0.376897 -2.62685,0.553152 -0.58192,0.136199 -1.09755,-0.08218 -0.5841,-0.202355 -0.76111,-0.592451 l -3.94503,-8.69366 q -0.21495,-0.473691 0.091,-0.88435 0.30592,-0.410658 0.85361,-0.538844 l 2.15656,-0.504733 q 4.10772,-0.961394 7.00596,-0.49924 3.21003,0.48165 4.77793,3.936822 1.37822,3.037209 -0.7265,4.824403 -1.96257,1.599805 -5.72799,2.481084 z M 129.48158,42.07517 q -0.44256,-0.97525 0.79871,-1.327409 1.21967,-0.31628 2.85011,-0.728705 6.67507,-1.562268 8.98681,3.198343 1.21908,2.519627 -0.3327,4.023292 -1.56444,1.475798 -5.32986,2.357077 l -1.81424,0.424616 q -0.66303,0.124379 -1.16603,-0.06616 -0.51563,-0.218379 -0.69265,-0.608476 z m 20.25813,5.923646 q -0.16437,-0.362233 0.1363,-0.617547 4.90149,-3.551412 2.91634,-7.926107 -2.17482,-4.792658 -8.57853,-5.636494 -5.06653,-0.817737 -14.41531,1.277833 -4.30416,0.945725 -4.64648,1.02584 -3.27724,0.705375 -4.28259,0.909849 -1.79265,0.388741 -2.69406,1.740183 -0.84558,1.307556 -0.16278,2.812228 l 12.63163,27.836418 q 0.72074,1.588266 2.53253,2.243053 2.02087,0.698322 3.7756,0.225986 6.02621,-1.656994 6.41539,-1.717262 13.20056,-3.120329 16.60418,-6.968494 3.45576,-3.983635 1.46166,-8.294589 -2.78174,-6.130142 -10.88219,-6.206981 -0.50822,-0.03517 -0.81169,-0.703916 z"
         style="font-style:normal;font-variant:normal;font-weight:normal;font-stretch:normal;font-size:110.47452545px;line-height:1.25;font-family:Dyuthi;-inkscape-font-specification:'Dyuthi, Normal';font-variant-ligatures:normal;font-variant-caps:normal;font-variant-numeric:normal;font-feature-settings:normal;text-align:start;letter-spacing:0px;word-spacing:0px;writing-mode:lr-tb;text-anchor:start;fill:none;fill-opacity:1;stroke:#000000;stroke-width:0.5;stroke-opacity:1;stroke-miterlimit:4;stroke-dasharray:none"
         id="path909"
         inkscape:connector-curvature="0" />
      <path
         d="m 162.22533,46.139198 q -1.62345,-1.578813 -1.60671,-5.732901 0,-2.109398 1.60671,-3.662328 1.58999,-1.527049 3.79923,-1.527049 2.00839,0 3.69879,1.527049 1.6904,1.527048 1.6904,3.662328 0,4.205852 -1.6904,5.732901 -1.6904,1.527048 -3.79922,1.527048 -2.10881,0 -3.6988,-1.527048 z m 3.79923,-13.09638 q -0.23432,0 -0.71968,0.05177 -4.06701,0.284704 -6.92897,2.497629 -2.96238,2.264691 -2.96238,5.965842 0,3.416447 2.59417,5.538785 2.59418,2.122337 7.29718,2.471747 0.318,0.0647 0.45188,0.05176 0.0502,-0.01295 0.11716,0 h 0.28453 q 0.0502,0.01294 0.11716,0 0.15062,-0.03883 0.45188,-0.05176 4.56911,-0.219999 7.29718,-2.471747 2.61091,-2.161162 2.59418,-5.538785 0.0167,-3.675269 -2.96239,-5.965842 -2.67786,-2.096455 -6.92897,-2.497629 -0.45188,-0.05177 -0.70293,-0.05177 z"
         style="font-style:normal;font-variant:normal;font-weight:normal;font-stretch:normal;font-size:50.05294418px;line-height:1.25;font-family:Dyuthi;-inkscape-font-specification:'Dyuthi, Normal';font-variant-ligatures:normal;font-variant-caps:normal;font-variant-numeric:normal;font-feature-settings:normal;text-align:start;letter-spacing:0px;word-spacing:0px;writing-mode:lr-tb;text-anchor:start;fill:none;fill-opacity:1;stroke:#000000;stroke-width:0.5;stroke-opacity:1;stroke-miterlimit:4;stroke-dasharray:none"
         id="path906"
         inkscape:connector-curvature="0" />
      <path
         d="m 185.0956,38.500573 q 2.22634,0.788828 3.04163,2.318004 0.78217,1.461063 -0.0251,2.950907 l -11.21618,20.493724 12.66758,3.952747 q 1.38365,0.43387 1.93846,1.673436 0.55062,1.181697 -0.03,2.30081 l -0.0247,0.04761 q -0.78656,1.581764 -2.24333,2.080397 -1.36188,0.447694 -2.77864,-0.05429 l -16.62528,-5.890609 q -1.67698,-0.594183 -2.36822,-1.96665 -0.66231,-1.362218 0.0666,-2.767062 l 11.91079,-22.953731 q 0.72898,-1.404845 2.56953,-2.049388 1.75802,-0.617409 3.03021,-0.166649 z"
         style="font-style:normal;font-variant:normal;font-weight:normal;font-stretch:normal;font-size:97.09532166px;line-height:1.25;font-family:Dyuthi;-inkscape-font-specification:'Dyuthi, Normal';font-variant-ligatures:normal;font-variant-caps:normal;font-variant-numeric:normal;font-feature-settings:normal;text-align:start;letter-spacing:0px;word-spacing:0px;writing-mode:lr-tb;text-anchor:start;fill:none;fill-opacity:1;stroke:#000000;stroke-width:0.5;stroke-opacity:1;stroke-miterlimit:4;stroke-dasharray:none"
         id="path903"
         inkscape:connector-curvature="0" />
      <path
         d="m 190.8832,64.766865 q -1.62347,-1.578813 -1.60673,-5.732902 0,-2.109398 1.60673,-3.662328 1.58997,-1.527048 3.79921,-1.527048 2.00839,0 3.6988,1.527048 1.69039,1.527049 1.69039,3.662328 0,4.205852 -1.69039,5.732902 -1.69041,1.527047 -3.79922,1.527047 -2.10882,0 -3.69879,-1.527047 z m 3.79921,-13.096381 q -0.23431,0 -0.71968,0.05176 -4.067,0.284703 -6.92896,2.497629 -2.96239,2.26469 -2.96239,5.965841 0,3.416447 2.59417,5.538785 2.59418,2.122339 7.29718,2.471747 0.31799,0.06471 0.45189,0.05177 0.0502,-0.01296 0.11716,0 h 0.28452 q 0.0502,0.01296 0.11716,0 0.15063,-0.03883 0.45189,-0.05177 4.5691,-0.219999 7.29717,-2.471747 2.61092,-2.161161 2.59419,-5.538785 0.0167,-3.675269 -2.9624,-5.965841 -2.67785,-2.096456 -6.92896,-2.497629 -0.45189,-0.05176 -0.70294,-0.05176 z"
         style="font-style:normal;font-variant:normal;font-weight:normal;font-stretch:normal;font-size:50.05294418px;line-height:1.25;font-family:Dyuthi;-inkscape-font-specification:'Dyuthi, Normal';font-variant-ligatures:normal;font-variant-caps:normal;font-variant-numeric:normal;font-feature-settings:normal;text-align:start;letter-spacing:0px;word-spacing:0px;writing-mode:lr-tb;text-anchor:start;fill:none;fill-opacity:1;stroke:#000000;stroke-width:0.5;stroke-opacity:1;stroke-miterlimit:4;stroke-dasharray:none"
         id="path900"
         inkscape:connector-curvature="0" />
      <path
         d="m 86.369647,87.696923 q 5.165831,-2.113285 4.616277,-4.936774 -0.384695,-2.113286 -3.901854,-3.429761 -3.65455,-1.368434 -8.435692,-1.333789 -1.758581,0.0173 -2.500483,0.06928 -1.071634,0.06929 -2.692826,0.346439 -1.731103,0.294473 -1.731103,1.420409 v 0.03465 q 0.02748,0.710202 0.961724,1.19522 0.824335,0.381084 2.060837,0.242504 0.63199,-0.06928 1.291457,-0.121249 0.52208,-0.05196 1.126592,-0.06929 2.308136,0.0173 4.011762,0.692883 1.703625,0.710197 1.841014,1.645588 0.192344,1.091286 -1.51128,2.026672 -0.796858,0.450378 -3.489684,0.918066 -1.978404,0.329124 -1.978404,1.610944 v 0.0693 q 0,0.640919 0.604513,1.073961 0.659468,0.4677 1.621192,0.57163 1.786058,0.17322 2.363093,0.381081 1.291458,0.41573 2.033359,1.316472 0.412168,0.467699 0.412168,1.766843 v 0.19054 q 0,1.264511 -2.66535,2.14794 -2.253182,0.76217 -5.165831,0.415722 l -0.192345,-0.03469 q -1.209025,-0.190549 -2.308137,0.450371 -1.01668,0.571622 -1.01668,1.385761 v 0 q 0.02748,0.65824 0.659469,1.195213 0.329732,0.25983 1.648668,0.623599 0.219823,0.05195 0.522079,0.10393 1.923448,0.259831 4.31402,0.259831 5.110874,0 9.012726,-1.507013 3.736983,-1.455051 4.506366,-3.828164 0.60451,-1.83614 -1.04416,-3.672272 -1.648671,-1.818804 -4.973487,-3.221878 z"
         style="font-style:normal;font-variant:normal;font-weight:normal;font-stretch:normal;font-size:74.19940186px;line-height:1.25;font-family:Dyuthi;-inkscape-font-specification:'Dyuthi, Normal';font-variant-ligatures:normal;font-variant-caps:normal;font-variant-numeric:normal;font-feature-settings:normal;text-align:start;letter-spacing:0px;word-spacing:0px;writing-mode:lr-tb;text-anchor:start;fill:none;fill-opacity:1;stroke:#000000;stroke-width:0.5;stroke-opacity:1;stroke-miterlimit:4;stroke-dasharray:none"
         id="path897"
         inkscape:connector-curvature="0" />
      <path
         d="m 114.59395,100.11181 q -0.88582,-0.0112 -1.54072,-0.497858 -0.58877,-0.469233 -0.57505,-1.161639 l 0.25529,-12.875512 q 0.0141,-0.708892 0.6208,-1.146389 0.65171,-0.469898 1.55968,-0.458319 l 0.0221,2.85e-4 q 4.25194,0.05422 7.20105,2.136598 2.68697,1.897651 2.62617,4.964038 -0.10427,5.259006 -2.86511,7.08718 -3.03018,2.006126 -7.28211,1.951896 z m -5.83859,-18.345477 q -0.84251,0.03874 -1.40465,0.460294 -0.5846,0.437778 -0.59736,1.080732 l -0.33994,17.145361 q -0.013,0.65944 0.53142,1.12811 0.56695,0.45246 1.45212,0.49672 5.48817,0.26788 6.94978,0.28652 7.9281,0.1011 12.43655,-2.727168 4.17333,-2.684134 4.26224,-7.168306 0.099,-4.995232 -4.87014,-7.977356 -4.70704,-2.797386 -12.14793,-2.892278 -1.48376,-0.01893 -6.27209,0.167371 z"
         style="font-style:normal;font-variant:normal;font-weight:normal;font-stretch:normal;font-size:64.99272919px;line-height:1.25;font-family:Dyuthi;-inkscape-font-specification:'Dyuthi, Normal';font-variant-ligatures:normal;font-variant-caps:normal;font-variant-numeric:normal;font-feature-settings:normal;text-align:start;letter-spacing:0px;word-spacing:0px;writing-mode:lr-tb;text-anchor:start;fill:none;fill-opacity:1;stroke:#000000;stroke-width:0.5;stroke-opacity:1;stroke-miterlimit:4;stroke-dasharray:none"
         id="path894"
         inkscape:connector-curvature="0" />
    </g>
  </g>
</svg>
