  0
SECTION
  2
HEADER
  9
$ACADVER
  1
AC1014
  9
$HANDSEED
  5
FFFF
  9
$MEASUREMENT
 70
     1
  0
ENDSEC
  0
SECTION
  2
TABLES
  0
TABLE
  2
VPORT
  5
8
330
0
100
AcDbSymbolTable
 70
     4
  0
VPORT
  5
2E
330
8
100
AcDbSymbolTableRecord
100
AcDbViewportTableRecord
  2
*ACTIVE
 70
     0
 10
0.0
 20
0.0
 11
1.0
 21
1.0
 12
210.0
 22
148.5
 13
0.0
 23
0.0
 14
10.0
 24
10.0
 15
10.0
 25
10.0
 16
0.0
 26
0.0
 36
1.0
 17
0.0
 27
0.0
 37
0.0
 40
341.0
 41
1.24
 42
50.0
 43
0.0
 44
0.0
 50
0.0
 51
0.0
 71
     0
 72
   100
 73
     1
 74
     3
 75
     0
 76
     0
 77
     0
 78
     0
  0
ENDTAB
  0
TABLE
  2
LTYPE
  5
5
330
0
100
AcDbSymbolTable
 70
     1
  0
LTYPE
  5
14
330
5
100
AcDbSymbolTableRecord
100
AcDbLinetypeTableRecord
  2
BYBLOCK
 70
     0
  3

 72
    65
 73
     0
 40
0.0
  0
LTYPE
  5
15
330
5
100
AcDbSymbolTableRecord
100
AcDbLinetypeTableRecord
  2
BYLAYER
 70
     0
  3

 72
    65
 73
     0
 40
0.0
  0
LTYPE
  5
16
330
5
100
AcDbSymbolTableRecord
100
AcDbLinetypeTableRecord
  2
CONTINUOUS
 70
     0
  3
Solid line
 72
    65
 73
     0
 40
0.0
  0
ENDTAB
  0
TABLE
  2
LAYER
  5
2
100
AcDbSymbolTable
 70
2
  0
LAYER
  5
50
100
AcDbSymbolTableRecord
100
AcDbLayerTableRecord
  2
0
 70
0
  6
CONTINUOUS
  0
LAYER
  5
51
100
AcDbSymbolTableRecord
100
AcDbLayerTableRecord
  2
Calque_1
 70
0
  6
CONTINUOUS
  0
ENDTAB
  0
TABLE
  2
STYLE
  5
3
330
0
100
AcDbSymbolTable
 70
     1
  0
STYLE
  5
11
330
3
100
AcDbSymbolTableRecord
100
AcDbTextStyleTableRecord
  2
STANDARD
 70
     0
 40
0.0
 41
1.0
 50
0.0
 71
     0
 42
2.5
  3
txt
  4

  0
ENDTAB
  0
TABLE
  2
VIEW
  5
6
330
0
100
AcDbSymbolTable
 70
     0
  0
ENDTAB
  0
TABLE
  2
UCS
  5
7
330
0
100
AcDbSymbolTable
 70
     0
  0
ENDTAB
  0
TABLE
  2
APPID
  5
9
330
0
100
AcDbSymbolTable
 70
     2
  0
APPID
  5
12
330
9
100
AcDbSymbolTableRecord
100
AcDbRegAppTableRecord
  2
ACAD
 70
     0
  0
ENDTAB
  0
TABLE
  2
DIMSTYLE
  5
A
330
0
100
AcDbSymbolTable
 70
     1
  0
DIMSTYLE
105
27
330
A
100
AcDbSymbolTableRecord
100
AcDbDimStyleTableRecord
  2
ISO-25
 70
     0
  3

  4

  5

  6

  7

 40
1.0
 41
2.5
 42
0.625
 43
3.75
 44
1.25
 45
0.0
 46
0.0
 47
0.0
 48
0.0
140
2.5
141
2.5
142
0.0
143
0.03937007874016
144
1.0
145
0.0
146
1.0
147
0.625
 71
     0
 72
     0
 73
     0
 74
     0
 75
     0
 76
     0
 77
     1
 78
     8
170
     0
171
     3
172
     1
173
     0
174
     0
175
     0
176
     0
177
     0
178
     0
270
     2
271
     2
272
     2
273
     2
274
     3
340
11
275
     0
280
     0
281
     0
282
     0
283
     0
284
     8
285
     0
286
     0
287
     3
288
     0
  0
ENDTAB
  0
TABLE
  2
BLOCK_RECORD
  5
1
330
0
100
AcDbSymbolTable
 70
     1
  0
BLOCK_RECORD
  5
1F
330
1
100
AcDbSymbolTableRecord
100
AcDbBlockTableRecord
  2
*MODEL_SPACE
  0
BLOCK_RECORD
  5
1B
330
1
100
AcDbSymbolTableRecord
100
AcDbBlockTableRecord
  2
*PAPER_SPACE
  0
ENDTAB
  0
ENDSEC
  0
SECTION
  2
BLOCKS
  0
BLOCK
  5
20
330
1F
100
AcDbEntity
  8
0
100
AcDbBlockBegin
  2
*MODEL_SPACE
 70
     0
 10
0.0
 20
0.0
 30
0.0
  3
*MODEL_SPACE
  1

  0
ENDBLK
  5
21
330
1F
100
AcDbEntity
  8
0
100
AcDbBlockEnd
  0
BLOCK
  5
1C
330
1B
100
AcDbEntity
 67
     1
  8
0
100
AcDbBlockBegin
  2
*PAPER_SPACE
  1

  0
ENDBLK
  5
1D
330
1B
100
AcDbEntity
 67
     1
  8
0
100
AcDbBlockEnd
  0
ENDSEC
  0
SECTION
  2
ENTITIES
  0
SPLINE
  5
100
100
AcDbEntity
  8
Calque_1
 62
7
100
AcDbSpline
 70
8
 71
3
 72
8
 73
4
 74
0
 40
0
 40
0
 40
0
 40
0
 40
1
 40
1
 40
1
 40
1
 10
103.661640
 20
261.644649
 30
0.0
 10
103.356530
 20
261.650249
 30
0.0
 10
103.056730
 20
261.632679
 30
0.0
 10
102.762010
 20
261.591909
 30
0.0
  0
LINE
  5
101
100
AcDbEntity
  8
Calque_1
 62
7
100
AcDbLine
 10
102.762010
 20
261.591909
 30
0.0
 11
101.746350
 21
261.451616
 31
0.0
  0
SPLINE
  5
102
100
AcDbEntity
  8
Calque_1
 62
7
100
AcDbSpline
 70
8
 71
3
 72
8
 73
4
 74
0
 40
0
 40
0
 40
0
 40
0
 40
1
 40
1
 40
1
 40
1
 10
101.746350
 20
261.451616
 30
0.0
 10
100.753880
 20
261.314318
 30
0.0
 10
99.827934
 20
260.922411
 30
0.0
 10
98.968501
 20
260.277054
 30
0.0
  0
SPLINE
  5
103
100
AcDbEntity
  8
Calque_1
 62
7
100
AcDbSpline
 70
8
 71
3
 72
8
 73
4
 74
0
 40
0
 40
0
 40
0
 40
0
 40
1
 40
1
 40
1
 40
1
 10
98.968501
 20
260.277054
 30
0.0
 10
98.047252
 20
261.009902
 30
0.0
 10
96.844852
 20
261.376987
 30
0.0
 10
95.360053
 20
261.376987
 30
0.0
  0
LINE
  5
104
100
AcDbEntity
  8
Calque_1
 62
7
100
AcDbLine
 10
95.360053
 20
261.376987
 30
0.0
 11
74.021515
 21
261.376987
 31
0.0
  0
SPLINE
  5
105
100
AcDbEntity
  8
Calque_1
 62
7
100
AcDbSpline
 70
8
 71
3
 72
8
 73
4
 74
0
 40
0
 40
0
 40
0
 40
0
 40
1
 40
1
 40
1
 40
1
 10
74.021515
 20
261.376987
 30
0.0
 10
71.859237
 20
261.376987
 30
0.0
 10
69.995749
 20
260.844012
 30
0.0
 10
68.430942
 20
259.778116
 30
0.0
  0
SPLINE
  5
106
100
AcDbEntity
  8
Calque_1
 62
7
100
AcDbSpline
 70
8
 71
3
 72
8
 73
4
 74
0
 40
0
 40
0
 40
0
 40
0
 40
1
 40
1
 40
1
 40
1
 10
68.430942
 20
259.778116
 30
0.0
 10
66.866135
 20
258.712220
 30
0.0
 10
66.083819
 20
257.442761
 30
0.0
 10
66.083819
 20
255.969887
 30
0.0
  0
LINE
  5
107
100
AcDbEntity
  8
Calque_1
 62
7
100
AcDbLine
 10
66.083819
 20
255.969887
 30
0.0
 11
66.083819
 21
228.963926
 31
0.0
  0
SPLINE
  5
108
100
AcDbEntity
  8
Calque_1
 62
7
100
AcDbSpline
 70
8
 71
3
 72
8
 73
4
 74
0
 40
0
 40
0
 40
0
 40
0
 40
1
 40
1
 40
1
 40
1
 10
66.083819
 20
228.963926
 30
0.0
 10
66.083819
 20
227.742988
 30
0.0
 10
66.709821
 20
226.715815
 30
0.0
 10
67.961665
 20
225.882480
 30
0.0
  0
SPLINE
  5
109
100
AcDbEntity
  8
Calque_1
 62
7
100
AcDbSpline
 70
8
 71
3
 72
8
 73
4
 74
0
 40
0
 40
0
 40
0
 40
0
 40
1
 40
1
 40
1
 40
1
 10
67.961665
 20
225.882480
 30
0.0
 10
69.185059
 20
225.029760
 30
0.0
 10
70.664459
 20
224.603489
 30
0.0
 10
72.399973
 20
224.603489
 30
0.0
  0
LINE
  5
10a
100
AcDbEntity
  8
Calque_1
 62
7
100
AcDbLine
 10
72.399973
 20
224.603489
 30
0.0
 11
72.485163
 21
224.603489
 31
0.0
  0
SPLINE
  5
10b
100
AcDbEntity
  8
Calque_1
 62
7
100
AcDbSpline
 70
8
 71
3
 72
8
 73
4
 74
0
 40
0
 40
0
 40
0
 40
0
 40
1
 40
1
 40
1
 40
1
 10
72.485163
 20
224.603489
 30
0.0
 10
74.249128
 20
224.603489
 30
0.0
 10
75.757183
 20
225.029760
 30
0.0
 10
77.009028
 20
225.882480
 30
0.0
  0
SPLINE
  5
10c
100
AcDbEntity
  8
Calque_1
 62
7
100
AcDbSpline
 70
8
 71
3
 72
8
 73
4
 74
0
 40
0
 40
0
 40
0
 40
0
 40
1
 40
1
 40
1
 40
1
 10
77.009028
 20
225.882480
 30
0.0
 10
78.232423
 20
226.735193
 30
0.0
 10
78.844278
 20
227.762365
 30
0.0
 10
78.844278
 20
228.963926
 30
0.0
  0
LINE
  5
10d
100
AcDbEntity
  8
Calque_1
 62
7
100
AcDbLine
 10
78.844278
 20
228.963926
 30
0.0
 11
78.844278
 21
240.853529
 31
0.0
  0
LINE
  5
10e
100
AcDbEntity
  8
Calque_1
 62
7
100
AcDbLine
 10
78.844278
 20
240.853529
 30
0.0
 11
94.671929
 21
240.357228
 31
0.0
  0
LINE
  5
10f
100
AcDbEntity
  8
Calque_1
 62
7
100
AcDbLine
 10
94.671929
 20
240.357228
 30
0.0
 11
93.083800
 21
212.782709
 31
0.0
  0
SPLINE
  5
110
100
AcDbEntity
  8
Calque_1
 62
7
100
AcDbSpline
 70
8
 71
3
 72
8
 73
4
 74
0
 40
0
 40
0
 40
0
 40
0
 40
1
 40
1
 40
1
 40
1
 10
93.083800
 20
212.782709
 30
0.0
 10
92.952294
 20
210.586144
 30
0.0
 10
93.637631
 20
208.638758
 30
0.0
 10
95.139732
 20
206.940491
 30
0.0
  0
SPLINE
  5
111
100
AcDbEntity
  8
Calque_1
 62
7
100
AcDbSpline
 70
8
 71
3
 72
8
 73
4
 74
0
 40
0
 40
0
 40
0
 40
0
 40
1
 40
1
 40
1
 40
1
 10
95.139732
 20
206.940491
 30
0.0
 10
96.611077
 20
205.268216
 30
0.0
 10
98.253516
 20
204.557493
 30
0.0
 10
100.067160
 20
204.808394
 30
0.0
  0
LINE
  5
112
100
AcDbEntity
  8
Calque_1
 62
7
100
AcDbLine
 10
100.067160
 20
204.808394
 30
0.0
 11
100.865440
 21
204.918893
 31
0.0
  0
SPLINE
  5
113
100
AcDbEntity
  8
Calque_1
 62
7
100
AcDbSpline
 70
8
 71
3
 72
8
 73
4
 74
0
 40
0
 40
0
 40
0
 40
0
 40
1
 40
1
 40
1
 40
1
 10
100.865440
 20
204.918893
 30
0.0
 10
102.243810
 20
205.109578
 30
0.0
 10
103.354290
 20
205.717149
 30
0.0
 10
104.197010
 20
206.741390
 30
0.0
  0
SPLINE
  5
114
100
AcDbEntity
  8
Calque_1
 62
7
100
AcDbSpline
 70
8
 71
3
 72
8
 73
4
 74
0
 40
0
 40
0
 40
0
 40
0
 40
1
 40
1
 40
1
 40
1
 10
104.197010
 20
206.741390
 30
0.0
 10
105.028700
 20
207.703584
 30
0.0
 10
105.395590
 20
208.903880
 30
0.0
 10
105.297870
 20
210.342605
 30
0.0
  0
LINE
  5
115
100
AcDbEntity
  8
Calque_1
 62
7
100
AcDbLine
 10
105.297870
 20
210.342605
 30
0.0
 11
104.624430
 21
221.368299
 31
0.0
  0
LINE
  5
116
100
AcDbEntity
  8
Calque_1
 62
7
100
AcDbLine
 10
104.624430
 20
221.368299
 30
0.0
 11
118.371910
 21
223.270171
 31
0.0
  0
LINE
  5
117
100
AcDbEntity
  8
Calque_1
 62
7
100
AcDbLine
 10
118.371910
 20
223.270171
 30
0.0
 11
119.188930
 21
221.070571
 31
0.0
  0
SPLINE
  5
118
100
AcDbEntity
  8
Calque_1
 62
7
100
AcDbSpline
 70
8
 71
3
 72
8
 73
4
 74
0
 40
0
 40
0
 40
0
 40
0
 40
1
 40
1
 40
1
 40
1
 10
119.188930
 20
221.070571
 30
0.0
 10
119.671460
 20
219.806097
 30
0.0
 10
120.147870
 20
216.978878
 30
0.0
 10
122.612670
 20
215.657934
 30
0.0
  0
SPLINE
  5
119
100
AcDbEntity
  8
Calque_1
 62
7
100
AcDbSpline
 70
8
 71
3
 72
8
 73
4
 74
0
 40
0
 40
0
 40
0
 40
0
 40
1
 40
1
 40
1
 40
1
 10
122.612670
 20
215.657934
 30
0.0
 10
123.777060
 20
214.911366
 30
0.0
 10
126.452160
 20
213.585750
 30
0.0
 10
127.488680
 20
213.955689
 30
0.0
  0
LINE
  5
11a
100
AcDbEntity
  8
Calque_1
 62
7
100
AcDbLine
 10
127.488680
 20
213.955689
 30
0.0
 11
130.090630
 21
214.884210
 31
0.0
  0
SPLINE
  5
11b
100
AcDbEntity
  8
Calque_1
 62
7
100
AcDbSpline
 70
8
 71
3
 72
8
 73
4
 74
0
 40
0
 40
0
 40
0
 40
0
 40
1
 40
1
 40
1
 40
1
 10
130.090630
 20
214.884210
 30
0.0
 10
130.816690
 20
215.143344
 30
0.0
 10
131.906590
 20
216.322619
 30
0.0
 10
131.570070
 20
218.308741
 30
0.0
  0
SPLINE
  5
11c
100
AcDbEntity
  8
Calque_1
 62
7
100
AcDbSpline
 70
8
 71
3
 72
8
 73
4
 74
0
 40
0
 40
0
 40
0
 40
0
 40
1
 40
1
 40
1
 40
1
 10
131.570070
 20
218.308741
 30
0.0
 10
130.247560
 20
221.866815
 30
0.0
 10
131.342630
 20
219.938308
 30
0.0
 10
130.247430
 20
221.866709
 30
0.0
  0
LINE
  5
11d
100
AcDbEntity
  8
Calque_1
 62
7
100
AcDbLine
 10
130.247430
 20
221.866709
 30
0.0
 11
112.338500
 21
255.564827
 31
0.0
  0
SPLINE
  5
11e
100
AcDbEntity
  8
Calque_1
 62
7
100
AcDbSpline
 70
8
 71
3
 72
8
 73
4
 74
0
 40
0
 40
0
 40
0
 40
0
 40
1
 40
1
 40
1
 40
1
 10
112.338500
 20
255.564827
 30
0.0
 10
111.236720
 20
257.590777
 30
0.0
 10
109.764060
 20
259.157126
 30
0.0
 10
107.920760
 20
260.263602
 30
0.0
  0
SPLINE
  5
11f
100
AcDbEntity
  8
Calque_1
 62
7
100
AcDbSpline
 70
8
 71
3
 72
8
 73
4
 74
0
 40
0
 40
0
 40
0
 40
0
 40
1
 40
1
 40
1
 40
1
 10
107.920760
 20
260.263602
 30
0.0
 10
106.403430
 20
261.159896
 30
0.0
 10
104.983800
 20
261.620145
 30
0.0
 10
103.661640
 20
261.644649
 30
0.0
  0
LINE
  5
120
100
AcDbEntity
  8
Calque_1
 62
7
100
AcDbLine
 10
103.661640
 20
261.644649
 30
0.0
 11
103.661640
 21
261.644649
 31
0.0
  0
LINE
  5
121
100
AcDbEntity
  8
Calque_1
 62
7
100
AcDbLine
 10
78.844277
 20
254.865206
 30
0.0
 11
95.360053
 21
254.342006
 31
0.0
  0
SPLINE
  5
122
100
AcDbEntity
  8
Calque_1
 62
7
100
AcDbSpline
 70
8
 71
3
 72
8
 73
4
 74
0
 40
0
 40
0
 40
0
 40
0
 40
1
 40
1
 40
1
 40
1
 10
95.360053
 20
254.342006
 30
0.0
 10
95.420663
 20
254.339706
 30
0.0
 10
95.480708
 20
254.341871
 30
0.0
 10
95.541084
 20
254.341465
 30
0.0
  0
SPLINE
  5
123
100
AcDbEntity
  8
Calque_1
 62
7
100
AcDbSpline
 70
8
 71
3
 72
8
 73
4
 74
0
 40
0
 40
0
 40
0
 40
0
 40
1
 40
1
 40
1
 40
1
 10
95.541084
 20
254.341465
 30
0.0
 10
95.474004
 20
253.922245
 30
0.0
 10
95.427330
 20
253.488868
 30
0.0
 10
95.402282
 20
253.040324
 30
0.0
  0
LINE
  5
124
100
AcDbEntity
  8
Calque_1
 62
7
100
AcDbLine
 10
95.402282
 20
253.040324
 30
0.0
 11
95.051240
 21
246.943096
 31
0.0
  0
LINE
  5
125
100
AcDbEntity
  8
Calque_1
 62
7
100
AcDbLine
 10
95.051240
 20
246.943096
 30
0.0
 11
78.844277
 21
246.434928
 31
0.0
  0
LINE
  5
126
100
AcDbEntity
  8
Calque_1
 62
7
100
AcDbLine
 10
78.844277
 20
246.434928
 30
0.0
 11
78.844277
 21
254.865206
 31
0.0
  0
LINE
  5
127
100
AcDbEntity
  8
Calque_1
 62
7
100
AcDbLine
 10
104.951600
 20
250.140851
 30
0.0
 11
115.252940
 21
231.189105
 31
0.0
  0
LINE
  5
128
100
AcDbEntity
  8
Calque_1
 62
7
100
AcDbLine
 10
115.252940
 20
231.189105
 30
0.0
 11
103.464090
 21
229.558061
 31
0.0
  0
LINE
  5
129
100
AcDbEntity
  8
Calque_1
 62
7
100
AcDbLine
 10
103.464090
 20
229.558061
 30
0.0
 11
104.951600
 21
250.140851
 31
0.0
  0
SPLINE
  5
12a
100
AcDbEntity
  8
Calque_1
 62
7
100
AcDbSpline
 70
8
 71
3
 72
8
 73
4
 74
0
 40
0
 40
0
 40
0
 40
0
 40
1
 40
1
 40
1
 40
1
 10
144.069880
 20
232.539783
 30
0.0
 10
142.820700
 20
232.288518
 30
0.0
 10
141.945083
 20
232.104134
 30
0.0
 10
141.443030
 20
231.986631
 30
0.0
  0
SPLINE
  5
12b
100
AcDbEntity
  8
Calque_1
 62
7
100
AcDbSpline
 70
8
 71
3
 72
8
 73
4
 74
0
 40
0
 40
0
 40
0
 40
0
 40
1
 40
1
 40
1
 40
1
 10
141.443030
 20
231.986631
 30
0.0
 10
141.055083
 20
231.895832
 30
0.0
 10
140.689233
 20
231.923225
 30
0.0
 10
140.345480
 20
232.068811
 30
0.0
  0
SPLINE
  5
12c
100
AcDbEntity
  8
Calque_1
 62
7
100
AcDbSpline
 70
8
 71
3
 72
8
 73
4
 74
0
 40
0
 40
0
 40
0
 40
0
 40
1
 40
1
 40
1
 40
1
 10
140.345480
 20
232.068811
 30
0.0
 10
139.956080
 20
232.203714
 30
0.0
 10
139.702377
 20
232.401198
 30
0.0
 10
139.584370
 20
232.661262
 30
0.0
  0
LINE
  5
12d
100
AcDbEntity
  8
Calque_1
 62
7
100
AcDbLine
 10
139.584370
 20
232.661262
 30
0.0
 11
135.639340
 21
241.354922
 31
0.0
  0
SPLINE
  5
12e
100
AcDbEntity
  8
Calque_1
 62
7
100
AcDbSpline
 70
8
 71
3
 72
8
 73
4
 74
0
 40
0
 40
0
 40
0
 40
0
 40
1
 40
1
 40
1
 40
1
 10
135.639340
 20
241.354922
 30
0.0
 10
135.496040
 20
241.670716
 30
0.0
 10
135.526373
 20
241.965499
 30
0.0
 10
135.730340
 20
242.239272
 30
0.0
  0
SPLINE
  5
12f
100
AcDbEntity
  8
Calque_1
 62
7
100
AcDbSpline
 70
8
 71
3
 72
8
 73
4
 74
0
 40
0
 40
0
 40
0
 40
0
 40
1
 40
1
 40
1
 40
1
 10
135.730340
 20
242.239272
 30
0.0
 10
135.934287
 20
242.513044
 30
0.0
 10
136.218823
 20
242.692659
 30
0.0
 10
136.583950
 20
242.778116
 30
0.0
  0
LINE
  5
130
100
AcDbEntity
  8
Calque_1
 62
7
100
AcDbLine
 10
136.583950
 20
242.778116
 30
0.0
 11
138.740510
 21
243.282849
 31
0.0
  0
SPLINE
  5
131
100
AcDbEntity
  8
Calque_1
 62
7
100
AcDbSpline
 70
8
 71
3
 72
8
 73
4
 74
0
 40
0
 40
0
 40
0
 40
0
 40
1
 40
1
 40
1
 40
1
 10
138.740510
 20
243.282849
 30
0.0
 10
141.478990
 20
243.923778
 30
0.0
 10
143.814310
 20
244.090192
 30
0.0
 10
145.746470
 20
243.782089
 30
0.0
  0
SPLINE
  5
132
100
AcDbEntity
  8
Calque_1
 62
7
100
AcDbSpline
 70
8
 71
3
 72
8
 73
4
 74
0
 40
0
 40
0
 40
0
 40
0
 40
1
 40
1
 40
1
 40
1
 10
145.746470
 20
243.782089
 30
0.0
 10
147.886490
 20
243.460989
 30
0.0
 10
149.479133
 20
242.148715
 30
0.0
 10
150.524400
 20
239.845267
 30
0.0
  0
SPLINE
  5
133
100
AcDbEntity
  8
Calque_1
 62
7
100
AcDbSpline
 70
8
 71
3
 72
8
 73
4
 74
0
 40
0
 40
0
 40
0
 40
0
 40
1
 40
1
 40
1
 40
1
 10
150.524400
 20
239.845267
 30
0.0
 10
151.443213
 20
237.820461
 30
0.0
 10
151.201047
 20
236.212327
 30
0.0
 10
149.797900
 20
235.020864
 30
0.0
  0
SPLINE
  5
134
100
AcDbEntity
  8
Calque_1
 62
7
100
AcDbSpline
 70
8
 71
3
 72
8
 73
4
 74
0
 40
0
 40
0
 40
0
 40
0
 40
1
 40
1
 40
1
 40
1
 10
149.797900
 20
235.020864
 30
0.0
 10
148.489520
 20
233.954327
 30
0.0
 10
146.580190
 20
233.127299
 30
0.0
 10
144.069910
 20
232.539780
 30
0.0
  0
LINE
  5
135
100
AcDbEntity
  8
Calque_1
 62
7
100
AcDbLine
 10
144.069910
 20
232.539780
 30
0.0
 11
144.069880
 21
232.539783
 31
0.0
  0
SPLINE
  5
136
100
AcDbEntity
  8
Calque_1
 62
7
100
AcDbSpline
 70
8
 71
3
 72
8
 73
4
 74
0
 40
0
 40
0
 40
0
 40
0
 40
1
 40
1
 40
1
 40
1
 10
129.481580
 20
254.924830
 30
0.0
 10
129.186540
 20
255.574997
 30
0.0
 10
129.452777
 20
256.017466
 30
0.0
 10
130.280290
 20
256.252239
 30
0.0
  0
SPLINE
  5
137
100
AcDbEntity
  8
Calque_1
 62
7
100
AcDbSpline
 70
8
 71
3
 72
8
 73
4
 74
0
 40
0
 40
0
 40
0
 40
0
 40
1
 40
1
 40
1
 40
1
 10
130.280290
 20
256.252239
 30
0.0
 10
131.093403
 20
256.463092
 30
0.0
 10
132.043440
 20
256.705994
 30
0.0
 10
133.130400
 20
256.980944
 30
0.0
  0
SPLINE
  5
138
100
AcDbEntity
  8
Calque_1
 62
7
100
AcDbSpline
 70
8
 71
3
 72
8
 73
4
 74
0
 40
0
 40
0
 40
0
 40
0
 40
1
 40
1
 40
1
 40
1
 10
133.130400
 20
256.980944
 30
0.0
 10
137.580447
 20
258.022456
 30
0.0
 10
140.576050
 20
256.956342
 30
0.0
 10
142.117210
 20
253.782601
 30
0.0
  0
SPLINE
  5
139
100
AcDbEntity
  8
Calque_1
 62
7
100
AcDbSpline
 70
8
 71
3
 72
8
 73
4
 74
0
 40
0
 40
0
 40
0
 40
0
 40
1
 40
1
 40
1
 40
1
 10
142.117210
 20
253.782601
 30
0.0
 10
142.929930
 20
252.102850
 30
0.0
 10
142.819030
 20
250.761752
 30
0.0
 10
141.784510
 20
249.759309
 30
0.0
  0
SPLINE
  5
13a
100
AcDbEntity
  8
Calque_1
 62
7
100
AcDbSpline
 70
8
 71
3
 72
8
 73
4
 74
0
 40
0
 40
0
 40
0
 40
0
 40
1
 40
1
 40
1
 40
1
 10
141.784510
 20
249.759309
 30
0.0
 10
140.741550
 20
248.775444
 30
0.0
 10
138.964930
 20
247.989751
 30
0.0
 10
136.454650
 20
247.402232
 30
0.0
  0
LINE
  5
13b
100
AcDbEntity
  8
Calque_1
 62
7
100
AcDbLine
 10
136.454650
 20
247.402232
 30
0.0
 11
134.640410
 21
246.977616
 31
0.0
  0
SPLINE
  5
13c
100
AcDbEntity
  8
Calque_1
 62
7
100
AcDbSpline
 70
8
 71
3
 72
8
 73
4
 74
0
 40
0
 40
0
 40
0
 40
0
 40
1
 40
1
 40
1
 40
1
 10
134.640410
 20
246.977616
 30
0.0
 10
134.198390
 20
246.894697
 30
0.0
 10
133.809713
 20
246.916750
 30
0.0
 10
133.474380
 20
247.043776
 30
0.0
  0
SPLINE
  5
13d
100
AcDbEntity
  8
Calque_1
 62
7
100
AcDbSpline
 70
8
 71
3
 72
8
 73
4
 74
0
 40
0
 40
0
 40
0
 40
0
 40
1
 40
1
 40
1
 40
1
 10
133.474380
 20
247.043776
 30
0.0
 10
133.130627
 20
247.189362
 30
0.0
 10
132.899743
 20
247.392187
 30
0.0
 10
132.781730
 20
247.652252
 30
0.0
  0
LINE
  5
13e
100
AcDbEntity
  8
Calque_1
 62
7
100
AcDbLine
 10
132.781730
 20
247.652252
 30
0.0
 11
129.481580
 21
254.924830
 31
0.0
  0
SPLINE
  5
13f
100
AcDbEntity
  8
Calque_1
 62
7
100
AcDbSpline
 70
8
 71
3
 72
8
 73
4
 74
0
 40
0
 40
0
 40
0
 40
0
 40
1
 40
1
 40
1
 40
1
 10
149.739710
 20
249.001184
 30
0.0
 10
149.630130
 20
249.242673
 30
0.0
 10
149.675563
 20
249.448522
 30
0.0
 10
149.876010
 20
249.618731
 30
0.0
  0
SPLINE
  5
140
100
AcDbEntity
  8
Calque_1
 62
7
100
AcDbSpline
 70
8
 71
3
 72
8
 73
4
 74
0
 40
0
 40
0
 40
0
 40
0
 40
1
 40
1
 40
1
 40
1
 10
149.876010
 20
249.618731
 30
0.0
 10
153.143670
 20
251.986339
 30
0.0
 10
154.115783
 20
254.628375
 30
0.0
 10
152.792350
 20
257.544838
 30
0.0
  0
SPLINE
  5
141
100
AcDbEntity
  8
Calque_1
 62
7
100
AcDbSpline
 70
8
 71
3
 72
8
 73
4
 74
0
 40
0
 40
0
 40
0
 40
0
 40
1
 40
1
 40
1
 40
1
 10
152.792350
 20
257.544838
 30
0.0
 10
151.342470
 20
260.739943
 30
0.0
 10
148.482960
 20
262.618775
 30
0.0
 10
144.213820
 20
263.181332
 30
0.0
  0
SPLINE
  5
142
100
AcDbEntity
  8
Calque_1
 62
7
100
AcDbSpline
 70
8
 71
3
 72
8
 73
4
 74
0
 40
0
 40
0
 40
0
 40
0
 40
1
 40
1
 40
1
 40
1
 10
144.213820
 20
263.181332
 30
0.0
 10
140.836133
 20
263.726490
 30
0.0
 10
136.031030
 20
263.300546
 30
0.0
 10
129.798510
 20
261.903499
 30
0.0
  0
SPLINE
  5
143
100
AcDbEntity
  8
Calque_1
 62
7
100
AcDbSpline
 70
8
 71
3
 72
8
 73
4
 74
0
 40
0
 40
0
 40
0
 40
0
 40
1
 40
1
 40
1
 40
1
 10
129.798510
 20
261.903499
 30
0.0
 10
126.929070
 20
261.273016
 30
0.0
 10
125.380243
 20
260.931069
 30
0.0
 10
125.152030
 20
260.877659
 30
0.0
  0
SPLINE
  5
144
100
AcDbEntity
  8
Calque_1
 62
7
100
AcDbSpline
 70
8
 71
3
 72
8
 73
4
 74
0
 40
0
 40
0
 40
0
 40
0
 40
1
 40
1
 40
1
 40
1
 10
125.152030
 20
260.877659
 30
0.0
 10
122.967203
 20
260.407409
 30
0.0
 10
121.539673
 20
260.104126
 30
0.0
 10
120.869440
 20
259.967810
 30
0.0
  0
SPLINE
  5
145
100
AcDbEntity
  8
Calque_1
 62
7
100
AcDbSpline
 70
8
 71
3
 72
8
 73
4
 74
0
 40
0
 40
0
 40
0
 40
0
 40
1
 40
1
 40
1
 40
1
 10
120.869440
 20
259.967810
 30
0.0
 10
119.674340
 20
259.708649
 30
0.0
 10
118.776320
 20
259.128588
 30
0.0
 10
118.175380
 20
258.227627
 30
0.0
  0
SPLINE
  5
146
100
AcDbEntity
  8
Calque_1
 62
7
100
AcDbSpline
 70
8
 71
3
 72
8
 73
4
 74
0
 40
0
 40
0
 40
0
 40
0
 40
1
 40
1
 40
1
 40
1
 10
118.175380
 20
258.227627
 30
0.0
 10
117.611660
 20
257.355923
 30
0.0
 10
117.557400
 20
256.418514
 30
0.0
 10
118.012600
 20
255.415399
 30
0.0
  0
LINE
  5
147
100
AcDbEntity
  8
Calque_1
 62
7
100
AcDbLine
 10
118.012600
 20
255.415399
 30
0.0
 11
130.644230
 21
227.578981
 31
0.0
  0
SPLINE
  5
148
100
AcDbEntity
  8
Calque_1
 62
7
100
AcDbSpline
 70
8
 71
3
 72
8
 73
4
 74
0
 40
0
 40
0
 40
0
 40
0
 40
1
 40
1
 40
1
 40
1
 10
130.644230
 20
227.578981
 30
0.0
 10
131.124723
 20
226.520137
 30
0.0
 10
131.968900
 20
225.772453
 30
0.0
 10
133.176760
 20
225.335928
 30
0.0
  0
SPLINE
  5
149
100
AcDbEntity
  8
Calque_1
 62
7
100
AcDbSpline
 70
8
 71
3
 72
8
 73
4
 74
0
 40
0
 40
0
 40
0
 40
0
 40
1
 40
1
 40
1
 40
1
 10
133.176760
 20
225.335928
 30
0.0
 10
134.524007
 20
224.870380
 30
0.0
 10
135.782540
 20
224.795051
 30
0.0
 10
136.952360
 20
225.109942
 30
0.0
  0
SPLINE
  5
14a
100
AcDbEntity
  8
Calque_1
 62
7
100
AcDbSpline
 70
8
 71
3
 72
8
 73
4
 74
0
 40
0
 40
0
 40
0
 40
0
 40
1
 40
1
 40
1
 40
1
 10
136.952360
 20
225.109942
 30
0.0
 10
140.969833
 20
226.214605
 30
0.0
 10
143.108297
 20
226.787025
 30
0.0
 10
143.367750
 20
226.827204
 30
0.0
  0
SPLINE
  5
14b
100
AcDbEntity
  8
Calque_1
 62
7
100
AcDbSpline
 70
8
 71
3
 72
8
 73
4
 74
0
 40
0
 40
0
 40
0
 40
0
 40
1
 40
1
 40
1
 40
1
 10
143.367750
 20
226.827204
 30
0.0
 10
152.168123
 20
228.907423
 30
0.0
 10
157.702850
 20
231.230255
 30
0.0
 10
159.971930
 20
233.795698
 30
0.0
  0
SPLINE
  5
14c
100
AcDbEntity
  8
Calque_1
 62
7
100
AcDbSpline
 70
8
 71
3
 72
8
 73
4
 74
0
 40
0
 40
0
 40
0
 40
0
 40
1
 40
1
 40
1
 40
1
 10
159.971930
 20
233.795698
 30
0.0
 10
162.275770
 20
236.451455
 30
0.0
 10
162.762990
 20
239.216318
 30
0.0
 10
161.433590
 20
242.090287
 30
0.0
  0
SPLINE
  5
14d
100
AcDbEntity
  8
Calque_1
 62
7
100
AcDbSpline
 70
8
 71
3
 72
8
 73
4
 74
0
 40
0
 40
0
 40
0
 40
0
 40
1
 40
1
 40
1
 40
1
 10
161.433590
 20
242.090287
 30
0.0
 10
159.579097
 20
246.177048
 30
0.0
 10
155.951700
 20
248.246042
 30
0.0
 10
150.551400
 20
248.297268
 30
0.0
  0
SPLINE
  5
14e
100
AcDbEntity
  8
Calque_1
 62
7
100
AcDbSpline
 70
8
 71
3
 72
8
 73
4
 74
0
 40
0
 40
0
 40
0
 40
0
 40
1
 40
1
 40
1
 40
1
 10
150.551400
 20
248.297268
 30
0.0
 10
150.212587
 20
248.320715
 30
0.0
 10
149.942023
 20
248.555353
 30
0.0
 10
149.739710
 20
249.001184
 30
0.0
  0
LINE
  5
14f
100
AcDbEntity
  8
Calque_1
 62
7
100
AcDbLine
 10
149.739710
 20
249.001184
 30
0.0
 11
149.739710
 21
249.001184
 31
0.0
  0
SPLINE
  5
150
100
AcDbEntity
  8
Calque_1
 62
7
100
AcDbSpline
 70
8
 71
3
 72
8
 73
4
 74
0
 40
0
 40
0
 40
0
 40
0
 40
1
 40
1
 40
1
 40
1
 10
162.225330
 20
250.860802
 30
0.0
 10
161.143030
 20
251.913344
 30
0.0
 10
160.607460
 20
253.824311
 30
0.0
 10
160.618620
 20
256.593703
 30
0.0
  0
SPLINE
  5
151
100
AcDbEntity
  8
Calque_1
 62
7
100
AcDbSpline
 70
8
 71
3
 72
8
 73
4
 74
0
 40
0
 40
0
 40
0
 40
0
 40
1
 40
1
 40
1
 40
1
 10
160.618620
 20
256.593703
 30
0.0
 10
160.618620
 20
257.999968
 30
0.0
 10
161.154190
 20
259.220744
 30
0.0
 10
162.225330
 20
260.256031
 30
0.0
  0
SPLINE
  5
152
100
AcDbEntity
  8
Calque_1
 62
7
100
AcDbSpline
 70
8
 71
3
 72
8
 73
4
 74
0
 40
0
 40
0
 40
0
 40
0
 40
1
 40
1
 40
1
 40
1
 10
162.225330
 20
260.256031
 30
0.0
 10
163.285323
 20
261.274064
 30
0.0
 10
164.551733
 20
261.783080
 30
0.0
 10
166.024560
 20
261.783080
 30
0.0
  0
SPLINE
  5
153
100
AcDbEntity
  8
Calque_1
 62
7
100
AcDbSpline
 70
8
 71
3
 72
8
 73
4
 74
0
 40
0
 40
0
 40
0
 40
0
 40
1
 40
1
 40
1
 40
1
 10
166.024560
 20
261.783080
 30
0.0
 10
167.363487
 20
261.783080
 30
0.0
 10
168.596417
 20
261.274064
 30
0.0
 10
169.723350
 20
260.256031
 30
0.0
  0
SPLINE
  5
154
100
AcDbEntity
  8
Calque_1
 62
7
100
AcDbSpline
 70
8
 71
3
 72
8
 73
4
 74
0
 40
0
 40
0
 40
0
 40
0
 40
1
 40
1
 40
1
 40
1
 10
169.723350
 20
260.256031
 30
0.0
 10
170.850283
 20
259.237999
 30
0.0
 10
171.413750
 20
258.017223
 30
0.0
 10
171.413750
 20
256.593703
 30
0.0
  0
SPLINE
  5
155
100
AcDbEntity
  8
Calque_1
 62
7
100
AcDbSpline
 70
8
 71
3
 72
8
 73
4
 74
0
 40
0
 40
0
 40
0
 40
0
 40
1
 40
1
 40
1
 40
1
 10
171.413750
 20
256.593703
 30
0.0
 10
171.413750
 20
253.789802
 30
0.0
 10
170.850283
 20
251.878835
 30
0.0
 10
169.723350
 20
250.860802
 30
0.0
  0
SPLINE
  5
156
100
AcDbEntity
  8
Calque_1
 62
7
100
AcDbSpline
 70
8
 71
3
 72
8
 73
4
 74
0
 40
0
 40
0
 40
0
 40
0
 40
1
 40
1
 40
1
 40
1
 10
169.723350
 20
250.860802
 30
0.0
 10
168.596417
 20
249.842770
 30
0.0
 10
167.330010
 20
249.333754
 30
0.0
 10
165.924130
 20
249.333754
 30
0.0
  0
SPLINE
  5
157
100
AcDbEntity
  8
Calque_1
 62
7
100
AcDbSpline
 70
8
 71
3
 72
8
 73
4
 74
0
 40
0
 40
0
 40
0
 40
0
 40
1
 40
1
 40
1
 40
1
 10
165.924130
 20
249.333754
 30
0.0
 10
164.518257
 20
249.333754
 30
0.0
 10
163.285323
 20
249.842770
 30
0.0
 10
162.225330
 20
250.860802
 30
0.0
  0
LINE
  5
158
100
AcDbEntity
  8
Calque_1
 62
7
100
AcDbLine
 10
162.225330
 20
250.860802
 30
0.0
 11
162.225330
 21
250.860802
 31
0.0
  0
SPLINE
  5
159
100
AcDbEntity
  8
Calque_1
 62
7
100
AcDbSpline
 70
8
 71
3
 72
8
 73
4
 74
0
 40
0
 40
0
 40
0
 40
0
 40
1
 40
1
 40
1
 40
1
 10
166.024560
 20
263.957182
 30
0.0
 10
165.868347
 20
263.957182
 30
0.0
 10
165.628453
 20
263.939925
 30
0.0
 10
165.304880
 20
263.905412
 30
0.0
  0
SPLINE
  5
15a
100
AcDbEntity
  8
Calque_1
 62
7
100
AcDbSpline
 70
8
 71
3
 72
8
 73
4
 74
0
 40
0
 40
0
 40
0
 40
0
 40
1
 40
1
 40
1
 40
1
 10
165.304880
 20
263.905412
 30
0.0
 10
162.593540
 20
263.715609
 30
0.0
 10
160.283883
 20
262.883066
 30
0.0
 10
158.375910
 20
261.407783
 30
0.0
  0
SPLINE
  5
15b
100
AcDbEntity
  8
Calque_1
 62
7
100
AcDbSpline
 70
8
 71
3
 72
8
 73
4
 74
0
 40
0
 40
0
 40
0
 40
0
 40
1
 40
1
 40
1
 40
1
 10
158.375910
 20
261.407783
 30
0.0
 10
156.400990
 20
259.897989
 30
0.0
 10
155.413530
 20
257.909375
 30
0.0
 10
155.413530
 20
255.441941
 30
0.0
  0
SPLINE
  5
15c
100
AcDbEntity
  8
Calque_1
 62
7
100
AcDbSpline
 70
8
 71
3
 72
8
 73
4
 74
0
 40
0
 40
0
 40
0
 40
0
 40
1
 40
1
 40
1
 40
1
 10
155.413530
 20
255.441941
 30
0.0
 10
155.413530
 20
253.164310
 30
0.0
 10
156.278253
 20
251.318048
 30
0.0
 10
158.007700
 20
249.903156
 30
0.0
  0
SPLINE
  5
15d
100
AcDbEntity
  8
Calque_1
 62
7
100
AcDbSpline
 70
8
 71
3
 72
8
 73
4
 74
0
 40
0
 40
0
 40
0
 40
0
 40
1
 40
1
 40
1
 40
1
 10
158.007700
 20
249.903156
 30
0.0
 10
159.737153
 20
248.488265
 30
0.0
 10
162.169547
 20
247.664349
 30
0.0
 10
165.304880
 20
247.431409
 30
0.0
  0
SPLINE
  5
15e
100
AcDbEntity
  8
Calque_1
 62
7
100
AcDbSpline
 70
8
 71
3
 72
8
 73
4
 74
0
 40
0
 40
0
 40
0
 40
0
 40
1
 40
1
 40
1
 40
1
 10
165.304880
 20
247.431409
 30
0.0
 10
165.516880
 20
247.388276
 30
0.0
 10
165.667507
 20
247.371022
 30
0.0
 10
165.756760
 20
247.379649
 30
0.0
  0
SPLINE
  5
15f
100
AcDbEntity
  8
Calque_1
 62
7
100
AcDbSpline
 70
8
 71
3
 72
8
 73
4
 74
0
 40
0
 40
0
 40
0
 40
0
 40
1
 40
1
 40
1
 40
1
 10
165.756760
 20
247.379649
 30
0.0
 10
165.790227
 20
247.388282
 30
0.0
 10
165.829280
 20
247.388282
 30
0.0
 10
165.873920
 20
247.379649
 30
0.0
  0
LINE
  5
160
100
AcDbEntity
  8
Calque_1
 62
7
100
AcDbLine
 10
165.873920
 20
247.379649
 30
0.0
 11
166.158450
 21
247.379649
 31
0.0
  0
SPLINE
  5
161
100
AcDbEntity
  8
Calque_1
 62
7
100
AcDbSpline
 70
8
 71
3
 72
8
 73
4
 74
0
 40
0
 40
0
 40
0
 40
0
 40
1
 40
1
 40
1
 40
1
 10
166.158450
 20
247.379649
 30
0.0
 10
166.191917
 20
247.371022
 30
0.0
 10
166.230970
 20
247.371022
 30
0.0
 10
166.275610
 20
247.379649
 30
0.0
  0
SPLINE
  5
162
100
AcDbEntity
  8
Calque_1
 62
7
100
AcDbSpline
 70
8
 71
3
 72
8
 73
4
 74
0
 40
0
 40
0
 40
0
 40
0
 40
1
 40
1
 40
1
 40
1
 10
166.275610
 20
247.379649
 30
0.0
 10
166.376023
 20
247.405536
 30
0.0
 10
166.526650
 20
247.422789
 30
0.0
 10
166.727490
 20
247.431409
 30
0.0
  0
SPLINE
  5
163
100
AcDbEntity
  8
Calque_1
 62
7
100
AcDbSpline
 70
8
 71
3
 72
8
 73
4
 74
0
 40
0
 40
0
 40
0
 40
0
 40
1
 40
1
 40
1
 40
1
 10
166.727490
 20
247.431409
 30
0.0
 10
169.773563
 20
247.578075
 30
0.0
 10
172.205957
 20
248.401991
 30
0.0
 10
174.024670
 20
249.903156
 30
0.0
  0
SPLINE
  5
164
100
AcDbEntity
  8
Calque_1
 62
7
100
AcDbSpline
 70
8
 71
3
 72
8
 73
4
 74
0
 40
0
 40
0
 40
0
 40
0
 40
1
 40
1
 40
1
 40
1
 10
174.024670
 20
249.903156
 30
0.0
 10
175.765277
 20
251.343931
 30
0.0
 10
176.630003
 20
253.190192
 30
0.0
 10
176.618850
 20
255.441941
 30
0.0
  0
SPLINE
  5
165
100
AcDbEntity
  8
Calque_1
 62
7
100
AcDbSpline
 70
8
 71
3
 72
8
 73
4
 74
0
 40
0
 40
0
 40
0
 40
0
 40
1
 40
1
 40
1
 40
1
 10
176.618850
 20
255.441941
 30
0.0
 10
176.629983
 20
257.892120
 30
0.0
 10
175.642520
 20
259.880734
 30
0.0
 10
173.656460
 20
261.407783
 30
0.0
  0
SPLINE
  5
166
100
AcDbEntity
  8
Calque_1
 62
7
100
AcDbSpline
 70
8
 71
3
 72
8
 73
4
 74
0
 40
0
 40
0
 40
0
 40
0
 40
1
 40
1
 40
1
 40
1
 10
173.656460
 20
261.407783
 30
0.0
 10
171.871220
 20
262.805420
 30
0.0
 10
169.561563
 20
263.637963
 30
0.0
 10
166.727490
 20
263.905412
 30
0.0
  0
SPLINE
  5
167
100
AcDbEntity
  8
Calque_1
 62
7
100
AcDbSpline
 70
8
 71
3
 72
8
 73
4
 74
0
 40
0
 40
0
 40
0
 40
0
 40
1
 40
1
 40
1
 40
1
 10
166.727490
 20
263.905412
 30
0.0
 10
166.426237
 20
263.939925
 30
0.0
 10
166.191927
 20
263.957182
 30
0.0
 10
166.024560
 20
263.957182
 30
0.0
  0
LINE
  5
168
100
AcDbEntity
  8
Calque_1
 62
7
100
AcDbLine
 10
166.024560
 20
263.957182
 30
0.0
 11
166.024560
 21
263.957182
 31
0.0
  0
SPLINE
  5
169
100
AcDbEntity
  8
Calque_1
 62
7
100
AcDbSpline
 70
8
 71
3
 72
8
 73
4
 74
0
 40
0
 40
0
 40
0
 40
0
 40
1
 40
1
 40
1
 40
1
 10
185.095600
 20
258.499427
 30
0.0
 10
186.579827
 20
257.973542
 30
0.0
 10
187.593703
 20
257.200874
 30
0.0
 10
188.137230
 20
256.181423
 30
0.0
  0
SPLINE
  5
16a
100
AcDbEntity
  8
Calque_1
 62
7
100
AcDbSpline
 70
8
 71
3
 72
8
 73
4
 74
0
 40
0
 40
0
 40
0
 40
0
 40
1
 40
1
 40
1
 40
1
 10
188.137230
 20
256.181423
 30
0.0
 10
188.658677
 20
255.207381
 30
0.0
 10
188.650310
 20
254.223745
 30
0.0
 10
188.112130
 20
253.230516
 30
0.0
  0
LINE
  5
16b
100
AcDbEntity
  8
Calque_1
 62
7
100
AcDbLine
 10
188.112130
 20
253.230516
 30
0.0
 11
176.895950
 21
232.736792
 31
0.0
  0
LINE
  5
16c
100
AcDbEntity
  8
Calque_1
 62
7
100
AcDbLine
 10
176.895950
 20
232.736792
 30
0.0
 11
189.563530
 21
228.784045
 31
0.0
  0
SPLINE
  5
16d
100
AcDbEntity
  8
Calque_1
 62
7
100
AcDbSpline
 70
8
 71
3
 72
8
 73
4
 74
0
 40
0
 40
0
 40
0
 40
0
 40
1
 40
1
 40
1
 40
1
 10
189.563530
 20
228.784045
 30
0.0
 10
190.485963
 20
228.494798
 30
0.0
 10
191.132117
 20
227.936986
 30
0.0
 10
191.501990
 20
227.110609
 30
0.0
  0
SPLINE
  5
16e
100
AcDbEntity
  8
Calque_1
 62
7
100
AcDbSpline
 70
8
 71
3
 72
8
 73
4
 74
0
 40
0
 40
0
 40
0
 40
0
 40
1
 40
1
 40
1
 40
1
 10
191.501990
 20
227.110609
 30
0.0
 10
191.869070
 20
226.322811
 30
0.0
 10
191.859070
 20
225.555874
 30
0.0
 10
191.471990
 20
224.809799
 30
0.0
  0
LINE
  5
16f
100
AcDbEntity
  8
Calque_1
 62
7
100
AcDbLine
 10
191.471990
 20
224.809799
 30
0.0
 11
191.447290
 21
224.762189
 31
0.0
  0
SPLINE
  5
170
100
AcDbEntity
  8
Calque_1
 62
7
100
AcDbSpline
 70
8
 71
3
 72
8
 73
4
 74
0
 40
0
 40
0
 40
0
 40
0
 40
1
 40
1
 40
1
 40
1
 10
191.447290
 20
224.762189
 30
0.0
 10
190.922917
 20
223.707680
 30
0.0
 10
190.175140
 20
223.014214
 30
0.0
 10
189.203960
 20
222.681792
 30
0.0
  0
SPLINE
  5
171
100
AcDbEntity
  8
Calque_1
 62
7
100
AcDbSpline
 70
8
 71
3
 72
8
 73
4
 74
0
 40
0
 40
0
 40
0
 40
0
 40
1
 40
1
 40
1
 40
1
 10
189.203960
 20
222.681792
 30
0.0
 10
188.296040
 20
222.383329
 30
0.0
 10
187.369827
 20
222.401426
 30
0.0
 10
186.425320
 20
222.736082
 30
0.0
  0
LINE
  5
172
100
AcDbEntity
  8
Calque_1
 62
7
100
AcDbLine
 10
186.425320
 20
222.736082
 30
0.0
 11
169.800040
 21
228.626691
 31
0.0
  0
SPLINE
  5
173
100
AcDbEntity
  8
Calque_1
 62
7
100
AcDbSpline
 70
8
 71
3
 72
8
 73
4
 74
0
 40
0
 40
0
 40
0
 40
0
 40
1
 40
1
 40
1
 40
1
 10
169.800040
 20
228.626691
 30
0.0
 10
168.682053
 20
229.022813
 30
0.0
 10
167.892647
 20
229.678363
 30
0.0
 10
167.431820
 20
230.593341
 30
0.0
  0
SPLINE
  5
174
100
AcDbEntity
  8
Calque_1
 62
7
100
AcDbSpline
 70
8
 71
3
 72
8
 73
4
 74
0
 40
0
 40
0
 40
0
 40
0
 40
1
 40
1
 40
1
 40
1
 10
167.431820
 20
230.593341
 30
0.0
 10
166.990280
 20
231.501486
 30
0.0
 10
167.012480
 20
232.423840
 30
0.0
 10
167.498420
 20
233.360403
 30
0.0
  0
LINE
  5
175
100
AcDbEntity
  8
Calque_1
 62
7
100
AcDbLine
 10
167.498420
 20
233.360403
 30
0.0
 11
179.409210
 21
256.314134
 31
0.0
  0
SPLINE
  5
176
100
AcDbEntity
  8
Calque_1
 62
7
100
AcDbSpline
 70
8
 71
3
 72
8
 73
4
 74
0
 40
0
 40
0
 40
0
 40
0
 40
1
 40
1
 40
1
 40
1
 10
179.409210
 20
256.314134
 30
0.0
 10
179.895197
 20
257.250697
 30
0.0
 10
180.751707
 20
257.933827
 30
0.0
 10
181.978740
 20
258.363522
 30
0.0
  0
SPLINE
  5
177
100
AcDbEntity
  8
Calque_1
 62
7
100
AcDbSpline
 70
8
 71
3
 72
8
 73
4
 74
0
 40
0
 40
0
 40
0
 40
0
 40
1
 40
1
 40
1
 40
1
 10
181.978740
 20
258.363522
 30
0.0
 10
183.150753
 20
258.775128
 30
0.0
 10
184.160823
 20
258.830678
 30
0.0
 10
185.008950
 20
258.530171
 30
0.0
  0
LINE
  5
178
100
AcDbEntity
  8
Calque_1
 62
7
100
AcDbLine
 10
185.008950
 20
258.530171
 30
0.0
 11
185.095600
 21
258.499427
 31
0.0
  0
SPLINE
  5
179
100
AcDbEntity
  8
Calque_1
 62
7
100
AcDbSpline
 70
8
 71
3
 72
8
 73
4
 74
0
 40
0
 40
0
 40
0
 40
0
 40
1
 40
1
 40
1
 40
1
 10
190.883200
 20
232.233135
 30
0.0
 10
189.800887
 20
233.285677
 30
0.0
 10
189.265310
 20
235.196644
 30
0.0
 10
189.276470
 20
237.966037
 30
0.0
  0
SPLINE
  5
17a
100
AcDbEntity
  8
Calque_1
 62
7
100
AcDbSpline
 70
8
 71
3
 72
8
 73
4
 74
0
 40
0
 40
0
 40
0
 40
0
 40
1
 40
1
 40
1
 40
1
 10
189.276470
 20
237.966037
 30
0.0
 10
189.276470
 20
239.372302
 30
0.0
 10
189.812047
 20
240.593078
 30
0.0
 10
190.883200
 20
241.628365
 30
0.0
  0
SPLINE
  5
17b
100
AcDbEntity
  8
Calque_1
 62
7
100
AcDbSpline
 70
8
 71
3
 72
8
 73
4
 74
0
 40
0
 40
0
 40
0
 40
0
 40
1
 40
1
 40
1
 40
1
 10
190.883200
 20
241.628365
 30
0.0
 10
191.943180
 20
242.646397
 30
0.0
 10
193.209583
 20
243.155413
 30
0.0
 10
194.682410
 20
243.155413
 30
0.0
  0
SPLINE
  5
17c
100
AcDbEntity
  8
Calque_1
 62
7
100
AcDbSpline
 70
8
 71
3
 72
8
 73
4
 74
0
 40
0
 40
0
 40
0
 40
0
 40
1
 40
1
 40
1
 40
1
 10
194.682410
 20
243.155413
 30
0.0
 10
196.021337
 20
243.155413
 30
0.0
 10
197.254270
 20
242.646397
 30
0.0
 10
198.381210
 20
241.628365
 30
0.0
  0
SPLINE
  5
17d
100
AcDbEntity
  8
Calque_1
 62
7
100
AcDbSpline
 70
8
 71
3
 72
8
 73
4
 74
0
 40
0
 40
0
 40
0
 40
0
 40
1
 40
1
 40
1
 40
1
 10
198.381210
 20
241.628365
 30
0.0
 10
199.508137
 20
240.610332
 30
0.0
 10
200.071600
 20
239.389556
 30
0.0
 10
200.071600
 20
237.966037
 30
0.0
  0
SPLINE
  5
17e
100
AcDbEntity
  8
Calque_1
 62
7
100
AcDbSpline
 70
8
 71
3
 72
8
 73
4
 74
0
 40
0
 40
0
 40
0
 40
0
 40
1
 40
1
 40
1
 40
1
 10
200.071600
 20
237.966037
 30
0.0
 10
200.071600
 20
235.162136
 30
0.0
 10
199.508137
 20
233.251168
 30
0.0
 10
198.381210
 20
232.233135
 30
0.0
  0
SPLINE
  5
17f
100
AcDbEntity
  8
Calque_1
 62
7
100
AcDbSpline
 70
8
 71
3
 72
8
 73
4
 74
0
 40
0
 40
0
 40
0
 40
0
 40
1
 40
1
 40
1
 40
1
 10
198.381210
 20
232.233135
 30
0.0
 10
197.254270
 20
231.215104
 30
0.0
 10
195.987863
 20
230.706088
 30
0.0
 10
194.581990
 20
230.706088
 30
0.0
  0
SPLINE
  5
180
100
AcDbEntity
  8
Calque_1
 62
7
100
AcDbSpline
 70
8
 71
3
 72
8
 73
4
 74
0
 40
0
 40
0
 40
0
 40
0
 40
1
 40
1
 40
1
 40
1
 10
194.581990
 20
230.706088
 30
0.0
 10
193.176110
 20
230.706088
 30
0.0
 10
191.943180
 20
231.215104
 30
0.0
 10
190.883200
 20
232.233135
 30
0.0
  0
LINE
  5
181
100
AcDbEntity
  8
Calque_1
 62
7
100
AcDbLine
 10
190.883200
 20
232.233135
 30
0.0
 11
190.883200
 21
232.233135
 31
0.0
  0
SPLINE
  5
182
100
AcDbEntity
  8
Calque_1
 62
7
100
AcDbSpline
 70
8
 71
3
 72
8
 73
4
 74
0
 40
0
 40
0
 40
0
 40
0
 40
1
 40
1
 40
1
 40
1
 10
194.682410
 20
245.329516
 30
0.0
 10
194.526203
 20
245.329516
 30
0.0
 10
194.286310
 20
245.312263
 30
0.0
 10
193.962730
 20
245.277756
 30
0.0
  0
SPLINE
  5
183
100
AcDbEntity
  8
Calque_1
 62
7
100
AcDbSpline
 70
8
 71
3
 72
8
 73
4
 74
0
 40
0
 40
0
 40
0
 40
0
 40
1
 40
1
 40
1
 40
1
 10
193.962730
 20
245.277756
 30
0.0
 10
191.251397
 20
245.087954
 30
0.0
 10
188.941743
 20
244.255411
 30
0.0
 10
187.033770
 20
242.780127
 30
0.0
  0
SPLINE
  5
184
100
AcDbEntity
  8
Calque_1
 62
7
100
AcDbSpline
 70
8
 71
3
 72
8
 73
4
 74
0
 40
0
 40
0
 40
0
 40
0
 40
1
 40
1
 40
1
 40
1
 10
187.033770
 20
242.780127
 30
0.0
 10
185.058843
 20
241.270334
 30
0.0
 10
184.071380
 20
239.281720
 30
0.0
 10
184.071380
 20
236.814286
 30
0.0
  0
SPLINE
  5
185
100
AcDbEntity
  8
Calque_1
 62
7
100
AcDbSpline
 70
8
 71
3
 72
8
 73
4
 74
0
 40
0
 40
0
 40
0
 40
0
 40
1
 40
1
 40
1
 40
1
 10
184.071380
 20
236.814286
 30
0.0
 10
184.071380
 20
234.536655
 30
0.0
 10
184.936103
 20
232.690393
 30
0.0
 10
186.665550
 20
231.275501
 30
0.0
  0
SPLINE
  5
186
100
AcDbEntity
  8
Calque_1
 62
7
100
AcDbSpline
 70
8
 71
3
 72
8
 73
4
 74
0
 40
0
 40
0
 40
0
 40
0
 40
1
 40
1
 40
1
 40
1
 10
186.665550
 20
231.275501
 30
0.0
 10
188.395003
 20
229.860608
 30
0.0
 10
190.827397
 20
229.036693
 30
0.0
 10
193.962730
 20
228.803754
 30
0.0
  0
SPLINE
  5
187
100
AcDbEntity
  8
Calque_1
 62
7
100
AcDbSpline
 70
8
 71
3
 72
8
 73
4
 74
0
 40
0
 40
0
 40
0
 40
0
 40
1
 40
1
 40
1
 40
1
 10
193.962730
 20
228.803754
 30
0.0
 10
194.174723
 20
228.760614
 30
0.0
 10
194.325353
 20
228.743357
 30
0.0
 10
194.414620
 20
228.751984
 30
0.0
  0
SPLINE
  5
188
100
AcDbEntity
  8
Calque_1
 62
7
100
AcDbSpline
 70
8
 71
3
 72
8
 73
4
 74
0
 40
0
 40
0
 40
0
 40
0
 40
1
 40
1
 40
1
 40
1
 10
194.414620
 20
228.751984
 30
0.0
 10
194.448087
 20
228.760624
 30
0.0
 10
194.487140
 20
228.760624
 30
0.0
 10
194.531780
 20
228.751984
 30
0.0
  0
LINE
  5
189
100
AcDbEntity
  8
Calque_1
 62
7
100
AcDbLine
 10
194.531780
 20
228.751984
 30
0.0
 11
194.816300
 21
228.751984
 31
0.0
  0
SPLINE
  5
18a
100
AcDbEntity
  8
Calque_1
 62
7
100
AcDbSpline
 70
8
 71
3
 72
8
 73
4
 74
0
 40
0
 40
0
 40
0
 40
0
 40
1
 40
1
 40
1
 40
1
 10
194.816300
 20
228.751984
 30
0.0
 10
194.849767
 20
228.743344
 30
0.0
 10
194.888820
 20
228.743344
 30
0.0
 10
194.933460
 20
228.751984
 30
0.0
  0
SPLINE
  5
18b
100
AcDbEntity
  8
Calque_1
 62
7
100
AcDbSpline
 70
8
 71
3
 72
8
 73
4
 74
0
 40
0
 40
0
 40
0
 40
0
 40
1
 40
1
 40
1
 40
1
 10
194.933460
 20
228.751984
 30
0.0
 10
195.033880
 20
228.777871
 30
0.0
 10
195.184510
 20
228.795127
 30
0.0
 10
195.385350
 20
228.803754
 30
0.0
  0
SPLINE
  5
18c
100
AcDbEntity
  8
Calque_1
 62
7
100
AcDbSpline
 70
8
 71
3
 72
8
 73
4
 74
0
 40
0
 40
0
 40
0
 40
0
 40
1
 40
1
 40
1
 40
1
 10
195.385350
 20
228.803754
 30
0.0
 10
198.431417
 20
228.950420
 30
0.0
 10
200.863807
 20
229.774336
 30
0.0
 10
202.682520
 20
231.275501
 30
0.0
  0
SPLINE
  5
18d
100
AcDbEntity
  8
Calque_1
 62
7
100
AcDbSpline
 70
8
 71
3
 72
8
 73
4
 74
0
 40
0
 40
0
 40
0
 40
0
 40
1
 40
1
 40
1
 40
1
 10
202.682520
 20
231.275501
 30
0.0
 10
204.423133
 20
232.716275
 30
0.0
 10
205.287863
 20
234.562537
 30
0.0
 10
205.276710
 20
236.814286
 30
0.0
  0
SPLINE
  5
18e
100
AcDbEntity
  8
Calque_1
 62
7
100
AcDbSpline
 70
8
 71
3
 72
8
 73
4
 74
0
 40
0
 40
0
 40
0
 40
0
 40
1
 40
1
 40
1
 40
1
 10
205.276710
 20
236.814286
 30
0.0
 10
205.287843
 20
239.264465
 30
0.0
 10
204.300377
 20
241.253079
 30
0.0
 10
202.314310
 20
242.780127
 30
0.0
  0
SPLINE
  5
18f
100
AcDbEntity
  8
Calque_1
 62
7
100
AcDbSpline
 70
8
 71
3
 72
8
 73
4
 74
0
 40
0
 40
0
 40
0
 40
0
 40
1
 40
1
 40
1
 40
1
 10
202.314310
 20
242.780127
 30
0.0
 10
200.529077
 20
244.177764
 30
0.0
 10
198.219423
 20
245.010307
 30
0.0
 10
195.385350
 20
245.277756
 30
0.0
  0
SPLINE
  5
190
100
AcDbEntity
  8
Calque_1
 62
7
100
AcDbSpline
 70
8
 71
3
 72
8
 73
4
 74
0
 40
0
 40
0
 40
0
 40
0
 40
1
 40
1
 40
1
 40
1
 10
195.385350
 20
245.277756
 30
0.0
 10
195.084090
 20
245.312263
 30
0.0
 10
194.849777
 20
245.329516
 30
0.0
 10
194.682410
 20
245.329516
 30
0.0
  0
LINE
  5
191
100
AcDbEntity
  8
Calque_1
 62
7
100
AcDbLine
 10
194.682410
 20
245.329516
 30
0.0
 11
194.682410
 21
245.329516
 31
0.0
  0
SPLINE
  5
192
100
AcDbEntity
  8
Calque_1
 62
7
100
AcDbSpline
 70
8
 71
3
 72
8
 73
4
 74
0
 40
0
 40
0
 40
0
 40
0
 40
1
 40
1
 40
1
 40
1
 10
86.369647
 20
209.303077
 30
0.0
 10
89.813534
 20
210.711934
 30
0.0
 10
91.352293
 20
212.357525
 30
0.0
 10
90.985924
 20
214.239851
 30
0.0
  0
SPLINE
  5
193
100
AcDbEntity
  8
Calque_1
 62
7
100
AcDbSpline
 70
8
 71
3
 72
8
 73
4
 74
0
 40
0
 40
0
 40
0
 40
0
 40
1
 40
1
 40
1
 40
1
 10
90.985924
 20
214.239851
 30
0.0
 10
90.729461
 20
215.648708
 30
0.0
 10
89.428843
 20
216.791962
 30
0.0
 10
87.084070
 20
217.669612
 30
0.0
  0
SPLINE
  5
194
100
AcDbEntity
  8
Calque_1
 62
7
100
AcDbSpline
 70
8
 71
3
 72
8
 73
4
 74
0
 40
0
 40
0
 40
0
 40
0
 40
1
 40
1
 40
1
 40
1
 10
87.084070
 20
217.669612
 30
0.0
 10
84.647703
 20
218.581901
 30
0.0
 10
81.835806
 20
219.026498
 30
0.0
 10
78.648378
 20
219.003401
 30
0.0
  0
SPLINE
  5
195
100
AcDbEntity
  8
Calque_1
 62
7
100
AcDbSpline
 70
8
 71
3
 72
8
 73
4
 74
0
 40
0
 40
0
 40
0
 40
0
 40
1
 40
1
 40
1
 40
1
 10
78.648378
 20
219.003401
 30
0.0
 10
77.475991
 20
218.991868
 30
0.0
 10
76.642496
 20
218.968774
 30
0.0
 10
76.147895
 20
218.934121
 30
0.0
  0
SPLINE
  5
196
100
AcDbEntity
  8
Calque_1
 62
7
100
AcDbSpline
 70
8
 71
3
 72
8
 73
4
 74
0
 40
0
 40
0
 40
0
 40
0
 40
1
 40
1
 40
1
 40
1
 10
76.147895
 20
218.934121
 30
0.0
 10
75.433472
 20
218.887928
 30
0.0
 10
74.535864
 20
218.772448
 30
0.0
 10
73.455069
 20
218.587682
 30
0.0
  0
SPLINE
  5
197
100
AcDbEntity
  8
Calque_1
 62
7
100
AcDbSpline
 70
8
 71
3
 72
8
 73
4
 74
0
 40
0
 40
0
 40
0
 40
0
 40
1
 40
1
 40
1
 40
1
 10
73.455069
 20
218.587682
 30
0.0
 10
72.301000
 20
218.391367
 30
0.0
 10
71.723966
 20
217.917897
 30
0.0
 10
71.723966
 20
217.167273
 30
0.0
  0
LINE
  5
198
100
AcDbEntity
  8
Calque_1
 62
7
100
AcDbLine
 10
71.723966
 20
217.167273
 30
0.0
 11
71.723966
 21
217.132623
 31
0.0
  0
SPLINE
  5
199
100
AcDbEntity
  8
Calque_1
 62
7
100
AcDbSpline
 70
8
 71
3
 72
8
 73
4
 74
0
 40
0
 40
0
 40
0
 40
0
 40
1
 40
1
 40
1
 40
1
 10
71.723966
 20
217.132623
 30
0.0
 10
71.742286
 20
216.659155
 30
0.0
 10
72.062861
 20
216.260748
 30
0.0
 10
72.685690
 20
215.937403
 30
0.0
  0
SPLINE
  5
19a
100
AcDbEntity
  8
Calque_1
 62
7
100
AcDbSpline
 70
8
 71
3
 72
8
 73
4
 74
0
 40
0
 40
0
 40
0
 40
0
 40
1
 40
1
 40
1
 40
1
 10
72.685690
 20
215.937403
 30
0.0
 10
73.235247
 20
215.683347
 30
0.0
 10
73.922192
 20
215.602512
 30
0.0
 10
74.746527
 20
215.694899
 30
0.0
  0
SPLINE
  5
19b
100
AcDbEntity
  8
Calque_1
 62
7
100
AcDbSpline
 70
8
 71
3
 72
8
 73
4
 74
0
 40
0
 40
0
 40
0
 40
0
 40
1
 40
1
 40
1
 40
1
 10
74.746527
 20
215.694899
 30
0.0
 10
75.167854
 20
215.741086
 30
0.0
 10
75.598339
 20
215.781502
 30
0.0
 10
76.037984
 20
215.816148
 30
0.0
  0
SPLINE
  5
19c
100
AcDbEntity
  8
Calque_1
 62
7
100
AcDbSpline
 70
8
 71
3
 72
8
 73
4
 74
0
 40
0
 40
0
 40
0
 40
0
 40
1
 40
1
 40
1
 40
1
 10
76.037984
 20
215.816148
 30
0.0
 10
76.386037
 20
215.850788
 30
0.0
 10
76.761568
 20
215.873885
 30
0.0
 10
77.164576
 20
215.885438
 30
0.0
  0
SPLINE
  5
19d
100
AcDbEntity
  8
Calque_1
 62
7
100
AcDbSpline
 70
8
 71
3
 72
8
 73
4
 74
0
 40
0
 40
0
 40
0
 40
0
 40
1
 40
1
 40
1
 40
1
 10
77.164576
 20
215.885438
 30
0.0
 10
78.703333
 20
215.873905
 30
0.0
 10
80.040587
 20
215.642944
 30
0.0
 10
81.176338
 20
215.192555
 30
0.0
  0
SPLINE
  5
19e
100
AcDbEntity
  8
Calque_1
 62
7
100
AcDbSpline
 70
8
 71
3
 72
8
 73
4
 74
0
 40
0
 40
0
 40
0
 40
0
 40
1
 40
1
 40
1
 40
1
 10
81.176338
 20
215.192555
 30
0.0
 10
82.312088
 20
214.719090
 30
0.0
 10
82.925759
 20
214.170561
 30
0.0
 10
83.017352
 20
213.546967
 30
0.0
  0
SPLINE
  5
19f
100
AcDbEntity
  8
Calque_1
 62
7
100
AcDbSpline
 70
8
 71
3
 72
8
 73
4
 74
0
 40
0
 40
0
 40
0
 40
0
 40
1
 40
1
 40
1
 40
1
 10
83.017352
 20
213.546967
 30
0.0
 10
83.145581
 20
212.819443
 30
0.0
 10
82.641821
 20
212.143886
 30
0.0
 10
81.506072
 20
211.520295
 30
0.0
  0
SPLINE
  5
1a0
100
AcDbEntity
  8
Calque_1
 62
7
100
AcDbSpline
 70
8
 71
3
 72
8
 73
4
 74
0
 40
0
 40
0
 40
0
 40
0
 40
1
 40
1
 40
1
 40
1
 10
81.506072
 20
211.520295
 30
0.0
 10
80.974833
 20
211.220043
 30
0.0
 10
79.811605
 20
210.914021
 30
0.0
 10
78.016388
 20
210.602229
 30
0.0
  0
SPLINE
  5
1a1
100
AcDbEntity
  8
Calque_1
 62
7
100
AcDbSpline
 70
8
 71
3
 72
8
 73
4
 74
0
 40
0
 40
0
 40
0
 40
0
 40
1
 40
1
 40
1
 40
1
 10
78.016388
 20
210.602229
 30
0.0
 10
76.697452
 20
210.382813
 30
0.0
 10
76.037984
 20
209.845832
 30
0.0
 10
76.037984
 20
208.991285
 30
0.0
  0
LINE
  5
1a2
100
AcDbEntity
  8
Calque_1
 62
7
100
AcDbLine
 10
76.037984
 20
208.991285
 30
0.0
 11
76.037984
 21
208.921985
 31
0.0
  0
SPLINE
  5
1a3
100
AcDbEntity
  8
Calque_1
 62
7
100
AcDbSpline
 70
8
 71
3
 72
8
 73
4
 74
0
 40
0
 40
0
 40
0
 40
0
 40
1
 40
1
 40
1
 40
1
 10
76.037984
 20
208.921985
 30
0.0
 10
76.037984
 20
208.494706
 30
0.0
 10
76.239488
 20
208.136719
 30
0.0
 10
76.642497
 20
207.848024
 30
0.0
  0
SPLINE
  5
1a4
100
AcDbEntity
  8
Calque_1
 62
7
100
AcDbSpline
 70
8
 71
3
 72
8
 73
4
 74
0
 40
0
 40
0
 40
0
 40
0
 40
1
 40
1
 40
1
 40
1
 10
76.642497
 20
207.848024
 30
0.0
 10
77.082142
 20
207.536224
 30
0.0
 10
77.622540
 20
207.345681
 30
0.0
 10
78.263689
 20
207.276394
 30
0.0
  0
SPLINE
  5
1a5
100
AcDbEntity
  8
Calque_1
 62
7
100
AcDbSpline
 70
8
 71
3
 72
8
 73
4
 74
0
 40
0
 40
0
 40
0
 40
0
 40
1
 40
1
 40
1
 40
1
 10
78.263689
 20
207.276394
 30
0.0
 10
79.454394
 20
207.160914
 30
0.0
 10
80.242092
 20
207.033887
 30
0.0
 10
80.626782
 20
206.895313
 30
0.0
  0
SPLINE
  5
1a6
100
AcDbEntity
  8
Calque_1
 62
7
100
AcDbSpline
 70
8
 71
3
 72
8
 73
4
 74
0
 40
0
 40
0
 40
0
 40
0
 40
1
 40
1
 40
1
 40
1
 10
80.626782
 20
206.895313
 30
0.0
 10
81.487754
 20
206.618160
 30
0.0
 10
82.165540
 20
206.179336
 30
0.0
 10
82.660141
 20
205.578841
 30
0.0
  0
SPLINE
  5
1a7
100
AcDbEntity
  8
Calque_1
 62
7
100
AcDbSpline
 70
8
 71
3
 72
8
 73
4
 74
0
 40
0
 40
0
 40
0
 40
0
 40
1
 40
1
 40
1
 40
1
 10
82.660141
 20
205.578841
 30
0.0
 10
82.934920
 20
205.267042
 30
0.0
 10
83.072309
 20
204.678094
 30
0.0
 10
83.072309
 20
203.811998
 30
0.0
  0
LINE
  5
1a8
100
AcDbEntity
  8
Calque_1
 62
7
100
AcDbLine
 10
83.072309
 20
203.811998
 30
0.0
 11
83.072309
 21
203.621458
 31
0.0
  0
SPLINE
  5
1a9
100
AcDbEntity
  8
Calque_1
 62
7
100
AcDbSpline
 70
8
 71
3
 72
8
 73
4
 74
0
 40
0
 40
0
 40
0
 40
0
 40
1
 40
1
 40
1
 40
1
 10
83.072309
 20
203.621458
 30
0.0
 10
83.072309
 20
202.778451
 30
0.0
 10
82.183859
 20
202.062471
 30
0.0
 10
80.406959
 20
201.473518
 30
0.0
  0
SPLINE
  5
1aa
100
AcDbEntity
  8
Calque_1
 62
7
100
AcDbSpline
 70
8
 71
3
 72
8
 73
4
 74
0
 40
0
 40
0
 40
0
 40
0
 40
1
 40
1
 40
1
 40
1
 10
80.406959
 20
201.473518
 30
0.0
 10
78.904838
 20
200.965405
 30
0.0
 10
77.182894
 20
200.826831
 30
0.0
 10
75.241128
 20
201.057796
 30
0.0
  0
LINE
  5
1ab
100
AcDbEntity
  8
Calque_1
 62
7
100
AcDbLine
 10
75.241128
 20
201.057796
 30
0.0
 11
75.048783
 21
201.092486
 31
0.0
  0
SPLINE
  5
1ac
100
AcDbEntity
  8
Calque_1
 62
7
100
AcDbSpline
 70
8
 71
3
 72
8
 73
4
 74
0
 40
0
 40
0
 40
0
 40
0
 40
1
 40
1
 40
1
 40
1
 10
75.048783
 20
201.092486
 30
0.0
 10
74.242766
 20
201.219519
 30
0.0
 10
73.473387
 20
201.069395
 30
0.0
 10
72.740646
 20
200.642115
 30
0.0
  0
SPLINE
  5
1ad
100
AcDbEntity
  8
Calque_1
 62
7
100
AcDbSpline
 70
8
 71
3
 72
8
 73
4
 74
0
 40
0
 40
0
 40
0
 40
0
 40
1
 40
1
 40
1
 40
1
 10
72.740646
 20
200.642115
 30
0.0
 10
72.062859
 20
200.261034
 30
0.0
 10
71.723966
 20
199.799113
 30
0.0
 10
71.723966
 20
199.256354
 30
0.0
  0
LINE
  5
1ae
100
AcDbEntity
  8
Calque_1
 62
7
100
AcDbLine
 10
71.723966
 20
199.256354
 30
0.0
 11
71.723966
 21
199.256354
 31
0.0
  0
SPLINE
  5
1af
100
AcDbEntity
  8
Calque_1
 62
7
100
AcDbSpline
 70
8
 71
3
 72
8
 73
4
 74
0
 40
0
 40
0
 40
0
 40
0
 40
1
 40
1
 40
1
 40
1
 10
71.723966
 20
199.256354
 30
0.0
 10
71.742286
 20
198.817527
 30
0.0
 10
71.962109
 20
198.419123
 30
0.0
 10
72.383435
 20
198.061141
 30
0.0
  0
SPLINE
  5
1b0
100
AcDbEntity
  8
Calque_1
 62
7
100
AcDbSpline
 70
8
 71
3
 72
8
 73
4
 74
0
 40
0
 40
0
 40
0
 40
0
 40
1
 40
1
 40
1
 40
1
 10
72.383435
 20
198.061141
 30
0.0
 10
72.603256
 20
197.887921
 30
0.0
 10
73.152812
 20
197.680055
 30
0.0
 10
74.032103
 20
197.437542
 30
0.0
  0
SPLINE
  5
1b1
100
AcDbEntity
  8
Calque_1
 62
7
100
AcDbSpline
 70
8
 71
3
 72
8
 73
4
 74
0
 40
0
 40
0
 40
0
 40
0
 40
1
 40
1
 40
1
 40
1
 10
74.032103
 20
197.437542
 30
0.0
 10
74.178652
 20
197.402909
 30
0.0
 10
74.352678
 20
197.368265
 30
0.0
 10
74.554182
 20
197.333612
 30
0.0
  0
SPLINE
  5
1b2
100
AcDbEntity
  8
Calque_1
 62
7
100
AcDbSpline
 70
8
 71
3
 72
8
 73
4
 74
0
 40
0
 40
0
 40
0
 40
0
 40
1
 40
1
 40
1
 40
1
 10
74.554182
 20
197.333612
 30
0.0
 10
75.836481
 20
197.160391
 30
0.0
 10
77.274487
 20
197.073781
 30
0.0
 10
78.868202
 20
197.073781
 30
0.0
  0
SPLINE
  5
1b3
100
AcDbEntity
  8
Calque_1
 62
7
100
AcDbSpline
 70
8
 71
3
 72
8
 73
4
 74
0
 40
0
 40
0
 40
0
 40
0
 40
1
 40
1
 40
1
 40
1
 10
78.868202
 20
197.073781
 30
0.0
 10
82.275451
 20
197.073781
 30
0.0
 10
85.279693
 20
197.576119
 30
0.0
 10
87.880928
 20
198.580794
 30
0.0
  0
SPLINE
  5
1b4
100
AcDbEntity
  8
Calque_1
 62
7
100
AcDbSpline
 70
8
 71
3
 72
8
 73
4
 74
0
 40
0
 40
0
 40
0
 40
0
 40
1
 40
1
 40
1
 40
1
 10
87.880928
 20
198.580794
 30
0.0
 10
90.372250
 20
199.550828
 30
0.0
 10
91.874372
 20
200.826883
 30
0.0
 10
92.387294
 20
202.408958
 30
0.0
  0
SPLINE
  5
1b5
100
AcDbEntity
  8
Calque_1
 62
7
100
AcDbSpline
 70
8
 71
3
 72
8
 73
4
 74
0
 40
0
 40
0
 40
0
 40
0
 40
1
 40
1
 40
1
 40
1
 10
92.387294
 20
202.408958
 30
0.0
 10
92.790301
 20
203.633051
 30
0.0
 10
92.442247
 20
204.857142
 30
0.0
 10
91.343134
 20
206.081230
 30
0.0
  0
SPLINE
  5
1b6
100
AcDbEntity
  8
Calque_1
 62
7
100
AcDbSpline
 70
8
 71
3
 72
8
 73
4
 74
0
 40
0
 40
0
 40
0
 40
0
 40
1
 40
1
 40
1
 40
1
 10
91.343134
 20
206.081230
 30
0.0
 10
90.244020
 20
207.293766
 30
0.0
 10
88.586191
 20
208.367725
 30
0.0
 10
86.369647
 20
209.303108
 30
0.0
  0
LINE
  5
1b7
100
AcDbEntity
  8
Calque_1
 62
7
100
AcDbLine
 10
86.369647
 20
209.303108
 30
0.0
 11
86.369647
 21
209.303077
 31
0.0
  0
SPLINE
  5
1b8
100
AcDbEntity
  8
Calque_1
 62
7
100
AcDbSpline
 70
8
 71
3
 72
8
 73
4
 74
0
 40
0
 40
0
 40
0
 40
0
 40
1
 40
1
 40
1
 40
1
 10
114.593950
 20
196.888190
 30
0.0
 10
114.003403
 20
196.895657
 30
0.0
 10
113.489830
 20
197.061609
 30
0.0
 10
113.053230
 20
197.386048
 30
0.0
  0
SPLINE
  5
1b9
100
AcDbEntity
  8
Calque_1
 62
7
100
AcDbSpline
 70
8
 71
3
 72
8
 73
4
 74
0
 40
0
 40
0
 40
0
 40
0
 40
1
 40
1
 40
1
 40
1
 10
113.053230
 20
197.386048
 30
0.0
 10
112.660717
 20
197.698870
 30
0.0
 10
112.469033
 20
198.086083
 30
0.0
 10
112.478180
 20
198.547687
 30
0.0
  0
LINE
  5
1ba
100
AcDbEntity
  8
Calque_1
 62
7
100
AcDbLine
 10
112.478180
 20
198.547687
 30
0.0
 11
112.733470
 21
211.423199
 31
0.0
  0
SPLINE
  5
1bb
100
AcDbEntity
  8
Calque_1
 62
7
100
AcDbSpline
 70
8
 71
3
 72
8
 73
4
 74
0
 40
0
 40
0
 40
0
 40
0
 40
1
 40
1
 40
1
 40
1
 10
112.733470
 20
211.423199
 30
0.0
 10
112.742870
 20
211.895794
 30
0.0
 10
112.949803
 20
212.277923
 30
0.0
 10
113.354270
 20
212.569588
 30
0.0
  0
SPLINE
  5
1bc
100
AcDbEntity
  8
Calque_1
 62
7
100
AcDbSpline
 70
8
 71
3
 72
8
 73
4
 74
0
 40
0
 40
0
 40
0
 40
0
 40
1
 40
1
 40
1
 40
1
 10
113.354270
 20
212.569588
 30
0.0
 10
113.788743
 20
212.882853
 30
0.0
 10
114.308637
 20
213.035626
 30
0.0
 10
114.913950
 20
213.027907
 30
0.0
  0
LINE
  5
1bd
100
AcDbEntity
  8
Calque_1
 62
7
100
AcDbLine
 10
114.913950
 20
213.027907
 30
0.0
 11
114.936050
 21
213.027622
 31
0.0
  0
SPLINE
  5
1be
100
AcDbEntity
  8
Calque_1
 62
7
100
AcDbSpline
 70
8
 71
3
 72
8
 73
4
 74
0
 40
0
 40
0
 40
0
 40
0
 40
1
 40
1
 40
1
 40
1
 10
114.936050
 20
213.027622
 30
0.0
 10
117.770677
 20
212.991475
 30
0.0
 10
120.171027
 20
212.279276
 30
0.0
 10
122.137100
 20
210.891024
 30
0.0
  0
SPLINE
  5
1bf
100
AcDbEntity
  8
Calque_1
 62
7
100
AcDbSpline
 70
8
 71
3
 72
8
 73
4
 74
0
 40
0
 40
0
 40
0
 40
0
 40
1
 40
1
 40
1
 40
1
 10
122.137100
 20
210.891024
 30
0.0
 10
123.928413
 20
209.625923
 30
0.0
 10
124.803803
 20
207.971244
 30
0.0
 10
124.763270
 20
205.926986
 30
0.0
  0
SPLINE
  5
1c0
100
AcDbEntity
  8
Calque_1
 62
7
100
AcDbSpline
 70
8
 71
3
 72
8
 73
4
 74
0
 40
0
 40
0
 40
0
 40
0
 40
1
 40
1
 40
1
 40
1
 10
124.763270
 20
205.926986
 30
0.0
 10
124.693757
 20
202.420982
 30
0.0
 10
123.738720
 20
200.058589
 30
0.0
 10
121.898160
 20
198.839806
 30
0.0
  0
SPLINE
  5
1c1
100
AcDbEntity
  8
Calque_1
 62
7
100
AcDbSpline
 70
8
 71
3
 72
8
 73
4
 74
0
 40
0
 40
0
 40
0
 40
0
 40
1
 40
1
 40
1
 40
1
 10
121.898160
 20
198.839806
 30
0.0
 10
119.878040
 20
197.502389
 30
0.0
 10
117.450670
 20
196.851757
 30
0.0
 10
114.616050
 20
196.887910
 30
0.0
  0
LINE
  5
1c2
100
AcDbEntity
  8
Calque_1
 62
7
100
AcDbLine
 10
114.616050
 20
196.887910
 30
0.0
 11
114.593950
 21
196.888190
 31
0.0
  0
SPLINE
  5
1c3
100
AcDbEntity
  8
Calque_1
 62
7
100
AcDbSpline
 70
8
 71
3
 72
8
 73
4
 74
0
 40
0
 40
0
 40
0
 40
0
 40
1
 40
1
 40
1
 40
1
 10
108.755360
 20
215.233667
 30
0.0
 10
108.193687
 20
215.207840
 30
0.0
 10
107.725470
 20
215.054409
 30
0.0
 10
107.350710
 20
214.773373
 30
0.0
  0
SPLINE
  5
1c4
100
AcDbEntity
  8
Calque_1
 62
7
100
AcDbSpline
 70
8
 71
3
 72
8
 73
4
 74
0
 40
0
 40
0
 40
0
 40
0
 40
1
 40
1
 40
1
 40
1
 10
107.350710
 20
214.773373
 30
0.0
 10
106.960977
 20
214.481521
 30
0.0
 10
106.761857
 20
214.121277
 30
0.0
 10
106.753350
 20
213.692641
 30
0.0
  0
LINE
  5
1c5
100
AcDbEntity
  8
Calque_1
 62
7
100
AcDbLine
 10
106.753350
 20
213.692641
 30
0.0
 11
106.413410
 21
196.547280
 31
0.0
  0
SPLINE
  5
1c6
100
AcDbEntity
  8
Calque_1
 62
7
100
AcDbSpline
 70
8
 71
3
 72
8
 73
4
 74
0
 40
0
 40
0
 40
0
 40
0
 40
1
 40
1
 40
1
 40
1
 10
106.413410
 20
196.547280
 30
0.0
 10
106.404743
 20
196.107653
 30
0.0
 10
106.581883
 20
195.731617
 30
0.0
 10
106.944830
 20
195.419170
 30
0.0
  0
SPLINE
  5
1c7
100
AcDbEntity
  8
Calque_1
 62
7
100
AcDbSpline
 70
8
 71
3
 72
8
 73
4
 74
0
 40
0
 40
0
 40
0
 40
0
 40
1
 40
1
 40
1
 40
1
 10
106.944830
 20
195.419170
 30
0.0
 10
107.322797
 20
195.117530
 30
0.0
 10
107.806837
 20
194.951957
 30
0.0
 10
108.396950
 20
194.922450
 30
0.0
  0
SPLINE
  5
1c8
100
AcDbEntity
  8
Calque_1
 62
7
100
AcDbSpline
 70
8
 71
3
 72
8
 73
4
 74
0
 40
0
 40
0
 40
0
 40
0
 40
1
 40
1
 40
1
 40
1
 10
108.396950
 20
194.922450
 30
0.0
 10
112.055730
 20
194.743863
 30
0.0
 10
114.372323
 20
194.648357
 30
0.0
 10
115.346730
 20
194.635930
 30
0.0
  0
SPLINE
  5
1c9
100
AcDbEntity
  8
Calque_1
 62
7
100
AcDbSpline
 70
8
 71
3
 72
8
 73
4
 74
0
 40
0
 40
0
 40
0
 40
0
 40
1
 40
1
 40
1
 40
1
 10
115.346730
 20
194.635930
 30
0.0
 10
120.632130
 20
194.568530
 30
0.0
 10
124.777647
 20
195.477586
 30
0.0
 10
127.783280
 20
197.363098
 30
0.0
  0
SPLINE
  5
1ca
100
AcDbEntity
  8
Calque_1
 62
7
100
AcDbSpline
 70
8
 71
3
 72
8
 73
4
 74
0
 40
0
 40
0
 40
0
 40
0
 40
1
 40
1
 40
1
 40
1
 10
127.783280
 20
197.363098
 30
0.0
 10
130.565500
 20
199.152521
 30
0.0
 10
131.986247
 20
201.541956
 30
0.0
 10
132.045520
 20
204.531404
 30
0.0
  0
SPLINE
  5
1cb
100
AcDbEntity
  8
Calque_1
 62
7
100
AcDbSpline
 70
8
 71
3
 72
8
 73
4
 74
0
 40
0
 40
0
 40
0
 40
0
 40
1
 40
1
 40
1
 40
1
 10
132.045520
 20
204.531404
 30
0.0
 10
132.111520
 20
207.861559
 30
0.0
 10
130.488140
 20
210.520677
 30
0.0
 10
127.175380
 20
212.508760
 30
0.0
  0
SPLINE
  5
1cc
100
AcDbEntity
  8
Calque_1
 62
7
100
AcDbSpline
 70
8
 71
3
 72
8
 73
4
 74
0
 40
0
 40
0
 40
0
 40
0
 40
1
 40
1
 40
1
 40
1
 10
127.175380
 20
212.508760
 30
0.0
 10
124.037353
 20
214.373684
 30
0.0
 10
119.988043
 20
215.337777
 30
0.0
 10
115.027450
 20
215.401038
 30
0.0
  0
SPLINE
  5
1cd
100
AcDbEntity
  8
Calque_1
 62
7
100
AcDbSpline
 70
8
 71
3
 72
8
 73
4
 74
0
 40
0
 40
0
 40
0
 40
0
 40
1
 40
1
 40
1
 40
1
 10
115.027450
 20
215.401038
 30
0.0
 10
114.038277
 20
215.413658
 30
0.0
 10
111.947580
 20
215.357868
 30
0.0
 10
108.755360
 20
215.233667
 30
0.0
  0
LINE
  5
1ce
100
AcDbEntity
  8
Calque_1
 62
7
100
AcDbLine
 10
108.755360
 20
215.233667
 30
0.0
 11
108.755360
 21
215.233667
 31
0.0
  0
ENDSEC
  0
SECTION
  2
OBJECTS
  0
DICTIONARY
  5
C
330
0
100
AcDbDictionary
  3
ACAD_GROUP
350
D
  3
ACAD_MLINESTYLE
350
17
  0
DICTIONARY
  5
D
330
C
100
AcDbDictionary
  0
DICTIONARY
  5
1A
330
C
100
AcDbDictionary
  0
DICTIONARY
  5
17
330
C
100
AcDbDictionary
  3
STANDARD
350
18
  0
DICTIONARY
  5
19
330
C
100
AcDbDictionary
  0
ENDSEC
  0
EOF
