<?xml version="1.0" encoding="UTF-8" standalone="no"?>
<!-- Created with Inkscape (http://www.inkscape.org/) -->

<svg
   xmlns:dc="http://purl.org/dc/elements/1.1/"
   xmlns:cc="http://creativecommons.org/ns#"
   xmlns:rdf="http://www.w3.org/1999/02/22-rdf-syntax-ns#"
   xmlns:svg="http://www.w3.org/2000/svg"
   xmlns="http://www.w3.org/2000/svg"
   xmlns:sodipodi="http://sodipodi.sourceforge.net/DTD/sodipodi-0.dtd"
   xmlns:inkscape="http://www.inkscape.org/namespaces/inkscape"
   width="210mm"
   height="297mm"
   viewBox="0 0 744.09448819 1052.3622047"
   id="svg4239"
   version="1.1"
   inkscape:version="0.91 r"
   sodipodi:docname="Interieur_Boite_Holo.svg">
  <defs
     id="defs4241" />
  <sodipodi:namedview
     id="base"
     pagecolor="#ffffff"
     bordercolor="#666666"
     borderopacity="1.0"
     inkscape:pageopacity="0.0"
     inkscape:pageshadow="2"
     inkscape:zoom="0.7"
     inkscape:cx="152.5216"
     inkscape:cy="734.17722"
     inkscape:document-units="mm"
     inkscape:current-layer="layer1"
     showgrid="false"
     inkscape:window-width="1366"
     inkscape:window-height="715"
     inkscape:window-x="0"
     inkscape:window-y="0"
     inkscape:window-maximized="1" />
  <metadata
     id="metadata4244">
    <rdf:RDF>
      <cc:Work
         rdf:about="">
        <dc:format>image/svg+xml</dc:format>
        <dc:type
           rdf:resource="http://purl.org/dc/dcmitype/StillImage" />
        <dc:title></dc:title>
      </cc:Work>
    </rdf:RDF>
  </metadata>
  <g
     inkscape:label="Calque 1"
     inkscape:groupmode="layer"
     id="layer1">
    <path
       style="fill:none;stroke:#ff0000;stroke-width:0.35433071;stroke-miterlimit:4;stroke-dasharray:none"
       d="M -234.60547 -7.1171875 L -234.60547 29 L -223.97461 29 L -223.97461 64.583984 L -234.60547 64.583984 L -234.60547 100.87695 L -223.97461 100.87695 L -223.97461 136.46289 L -234.60547 136.46289 L -234.60547 172.75586 L -223.97461 172.75586 L -223.97461 208.3418 L -234.60547 208.3418 L -234.60547 244.45703 L -234.39062 244.45703 L -234.39062 255.06641 L -197.57617 255.06641 L -197.57617 255.08789 L -160.01758 255.08789 L -160.01758 255.06641 L -123.16797 255.06641 L -123.16797 255.08789 L -85.609375 255.08789 L -85.609375 255.06641 L -48.757812 255.06641 L -48.757812 255.08789 L -11.199219 255.08789 L -11.199219 255.06641 L 25.652344 255.06641 L 25.652344 255.08789 L 63.210938 255.08789 L 63.210938 255.06641 L 100.06055 255.06641 L 100.06055 255.08789 L 137.61914 255.08789 L 137.61914 255.06641 L 174.4707 255.06641 L 174.4707 255.08789 L 212.0293 255.08789 L 212.0293 255.06641 L 248.87891 255.06641 L 248.87891 255.08789 L 286.43945 255.08789 L 286.43945 255.06641 L 323.28906 255.06641 L 323.28906 255.08789 L 360.84766 255.08789 L 360.84766 255.06641 L 397.69922 255.06641 L 397.69922 255.08789 L 435.25781 255.08789 L 435.25781 255.06641 L 472.10742 255.06641 L 472.10742 255.08789 L 509.66797 255.08789 L 509.66797 255.06641 L 546.51758 255.06641 L 546.51758 255.08789 L 584.07617 255.08789 L 584.07617 255.06641 L 621.14844 255.06641 L 621.14844 219.72266 L 621.10352 219.72266 L 621.10352 208.3418 L 610.47461 208.3418 L 610.47461 172.75586 L 621.10352 172.75586 L 621.10352 136.46289 L 610.47461 136.46289 L 610.47461 100.87695 L 621.10352 100.87695 L 621.10352 64.583984 L 610.47461 64.583984 L 610.47461 29 L 621.10352 29 L 621.10352 -7.1171875 L -234.60547 -7.1171875 z "
       id="path4821" />
    <path
       style="fill:none;stroke:#ff0000;stroke-width:0.35433071;stroke-miterlimit:4;stroke-dasharray:none"
       d="M 355.35547 265.7168 L 355.35547 301.48047 L 344.72656 301.48047 L 344.72656 337.77344 L 355.35547 337.77344 L 355.35547 373.35742 L 344.72656 373.35742 L 344.72656 409.65234 L 355.35547 409.65234 L 355.35547 445.23633 L 344.72656 445.23633 L 344.72656 481.5293 L 355.35547 481.5293 L 355.35547 517.29297 L 355.55273 517.29297 L 355.55273 527.79102 L 383.87891 527.79102 L 383.87891 527.92188 L 423.56445 527.92188 L 423.56445 527.79102 L 462.54102 527.79102 L 462.54102 527.92188 L 502.22656 527.92188 L 502.22656 527.79102 L 541.20312 527.79102 L 541.20312 527.92188 L 580.88672 527.92188 L 580.88672 527.79102 L 619.86328 527.79102 L 619.86328 527.92188 L 659.54883 527.92188 L 659.54883 527.79102 L 698.52539 527.79102 L 698.52539 527.92188 L 738.21094 527.92188 L 738.21094 527.79102 L 777.1875 527.79102 L 777.1875 527.92188 L 816.87109 527.92188 L 816.87109 527.79102 L 855.84766 527.79102 L 855.84766 527.92188 L 895.5332 527.92188 L 895.5332 527.79102 L 923.90039 527.79102 L 923.90039 517.29297 L 924.05664 517.29297 L 924.05664 481.5293 L 934.6875 481.5293 L 934.6875 445.23633 L 924.05664 445.23633 L 924.05664 409.65234 L 934.6875 409.65234 L 934.6875 373.35742 L 924.05664 373.35742 L 924.05664 337.77344 L 934.6875 337.77344 L 934.6875 301.48047 L 924.05664 301.48047 L 924.05664 265.7168 L 376.61523 265.7168 L 355.35547 265.7168 z "
       id="path4823" />
    <path
       style="fill:none;stroke:#ff0000;stroke-width:0.35433071;stroke-miterlimit:4;stroke-dasharray:none"
       d="M -245.23438 265.7168 L -245.23438 301.48047 L -255.86523 301.48047 L -255.86523 337.77344 L -245.23438 337.77344 L -245.23438 373.35742 L -255.86523 373.35742 L -255.86523 409.65234 L -245.23438 409.65234 L -245.23438 445.23633 L -255.86523 445.23633 L -255.86523 481.5293 L -245.23438 481.5293 L -245.23438 517.29297 L -244.45703 517.29297 L -244.45703 528.09375 L 322.23828 528.09375 L 322.23828 517.29297 L 323.4668 517.29297 L 323.4668 481.5293 L 334.0957 481.5293 L 334.0957 445.23633 L 323.4668 445.23633 L 323.4668 409.65234 L 334.0957 409.65234 L 334.0957 373.35742 L 323.4668 373.35742 L 323.4668 337.77344 L 334.0957 337.77344 L 334.0957 301.48047 L 323.4668 301.48047 L 323.4668 265.7168 L -223.97461 265.7168 L -245.23438 265.7168 z "
       id="path4825" />
  </g>
</svg>
