  0
SECTION
  2
HEADER
  9
$ACADVER
  1
AC1014
  9
$HANDSEED
  5
FFFF
  9
$MEASUREMENT
 70
     1
  0
ENDSEC
  0
SECTION
  2
TABLES
  0
TABLE
  2
VPORT
  5
8
330
0
100
AcDbSymbolTable
 70
     4
  0
VPORT
  5
2E
330
8
100
AcDbSymbolTableRecord
100
AcDbViewportTableRecord
  2
*ACTIVE
 70
     0
 10
0.0
 20
0.0
 11
1.0
 21
1.0
 12
210.0
 22
148.5
 13
0.0
 23
0.0
 14
10.0
 24
10.0
 15
10.0
 25
10.0
 16
0.0
 26
0.0
 36
1.0
 17
0.0
 27
0.0
 37
0.0
 40
341.0
 41
1.24
 42
50.0
 43
0.0
 44
0.0
 50
0.0
 51
0.0
 71
     0
 72
   100
 73
     1
 74
     3
 75
     0
 76
     0
 77
     0
 78
     0
  0
ENDTAB
  0
TABLE
  2
LTYPE
  5
5
330
0
100
AcDbSymbolTable
 70
     1
  0
LTYPE
  5
14
330
5
100
AcDbSymbolTableRecord
100
AcDbLinetypeTableRecord
  2
BYBLOCK
 70
     0
  3

 72
    65
 73
     0
 40
0.0
  0
LTYPE
  5
15
330
5
100
AcDbSymbolTableRecord
100
AcDbLinetypeTableRecord
  2
BYLAYER
 70
     0
  3

 72
    65
 73
     0
 40
0.0
  0
LTYPE
  5
16
330
5
100
AcDbSymbolTableRecord
100
AcDbLinetypeTableRecord
  2
CONTINUOUS
 70
     0
  3
Solid line
 72
    65
 73
     0
 40
0.0
  0
ENDTAB
  0
TABLE
  2
LAYER
  5
2
100
AcDbSymbolTable
 70
2
  0
LAYER
  5
50
100
AcDbSymbolTableRecord
100
AcDbLayerTableRecord
  2
0
 70
0
  6
CONTINUOUS
  0
LAYER
  5
51
100
AcDbSymbolTableRecord
100
AcDbLayerTableRecord
  2
Calque_1
 70
0
  6
CONTINUOUS
  0
ENDTAB
  0
TABLE
  2
STYLE
  5
3
330
0
100
AcDbSymbolTable
 70
     1
  0
STYLE
  5
11
330
3
100
AcDbSymbolTableRecord
100
AcDbTextStyleTableRecord
  2
STANDARD
 70
     0
 40
0.0
 41
1.0
 50
0.0
 71
     0
 42
2.5
  3
txt
  4

  0
ENDTAB
  0
TABLE
  2
VIEW
  5
6
330
0
100
AcDbSymbolTable
 70
     0
  0
ENDTAB
  0
TABLE
  2
UCS
  5
7
330
0
100
AcDbSymbolTable
 70
     0
  0
ENDTAB
  0
TABLE
  2
APPID
  5
9
330
0
100
AcDbSymbolTable
 70
     2
  0
APPID
  5
12
330
9
100
AcDbSymbolTableRecord
100
AcDbRegAppTableRecord
  2
ACAD
 70
     0
  0
ENDTAB
  0
TABLE
  2
DIMSTYLE
  5
A
330
0
100
AcDbSymbolTable
 70
     1
  0
DIMSTYLE
105
27
330
A
100
AcDbSymbolTableRecord
100
AcDbDimStyleTableRecord
  2
ISO-25
 70
     0
  3

  4

  5

  6

  7

 40
1.0
 41
2.5
 42
0.625
 43
3.75
 44
1.25
 45
0.0
 46
0.0
 47
0.0
 48
0.0
140
2.5
141
2.5
142
0.0
143
0.03937007874016
144
1.0
145
0.0
146
1.0
147
0.625
 71
     0
 72
     0
 73
     0
 74
     0
 75
     0
 76
     0
 77
     1
 78
     8
170
     0
171
     3
172
     1
173
     0
174
     0
175
     0
176
     0
177
     0
178
     0
270
     2
271
     2
272
     2
273
     2
274
     3
340
11
275
     0
280
     0
281
     0
282
     0
283
     0
284
     8
285
     0
286
     0
287
     3
288
     0
  0
ENDTAB
  0
TABLE
  2
BLOCK_RECORD
  5
1
330
0
100
AcDbSymbolTable
 70
     1
  0
BLOCK_RECORD
  5
1F
330
1
100
AcDbSymbolTableRecord
100
AcDbBlockTableRecord
  2
*MODEL_SPACE
  0
BLOCK_RECORD
  5
1B
330
1
100
AcDbSymbolTableRecord
100
AcDbBlockTableRecord
  2
*PAPER_SPACE
  0
ENDTAB
  0
ENDSEC
  0
SECTION
  2
BLOCKS
  0
BLOCK
  5
20
330
1F
100
AcDbEntity
  8
0
100
AcDbBlockBegin
  2
*MODEL_SPACE
 70
     0
 10
0.0
 20
0.0
 30
0.0
  3
*MODEL_SPACE
  1

  0
ENDBLK
  5
21
330
1F
100
AcDbEntity
  8
0
100
AcDbBlockEnd
  0
BLOCK
  5
1C
330
1B
100
AcDbEntity
 67
     1
  8
0
100
AcDbBlockBegin
  2
*PAPER_SPACE
  1

  0
ENDBLK
  5
1D
330
1B
100
AcDbEntity
 67
     1
  8
0
100
AcDbBlockEnd
  0
ENDSEC
  0
SECTION
  2
ENTITIES
  0
LINE
  5
100
100
AcDbEntity
  8
Calque_1
 62
1
100
AcDbLine
 10
-66.210877
 20
299.008628
 30
0.0
 11
-66.210877
 21
288.815556
 31
0.0
  0
LINE
  5
101
100
AcDbEntity
  8
Calque_1
 62
1
100
AcDbLine
 10
-66.210877
 20
288.815556
 30
0.0
 11
-63.210612
 21
288.815556
 31
0.0
  0
LINE
  5
102
100
AcDbEntity
  8
Calque_1
 62
1
100
AcDbLine
 10
-63.210612
 20
288.815556
 30
0.0
 11
-63.210612
 21
278.772965
 31
0.0
  0
LINE
  5
103
100
AcDbEntity
  8
Calque_1
 62
1
100
AcDbLine
 10
-63.210612
 20
278.772965
 30
0.0
 11
-66.210877
 21
278.772965
 31
0.0
  0
LINE
  5
104
100
AcDbEntity
  8
Calque_1
 62
1
100
AcDbLine
 10
-66.210877
 20
278.772965
 30
0.0
 11
-66.210877
 21
268.530283
 31
0.0
  0
LINE
  5
105
100
AcDbEntity
  8
Calque_1
 62
1
100
AcDbLine
 10
-66.210877
 20
268.530283
 30
0.0
 11
-63.210612
 21
268.530283
 31
0.0
  0
LINE
  5
106
100
AcDbEntity
  8
Calque_1
 62
1
100
AcDbLine
 10
-63.210612
 20
268.530283
 30
0.0
 11
-63.210612
 21
258.487140
 31
0.0
  0
LINE
  5
107
100
AcDbEntity
  8
Calque_1
 62
1
100
AcDbLine
 10
-63.210612
 20
258.487140
 30
0.0
 11
-66.210877
 21
258.487140
 31
0.0
  0
LINE
  5
108
100
AcDbEntity
  8
Calque_1
 62
1
100
AcDbLine
 10
-66.210877
 20
258.487140
 30
0.0
 11
-66.210877
 21
248.244457
 31
0.0
  0
LINE
  5
109
100
AcDbEntity
  8
Calque_1
 62
1
100
AcDbLine
 10
-66.210877
 20
248.244457
 30
0.0
 11
-63.210612
 21
248.244457
 31
0.0
  0
LINE
  5
10a
100
AcDbEntity
  8
Calque_1
 62
1
100
AcDbLine
 10
-63.210612
 20
248.244457
 30
0.0
 11
-63.210612
 21
238.201314
 31
0.0
  0
LINE
  5
10b
100
AcDbEntity
  8
Calque_1
 62
1
100
AcDbLine
 10
-63.210612
 20
238.201314
 30
0.0
 11
-66.210877
 21
238.201314
 31
0.0
  0
LINE
  5
10c
100
AcDbEntity
  8
Calque_1
 62
1
100
AcDbLine
 10
-66.210877
 20
238.201314
 30
0.0
 11
-66.210877
 21
228.008794
 31
0.0
  0
LINE
  5
10d
100
AcDbEntity
  8
Calque_1
 62
1
100
AcDbLine
 10
-66.210877
 20
228.008794
 30
0.0
 11
-66.150242
 21
228.008794
 31
0.0
  0
LINE
  5
10e
100
AcDbEntity
  8
Calque_1
 62
1
100
AcDbLine
 10
-66.150242
 20
228.008794
 30
0.0
 11
-66.150242
 21
225.014591
 31
0.0
  0
LINE
  5
10f
100
AcDbEntity
  8
Calque_1
 62
1
100
AcDbLine
 10
-66.150242
 20
225.014591
 30
0.0
 11
-55.760386
 21
225.014591
 31
0.0
  0
LINE
  5
110
100
AcDbEntity
  8
Calque_1
 62
1
100
AcDbLine
 10
-55.760386
 20
225.014591
 30
0.0
 11
-55.760386
 21
225.008529
 31
0.0
  0
LINE
  5
111
100
AcDbEntity
  8
Calque_1
 62
1
100
AcDbLine
 10
-55.760386
 20
225.008529
 30
0.0
 11
-45.160517
 21
225.008529
 31
0.0
  0
LINE
  5
112
100
AcDbEntity
  8
Calque_1
 62
1
100
AcDbLine
 10
-45.160517
 20
225.008529
 30
0.0
 11
-45.160517
 21
225.014591
 31
0.0
  0
LINE
  5
113
100
AcDbEntity
  8
Calque_1
 62
1
100
AcDbLine
 10
-45.160517
 20
225.014591
 30
0.0
 11
-34.760738
 21
225.014591
 31
0.0
  0
LINE
  5
114
100
AcDbEntity
  8
Calque_1
 62
1
100
AcDbLine
 10
-34.760738
 20
225.014591
 30
0.0
 11
-34.760738
 21
225.008529
 31
0.0
  0
LINE
  5
115
100
AcDbEntity
  8
Calque_1
 62
1
100
AcDbLine
 10
-34.760738
 20
225.008529
 30
0.0
 11
-24.160868
 21
225.008529
 31
0.0
  0
LINE
  5
116
100
AcDbEntity
  8
Calque_1
 62
1
100
AcDbLine
 10
-24.160868
 20
225.008529
 30
0.0
 11
-24.160868
 21
225.014591
 31
0.0
  0
LINE
  5
117
100
AcDbEntity
  8
Calque_1
 62
1
100
AcDbLine
 10
-24.160868
 20
225.014591
 30
0.0
 11
-13.760538
 21
225.014591
 31
0.0
  0
LINE
  5
118
100
AcDbEntity
  8
Calque_1
 62
1
100
AcDbLine
 10
-13.760538
 20
225.014591
 30
0.0
 11
-13.760538
 21
225.008529
 31
0.0
  0
LINE
  5
119
100
AcDbEntity
  8
Calque_1
 62
1
100
AcDbLine
 10
-13.760538
 20
225.008529
 30
0.0
 11
-3.160668
 21
225.008529
 31
0.0
  0
LINE
  5
11a
100
AcDbEntity
  8
Calque_1
 62
1
100
AcDbLine
 10
-3.160668
 20
225.008529
 30
0.0
 11
-3.160668
 21
225.014591
 31
0.0
  0
LINE
  5
11b
100
AcDbEntity
  8
Calque_1
 62
1
100
AcDbLine
 10
-3.160668
 20
225.014591
 30
0.0
 11
7.239662
 21
225.014591
 31
0.0
  0
LINE
  5
11c
100
AcDbEntity
  8
Calque_1
 62
1
100
AcDbLine
 10
7.239662
 20
225.014591
 30
0.0
 11
7.239662
 21
225.008529
 31
0.0
  0
LINE
  5
11d
100
AcDbEntity
  8
Calque_1
 62
1
100
AcDbLine
 10
7.239662
 20
225.008529
 30
0.0
 11
17.839531
 21
225.008529
 31
0.0
  0
LINE
  5
11e
100
AcDbEntity
  8
Calque_1
 62
1
100
AcDbLine
 10
17.839531
 20
225.008529
 30
0.0
 11
17.839531
 21
225.014591
 31
0.0
  0
LINE
  5
11f
100
AcDbEntity
  8
Calque_1
 62
1
100
AcDbLine
 10
17.839531
 20
225.014591
 30
0.0
 11
28.239311
 21
225.014591
 31
0.0
  0
LINE
  5
120
100
AcDbEntity
  8
Calque_1
 62
1
100
AcDbLine
 10
28.239311
 20
225.014591
 30
0.0
 11
28.239311
 21
225.008529
 31
0.0
  0
LINE
  5
121
100
AcDbEntity
  8
Calque_1
 62
1
100
AcDbLine
 10
28.239311
 20
225.008529
 30
0.0
 11
38.839180
 21
225.008529
 31
0.0
  0
LINE
  5
122
100
AcDbEntity
  8
Calque_1
 62
1
100
AcDbLine
 10
38.839180
 20
225.008529
 30
0.0
 11
38.839180
 21
225.014591
 31
0.0
  0
LINE
  5
123
100
AcDbEntity
  8
Calque_1
 62
1
100
AcDbLine
 10
38.839180
 20
225.014591
 30
0.0
 11
49.239509
 21
225.014591
 31
0.0
  0
LINE
  5
124
100
AcDbEntity
  8
Calque_1
 62
1
100
AcDbLine
 10
49.239509
 20
225.014591
 30
0.0
 11
49.239509
 21
225.008529
 31
0.0
  0
LINE
  5
125
100
AcDbEntity
  8
Calque_1
 62
1
100
AcDbLine
 10
49.239509
 20
225.008529
 30
0.0
 11
59.839380
 21
225.008529
 31
0.0
  0
LINE
  5
126
100
AcDbEntity
  8
Calque_1
 62
1
100
AcDbLine
 10
59.839380
 20
225.008529
 30
0.0
 11
59.839380
 21
225.014591
 31
0.0
  0
LINE
  5
127
100
AcDbEntity
  8
Calque_1
 62
1
100
AcDbLine
 10
59.839380
 20
225.014591
 30
0.0
 11
70.239159
 21
225.014591
 31
0.0
  0
LINE
  5
128
100
AcDbEntity
  8
Calque_1
 62
1
100
AcDbLine
 10
70.239159
 20
225.014591
 30
0.0
 11
70.239159
 21
225.008529
 31
0.0
  0
LINE
  5
129
100
AcDbEntity
  8
Calque_1
 62
1
100
AcDbLine
 10
70.239159
 20
225.008529
 30
0.0
 11
80.839578
 21
225.008529
 31
0.0
  0
LINE
  5
12a
100
AcDbEntity
  8
Calque_1
 62
1
100
AcDbLine
 10
80.839578
 20
225.008529
 30
0.0
 11
80.839578
 21
225.014591
 31
0.0
  0
LINE
  5
12b
100
AcDbEntity
  8
Calque_1
 62
1
100
AcDbLine
 10
80.839578
 20
225.014591
 30
0.0
 11
91.239357
 21
225.014591
 31
0.0
  0
LINE
  5
12c
100
AcDbEntity
  8
Calque_1
 62
1
100
AcDbLine
 10
91.239357
 20
225.014591
 30
0.0
 11
91.239357
 21
225.008529
 31
0.0
  0
LINE
  5
12d
100
AcDbEntity
  8
Calque_1
 62
1
100
AcDbLine
 10
91.239357
 20
225.008529
 30
0.0
 11
101.839228
 21
225.008529
 31
0.0
  0
LINE
  5
12e
100
AcDbEntity
  8
Calque_1
 62
1
100
AcDbLine
 10
101.839228
 20
225.008529
 30
0.0
 11
101.839228
 21
225.014591
 31
0.0
  0
LINE
  5
12f
100
AcDbEntity
  8
Calque_1
 62
1
100
AcDbLine
 10
101.839228
 20
225.014591
 30
0.0
 11
112.239558
 21
225.014591
 31
0.0
  0
LINE
  5
130
100
AcDbEntity
  8
Calque_1
 62
1
100
AcDbLine
 10
112.239558
 20
225.014591
 30
0.0
 11
112.239558
 21
225.008529
 31
0.0
  0
LINE
  5
131
100
AcDbEntity
  8
Calque_1
 62
1
100
AcDbLine
 10
112.239558
 20
225.008529
 30
0.0
 11
122.839426
 21
225.008529
 31
0.0
  0
LINE
  5
132
100
AcDbEntity
  8
Calque_1
 62
1
100
AcDbLine
 10
122.839426
 20
225.008529
 30
0.0
 11
122.839426
 21
225.014591
 31
0.0
  0
LINE
  5
133
100
AcDbEntity
  8
Calque_1
 62
1
100
AcDbLine
 10
122.839426
 20
225.014591
 30
0.0
 11
133.239205
 21
225.014591
 31
0.0
  0
LINE
  5
134
100
AcDbEntity
  8
Calque_1
 62
1
100
AcDbLine
 10
133.239205
 20
225.014591
 30
0.0
 11
133.239205
 21
225.008529
 31
0.0
  0
LINE
  5
135
100
AcDbEntity
  8
Calque_1
 62
1
100
AcDbLine
 10
133.239205
 20
225.008529
 30
0.0
 11
143.839627
 21
225.008529
 31
0.0
  0
LINE
  5
136
100
AcDbEntity
  8
Calque_1
 62
1
100
AcDbLine
 10
143.839627
 20
225.008529
 30
0.0
 11
143.839627
 21
225.014591
 31
0.0
  0
LINE
  5
137
100
AcDbEntity
  8
Calque_1
 62
1
100
AcDbLine
 10
143.839627
 20
225.014591
 30
0.0
 11
154.239406
 21
225.014591
 31
0.0
  0
LINE
  5
138
100
AcDbEntity
  8
Calque_1
 62
1
100
AcDbLine
 10
154.239406
 20
225.014591
 30
0.0
 11
154.239406
 21
225.008529
 31
0.0
  0
LINE
  5
139
100
AcDbEntity
  8
Calque_1
 62
1
100
AcDbLine
 10
154.239406
 20
225.008529
 30
0.0
 11
164.839275
 21
225.008529
 31
0.0
  0
LINE
  5
13a
100
AcDbEntity
  8
Calque_1
 62
1
100
AcDbLine
 10
164.839275
 20
225.008529
 30
0.0
 11
164.839275
 21
225.014591
 31
0.0
  0
LINE
  5
13b
100
AcDbEntity
  8
Calque_1
 62
1
100
AcDbLine
 10
164.839275
 20
225.014591
 30
0.0
 11
175.301893
 21
225.014591
 31
0.0
  0
LINE
  5
13c
100
AcDbEntity
  8
Calque_1
 62
1
100
AcDbLine
 10
175.301893
 20
225.014591
 30
0.0
 11
175.301893
 21
234.989383
 31
0.0
  0
LINE
  5
13d
100
AcDbEntity
  8
Calque_1
 62
1
100
AcDbLine
 10
175.301893
 20
234.989383
 30
0.0
 11
175.289216
 21
234.989383
 31
0.0
  0
LINE
  5
13e
100
AcDbEntity
  8
Calque_1
 62
1
100
AcDbLine
 10
175.289216
 20
234.989383
 30
0.0
 11
175.289216
 21
238.201314
 31
0.0
  0
LINE
  5
13f
100
AcDbEntity
  8
Calque_1
 62
1
100
AcDbLine
 10
175.289216
 20
238.201314
 30
0.0
 11
172.289501
 21
238.201314
 31
0.0
  0
LINE
  5
140
100
AcDbEntity
  8
Calque_1
 62
1
100
AcDbLine
 10
172.289501
 20
238.201314
 30
0.0
 11
172.289501
 21
248.244457
 31
0.0
  0
LINE
  5
141
100
AcDbEntity
  8
Calque_1
 62
1
100
AcDbLine
 10
172.289501
 20
248.244457
 30
0.0
 11
175.289216
 21
248.244457
 31
0.0
  0
LINE
  5
142
100
AcDbEntity
  8
Calque_1
 62
1
100
AcDbLine
 10
175.289216
 20
248.244457
 30
0.0
 11
175.289216
 21
258.487140
 31
0.0
  0
LINE
  5
143
100
AcDbEntity
  8
Calque_1
 62
1
100
AcDbLine
 10
175.289216
 20
258.487140
 30
0.0
 11
172.289501
 21
258.487140
 31
0.0
  0
LINE
  5
144
100
AcDbEntity
  8
Calque_1
 62
1
100
AcDbLine
 10
172.289501
 20
258.487140
 30
0.0
 11
172.289501
 21
268.530283
 31
0.0
  0
LINE
  5
145
100
AcDbEntity
  8
Calque_1
 62
1
100
AcDbLine
 10
172.289501
 20
268.530283
 30
0.0
 11
175.289216
 21
268.530283
 31
0.0
  0
LINE
  5
146
100
AcDbEntity
  8
Calque_1
 62
1
100
AcDbLine
 10
175.289216
 20
268.530283
 30
0.0
 11
175.289216
 21
278.772965
 31
0.0
  0
LINE
  5
147
100
AcDbEntity
  8
Calque_1
 62
1
100
AcDbLine
 10
175.289216
 20
278.772965
 30
0.0
 11
172.289501
 21
278.772965
 31
0.0
  0
LINE
  5
148
100
AcDbEntity
  8
Calque_1
 62
1
100
AcDbLine
 10
172.289501
 20
278.772965
 30
0.0
 11
172.289501
 21
288.815556
 31
0.0
  0
LINE
  5
149
100
AcDbEntity
  8
Calque_1
 62
1
100
AcDbLine
 10
172.289501
 20
288.815556
 30
0.0
 11
175.289216
 21
288.815556
 31
0.0
  0
LINE
  5
14a
100
AcDbEntity
  8
Calque_1
 62
1
100
AcDbLine
 10
175.289216
 20
288.815556
 30
0.0
 11
175.289216
 21
299.008628
 31
0.0
  0
LINE
  5
14b
100
AcDbEntity
  8
Calque_1
 62
1
100
AcDbLine
 10
175.289216
 20
299.008628
 30
0.0
 11
-66.210877
 21
299.008628
 31
0.0
  0
LINE
  5
14c
100
AcDbEntity
  8
Calque_1
 62
1
100
AcDbLine
 10
-66.210877
 20
299.008628
 30
0.0
 11
-66.210877
 21
299.008628
 31
0.0
  0
LINE
  5
14d
100
AcDbEntity
  8
Calque_1
 62
1
100
AcDbLine
 10
100.289210
 20
222.008814
 30
0.0
 11
100.289210
 21
211.915512
 31
0.0
  0
LINE
  5
14e
100
AcDbEntity
  8
Calque_1
 62
1
100
AcDbLine
 10
100.289210
 20
211.915512
 30
0.0
 11
97.289496
 21
211.915512
 31
0.0
  0
LINE
  5
14f
100
AcDbEntity
  8
Calque_1
 62
1
100
AcDbLine
 10
97.289496
 20
211.915512
 30
0.0
 11
97.289496
 21
201.672829
 31
0.0
  0
LINE
  5
150
100
AcDbEntity
  8
Calque_1
 62
1
100
AcDbLine
 10
97.289496
 20
201.672829
 30
0.0
 11
100.289210
 21
201.672829
 31
0.0
  0
LINE
  5
151
100
AcDbEntity
  8
Calque_1
 62
1
100
AcDbLine
 10
100.289210
 20
201.672829
 30
0.0
 11
100.289210
 21
191.630239
 31
0.0
  0
LINE
  5
152
100
AcDbEntity
  8
Calque_1
 62
1
100
AcDbLine
 10
100.289210
 20
191.630239
 30
0.0
 11
97.289496
 21
191.630239
 31
0.0
  0
LINE
  5
153
100
AcDbEntity
  8
Calque_1
 62
1
100
AcDbLine
 10
97.289496
 20
191.630239
 30
0.0
 11
97.289496
 21
181.387006
 31
0.0
  0
LINE
  5
154
100
AcDbEntity
  8
Calque_1
 62
1
100
AcDbLine
 10
97.289496
 20
181.387006
 30
0.0
 11
100.289210
 21
181.387006
 31
0.0
  0
LINE
  5
155
100
AcDbEntity
  8
Calque_1
 62
1
100
AcDbLine
 10
100.289210
 20
181.387006
 30
0.0
 11
100.289210
 21
171.344414
 31
0.0
  0
LINE
  5
156
100
AcDbEntity
  8
Calque_1
 62
1
100
AcDbLine
 10
100.289210
 20
171.344414
 30
0.0
 11
97.289496
 21
171.344414
 31
0.0
  0
LINE
  5
157
100
AcDbEntity
  8
Calque_1
 62
1
100
AcDbLine
 10
97.289496
 20
171.344414
 30
0.0
 11
97.289496
 21
161.101731
 31
0.0
  0
LINE
  5
158
100
AcDbEntity
  8
Calque_1
 62
1
100
AcDbLine
 10
97.289496
 20
161.101731
 30
0.0
 11
100.289210
 21
161.101731
 31
0.0
  0
LINE
  5
159
100
AcDbEntity
  8
Calque_1
 62
1
100
AcDbLine
 10
100.289210
 20
161.101731
 30
0.0
 11
100.289210
 21
151.008428
 31
0.0
  0
LINE
  5
15a
100
AcDbEntity
  8
Calque_1
 62
1
100
AcDbLine
 10
100.289210
 20
151.008428
 30
0.0
 11
100.344882
 21
151.008428
 31
0.0
  0
LINE
  5
15b
100
AcDbEntity
  8
Calque_1
 62
1
100
AcDbLine
 10
100.344882
 20
151.008428
 30
0.0
 11
100.344882
 21
148.045645
 31
0.0
  0
LINE
  5
15c
100
AcDbEntity
  8
Calque_1
 62
1
100
AcDbLine
 10
100.344882
 20
148.045645
 30
0.0
 11
108.339159
 21
148.045645
 31
0.0
  0
LINE
  5
15d
100
AcDbEntity
  8
Calque_1
 62
1
100
AcDbLine
 10
108.339159
 20
148.045645
 30
0.0
 11
108.339159
 21
148.008714
 31
0.0
  0
LINE
  5
15e
100
AcDbEntity
  8
Calque_1
 62
1
100
AcDbLine
 10
108.339159
 20
148.008714
 30
0.0
 11
119.539300
 21
148.008714
 31
0.0
  0
LINE
  5
15f
100
AcDbEntity
  8
Calque_1
 62
1
100
AcDbLine
 10
119.539300
 20
148.008714
 30
0.0
 11
119.539300
 21
148.045645
 31
0.0
  0
LINE
  5
160
100
AcDbEntity
  8
Calque_1
 62
1
100
AcDbLine
 10
119.539300
 20
148.045645
 30
0.0
 11
130.539355
 21
148.045645
 31
0.0
  0
LINE
  5
161
100
AcDbEntity
  8
Calque_1
 62
1
100
AcDbLine
 10
130.539355
 20
148.045645
 30
0.0
 11
130.539355
 21
148.008714
 31
0.0
  0
LINE
  5
162
100
AcDbEntity
  8
Calque_1
 62
1
100
AcDbLine
 10
130.539355
 20
148.008714
 30
0.0
 11
141.739496
 21
148.008714
 31
0.0
  0
LINE
  5
163
100
AcDbEntity
  8
Calque_1
 62
1
100
AcDbLine
 10
141.739496
 20
148.008714
 30
0.0
 11
141.739496
 21
148.045645
 31
0.0
  0
LINE
  5
164
100
AcDbEntity
  8
Calque_1
 62
1
100
AcDbLine
 10
141.739496
 20
148.045645
 30
0.0
 11
152.739547
 21
148.045645
 31
0.0
  0
LINE
  5
165
100
AcDbEntity
  8
Calque_1
 62
1
100
AcDbLine
 10
152.739547
 20
148.045645
 30
0.0
 11
152.739547
 21
148.008714
 31
0.0
  0
LINE
  5
166
100
AcDbEntity
  8
Calque_1
 62
1
100
AcDbLine
 10
152.739547
 20
148.008714
 30
0.0
 11
163.939141
 21
148.008714
 31
0.0
  0
LINE
  5
167
100
AcDbEntity
  8
Calque_1
 62
1
100
AcDbLine
 10
163.939141
 20
148.008714
 30
0.0
 11
163.939141
 21
148.045645
 31
0.0
  0
LINE
  5
168
100
AcDbEntity
  8
Calque_1
 62
1
100
AcDbLine
 10
163.939141
 20
148.045645
 30
0.0
 11
174.939192
 21
148.045645
 31
0.0
  0
LINE
  5
169
100
AcDbEntity
  8
Calque_1
 62
1
100
AcDbLine
 10
174.939192
 20
148.045645
 30
0.0
 11
174.939192
 21
148.008714
 31
0.0
  0
LINE
  5
16a
100
AcDbEntity
  8
Calque_1
 62
1
100
AcDbLine
 10
174.939192
 20
148.008714
 30
0.0
 11
186.139336
 21
148.008714
 31
0.0
  0
LINE
  5
16b
100
AcDbEntity
  8
Calque_1
 62
1
100
AcDbLine
 10
186.139336
 20
148.008714
 30
0.0
 11
186.139336
 21
148.045645
 31
0.0
  0
LINE
  5
16c
100
AcDbEntity
  8
Calque_1
 62
1
100
AcDbLine
 10
186.139336
 20
148.045645
 30
0.0
 11
197.139388
 21
148.045645
 31
0.0
  0
LINE
  5
16d
100
AcDbEntity
  8
Calque_1
 62
1
100
AcDbLine
 10
197.139388
 20
148.045645
 30
0.0
 11
197.139388
 21
148.008714
 31
0.0
  0
LINE
  5
16e
100
AcDbEntity
  8
Calque_1
 62
1
100
AcDbLine
 10
197.139388
 20
148.008714
 30
0.0
 11
208.339532
 21
148.008714
 31
0.0
  0
LINE
  5
16f
100
AcDbEntity
  8
Calque_1
 62
1
100
AcDbLine
 10
208.339532
 20
148.008714
 30
0.0
 11
208.339532
 21
148.045645
 31
0.0
  0
LINE
  5
170
100
AcDbEntity
  8
Calque_1
 62
1
100
AcDbLine
 10
208.339532
 20
148.045645
 30
0.0
 11
219.339583
 21
148.045645
 31
0.0
  0
LINE
  5
171
100
AcDbEntity
  8
Calque_1
 62
1
100
AcDbLine
 10
219.339583
 20
148.045645
 30
0.0
 11
219.339583
 21
148.008714
 31
0.0
  0
LINE
  5
172
100
AcDbEntity
  8
Calque_1
 62
1
100
AcDbLine
 10
219.339583
 20
148.008714
 30
0.0
 11
230.539174
 21
148.008714
 31
0.0
  0
LINE
  5
173
100
AcDbEntity
  8
Calque_1
 62
1
100
AcDbLine
 10
230.539174
 20
148.008714
 30
0.0
 11
230.539174
 21
148.045645
 31
0.0
  0
LINE
  5
174
100
AcDbEntity
  8
Calque_1
 62
1
100
AcDbLine
 10
230.539174
 20
148.045645
 30
0.0
 11
241.539228
 21
148.045645
 31
0.0
  0
LINE
  5
175
100
AcDbEntity
  8
Calque_1
 62
1
100
AcDbLine
 10
241.539228
 20
148.045645
 30
0.0
 11
241.539228
 21
148.008714
 31
0.0
  0
LINE
  5
176
100
AcDbEntity
  8
Calque_1
 62
1
100
AcDbLine
 10
241.539228
 20
148.008714
 30
0.0
 11
252.739370
 21
148.008714
 31
0.0
  0
LINE
  5
177
100
AcDbEntity
  8
Calque_1
 62
1
100
AcDbLine
 10
252.739370
 20
148.008714
 30
0.0
 11
252.739370
 21
148.045645
 31
0.0
  0
LINE
  5
178
100
AcDbEntity
  8
Calque_1
 62
1
100
AcDbLine
 10
252.739370
 20
148.045645
 30
0.0
 11
260.745221
 21
148.045645
 31
0.0
  0
LINE
  5
179
100
AcDbEntity
  8
Calque_1
 62
1
100
AcDbLine
 10
260.745221
 20
148.045645
 30
0.0
 11
260.745221
 21
151.008428
 31
0.0
  0
LINE
  5
17a
100
AcDbEntity
  8
Calque_1
 62
1
100
AcDbLine
 10
260.745221
 20
151.008428
 30
0.0
 11
260.789318
 21
151.008428
 31
0.0
  0
LINE
  5
17b
100
AcDbEntity
  8
Calque_1
 62
1
100
AcDbLine
 10
260.789318
 20
151.008428
 30
0.0
 11
260.789318
 21
161.101731
 31
0.0
  0
LINE
  5
17c
100
AcDbEntity
  8
Calque_1
 62
1
100
AcDbLine
 10
260.789318
 20
161.101731
 30
0.0
 11
263.789583
 21
161.101731
 31
0.0
  0
LINE
  5
17d
100
AcDbEntity
  8
Calque_1
 62
1
100
AcDbLine
 10
263.789583
 20
161.101731
 30
0.0
 11
263.789583
 21
171.344414
 31
0.0
  0
LINE
  5
17e
100
AcDbEntity
  8
Calque_1
 62
1
100
AcDbLine
 10
263.789583
 20
171.344414
 30
0.0
 11
260.789318
 21
171.344414
 31
0.0
  0
LINE
  5
17f
100
AcDbEntity
  8
Calque_1
 62
1
100
AcDbLine
 10
260.789318
 20
171.344414
 30
0.0
 11
260.789318
 21
181.387006
 31
0.0
  0
LINE
  5
180
100
AcDbEntity
  8
Calque_1
 62
1
100
AcDbLine
 10
260.789318
 20
181.387006
 30
0.0
 11
263.789583
 21
181.387006
 31
0.0
  0
LINE
  5
181
100
AcDbEntity
  8
Calque_1
 62
1
100
AcDbLine
 10
263.789583
 20
181.387006
 30
0.0
 11
263.789583
 21
191.630239
 31
0.0
  0
LINE
  5
182
100
AcDbEntity
  8
Calque_1
 62
1
100
AcDbLine
 10
263.789583
 20
191.630239
 30
0.0
 11
260.789318
 21
191.630239
 31
0.0
  0
LINE
  5
183
100
AcDbEntity
  8
Calque_1
 62
1
100
AcDbLine
 10
260.789318
 20
191.630239
 30
0.0
 11
260.789318
 21
201.672829
 31
0.0
  0
LINE
  5
184
100
AcDbEntity
  8
Calque_1
 62
1
100
AcDbLine
 10
260.789318
 20
201.672829
 30
0.0
 11
263.789583
 21
201.672829
 31
0.0
  0
LINE
  5
185
100
AcDbEntity
  8
Calque_1
 62
1
100
AcDbLine
 10
263.789583
 20
201.672829
 30
0.0
 11
263.789583
 21
211.915512
 31
0.0
  0
LINE
  5
186
100
AcDbEntity
  8
Calque_1
 62
1
100
AcDbLine
 10
263.789583
 20
211.915512
 30
0.0
 11
260.789318
 21
211.915512
 31
0.0
  0
LINE
  5
187
100
AcDbEntity
  8
Calque_1
 62
1
100
AcDbLine
 10
260.789318
 20
211.915512
 30
0.0
 11
260.789318
 21
222.008814
 31
0.0
  0
LINE
  5
188
100
AcDbEntity
  8
Calque_1
 62
1
100
AcDbLine
 10
260.789318
 20
222.008814
 30
0.0
 11
106.289187
 21
222.008814
 31
0.0
  0
LINE
  5
189
100
AcDbEntity
  8
Calque_1
 62
1
100
AcDbLine
 10
106.289187
 20
222.008814
 30
0.0
 11
100.289210
 21
222.008814
 31
0.0
  0
LINE
  5
18a
100
AcDbEntity
  8
Calque_1
 62
1
100
AcDbLine
 10
100.289210
 20
222.008814
 30
0.0
 11
100.289210
 21
222.008814
 31
0.0
  0
LINE
  5
18b
100
AcDbEntity
  8
Calque_1
 62
1
100
AcDbLine
 10
-69.210592
 20
222.008814
 30
0.0
 11
-69.210592
 21
211.915512
 31
0.0
  0
LINE
  5
18c
100
AcDbEntity
  8
Calque_1
 62
1
100
AcDbLine
 10
-69.210592
 20
211.915512
 30
0.0
 11
-72.210854
 21
211.915512
 31
0.0
  0
LINE
  5
18d
100
AcDbEntity
  8
Calque_1
 62
1
100
AcDbLine
 10
-72.210854
 20
211.915512
 30
0.0
 11
-72.210854
 21
201.672829
 31
0.0
  0
LINE
  5
18e
100
AcDbEntity
  8
Calque_1
 62
1
100
AcDbLine
 10
-72.210854
 20
201.672829
 30
0.0
 11
-69.210592
 21
201.672829
 31
0.0
  0
LINE
  5
18f
100
AcDbEntity
  8
Calque_1
 62
1
100
AcDbLine
 10
-69.210592
 20
201.672829
 30
0.0
 11
-69.210592
 21
191.630239
 31
0.0
  0
LINE
  5
190
100
AcDbEntity
  8
Calque_1
 62
1
100
AcDbLine
 10
-69.210592
 20
191.630239
 30
0.0
 11
-72.210854
 21
191.630239
 31
0.0
  0
LINE
  5
191
100
AcDbEntity
  8
Calque_1
 62
1
100
AcDbLine
 10
-72.210854
 20
191.630239
 30
0.0
 11
-72.210854
 21
181.387006
 31
0.0
  0
LINE
  5
192
100
AcDbEntity
  8
Calque_1
 62
1
100
AcDbLine
 10
-72.210854
 20
181.387006
 30
0.0
 11
-69.210592
 21
181.387006
 31
0.0
  0
LINE
  5
193
100
AcDbEntity
  8
Calque_1
 62
1
100
AcDbLine
 10
-69.210592
 20
181.387006
 30
0.0
 11
-69.210592
 21
171.344414
 31
0.0
  0
LINE
  5
194
100
AcDbEntity
  8
Calque_1
 62
1
100
AcDbLine
 10
-69.210592
 20
171.344414
 30
0.0
 11
-72.210854
 21
171.344414
 31
0.0
  0
LINE
  5
195
100
AcDbEntity
  8
Calque_1
 62
1
100
AcDbLine
 10
-72.210854
 20
171.344414
 30
0.0
 11
-72.210854
 21
161.101731
 31
0.0
  0
LINE
  5
196
100
AcDbEntity
  8
Calque_1
 62
1
100
AcDbLine
 10
-72.210854
 20
161.101731
 30
0.0
 11
-69.210592
 21
161.101731
 31
0.0
  0
LINE
  5
197
100
AcDbEntity
  8
Calque_1
 62
1
100
AcDbLine
 10
-69.210592
 20
161.101731
 30
0.0
 11
-69.210592
 21
151.008428
 31
0.0
  0
LINE
  5
198
100
AcDbEntity
  8
Calque_1
 62
1
100
AcDbLine
 10
-69.210592
 20
151.008428
 30
0.0
 11
-68.991206
 21
151.008428
 31
0.0
  0
LINE
  5
199
100
AcDbEntity
  8
Calque_1
 62
1
100
AcDbLine
 10
-68.991206
 20
151.008428
 30
0.0
 11
-68.991206
 21
147.960208
 31
0.0
  0
LINE
  5
19a
100
AcDbEntity
  8
Calque_1
 62
1
100
AcDbLine
 10
-68.991206
 20
147.960208
 30
0.0
 11
90.942803
 21
147.960208
 31
0.0
  0
LINE
  5
19b
100
AcDbEntity
  8
Calque_1
 62
1
100
AcDbLine
 10
90.942803
 20
147.960208
 30
0.0
 11
90.942803
 21
151.008428
 31
0.0
  0
LINE
  5
19c
100
AcDbEntity
  8
Calque_1
 62
1
100
AcDbLine
 10
90.942803
 20
151.008428
 30
0.0
 11
91.289519
 21
151.008428
 31
0.0
  0
LINE
  5
19d
100
AcDbEntity
  8
Calque_1
 62
1
100
AcDbLine
 10
91.289519
 20
151.008428
 30
0.0
 11
91.289519
 21
161.101731
 31
0.0
  0
LINE
  5
19e
100
AcDbEntity
  8
Calque_1
 62
1
100
AcDbLine
 10
91.289519
 20
161.101731
 30
0.0
 11
94.289231
 21
161.101731
 31
0.0
  0
LINE
  5
19f
100
AcDbEntity
  8
Calque_1
 62
1
100
AcDbLine
 10
94.289231
 20
161.101731
 30
0.0
 11
94.289231
 21
171.344414
 31
0.0
  0
LINE
  5
1a0
100
AcDbEntity
  8
Calque_1
 62
1
100
AcDbLine
 10
94.289231
 20
171.344414
 30
0.0
 11
91.289519
 21
171.344414
 31
0.0
  0
LINE
  5
1a1
100
AcDbEntity
  8
Calque_1
 62
1
100
AcDbLine
 10
91.289519
 20
171.344414
 30
0.0
 11
91.289519
 21
181.387006
 31
0.0
  0
LINE
  5
1a2
100
AcDbEntity
  8
Calque_1
 62
1
100
AcDbLine
 10
91.289519
 20
181.387006
 30
0.0
 11
94.289231
 21
181.387006
 31
0.0
  0
LINE
  5
1a3
100
AcDbEntity
  8
Calque_1
 62
1
100
AcDbLine
 10
94.289231
 20
181.387006
 30
0.0
 11
94.289231
 21
191.630239
 31
0.0
  0
LINE
  5
1a4
100
AcDbEntity
  8
Calque_1
 62
1
100
AcDbLine
 10
94.289231
 20
191.630239
 30
0.0
 11
91.289519
 21
191.630239
 31
0.0
  0
LINE
  5
1a5
100
AcDbEntity
  8
Calque_1
 62
1
100
AcDbLine
 10
91.289519
 20
191.630239
 30
0.0
 11
91.289519
 21
201.672829
 31
0.0
  0
LINE
  5
1a6
100
AcDbEntity
  8
Calque_1
 62
1
100
AcDbLine
 10
91.289519
 20
201.672829
 30
0.0
 11
94.289231
 21
201.672829
 31
0.0
  0
LINE
  5
1a7
100
AcDbEntity
  8
Calque_1
 62
1
100
AcDbLine
 10
94.289231
 20
201.672829
 30
0.0
 11
94.289231
 21
211.915512
 31
0.0
  0
LINE
  5
1a8
100
AcDbEntity
  8
Calque_1
 62
1
100
AcDbLine
 10
94.289231
 20
211.915512
 30
0.0
 11
91.289519
 21
211.915512
 31
0.0
  0
LINE
  5
1a9
100
AcDbEntity
  8
Calque_1
 62
1
100
AcDbLine
 10
91.289519
 20
211.915512
 30
0.0
 11
91.289519
 21
222.008814
 31
0.0
  0
LINE
  5
1aa
100
AcDbEntity
  8
Calque_1
 62
1
100
AcDbLine
 10
91.289519
 20
222.008814
 30
0.0
 11
-63.210612
 21
222.008814
 31
0.0
  0
LINE
  5
1ab
100
AcDbEntity
  8
Calque_1
 62
1
100
AcDbLine
 10
-63.210612
 20
222.008814
 30
0.0
 11
-69.210592
 21
222.008814
 31
0.0
  0
LINE
  5
1ac
100
AcDbEntity
  8
Calque_1
 62
1
100
AcDbLine
 10
-69.210592
 20
222.008814
 30
0.0
 11
-69.210592
 21
222.008814
 31
0.0
  0
ENDSEC
  0
SECTION
  2
OBJECTS
  0
DICTIONARY
  5
C
330
0
100
AcDbDictionary
  3
ACAD_GROUP
350
D
  3
ACAD_MLINESTYLE
350
17
  0
DICTIONARY
  5
D
330
C
100
AcDbDictionary
  0
DICTIONARY
  5
1A
330
C
100
AcDbDictionary
  0
DICTIONARY
  5
17
330
C
100
AcDbDictionary
  3
STANDARD
350
18
  0
DICTIONARY
  5
19
330
C
100
AcDbDictionary
  0
ENDSEC
  0
EOF
