  0
SECTION
  2
HEADER
  9
$ACADVER
  1
AC1014
  9
$HANDSEED
  5
FFFF
  9
$MEASUREMENT
 70
     1
  0
ENDSEC
  0
SECTION
  2
TABLES
  0
TABLE
  2
VPORT
  5
8
330
0
100
AcDbSymbolTable
 70
     4
  0
VPORT
  5
2E
330
8
100
AcDbSymbolTableRecord
100
AcDbViewportTableRecord
  2
*ACTIVE
 70
     0
 10
0.0
 20
0.0
 11
1.0
 21
1.0
 12
210.0
 22
148.5
 13
0.0
 23
0.0
 14
10.0
 24
10.0
 15
10.0
 25
10.0
 16
0.0
 26
0.0
 36
1.0
 17
0.0
 27
0.0
 37
0.0
 40
341.0
 41
1.24
 42
50.0
 43
0.0
 44
0.0
 50
0.0
 51
0.0
 71
     0
 72
   100
 73
     1
 74
     3
 75
     0
 76
     0
 77
     0
 78
     0
  0
ENDTAB
  0
TABLE
  2
LTYPE
  5
5
330
0
100
AcDbSymbolTable
 70
     1
  0
LTYPE
  5
14
330
5
100
AcDbSymbolTableRecord
100
AcDbLinetypeTableRecord
  2
BYBLOCK
 70
     0
  3

 72
    65
 73
     0
 40
0.0
  0
LTYPE
  5
15
330
5
100
AcDbSymbolTableRecord
100
AcDbLinetypeTableRecord
  2
BYLAYER
 70
     0
  3

 72
    65
 73
     0
 40
0.0
  0
LTYPE
  5
16
330
5
100
AcDbSymbolTableRecord
100
AcDbLinetypeTableRecord
  2
CONTINUOUS
 70
     0
  3
Solid line
 72
    65
 73
     0
 40
0.0
  0
ENDTAB
  0
TABLE
  2
LAYER
  5
2
100
AcDbSymbolTable
 70
2
  0
LAYER
  5
50
100
AcDbSymbolTableRecord
100
AcDbLayerTableRecord
  2
0
 70
0
  6
CONTINUOUS
  0
LAYER
  5
51
100
AcDbSymbolTableRecord
100
AcDbLayerTableRecord
  2
Calque_1
 70
0
  6
CONTINUOUS
  0
ENDTAB
  0
TABLE
  2
STYLE
  5
3
330
0
100
AcDbSymbolTable
 70
     1
  0
STYLE
  5
11
330
3
100
AcDbSymbolTableRecord
100
AcDbTextStyleTableRecord
  2
STANDARD
 70
     0
 40
0.0
 41
1.0
 50
0.0
 71
     0
 42
2.5
  3
txt
  4

  0
ENDTAB
  0
TABLE
  2
VIEW
  5
6
330
0
100
AcDbSymbolTable
 70
     0
  0
ENDTAB
  0
TABLE
  2
UCS
  5
7
330
0
100
AcDbSymbolTable
 70
     0
  0
ENDTAB
  0
TABLE
  2
APPID
  5
9
330
0
100
AcDbSymbolTable
 70
     2
  0
APPID
  5
12
330
9
100
AcDbSymbolTableRecord
100
AcDbRegAppTableRecord
  2
ACAD
 70
     0
  0
ENDTAB
  0
TABLE
  2
DIMSTYLE
  5
A
330
0
100
AcDbSymbolTable
 70
     1
  0
DIMSTYLE
105
27
330
A
100
AcDbSymbolTableRecord
100
AcDbDimStyleTableRecord
  2
ISO-25
 70
     0
  3

  4

  5

  6

  7

 40
1.0
 41
2.5
 42
0.625
 43
3.75
 44
1.25
 45
0.0
 46
0.0
 47
0.0
 48
0.0
140
2.5
141
2.5
142
0.0
143
0.03937007874016
144
1.0
145
0.0
146
1.0
147
0.625
 71
     0
 72
     0
 73
     0
 74
     0
 75
     0
 76
     0
 77
     1
 78
     8
170
     0
171
     3
172
     1
173
     0
174
     0
175
     0
176
     0
177
     0
178
     0
270
     2
271
     2
272
     2
273
     2
274
     3
340
11
275
     0
280
     0
281
     0
282
     0
283
     0
284
     8
285
     0
286
     0
287
     3
288
     0
  0
ENDTAB
  0
TABLE
  2
BLOCK_RECORD
  5
1
330
0
100
AcDbSymbolTable
 70
     1
  0
BLOCK_RECORD
  5
1F
330
1
100
AcDbSymbolTableRecord
100
AcDbBlockTableRecord
  2
*MODEL_SPACE
  0
BLOCK_RECORD
  5
1B
330
1
100
AcDbSymbolTableRecord
100
AcDbBlockTableRecord
  2
*PAPER_SPACE
  0
ENDTAB
  0
ENDSEC
  0
SECTION
  2
BLOCKS
  0
BLOCK
  5
20
330
1F
100
AcDbEntity
  8
0
100
AcDbBlockBegin
  2
*MODEL_SPACE
 70
     0
 10
0.0
 20
0.0
 30
0.0
  3
*MODEL_SPACE
  1

  0
ENDBLK
  5
21
330
1F
100
AcDbEntity
  8
0
100
AcDbBlockEnd
  0
BLOCK
  5
1C
330
1B
100
AcDbEntity
 67
     1
  8
0
100
AcDbBlockBegin
  2
*PAPER_SPACE
  1

  0
ENDBLK
  5
1D
330
1B
100
AcDbEntity
 67
     1
  8
0
100
AcDbBlockEnd
  0
ENDSEC
  0
SECTION
  2
ENTITIES
  0
LINE
  5
100
100
AcDbEntity
  8
Calque_1
 62
1
100
AcDbLine
 10
185.863260
 20
287.981200
 30
0.0
 11
194.121590
 21
287.981200
 31
0.0
  0
LINE
  5
101
100
AcDbEntity
  8
Calque_1
 62
1
100
AcDbLine
 10
194.121590
 20
287.981200
 30
0.0
 11
194.121590
 21
291.981197
 31
0.0
  0
LINE
  5
102
100
AcDbEntity
  8
Calque_1
 62
1
100
AcDbLine
 10
194.121590
 20
291.981197
 30
0.0
 11
202.604930
 21
291.981197
 31
0.0
  0
LINE
  5
103
100
AcDbEntity
  8
Calque_1
 62
1
100
AcDbLine
 10
202.604930
 20
291.981197
 30
0.0
 11
202.604930
 21
287.981200
 31
0.0
  0
LINE
  5
104
100
AcDbEntity
  8
Calque_1
 62
1
100
AcDbLine
 10
202.604930
 20
287.981200
 30
0.0
 11
210.863240
 21
287.981200
 31
0.0
  0
LINE
  5
105
100
AcDbEntity
  8
Calque_1
 62
1
100
AcDbLine
 10
210.863240
 20
287.981200
 30
0.0
 11
210.863240
 21
279.350636
 31
0.0
  0
LINE
  5
106
100
AcDbEntity
  8
Calque_1
 62
1
100
AcDbLine
 10
210.863240
 20
279.350636
 30
0.0
 11
206.863260
 21
279.350636
 31
0.0
  0
LINE
  5
107
100
AcDbEntity
  8
Calque_1
 62
1
100
AcDbLine
 10
206.863260
 20
279.350636
 30
0.0
 11
206.863260
 21
270.945076
 31
0.0
  0
LINE
  5
108
100
AcDbEntity
  8
Calque_1
 62
1
100
AcDbLine
 10
206.863260
 20
270.945076
 30
0.0
 11
210.863240
 21
270.945076
 31
0.0
  0
LINE
  5
109
100
AcDbEntity
  8
Calque_1
 62
1
100
AcDbLine
 10
210.863240
 20
270.945076
 30
0.0
 11
210.863240
 21
262.239526
 31
0.0
  0
LINE
  5
10a
100
AcDbEntity
  8
Calque_1
 62
1
100
AcDbLine
 10
210.863240
 20
262.239526
 30
0.0
 11
206.863260
 21
262.239526
 31
0.0
  0
LINE
  5
10b
100
AcDbEntity
  8
Calque_1
 62
1
100
AcDbLine
 10
206.863260
 20
262.239526
 30
0.0
 11
206.863260
 21
253.833966
 31
0.0
  0
LINE
  5
10c
100
AcDbEntity
  8
Calque_1
 62
1
100
AcDbLine
 10
206.863260
 20
253.833966
 30
0.0
 11
210.863240
 21
253.833966
 31
0.0
  0
LINE
  5
10d
100
AcDbEntity
  8
Calque_1
 62
1
100
AcDbLine
 10
210.863240
 20
253.833966
 30
0.0
 11
210.863240
 21
245.128416
 31
0.0
  0
LINE
  5
10e
100
AcDbEntity
  8
Calque_1
 62
1
100
AcDbLine
 10
210.863240
 20
245.128416
 30
0.0
 11
206.863260
 21
245.128416
 31
0.0
  0
LINE
  5
10f
100
AcDbEntity
  8
Calque_1
 62
1
100
AcDbLine
 10
206.863260
 20
245.128416
 30
0.0
 11
206.863260
 21
236.722856
 31
0.0
  0
LINE
  5
110
100
AcDbEntity
  8
Calque_1
 62
1
100
AcDbLine
 10
206.863260
 20
236.722856
 30
0.0
 11
210.863240
 21
236.722856
 31
0.0
  0
LINE
  5
111
100
AcDbEntity
  8
Calque_1
 62
1
100
AcDbLine
 10
210.863240
 20
236.722856
 30
0.0
 11
210.863240
 21
228.017306
 31
0.0
  0
LINE
  5
112
100
AcDbEntity
  8
Calque_1
 62
1
100
AcDbLine
 10
210.863240
 20
228.017306
 30
0.0
 11
206.863260
 21
228.017306
 31
0.0
  0
LINE
  5
113
100
AcDbEntity
  8
Calque_1
 62
1
100
AcDbLine
 10
206.863260
 20
228.017306
 30
0.0
 11
206.863260
 21
219.611746
 31
0.0
  0
LINE
  5
114
100
AcDbEntity
  8
Calque_1
 62
1
100
AcDbLine
 10
206.863260
 20
219.611746
 30
0.0
 11
210.863240
 21
219.611746
 31
0.0
  0
LINE
  5
115
100
AcDbEntity
  8
Calque_1
 62
1
100
AcDbLine
 10
210.863240
 20
219.611746
 30
0.0
 11
210.863240
 21
210.981196
 31
0.0
  0
LINE
  5
116
100
AcDbEntity
  8
Calque_1
 62
1
100
AcDbLine
 10
210.863240
 20
210.981196
 30
0.0
 11
202.604930
 21
210.981196
 31
0.0
  0
LINE
  5
117
100
AcDbEntity
  8
Calque_1
 62
1
100
AcDbLine
 10
202.604930
 20
210.981196
 30
0.0
 11
202.604930
 21
206.981196
 31
0.0
  0
LINE
  5
118
100
AcDbEntity
  8
Calque_1
 62
1
100
AcDbLine
 10
202.604930
 20
206.981196
 30
0.0
 11
194.121590
 21
206.981196
 31
0.0
  0
LINE
  5
119
100
AcDbEntity
  8
Calque_1
 62
1
100
AcDbLine
 10
194.121590
 20
206.981196
 30
0.0
 11
194.121590
 21
210.981196
 31
0.0
  0
LINE
  5
11a
100
AcDbEntity
  8
Calque_1
 62
1
100
AcDbLine
 10
194.121590
 20
210.981196
 30
0.0
 11
185.863260
 21
210.981196
 31
0.0
  0
LINE
  5
11b
100
AcDbEntity
  8
Calque_1
 62
1
100
AcDbLine
 10
185.863260
 20
210.981196
 30
0.0
 11
185.863260
 21
219.611746
 31
0.0
  0
LINE
  5
11c
100
AcDbEntity
  8
Calque_1
 62
1
100
AcDbLine
 10
185.863260
 20
219.611746
 30
0.0
 11
189.863260
 21
219.611746
 31
0.0
  0
LINE
  5
11d
100
AcDbEntity
  8
Calque_1
 62
1
100
AcDbLine
 10
189.863260
 20
219.611746
 30
0.0
 11
189.863260
 21
228.017306
 31
0.0
  0
LINE
  5
11e
100
AcDbEntity
  8
Calque_1
 62
1
100
AcDbLine
 10
189.863260
 20
228.017306
 30
0.0
 11
185.863260
 21
228.017306
 31
0.0
  0
LINE
  5
11f
100
AcDbEntity
  8
Calque_1
 62
1
100
AcDbLine
 10
185.863260
 20
228.017306
 30
0.0
 11
185.863260
 21
236.722856
 31
0.0
  0
LINE
  5
120
100
AcDbEntity
  8
Calque_1
 62
1
100
AcDbLine
 10
185.863260
 20
236.722856
 30
0.0
 11
189.863260
 21
236.722856
 31
0.0
  0
LINE
  5
121
100
AcDbEntity
  8
Calque_1
 62
1
100
AcDbLine
 10
189.863260
 20
236.722856
 30
0.0
 11
189.863260
 21
245.128416
 31
0.0
  0
LINE
  5
122
100
AcDbEntity
  8
Calque_1
 62
1
100
AcDbLine
 10
189.863260
 20
245.128416
 30
0.0
 11
185.863260
 21
245.128416
 31
0.0
  0
LINE
  5
123
100
AcDbEntity
  8
Calque_1
 62
1
100
AcDbLine
 10
185.863260
 20
245.128416
 30
0.0
 11
185.863260
 21
253.833966
 31
0.0
  0
LINE
  5
124
100
AcDbEntity
  8
Calque_1
 62
1
100
AcDbLine
 10
185.863260
 20
253.833966
 30
0.0
 11
189.863260
 21
253.833966
 31
0.0
  0
LINE
  5
125
100
AcDbEntity
  8
Calque_1
 62
1
100
AcDbLine
 10
189.863260
 20
253.833966
 30
0.0
 11
189.863260
 21
262.239526
 31
0.0
  0
LINE
  5
126
100
AcDbEntity
  8
Calque_1
 62
1
100
AcDbLine
 10
189.863260
 20
262.239526
 30
0.0
 11
185.863260
 21
262.239526
 31
0.0
  0
LINE
  5
127
100
AcDbEntity
  8
Calque_1
 62
1
100
AcDbLine
 10
185.863260
 20
262.239526
 30
0.0
 11
185.863260
 21
270.945076
 31
0.0
  0
LINE
  5
128
100
AcDbEntity
  8
Calque_1
 62
1
100
AcDbLine
 10
185.863260
 20
270.945076
 30
0.0
 11
189.863260
 21
270.945076
 31
0.0
  0
LINE
  5
129
100
AcDbEntity
  8
Calque_1
 62
1
100
AcDbLine
 10
189.863260
 20
270.945076
 30
0.0
 11
189.863260
 21
279.350636
 31
0.0
  0
LINE
  5
12a
100
AcDbEntity
  8
Calque_1
 62
1
100
AcDbLine
 10
189.863260
 20
279.350636
 30
0.0
 11
185.863260
 21
279.350636
 31
0.0
  0
LINE
  5
12b
100
AcDbEntity
  8
Calque_1
 62
1
100
AcDbLine
 10
185.863260
 20
279.350636
 30
0.0
 11
185.863260
 21
287.981200
 31
0.0
  0
LINE
  5
12c
100
AcDbEntity
  8
Calque_1
 62
1
100
AcDbLine
 10
187.957900
 20
391.811048
 30
0.0
 11
196.216230
 21
391.811048
 31
0.0
  0
LINE
  5
12d
100
AcDbEntity
  8
Calque_1
 62
1
100
AcDbLine
 10
196.216230
 20
391.811048
 30
0.0
 11
196.216230
 21
395.811045
 31
0.0
  0
LINE
  5
12e
100
AcDbEntity
  8
Calque_1
 62
1
100
AcDbLine
 10
196.216230
 20
395.811045
 30
0.0
 11
204.699570
 21
395.811045
 31
0.0
  0
LINE
  5
12f
100
AcDbEntity
  8
Calque_1
 62
1
100
AcDbLine
 10
204.699570
 20
395.811045
 30
0.0
 11
204.699570
 21
391.811048
 31
0.0
  0
LINE
  5
130
100
AcDbEntity
  8
Calque_1
 62
1
100
AcDbLine
 10
204.699570
 20
391.811048
 30
0.0
 11
212.957900
 21
391.811048
 31
0.0
  0
LINE
  5
131
100
AcDbEntity
  8
Calque_1
 62
1
100
AcDbLine
 10
212.957900
 20
391.811048
 30
0.0
 11
212.957900
 21
383.180497
 31
0.0
  0
LINE
  5
132
100
AcDbEntity
  8
Calque_1
 62
1
100
AcDbLine
 10
212.957900
 20
383.180497
 30
0.0
 11
208.957900
 21
383.180497
 31
0.0
  0
LINE
  5
133
100
AcDbEntity
  8
Calque_1
 62
1
100
AcDbLine
 10
208.957900
 20
383.180497
 30
0.0
 11
208.957900
 21
374.774941
 31
0.0
  0
LINE
  5
134
100
AcDbEntity
  8
Calque_1
 62
1
100
AcDbLine
 10
208.957900
 20
374.774941
 30
0.0
 11
212.957900
 21
374.774941
 31
0.0
  0
LINE
  5
135
100
AcDbEntity
  8
Calque_1
 62
1
100
AcDbLine
 10
212.957900
 20
374.774941
 30
0.0
 11
212.957900
 21
366.069391
 31
0.0
  0
LINE
  5
136
100
AcDbEntity
  8
Calque_1
 62
1
100
AcDbLine
 10
212.957900
 20
366.069391
 30
0.0
 11
208.957900
 21
366.069391
 31
0.0
  0
LINE
  5
137
100
AcDbEntity
  8
Calque_1
 62
1
100
AcDbLine
 10
208.957900
 20
366.069391
 30
0.0
 11
208.957900
 21
357.663831
 31
0.0
  0
LINE
  5
138
100
AcDbEntity
  8
Calque_1
 62
1
100
AcDbLine
 10
208.957900
 20
357.663831
 30
0.0
 11
212.957900
 21
357.663831
 31
0.0
  0
LINE
  5
139
100
AcDbEntity
  8
Calque_1
 62
1
100
AcDbLine
 10
212.957900
 20
357.663831
 30
0.0
 11
212.957900
 21
348.958281
 31
0.0
  0
LINE
  5
13a
100
AcDbEntity
  8
Calque_1
 62
1
100
AcDbLine
 10
212.957900
 20
348.958281
 30
0.0
 11
208.957900
 21
348.958281
 31
0.0
  0
LINE
  5
13b
100
AcDbEntity
  8
Calque_1
 62
1
100
AcDbLine
 10
208.957900
 20
348.958281
 30
0.0
 11
208.957900
 21
340.552721
 31
0.0
  0
LINE
  5
13c
100
AcDbEntity
  8
Calque_1
 62
1
100
AcDbLine
 10
208.957900
 20
340.552721
 30
0.0
 11
212.957900
 21
340.552721
 31
0.0
  0
LINE
  5
13d
100
AcDbEntity
  8
Calque_1
 62
1
100
AcDbLine
 10
212.957900
 20
340.552721
 30
0.0
 11
212.957900
 21
331.847171
 31
0.0
  0
LINE
  5
13e
100
AcDbEntity
  8
Calque_1
 62
1
100
AcDbLine
 10
212.957900
 20
331.847171
 30
0.0
 11
208.957900
 21
331.847171
 31
0.0
  0
LINE
  5
13f
100
AcDbEntity
  8
Calque_1
 62
1
100
AcDbLine
 10
208.957900
 20
331.847171
 30
0.0
 11
208.957900
 21
323.441611
 31
0.0
  0
LINE
  5
140
100
AcDbEntity
  8
Calque_1
 62
1
100
AcDbLine
 10
208.957900
 20
323.441611
 30
0.0
 11
212.957900
 21
323.441611
 31
0.0
  0
LINE
  5
141
100
AcDbEntity
  8
Calque_1
 62
1
100
AcDbLine
 10
212.957900
 20
323.441611
 30
0.0
 11
212.957900
 21
314.811060
 31
0.0
  0
LINE
  5
142
100
AcDbEntity
  8
Calque_1
 62
1
100
AcDbLine
 10
212.957900
 20
314.811060
 30
0.0
 11
204.699570
 21
314.811060
 31
0.0
  0
LINE
  5
143
100
AcDbEntity
  8
Calque_1
 62
1
100
AcDbLine
 10
204.699570
 20
314.811060
 30
0.0
 11
204.699570
 21
310.811058
 31
0.0
  0
LINE
  5
144
100
AcDbEntity
  8
Calque_1
 62
1
100
AcDbLine
 10
204.699570
 20
310.811058
 30
0.0
 11
196.216230
 21
310.811058
 31
0.0
  0
LINE
  5
145
100
AcDbEntity
  8
Calque_1
 62
1
100
AcDbLine
 10
196.216230
 20
310.811058
 30
0.0
 11
196.216230
 21
314.811060
 31
0.0
  0
LINE
  5
146
100
AcDbEntity
  8
Calque_1
 62
1
100
AcDbLine
 10
196.216230
 20
314.811060
 30
0.0
 11
187.957900
 21
314.811060
 31
0.0
  0
LINE
  5
147
100
AcDbEntity
  8
Calque_1
 62
1
100
AcDbLine
 10
187.957900
 20
314.811060
 30
0.0
 11
187.957900
 21
323.441611
 31
0.0
  0
LINE
  5
148
100
AcDbEntity
  8
Calque_1
 62
1
100
AcDbLine
 10
187.957900
 20
323.441611
 30
0.0
 11
191.957900
 21
323.441611
 31
0.0
  0
LINE
  5
149
100
AcDbEntity
  8
Calque_1
 62
1
100
AcDbLine
 10
191.957900
 20
323.441611
 30
0.0
 11
191.957900
 21
331.847171
 31
0.0
  0
LINE
  5
14a
100
AcDbEntity
  8
Calque_1
 62
1
100
AcDbLine
 10
191.957900
 20
331.847171
 30
0.0
 11
187.957900
 21
331.847171
 31
0.0
  0
LINE
  5
14b
100
AcDbEntity
  8
Calque_1
 62
1
100
AcDbLine
 10
187.957900
 20
331.847171
 30
0.0
 11
187.957900
 21
340.552721
 31
0.0
  0
LINE
  5
14c
100
AcDbEntity
  8
Calque_1
 62
1
100
AcDbLine
 10
187.957900
 20
340.552721
 30
0.0
 11
191.957900
 21
340.552721
 31
0.0
  0
LINE
  5
14d
100
AcDbEntity
  8
Calque_1
 62
1
100
AcDbLine
 10
191.957900
 20
340.552721
 30
0.0
 11
191.957900
 21
348.958281
 31
0.0
  0
LINE
  5
14e
100
AcDbEntity
  8
Calque_1
 62
1
100
AcDbLine
 10
191.957900
 20
348.958281
 30
0.0
 11
187.957900
 21
348.958281
 31
0.0
  0
LINE
  5
14f
100
AcDbEntity
  8
Calque_1
 62
1
100
AcDbLine
 10
187.957900
 20
348.958281
 30
0.0
 11
187.957900
 21
357.663831
 31
0.0
  0
LINE
  5
150
100
AcDbEntity
  8
Calque_1
 62
1
100
AcDbLine
 10
187.957900
 20
357.663831
 30
0.0
 11
191.957900
 21
357.663831
 31
0.0
  0
LINE
  5
151
100
AcDbEntity
  8
Calque_1
 62
1
100
AcDbLine
 10
191.957900
 20
357.663831
 30
0.0
 11
191.957900
 21
366.069391
 31
0.0
  0
LINE
  5
152
100
AcDbEntity
  8
Calque_1
 62
1
100
AcDbLine
 10
191.957900
 20
366.069391
 30
0.0
 11
187.957900
 21
366.069391
 31
0.0
  0
LINE
  5
153
100
AcDbEntity
  8
Calque_1
 62
1
100
AcDbLine
 10
187.957900
 20
366.069391
 30
0.0
 11
187.957900
 21
374.774941
 31
0.0
  0
LINE
  5
154
100
AcDbEntity
  8
Calque_1
 62
1
100
AcDbLine
 10
187.957900
 20
374.774941
 30
0.0
 11
191.957900
 21
374.774941
 31
0.0
  0
LINE
  5
155
100
AcDbEntity
  8
Calque_1
 62
1
100
AcDbLine
 10
191.957900
 20
374.774941
 30
0.0
 11
191.957900
 21
383.180497
 31
0.0
  0
LINE
  5
156
100
AcDbEntity
  8
Calque_1
 62
1
100
AcDbLine
 10
191.957900
 20
383.180497
 30
0.0
 11
187.957900
 21
383.180497
 31
0.0
  0
LINE
  5
157
100
AcDbEntity
  8
Calque_1
 62
1
100
AcDbLine
 10
187.957900
 20
383.180497
 30
0.0
 11
187.957900
 21
391.811048
 31
0.0
  0
LINE
  5
158
100
AcDbEntity
  8
Calque_1
 62
1
100
AcDbLine
 10
225.424570
 20
391.661052
 30
0.0
 11
229.682900
 21
391.661052
 31
0.0
  0
LINE
  5
159
100
AcDbEntity
  8
Calque_1
 62
1
100
AcDbLine
 10
229.682900
 20
391.661052
 30
0.0
 11
229.682900
 21
395.661049
 31
0.0
  0
LINE
  5
15a
100
AcDbEntity
  8
Calque_1
 62
1
100
AcDbLine
 10
229.682900
 20
395.661049
 30
0.0
 11
238.166240
 21
395.661049
 31
0.0
  0
LINE
  5
15b
100
AcDbEntity
  8
Calque_1
 62
1
100
AcDbLine
 10
238.166240
 20
395.661049
 30
0.0
 11
238.166240
 21
391.661052
 31
0.0
  0
LINE
  5
15c
100
AcDbEntity
  8
Calque_1
 62
1
100
AcDbLine
 10
238.166240
 20
391.661052
 30
0.0
 11
242.424570
 21
391.661052
 31
0.0
  0
LINE
  5
15d
100
AcDbEntity
  8
Calque_1
 62
1
100
AcDbLine
 10
242.424570
 20
391.661052
 30
0.0
 11
242.424570
 21
383.180497
 31
0.0
  0
LINE
  5
15e
100
AcDbEntity
  8
Calque_1
 62
1
100
AcDbLine
 10
242.424570
 20
383.180497
 30
0.0
 11
246.424570
 21
383.180497
 31
0.0
  0
LINE
  5
15f
100
AcDbEntity
  8
Calque_1
 62
1
100
AcDbLine
 10
246.424570
 20
383.180497
 30
0.0
 11
246.424570
 21
374.474951
 31
0.0
  0
LINE
  5
160
100
AcDbEntity
  8
Calque_1
 62
1
100
AcDbLine
 10
246.424570
 20
374.474951
 30
0.0
 11
242.424570
 21
374.474951
 31
0.0
  0
LINE
  5
161
100
AcDbEntity
  8
Calque_1
 62
1
100
AcDbLine
 10
242.424570
 20
374.474951
 30
0.0
 11
242.424570
 21
366.069391
 31
0.0
  0
LINE
  5
162
100
AcDbEntity
  8
Calque_1
 62
1
100
AcDbLine
 10
242.424570
 20
366.069391
 30
0.0
 11
246.424570
 21
366.069391
 31
0.0
  0
LINE
  5
163
100
AcDbEntity
  8
Calque_1
 62
1
100
AcDbLine
 10
246.424570
 20
366.069391
 30
0.0
 11
246.424570
 21
357.363841
 31
0.0
  0
LINE
  5
164
100
AcDbEntity
  8
Calque_1
 62
1
100
AcDbLine
 10
246.424570
 20
357.363841
 30
0.0
 11
242.424570
 21
357.363841
 31
0.0
  0
LINE
  5
165
100
AcDbEntity
  8
Calque_1
 62
1
100
AcDbLine
 10
242.424570
 20
357.363841
 30
0.0
 11
242.424570
 21
348.958281
 31
0.0
  0
LINE
  5
166
100
AcDbEntity
  8
Calque_1
 62
1
100
AcDbLine
 10
242.424570
 20
348.958281
 30
0.0
 11
246.424570
 21
348.958281
 31
0.0
  0
LINE
  5
167
100
AcDbEntity
  8
Calque_1
 62
1
100
AcDbLine
 10
246.424570
 20
348.958281
 30
0.0
 11
246.424570
 21
340.252731
 31
0.0
  0
LINE
  5
168
100
AcDbEntity
  8
Calque_1
 62
1
100
AcDbLine
 10
246.424570
 20
340.252731
 30
0.0
 11
242.424570
 21
340.252731
 31
0.0
  0
LINE
  5
169
100
AcDbEntity
  8
Calque_1
 62
1
100
AcDbLine
 10
242.424570
 20
340.252731
 30
0.0
 11
242.424570
 21
331.847171
 31
0.0
  0
LINE
  5
16a
100
AcDbEntity
  8
Calque_1
 62
1
100
AcDbLine
 10
242.424570
 20
331.847171
 30
0.0
 11
246.424570
 21
331.847171
 31
0.0
  0
LINE
  5
16b
100
AcDbEntity
  8
Calque_1
 62
1
100
AcDbLine
 10
246.424570
 20
331.847171
 30
0.0
 11
246.424570
 21
323.141621
 31
0.0
  0
LINE
  5
16c
100
AcDbEntity
  8
Calque_1
 62
1
100
AcDbLine
 10
246.424570
 20
323.141621
 30
0.0
 11
242.424570
 21
323.141621
 31
0.0
  0
LINE
  5
16d
100
AcDbEntity
  8
Calque_1
 62
1
100
AcDbLine
 10
242.424570
 20
323.141621
 30
0.0
 11
242.424570
 21
314.661060
 31
0.0
  0
LINE
  5
16e
100
AcDbEntity
  8
Calque_1
 62
1
100
AcDbLine
 10
242.424570
 20
314.661060
 30
0.0
 11
238.166240
 21
314.661060
 31
0.0
  0
LINE
  5
16f
100
AcDbEntity
  8
Calque_1
 62
1
100
AcDbLine
 10
238.166240
 20
314.661060
 30
0.0
 11
238.166240
 21
310.661057
 31
0.0
  0
LINE
  5
170
100
AcDbEntity
  8
Calque_1
 62
1
100
AcDbLine
 10
238.166240
 20
310.661057
 30
0.0
 11
229.682900
 21
310.661057
 31
0.0
  0
LINE
  5
171
100
AcDbEntity
  8
Calque_1
 62
1
100
AcDbLine
 10
229.682900
 20
310.661057
 30
0.0
 11
229.682900
 21
314.661060
 31
0.0
  0
LINE
  5
172
100
AcDbEntity
  8
Calque_1
 62
1
100
AcDbLine
 10
229.682900
 20
314.661060
 30
0.0
 11
225.424570
 21
314.661060
 31
0.0
  0
LINE
  5
173
100
AcDbEntity
  8
Calque_1
 62
1
100
AcDbLine
 10
225.424570
 20
314.661060
 30
0.0
 11
225.424570
 21
323.141621
 31
0.0
  0
LINE
  5
174
100
AcDbEntity
  8
Calque_1
 62
1
100
AcDbLine
 10
225.424570
 20
323.141621
 30
0.0
 11
221.424570
 21
323.141621
 31
0.0
  0
LINE
  5
175
100
AcDbEntity
  8
Calque_1
 62
1
100
AcDbLine
 10
221.424570
 20
323.141621
 30
0.0
 11
221.424570
 21
331.847171
 31
0.0
  0
LINE
  5
176
100
AcDbEntity
  8
Calque_1
 62
1
100
AcDbLine
 10
221.424570
 20
331.847171
 30
0.0
 11
225.424570
 21
331.847171
 31
0.0
  0
LINE
  5
177
100
AcDbEntity
  8
Calque_1
 62
1
100
AcDbLine
 10
225.424570
 20
331.847171
 30
0.0
 11
225.424570
 21
340.252731
 31
0.0
  0
LINE
  5
178
100
AcDbEntity
  8
Calque_1
 62
1
100
AcDbLine
 10
225.424570
 20
340.252731
 30
0.0
 11
221.424570
 21
340.252731
 31
0.0
  0
LINE
  5
179
100
AcDbEntity
  8
Calque_1
 62
1
100
AcDbLine
 10
221.424570
 20
340.252731
 30
0.0
 11
221.424570
 21
348.958281
 31
0.0
  0
LINE
  5
17a
100
AcDbEntity
  8
Calque_1
 62
1
100
AcDbLine
 10
221.424570
 20
348.958281
 30
0.0
 11
225.424570
 21
348.958281
 31
0.0
  0
LINE
  5
17b
100
AcDbEntity
  8
Calque_1
 62
1
100
AcDbLine
 10
225.424570
 20
348.958281
 30
0.0
 11
225.424570
 21
357.363841
 31
0.0
  0
LINE
  5
17c
100
AcDbEntity
  8
Calque_1
 62
1
100
AcDbLine
 10
225.424570
 20
357.363841
 30
0.0
 11
221.424570
 21
357.363841
 31
0.0
  0
LINE
  5
17d
100
AcDbEntity
  8
Calque_1
 62
1
100
AcDbLine
 10
221.424570
 20
357.363841
 30
0.0
 11
221.424570
 21
366.069391
 31
0.0
  0
LINE
  5
17e
100
AcDbEntity
  8
Calque_1
 62
1
100
AcDbLine
 10
221.424570
 20
366.069391
 30
0.0
 11
225.424570
 21
366.069391
 31
0.0
  0
LINE
  5
17f
100
AcDbEntity
  8
Calque_1
 62
1
100
AcDbLine
 10
225.424570
 20
366.069391
 30
0.0
 11
225.424570
 21
374.474951
 31
0.0
  0
LINE
  5
180
100
AcDbEntity
  8
Calque_1
 62
1
100
AcDbLine
 10
225.424570
 20
374.474951
 30
0.0
 11
221.424570
 21
374.474951
 31
0.0
  0
LINE
  5
181
100
AcDbEntity
  8
Calque_1
 62
1
100
AcDbLine
 10
221.424570
 20
374.474951
 30
0.0
 11
221.424570
 21
383.180497
 31
0.0
  0
LINE
  5
182
100
AcDbEntity
  8
Calque_1
 62
1
100
AcDbLine
 10
221.424570
 20
383.180497
 30
0.0
 11
225.424570
 21
383.180497
 31
0.0
  0
LINE
  5
183
100
AcDbEntity
  8
Calque_1
 62
1
100
AcDbLine
 10
225.424570
 20
383.180497
 30
0.0
 11
225.424570
 21
391.661052
 31
0.0
  0
LINE
  5
184
100
AcDbEntity
  8
Calque_1
 62
1
100
AcDbLine
 10
230.738240
 20
293.437907
 30
0.0
 11
234.996570
 21
293.437907
 31
0.0
  0
LINE
  5
185
100
AcDbEntity
  8
Calque_1
 62
1
100
AcDbLine
 10
234.996570
 20
293.437907
 30
0.0
 11
234.996570
 21
297.437882
 31
0.0
  0
LINE
  5
186
100
AcDbEntity
  8
Calque_1
 62
1
100
AcDbLine
 10
234.996570
 20
297.437882
 30
0.0
 11
243.479910
 21
297.437882
 31
0.0
  0
LINE
  5
187
100
AcDbEntity
  8
Calque_1
 62
1
100
AcDbLine
 10
243.479910
 20
297.437882
 30
0.0
 11
243.479910
 21
293.437907
 31
0.0
  0
LINE
  5
188
100
AcDbEntity
  8
Calque_1
 62
1
100
AcDbLine
 10
243.479910
 20
293.437907
 30
0.0
 11
247.738240
 21
293.437907
 31
0.0
  0
LINE
  5
189
100
AcDbEntity
  8
Calque_1
 62
1
100
AcDbLine
 10
247.738240
 20
293.437907
 30
0.0
 11
247.738240
 21
284.957406
 31
0.0
  0
LINE
  5
18a
100
AcDbEntity
  8
Calque_1
 62
1
100
AcDbLine
 10
247.738240
 20
284.957406
 30
0.0
 11
251.738230
 21
284.957406
 31
0.0
  0
LINE
  5
18b
100
AcDbEntity
  8
Calque_1
 62
1
100
AcDbLine
 10
251.738230
 20
284.957406
 30
0.0
 11
251.738230
 21
276.251846
 31
0.0
  0
LINE
  5
18c
100
AcDbEntity
  8
Calque_1
 62
1
100
AcDbLine
 10
251.738230
 20
276.251846
 30
0.0
 11
247.738240
 21
276.251846
 31
0.0
  0
LINE
  5
18d
100
AcDbEntity
  8
Calque_1
 62
1
100
AcDbLine
 10
247.738240
 20
276.251846
 30
0.0
 11
247.738240
 21
267.846296
 31
0.0
  0
LINE
  5
18e
100
AcDbEntity
  8
Calque_1
 62
1
100
AcDbLine
 10
247.738240
 20
267.846296
 30
0.0
 11
251.738230
 21
267.846296
 31
0.0
  0
LINE
  5
18f
100
AcDbEntity
  8
Calque_1
 62
1
100
AcDbLine
 10
251.738230
 20
267.846296
 30
0.0
 11
251.738230
 21
259.140736
 31
0.0
  0
LINE
  5
190
100
AcDbEntity
  8
Calque_1
 62
1
100
AcDbLine
 10
251.738230
 20
259.140736
 30
0.0
 11
247.738240
 21
259.140736
 31
0.0
  0
LINE
  5
191
100
AcDbEntity
  8
Calque_1
 62
1
100
AcDbLine
 10
247.738240
 20
259.140736
 30
0.0
 11
247.738240
 21
250.735186
 31
0.0
  0
LINE
  5
192
100
AcDbEntity
  8
Calque_1
 62
1
100
AcDbLine
 10
247.738240
 20
250.735186
 30
0.0
 11
251.738230
 21
250.735186
 31
0.0
  0
LINE
  5
193
100
AcDbEntity
  8
Calque_1
 62
1
100
AcDbLine
 10
251.738230
 20
250.735186
 30
0.0
 11
251.738230
 21
242.029626
 31
0.0
  0
LINE
  5
194
100
AcDbEntity
  8
Calque_1
 62
1
100
AcDbLine
 10
251.738230
 20
242.029626
 30
0.0
 11
247.738240
 21
242.029626
 31
0.0
  0
LINE
  5
195
100
AcDbEntity
  8
Calque_1
 62
1
100
AcDbLine
 10
247.738240
 20
242.029626
 30
0.0
 11
247.738240
 21
233.624076
 31
0.0
  0
LINE
  5
196
100
AcDbEntity
  8
Calque_1
 62
1
100
AcDbLine
 10
247.738240
 20
233.624076
 30
0.0
 11
251.738230
 21
233.624076
 31
0.0
  0
LINE
  5
197
100
AcDbEntity
  8
Calque_1
 62
1
100
AcDbLine
 10
251.738230
 20
233.624076
 30
0.0
 11
251.738230
 21
224.918516
 31
0.0
  0
LINE
  5
198
100
AcDbEntity
  8
Calque_1
 62
1
100
AcDbLine
 10
251.738230
 20
224.918516
 30
0.0
 11
247.738240
 21
224.918516
 31
0.0
  0
LINE
  5
199
100
AcDbEntity
  8
Calque_1
 62
1
100
AcDbLine
 10
247.738240
 20
224.918516
 30
0.0
 11
247.738240
 21
216.437956
 31
0.0
  0
LINE
  5
19a
100
AcDbEntity
  8
Calque_1
 62
1
100
AcDbLine
 10
247.738240
 20
216.437956
 30
0.0
 11
243.479910
 21
216.437956
 31
0.0
  0
LINE
  5
19b
100
AcDbEntity
  8
Calque_1
 62
1
100
AcDbLine
 10
243.479910
 20
216.437956
 30
0.0
 11
243.479910
 21
212.437956
 31
0.0
  0
LINE
  5
19c
100
AcDbEntity
  8
Calque_1
 62
1
100
AcDbLine
 10
243.479910
 20
212.437956
 30
0.0
 11
234.996570
 21
212.437956
 31
0.0
  0
LINE
  5
19d
100
AcDbEntity
  8
Calque_1
 62
1
100
AcDbLine
 10
234.996570
 20
212.437956
 30
0.0
 11
234.996570
 21
216.437956
 31
0.0
  0
LINE
  5
19e
100
AcDbEntity
  8
Calque_1
 62
1
100
AcDbLine
 10
234.996570
 20
216.437956
 30
0.0
 11
230.738240
 21
216.437956
 31
0.0
  0
LINE
  5
19f
100
AcDbEntity
  8
Calque_1
 62
1
100
AcDbLine
 10
230.738240
 20
216.437956
 30
0.0
 11
230.738240
 21
224.918516
 31
0.0
  0
LINE
  5
1a0
100
AcDbEntity
  8
Calque_1
 62
1
100
AcDbLine
 10
230.738240
 20
224.918516
 30
0.0
 11
226.738240
 21
224.918516
 31
0.0
  0
LINE
  5
1a1
100
AcDbEntity
  8
Calque_1
 62
1
100
AcDbLine
 10
226.738240
 20
224.918516
 30
0.0
 11
226.738240
 21
233.624076
 31
0.0
  0
LINE
  5
1a2
100
AcDbEntity
  8
Calque_1
 62
1
100
AcDbLine
 10
226.738240
 20
233.624076
 30
0.0
 11
230.738240
 21
233.624076
 31
0.0
  0
LINE
  5
1a3
100
AcDbEntity
  8
Calque_1
 62
1
100
AcDbLine
 10
230.738240
 20
233.624076
 30
0.0
 11
230.738240
 21
242.029626
 31
0.0
  0
LINE
  5
1a4
100
AcDbEntity
  8
Calque_1
 62
1
100
AcDbLine
 10
230.738240
 20
242.029626
 30
0.0
 11
226.738240
 21
242.029626
 31
0.0
  0
LINE
  5
1a5
100
AcDbEntity
  8
Calque_1
 62
1
100
AcDbLine
 10
226.738240
 20
242.029626
 30
0.0
 11
226.738240
 21
250.735186
 31
0.0
  0
LINE
  5
1a6
100
AcDbEntity
  8
Calque_1
 62
1
100
AcDbLine
 10
226.738240
 20
250.735186
 30
0.0
 11
230.738240
 21
250.735186
 31
0.0
  0
LINE
  5
1a7
100
AcDbEntity
  8
Calque_1
 62
1
100
AcDbLine
 10
230.738240
 20
250.735186
 30
0.0
 11
230.738240
 21
259.140736
 31
0.0
  0
LINE
  5
1a8
100
AcDbEntity
  8
Calque_1
 62
1
100
AcDbLine
 10
230.738240
 20
259.140736
 30
0.0
 11
226.738240
 21
259.140736
 31
0.0
  0
LINE
  5
1a9
100
AcDbEntity
  8
Calque_1
 62
1
100
AcDbLine
 10
226.738240
 20
259.140736
 30
0.0
 11
226.738240
 21
267.846296
 31
0.0
  0
LINE
  5
1aa
100
AcDbEntity
  8
Calque_1
 62
1
100
AcDbLine
 10
226.738240
 20
267.846296
 30
0.0
 11
230.738240
 21
267.846296
 31
0.0
  0
LINE
  5
1ab
100
AcDbEntity
  8
Calque_1
 62
1
100
AcDbLine
 10
230.738240
 20
267.846296
 30
0.0
 11
230.738240
 21
276.251846
 31
0.0
  0
LINE
  5
1ac
100
AcDbEntity
  8
Calque_1
 62
1
100
AcDbLine
 10
230.738240
 20
276.251846
 30
0.0
 11
226.738240
 21
276.251846
 31
0.0
  0
LINE
  5
1ad
100
AcDbEntity
  8
Calque_1
 62
1
100
AcDbLine
 10
226.738240
 20
276.251846
 30
0.0
 11
226.738240
 21
284.957406
 31
0.0
  0
LINE
  5
1ae
100
AcDbEntity
  8
Calque_1
 62
1
100
AcDbLine
 10
226.738240
 20
284.957406
 30
0.0
 11
230.738240
 21
284.957406
 31
0.0
  0
LINE
  5
1af
100
AcDbEntity
  8
Calque_1
 62
1
100
AcDbLine
 10
230.738240
 20
284.957406
 30
0.0
 11
230.738240
 21
293.437907
 31
0.0
  0
LINE
  5
1b0
100
AcDbEntity
  8
Calque_1
 62
1
100
AcDbLine
 10
258.866280
 20
391.811048
 30
0.0
 11
267.124610
 21
391.811048
 31
0.0
  0
LINE
  5
1b1
100
AcDbEntity
  8
Calque_1
 62
1
100
AcDbLine
 10
267.124610
 20
391.811048
 30
0.0
 11
267.124610
 21
395.811045
 31
0.0
  0
LINE
  5
1b2
100
AcDbEntity
  8
Calque_1
 62
1
100
AcDbLine
 10
267.124610
 20
395.811045
 30
0.0
 11
275.607940
 21
395.811045
 31
0.0
  0
LINE
  5
1b3
100
AcDbEntity
  8
Calque_1
 62
1
100
AcDbLine
 10
275.607940
 20
395.811045
 30
0.0
 11
275.607940
 21
391.811048
 31
0.0
  0
LINE
  5
1b4
100
AcDbEntity
  8
Calque_1
 62
1
100
AcDbLine
 10
275.607940
 20
391.811048
 30
0.0
 11
283.866320
 21
391.811048
 31
0.0
  0
LINE
  5
1b5
100
AcDbEntity
  8
Calque_1
 62
1
100
AcDbLine
 10
283.866320
 20
391.811048
 30
0.0
 11
283.866320
 21
383.180497
 31
0.0
  0
LINE
  5
1b6
100
AcDbEntity
  8
Calque_1
 62
1
100
AcDbLine
 10
283.866320
 20
383.180497
 30
0.0
 11
279.866290
 21
383.180497
 31
0.0
  0
LINE
  5
1b7
100
AcDbEntity
  8
Calque_1
 62
1
100
AcDbLine
 10
279.866290
 20
383.180497
 30
0.0
 11
279.866290
 21
374.774941
 31
0.0
  0
LINE
  5
1b8
100
AcDbEntity
  8
Calque_1
 62
1
100
AcDbLine
 10
279.866290
 20
374.774941
 30
0.0
 11
283.866320
 21
374.774941
 31
0.0
  0
LINE
  5
1b9
100
AcDbEntity
  8
Calque_1
 62
1
100
AcDbLine
 10
283.866320
 20
374.774941
 30
0.0
 11
283.866320
 21
366.069391
 31
0.0
  0
LINE
  5
1ba
100
AcDbEntity
  8
Calque_1
 62
1
100
AcDbLine
 10
283.866320
 20
366.069391
 30
0.0
 11
279.866290
 21
366.069391
 31
0.0
  0
LINE
  5
1bb
100
AcDbEntity
  8
Calque_1
 62
1
100
AcDbLine
 10
279.866290
 20
366.069391
 30
0.0
 11
279.866290
 21
357.663831
 31
0.0
  0
LINE
  5
1bc
100
AcDbEntity
  8
Calque_1
 62
1
100
AcDbLine
 10
279.866290
 20
357.663831
 30
0.0
 11
283.866320
 21
357.663831
 31
0.0
  0
LINE
  5
1bd
100
AcDbEntity
  8
Calque_1
 62
1
100
AcDbLine
 10
283.866320
 20
357.663831
 30
0.0
 11
283.866320
 21
348.958281
 31
0.0
  0
LINE
  5
1be
100
AcDbEntity
  8
Calque_1
 62
1
100
AcDbLine
 10
283.866320
 20
348.958281
 30
0.0
 11
279.866290
 21
348.958281
 31
0.0
  0
LINE
  5
1bf
100
AcDbEntity
  8
Calque_1
 62
1
100
AcDbLine
 10
279.866290
 20
348.958281
 30
0.0
 11
279.866290
 21
340.552721
 31
0.0
  0
LINE
  5
1c0
100
AcDbEntity
  8
Calque_1
 62
1
100
AcDbLine
 10
279.866290
 20
340.552721
 30
0.0
 11
283.866320
 21
340.552721
 31
0.0
  0
LINE
  5
1c1
100
AcDbEntity
  8
Calque_1
 62
1
100
AcDbLine
 10
283.866320
 20
340.552721
 30
0.0
 11
283.866320
 21
331.847171
 31
0.0
  0
LINE
  5
1c2
100
AcDbEntity
  8
Calque_1
 62
1
100
AcDbLine
 10
283.866320
 20
331.847171
 30
0.0
 11
279.866290
 21
331.847171
 31
0.0
  0
LINE
  5
1c3
100
AcDbEntity
  8
Calque_1
 62
1
100
AcDbLine
 10
279.866290
 20
331.847171
 30
0.0
 11
279.866290
 21
323.441611
 31
0.0
  0
LINE
  5
1c4
100
AcDbEntity
  8
Calque_1
 62
1
100
AcDbLine
 10
279.866290
 20
323.441611
 30
0.0
 11
283.866320
 21
323.441611
 31
0.0
  0
LINE
  5
1c5
100
AcDbEntity
  8
Calque_1
 62
1
100
AcDbLine
 10
283.866320
 20
323.441611
 30
0.0
 11
283.866320
 21
314.811060
 31
0.0
  0
LINE
  5
1c6
100
AcDbEntity
  8
Calque_1
 62
1
100
AcDbLine
 10
283.866320
 20
314.811060
 30
0.0
 11
275.607940
 21
314.811060
 31
0.0
  0
LINE
  5
1c7
100
AcDbEntity
  8
Calque_1
 62
1
100
AcDbLine
 10
275.607940
 20
314.811060
 30
0.0
 11
275.607940
 21
310.811058
 31
0.0
  0
LINE
  5
1c8
100
AcDbEntity
  8
Calque_1
 62
1
100
AcDbLine
 10
275.607940
 20
310.811058
 30
0.0
 11
267.124610
 21
310.811058
 31
0.0
  0
LINE
  5
1c9
100
AcDbEntity
  8
Calque_1
 62
1
100
AcDbLine
 10
267.124610
 20
310.811058
 30
0.0
 11
267.124610
 21
314.811060
 31
0.0
  0
LINE
  5
1ca
100
AcDbEntity
  8
Calque_1
 62
1
100
AcDbLine
 10
267.124610
 20
314.811060
 30
0.0
 11
258.866280
 21
314.811060
 31
0.0
  0
LINE
  5
1cb
100
AcDbEntity
  8
Calque_1
 62
1
100
AcDbLine
 10
258.866280
 20
314.811060
 30
0.0
 11
258.866280
 21
323.441611
 31
0.0
  0
LINE
  5
1cc
100
AcDbEntity
  8
Calque_1
 62
1
100
AcDbLine
 10
258.866280
 20
323.441611
 30
0.0
 11
262.866280
 21
323.441611
 31
0.0
  0
LINE
  5
1cd
100
AcDbEntity
  8
Calque_1
 62
1
100
AcDbLine
 10
262.866280
 20
323.441611
 30
0.0
 11
262.866280
 21
331.847171
 31
0.0
  0
LINE
  5
1ce
100
AcDbEntity
  8
Calque_1
 62
1
100
AcDbLine
 10
262.866280
 20
331.847171
 30
0.0
 11
258.866280
 21
331.847171
 31
0.0
  0
LINE
  5
1cf
100
AcDbEntity
  8
Calque_1
 62
1
100
AcDbLine
 10
258.866280
 20
331.847171
 30
0.0
 11
258.866280
 21
340.552721
 31
0.0
  0
LINE
  5
1d0
100
AcDbEntity
  8
Calque_1
 62
1
100
AcDbLine
 10
258.866280
 20
340.552721
 30
0.0
 11
262.866280
 21
340.552721
 31
0.0
  0
LINE
  5
1d1
100
AcDbEntity
  8
Calque_1
 62
1
100
AcDbLine
 10
262.866280
 20
340.552721
 30
0.0
 11
262.866280
 21
348.958281
 31
0.0
  0
LINE
  5
1d2
100
AcDbEntity
  8
Calque_1
 62
1
100
AcDbLine
 10
262.866280
 20
348.958281
 30
0.0
 11
258.866280
 21
348.958281
 31
0.0
  0
LINE
  5
1d3
100
AcDbEntity
  8
Calque_1
 62
1
100
AcDbLine
 10
258.866280
 20
348.958281
 30
0.0
 11
258.866280
 21
357.663831
 31
0.0
  0
LINE
  5
1d4
100
AcDbEntity
  8
Calque_1
 62
1
100
AcDbLine
 10
258.866280
 20
357.663831
 30
0.0
 11
262.866280
 21
357.663831
 31
0.0
  0
LINE
  5
1d5
100
AcDbEntity
  8
Calque_1
 62
1
100
AcDbLine
 10
262.866280
 20
357.663831
 30
0.0
 11
262.866280
 21
366.069391
 31
0.0
  0
LINE
  5
1d6
100
AcDbEntity
  8
Calque_1
 62
1
100
AcDbLine
 10
262.866280
 20
366.069391
 30
0.0
 11
258.866280
 21
366.069391
 31
0.0
  0
LINE
  5
1d7
100
AcDbEntity
  8
Calque_1
 62
1
100
AcDbLine
 10
258.866280
 20
366.069391
 30
0.0
 11
258.866280
 21
374.774941
 31
0.0
  0
LINE
  5
1d8
100
AcDbEntity
  8
Calque_1
 62
1
100
AcDbLine
 10
258.866280
 20
374.774941
 30
0.0
 11
262.866280
 21
374.774941
 31
0.0
  0
LINE
  5
1d9
100
AcDbEntity
  8
Calque_1
 62
1
100
AcDbLine
 10
262.866280
 20
374.774941
 30
0.0
 11
262.866280
 21
383.180497
 31
0.0
  0
LINE
  5
1da
100
AcDbEntity
  8
Calque_1
 62
1
100
AcDbLine
 10
262.866280
 20
383.180497
 30
0.0
 11
258.866280
 21
383.180497
 31
0.0
  0
LINE
  5
1db
100
AcDbEntity
  8
Calque_1
 62
1
100
AcDbLine
 10
258.866280
 20
383.180497
 30
0.0
 11
258.866280
 21
391.811048
 31
0.0
  0
LINE
  5
1dc
100
AcDbEntity
  8
Calque_1
 62
1
100
AcDbLine
 10
295.274720
 20
391.661052
 30
0.0
 11
299.533070
 21
391.661052
 31
0.0
  0
LINE
  5
1dd
100
AcDbEntity
  8
Calque_1
 62
1
100
AcDbLine
 10
299.533070
 20
391.661052
 30
0.0
 11
299.533070
 21
395.661049
 31
0.0
  0
LINE
  5
1de
100
AcDbEntity
  8
Calque_1
 62
1
100
AcDbLine
 10
299.533070
 20
395.661049
 30
0.0
 11
308.016460
 21
395.661049
 31
0.0
  0
LINE
  5
1df
100
AcDbEntity
  8
Calque_1
 62
1
100
AcDbLine
 10
308.016460
 20
395.661049
 30
0.0
 11
308.016460
 21
391.661052
 31
0.0
  0
LINE
  5
1e0
100
AcDbEntity
  8
Calque_1
 62
1
100
AcDbLine
 10
308.016460
 20
391.661052
 30
0.0
 11
312.274810
 21
391.661052
 31
0.0
  0
LINE
  5
1e1
100
AcDbEntity
  8
Calque_1
 62
1
100
AcDbLine
 10
312.274810
 20
391.661052
 30
0.0
 11
312.274810
 21
383.180497
 31
0.0
  0
LINE
  5
1e2
100
AcDbEntity
  8
Calque_1
 62
1
100
AcDbLine
 10
312.274810
 20
383.180497
 30
0.0
 11
316.274840
 21
383.180497
 31
0.0
  0
LINE
  5
1e3
100
AcDbEntity
  8
Calque_1
 62
1
100
AcDbLine
 10
316.274840
 20
383.180497
 30
0.0
 11
316.274840
 21
374.474951
 31
0.0
  0
LINE
  5
1e4
100
AcDbEntity
  8
Calque_1
 62
1
100
AcDbLine
 10
316.274840
 20
374.474951
 30
0.0
 11
312.274810
 21
374.474951
 31
0.0
  0
LINE
  5
1e5
100
AcDbEntity
  8
Calque_1
 62
1
100
AcDbLine
 10
312.274810
 20
374.474951
 30
0.0
 11
312.274810
 21
366.069391
 31
0.0
  0
LINE
  5
1e6
100
AcDbEntity
  8
Calque_1
 62
1
100
AcDbLine
 10
312.274810
 20
366.069391
 30
0.0
 11
316.274840
 21
366.069391
 31
0.0
  0
LINE
  5
1e7
100
AcDbEntity
  8
Calque_1
 62
1
100
AcDbLine
 10
316.274840
 20
366.069391
 30
0.0
 11
316.274840
 21
357.363841
 31
0.0
  0
LINE
  5
1e8
100
AcDbEntity
  8
Calque_1
 62
1
100
AcDbLine
 10
316.274840
 20
357.363841
 30
0.0
 11
312.274810
 21
357.363841
 31
0.0
  0
LINE
  5
1e9
100
AcDbEntity
  8
Calque_1
 62
1
100
AcDbLine
 10
312.274810
 20
357.363841
 30
0.0
 11
312.274810
 21
348.958281
 31
0.0
  0
LINE
  5
1ea
100
AcDbEntity
  8
Calque_1
 62
1
100
AcDbLine
 10
312.274810
 20
348.958281
 30
0.0
 11
316.274840
 21
348.958281
 31
0.0
  0
LINE
  5
1eb
100
AcDbEntity
  8
Calque_1
 62
1
100
AcDbLine
 10
316.274840
 20
348.958281
 30
0.0
 11
316.274840
 21
340.252731
 31
0.0
  0
LINE
  5
1ec
100
AcDbEntity
  8
Calque_1
 62
1
100
AcDbLine
 10
316.274840
 20
340.252731
 30
0.0
 11
312.274810
 21
340.252731
 31
0.0
  0
LINE
  5
1ed
100
AcDbEntity
  8
Calque_1
 62
1
100
AcDbLine
 10
312.274810
 20
340.252731
 30
0.0
 11
312.274810
 21
331.847171
 31
0.0
  0
LINE
  5
1ee
100
AcDbEntity
  8
Calque_1
 62
1
100
AcDbLine
 10
312.274810
 20
331.847171
 30
0.0
 11
316.274840
 21
331.847171
 31
0.0
  0
LINE
  5
1ef
100
AcDbEntity
  8
Calque_1
 62
1
100
AcDbLine
 10
316.274840
 20
331.847171
 30
0.0
 11
316.274840
 21
323.141621
 31
0.0
  0
LINE
  5
1f0
100
AcDbEntity
  8
Calque_1
 62
1
100
AcDbLine
 10
316.274840
 20
323.141621
 30
0.0
 11
312.274810
 21
323.141621
 31
0.0
  0
LINE
  5
1f1
100
AcDbEntity
  8
Calque_1
 62
1
100
AcDbLine
 10
312.274810
 20
323.141621
 30
0.0
 11
312.274810
 21
314.661060
 31
0.0
  0
LINE
  5
1f2
100
AcDbEntity
  8
Calque_1
 62
1
100
AcDbLine
 10
312.274810
 20
314.661060
 30
0.0
 11
308.016460
 21
314.661060
 31
0.0
  0
LINE
  5
1f3
100
AcDbEntity
  8
Calque_1
 62
1
100
AcDbLine
 10
308.016460
 20
314.661060
 30
0.0
 11
308.016460
 21
310.661057
 31
0.0
  0
LINE
  5
1f4
100
AcDbEntity
  8
Calque_1
 62
1
100
AcDbLine
 10
308.016460
 20
310.661057
 30
0.0
 11
299.533070
 21
310.661057
 31
0.0
  0
LINE
  5
1f5
100
AcDbEntity
  8
Calque_1
 62
1
100
AcDbLine
 10
299.533070
 20
310.661057
 30
0.0
 11
299.533070
 21
314.661060
 31
0.0
  0
LINE
  5
1f6
100
AcDbEntity
  8
Calque_1
 62
1
100
AcDbLine
 10
299.533070
 20
314.661060
 30
0.0
 11
295.274720
 21
314.661060
 31
0.0
  0
LINE
  5
1f7
100
AcDbEntity
  8
Calque_1
 62
1
100
AcDbLine
 10
295.274720
 20
314.661060
 30
0.0
 11
295.274720
 21
323.141621
 31
0.0
  0
LINE
  5
1f8
100
AcDbEntity
  8
Calque_1
 62
1
100
AcDbLine
 10
295.274720
 20
323.141621
 30
0.0
 11
291.274700
 21
323.141621
 31
0.0
  0
LINE
  5
1f9
100
AcDbEntity
  8
Calque_1
 62
1
100
AcDbLine
 10
291.274700
 20
323.141621
 30
0.0
 11
291.274700
 21
331.847171
 31
0.0
  0
LINE
  5
1fa
100
AcDbEntity
  8
Calque_1
 62
1
100
AcDbLine
 10
291.274700
 20
331.847171
 30
0.0
 11
295.274720
 21
331.847171
 31
0.0
  0
LINE
  5
1fb
100
AcDbEntity
  8
Calque_1
 62
1
100
AcDbLine
 10
295.274720
 20
331.847171
 30
0.0
 11
295.274720
 21
340.252731
 31
0.0
  0
LINE
  5
1fc
100
AcDbEntity
  8
Calque_1
 62
1
100
AcDbLine
 10
295.274720
 20
340.252731
 30
0.0
 11
291.274700
 21
340.252731
 31
0.0
  0
LINE
  5
1fd
100
AcDbEntity
  8
Calque_1
 62
1
100
AcDbLine
 10
291.274700
 20
340.252731
 30
0.0
 11
291.274700
 21
348.958281
 31
0.0
  0
LINE
  5
1fe
100
AcDbEntity
  8
Calque_1
 62
1
100
AcDbLine
 10
291.274700
 20
348.958281
 30
0.0
 11
295.274720
 21
348.958281
 31
0.0
  0
LINE
  5
1ff
100
AcDbEntity
  8
Calque_1
 62
1
100
AcDbLine
 10
295.274720
 20
348.958281
 30
0.0
 11
295.274720
 21
357.363841
 31
0.0
  0
LINE
  5
200
100
AcDbEntity
  8
Calque_1
 62
1
100
AcDbLine
 10
295.274720
 20
357.363841
 30
0.0
 11
291.274700
 21
357.363841
 31
0.0
  0
LINE
  5
201
100
AcDbEntity
  8
Calque_1
 62
1
100
AcDbLine
 10
291.274700
 20
357.363841
 30
0.0
 11
291.274700
 21
366.069391
 31
0.0
  0
LINE
  5
202
100
AcDbEntity
  8
Calque_1
 62
1
100
AcDbLine
 10
291.274700
 20
366.069391
 30
0.0
 11
295.274720
 21
366.069391
 31
0.0
  0
LINE
  5
203
100
AcDbEntity
  8
Calque_1
 62
1
100
AcDbLine
 10
295.274720
 20
366.069391
 30
0.0
 11
295.274720
 21
374.474951
 31
0.0
  0
LINE
  5
204
100
AcDbEntity
  8
Calque_1
 62
1
100
AcDbLine
 10
295.274720
 20
374.474951
 30
0.0
 11
291.274700
 21
374.474951
 31
0.0
  0
LINE
  5
205
100
AcDbEntity
  8
Calque_1
 62
1
100
AcDbLine
 10
291.274700
 20
374.474951
 30
0.0
 11
291.274700
 21
383.180497
 31
0.0
  0
LINE
  5
206
100
AcDbEntity
  8
Calque_1
 62
1
100
AcDbLine
 10
291.274700
 20
383.180497
 30
0.0
 11
295.274720
 21
383.180497
 31
0.0
  0
LINE
  5
207
100
AcDbEntity
  8
Calque_1
 62
1
100
AcDbLine
 10
295.274720
 20
383.180497
 30
0.0
 11
295.274720
 21
391.661052
 31
0.0
  0
LINE
  5
208
100
AcDbEntity
  8
Calque_1
 62
1
100
AcDbLine
 10
261.256710
 20
291.874137
 30
0.0
 11
269.515040
 21
291.874137
 31
0.0
  0
LINE
  5
209
100
AcDbEntity
  8
Calque_1
 62
1
100
AcDbLine
 10
269.515040
 20
291.874137
 30
0.0
 11
269.515040
 21
295.874131
 31
0.0
  0
LINE
  5
20a
100
AcDbEntity
  8
Calque_1
 62
1
100
AcDbLine
 10
269.515040
 20
295.874131
 30
0.0
 11
277.998380
 21
295.874131
 31
0.0
  0
LINE
  5
20b
100
AcDbEntity
  8
Calque_1
 62
1
100
AcDbLine
 10
277.998380
 20
295.874131
 30
0.0
 11
277.998380
 21
291.874137
 31
0.0
  0
LINE
  5
20c
100
AcDbEntity
  8
Calque_1
 62
1
100
AcDbLine
 10
277.998380
 20
291.874137
 30
0.0
 11
286.256740
 21
291.874137
 31
0.0
  0
LINE
  5
20d
100
AcDbEntity
  8
Calque_1
 62
1
100
AcDbLine
 10
286.256740
 20
291.874137
 30
0.0
 11
286.256740
 21
283.243596
 31
0.0
  0
LINE
  5
20e
100
AcDbEntity
  8
Calque_1
 62
1
100
AcDbLine
 10
286.256740
 20
283.243596
 30
0.0
 11
282.256740
 21
283.243596
 31
0.0
  0
LINE
  5
20f
100
AcDbEntity
  8
Calque_1
 62
1
100
AcDbLine
 10
282.256740
 20
283.243596
 30
0.0
 11
282.256740
 21
274.838036
 31
0.0
  0
LINE
  5
210
100
AcDbEntity
  8
Calque_1
 62
1
100
AcDbLine
 10
282.256740
 20
274.838036
 30
0.0
 11
286.256740
 21
274.838036
 31
0.0
  0
LINE
  5
211
100
AcDbEntity
  8
Calque_1
 62
1
100
AcDbLine
 10
286.256740
 20
274.838036
 30
0.0
 11
286.256740
 21
266.132486
 31
0.0
  0
LINE
  5
212
100
AcDbEntity
  8
Calque_1
 62
1
100
AcDbLine
 10
286.256740
 20
266.132486
 30
0.0
 11
282.256740
 21
266.132486
 31
0.0
  0
LINE
  5
213
100
AcDbEntity
  8
Calque_1
 62
1
100
AcDbLine
 10
282.256740
 20
266.132486
 30
0.0
 11
282.256740
 21
257.726926
 31
0.0
  0
LINE
  5
214
100
AcDbEntity
  8
Calque_1
 62
1
100
AcDbLine
 10
282.256740
 20
257.726926
 30
0.0
 11
286.256740
 21
257.726926
 31
0.0
  0
LINE
  5
215
100
AcDbEntity
  8
Calque_1
 62
1
100
AcDbLine
 10
286.256740
 20
257.726926
 30
0.0
 11
286.256740
 21
249.021376
 31
0.0
  0
LINE
  5
216
100
AcDbEntity
  8
Calque_1
 62
1
100
AcDbLine
 10
286.256740
 20
249.021376
 30
0.0
 11
282.256740
 21
249.021376
 31
0.0
  0
LINE
  5
217
100
AcDbEntity
  8
Calque_1
 62
1
100
AcDbLine
 10
282.256740
 20
249.021376
 30
0.0
 11
282.256740
 21
240.615816
 31
0.0
  0
LINE
  5
218
100
AcDbEntity
  8
Calque_1
 62
1
100
AcDbLine
 10
282.256740
 20
240.615816
 30
0.0
 11
286.256740
 21
240.615816
 31
0.0
  0
LINE
  5
219
100
AcDbEntity
  8
Calque_1
 62
1
100
AcDbLine
 10
286.256740
 20
240.615816
 30
0.0
 11
286.256740
 21
231.910266
 31
0.0
  0
LINE
  5
21a
100
AcDbEntity
  8
Calque_1
 62
1
100
AcDbLine
 10
286.256740
 20
231.910266
 30
0.0
 11
282.256740
 21
231.910266
 31
0.0
  0
LINE
  5
21b
100
AcDbEntity
  8
Calque_1
 62
1
100
AcDbLine
 10
282.256740
 20
231.910266
 30
0.0
 11
282.256740
 21
223.504706
 31
0.0
  0
LINE
  5
21c
100
AcDbEntity
  8
Calque_1
 62
1
100
AcDbLine
 10
282.256740
 20
223.504706
 30
0.0
 11
286.256740
 21
223.504706
 31
0.0
  0
LINE
  5
21d
100
AcDbEntity
  8
Calque_1
 62
1
100
AcDbLine
 10
286.256740
 20
223.504706
 30
0.0
 11
286.256740
 21
214.874156
 31
0.0
  0
LINE
  5
21e
100
AcDbEntity
  8
Calque_1
 62
1
100
AcDbLine
 10
286.256740
 20
214.874156
 30
0.0
 11
277.998380
 21
214.874156
 31
0.0
  0
LINE
  5
21f
100
AcDbEntity
  8
Calque_1
 62
1
100
AcDbLine
 10
277.998380
 20
214.874156
 30
0.0
 11
277.998380
 21
210.874156
 31
0.0
  0
LINE
  5
220
100
AcDbEntity
  8
Calque_1
 62
1
100
AcDbLine
 10
277.998380
 20
210.874156
 30
0.0
 11
269.515040
 21
210.874156
 31
0.0
  0
LINE
  5
221
100
AcDbEntity
  8
Calque_1
 62
1
100
AcDbLine
 10
269.515040
 20
210.874156
 30
0.0
 11
269.515040
 21
214.874156
 31
0.0
  0
LINE
  5
222
100
AcDbEntity
  8
Calque_1
 62
1
100
AcDbLine
 10
269.515040
 20
214.874156
 30
0.0
 11
261.256710
 21
214.874156
 31
0.0
  0
LINE
  5
223
100
AcDbEntity
  8
Calque_1
 62
1
100
AcDbLine
 10
261.256710
 20
214.874156
 30
0.0
 11
261.256710
 21
223.504706
 31
0.0
  0
LINE
  5
224
100
AcDbEntity
  8
Calque_1
 62
1
100
AcDbLine
 10
261.256710
 20
223.504706
 30
0.0
 11
265.256710
 21
223.504706
 31
0.0
  0
LINE
  5
225
100
AcDbEntity
  8
Calque_1
 62
1
100
AcDbLine
 10
265.256710
 20
223.504706
 30
0.0
 11
265.256710
 21
231.910266
 31
0.0
  0
LINE
  5
226
100
AcDbEntity
  8
Calque_1
 62
1
100
AcDbLine
 10
265.256710
 20
231.910266
 30
0.0
 11
261.256710
 21
231.910266
 31
0.0
  0
LINE
  5
227
100
AcDbEntity
  8
Calque_1
 62
1
100
AcDbLine
 10
261.256710
 20
231.910266
 30
0.0
 11
261.256710
 21
240.615816
 31
0.0
  0
LINE
  5
228
100
AcDbEntity
  8
Calque_1
 62
1
100
AcDbLine
 10
261.256710
 20
240.615816
 30
0.0
 11
265.256710
 21
240.615816
 31
0.0
  0
LINE
  5
229
100
AcDbEntity
  8
Calque_1
 62
1
100
AcDbLine
 10
265.256710
 20
240.615816
 30
0.0
 11
265.256710
 21
249.021376
 31
0.0
  0
LINE
  5
22a
100
AcDbEntity
  8
Calque_1
 62
1
100
AcDbLine
 10
265.256710
 20
249.021376
 30
0.0
 11
261.256710
 21
249.021376
 31
0.0
  0
LINE
  5
22b
100
AcDbEntity
  8
Calque_1
 62
1
100
AcDbLine
 10
261.256710
 20
249.021376
 30
0.0
 11
261.256710
 21
257.726926
 31
0.0
  0
LINE
  5
22c
100
AcDbEntity
  8
Calque_1
 62
1
100
AcDbLine
 10
261.256710
 20
257.726926
 30
0.0
 11
265.256710
 21
257.726926
 31
0.0
  0
LINE
  5
22d
100
AcDbEntity
  8
Calque_1
 62
1
100
AcDbLine
 10
265.256710
 20
257.726926
 30
0.0
 11
265.256710
 21
266.132486
 31
0.0
  0
LINE
  5
22e
100
AcDbEntity
  8
Calque_1
 62
1
100
AcDbLine
 10
265.256710
 20
266.132486
 30
0.0
 11
261.256710
 21
266.132486
 31
0.0
  0
LINE
  5
22f
100
AcDbEntity
  8
Calque_1
 62
1
100
AcDbLine
 10
261.256710
 20
266.132486
 30
0.0
 11
261.256710
 21
274.838036
 31
0.0
  0
LINE
  5
230
100
AcDbEntity
  8
Calque_1
 62
1
100
AcDbLine
 10
261.256710
 20
274.838036
 30
0.0
 11
265.256710
 21
274.838036
 31
0.0
  0
LINE
  5
231
100
AcDbEntity
  8
Calque_1
 62
1
100
AcDbLine
 10
265.256710
 20
274.838036
 30
0.0
 11
265.256710
 21
283.243596
 31
0.0
  0
LINE
  5
232
100
AcDbEntity
  8
Calque_1
 62
1
100
AcDbLine
 10
265.256710
 20
283.243596
 30
0.0
 11
261.256710
 21
283.243596
 31
0.0
  0
LINE
  5
233
100
AcDbEntity
  8
Calque_1
 62
1
100
AcDbLine
 10
261.256710
 20
283.243596
 30
0.0
 11
261.256710
 21
291.874137
 31
0.0
  0
LINE
  5
234
100
AcDbEntity
  8
Calque_1
 62
1
100
AcDbLine
 10
297.413390
 20
293.437907
 30
0.0
 11
301.671750
 21
293.437907
 31
0.0
  0
LINE
  5
235
100
AcDbEntity
  8
Calque_1
 62
1
100
AcDbLine
 10
301.671750
 20
293.437907
 30
0.0
 11
301.671750
 21
297.437882
 31
0.0
  0
LINE
  5
236
100
AcDbEntity
  8
Calque_1
 62
1
100
AcDbLine
 10
301.671750
 20
297.437882
 30
0.0
 11
310.155130
 21
297.437882
 31
0.0
  0
LINE
  5
237
100
AcDbEntity
  8
Calque_1
 62
1
100
AcDbLine
 10
310.155130
 20
297.437882
 30
0.0
 11
310.155130
 21
293.437907
 31
0.0
  0
LINE
  5
238
100
AcDbEntity
  8
Calque_1
 62
1
100
AcDbLine
 10
310.155130
 20
293.437907
 30
0.0
 11
314.413490
 21
293.437907
 31
0.0
  0
LINE
  5
239
100
AcDbEntity
  8
Calque_1
 62
1
100
AcDbLine
 10
314.413490
 20
293.437907
 30
0.0
 11
314.413490
 21
284.957406
 31
0.0
  0
LINE
  5
23a
100
AcDbEntity
  8
Calque_1
 62
1
100
AcDbLine
 10
314.413490
 20
284.957406
 30
0.0
 11
318.413510
 21
284.957406
 31
0.0
  0
LINE
  5
23b
100
AcDbEntity
  8
Calque_1
 62
1
100
AcDbLine
 10
318.413510
 20
284.957406
 30
0.0
 11
318.413510
 21
276.251846
 31
0.0
  0
LINE
  5
23c
100
AcDbEntity
  8
Calque_1
 62
1
100
AcDbLine
 10
318.413510
 20
276.251846
 30
0.0
 11
314.413490
 21
276.251846
 31
0.0
  0
LINE
  5
23d
100
AcDbEntity
  8
Calque_1
 62
1
100
AcDbLine
 10
314.413490
 20
276.251846
 30
0.0
 11
314.413490
 21
267.846296
 31
0.0
  0
LINE
  5
23e
100
AcDbEntity
  8
Calque_1
 62
1
100
AcDbLine
 10
314.413490
 20
267.846296
 30
0.0
 11
318.413510
 21
267.846296
 31
0.0
  0
LINE
  5
23f
100
AcDbEntity
  8
Calque_1
 62
1
100
AcDbLine
 10
318.413510
 20
267.846296
 30
0.0
 11
318.413510
 21
259.140736
 31
0.0
  0
LINE
  5
240
100
AcDbEntity
  8
Calque_1
 62
1
100
AcDbLine
 10
318.413510
 20
259.140736
 30
0.0
 11
314.413490
 21
259.140736
 31
0.0
  0
LINE
  5
241
100
AcDbEntity
  8
Calque_1
 62
1
100
AcDbLine
 10
314.413490
 20
259.140736
 30
0.0
 11
314.413490
 21
250.735186
 31
0.0
  0
LINE
  5
242
100
AcDbEntity
  8
Calque_1
 62
1
100
AcDbLine
 10
314.413490
 20
250.735186
 30
0.0
 11
318.413510
 21
250.735186
 31
0.0
  0
LINE
  5
243
100
AcDbEntity
  8
Calque_1
 62
1
100
AcDbLine
 10
318.413510
 20
250.735186
 30
0.0
 11
318.413510
 21
242.029626
 31
0.0
  0
LINE
  5
244
100
AcDbEntity
  8
Calque_1
 62
1
100
AcDbLine
 10
318.413510
 20
242.029626
 30
0.0
 11
314.413490
 21
242.029626
 31
0.0
  0
LINE
  5
245
100
AcDbEntity
  8
Calque_1
 62
1
100
AcDbLine
 10
314.413490
 20
242.029626
 30
0.0
 11
314.413490
 21
233.624076
 31
0.0
  0
LINE
  5
246
100
AcDbEntity
  8
Calque_1
 62
1
100
AcDbLine
 10
314.413490
 20
233.624076
 30
0.0
 11
318.413510
 21
233.624076
 31
0.0
  0
LINE
  5
247
100
AcDbEntity
  8
Calque_1
 62
1
100
AcDbLine
 10
318.413510
 20
233.624076
 30
0.0
 11
318.413510
 21
224.918516
 31
0.0
  0
LINE
  5
248
100
AcDbEntity
  8
Calque_1
 62
1
100
AcDbLine
 10
318.413510
 20
224.918516
 30
0.0
 11
314.413490
 21
224.918516
 31
0.0
  0
LINE
  5
249
100
AcDbEntity
  8
Calque_1
 62
1
100
AcDbLine
 10
314.413490
 20
224.918516
 30
0.0
 11
314.413490
 21
216.437956
 31
0.0
  0
LINE
  5
24a
100
AcDbEntity
  8
Calque_1
 62
1
100
AcDbLine
 10
314.413490
 20
216.437956
 30
0.0
 11
310.155130
 21
216.437956
 31
0.0
  0
LINE
  5
24b
100
AcDbEntity
  8
Calque_1
 62
1
100
AcDbLine
 10
310.155130
 20
216.437956
 30
0.0
 11
310.155130
 21
212.437956
 31
0.0
  0
LINE
  5
24c
100
AcDbEntity
  8
Calque_1
 62
1
100
AcDbLine
 10
310.155130
 20
212.437956
 30
0.0
 11
301.671750
 21
212.437956
 31
0.0
  0
LINE
  5
24d
100
AcDbEntity
  8
Calque_1
 62
1
100
AcDbLine
 10
301.671750
 20
212.437956
 30
0.0
 11
301.671750
 21
216.437956
 31
0.0
  0
LINE
  5
24e
100
AcDbEntity
  8
Calque_1
 62
1
100
AcDbLine
 10
301.671750
 20
216.437956
 30
0.0
 11
297.413390
 21
216.437956
 31
0.0
  0
LINE
  5
24f
100
AcDbEntity
  8
Calque_1
 62
1
100
AcDbLine
 10
297.413390
 20
216.437956
 30
0.0
 11
297.413390
 21
224.918516
 31
0.0
  0
LINE
  5
250
100
AcDbEntity
  8
Calque_1
 62
1
100
AcDbLine
 10
297.413390
 20
224.918516
 30
0.0
 11
293.413370
 21
224.918516
 31
0.0
  0
LINE
  5
251
100
AcDbEntity
  8
Calque_1
 62
1
100
AcDbLine
 10
293.413370
 20
224.918516
 30
0.0
 11
293.413370
 21
233.624076
 31
0.0
  0
LINE
  5
252
100
AcDbEntity
  8
Calque_1
 62
1
100
AcDbLine
 10
293.413370
 20
233.624076
 30
0.0
 11
297.413390
 21
233.624076
 31
0.0
  0
LINE
  5
253
100
AcDbEntity
  8
Calque_1
 62
1
100
AcDbLine
 10
297.413390
 20
233.624076
 30
0.0
 11
297.413390
 21
242.029626
 31
0.0
  0
LINE
  5
254
100
AcDbEntity
  8
Calque_1
 62
1
100
AcDbLine
 10
297.413390
 20
242.029626
 30
0.0
 11
293.413370
 21
242.029626
 31
0.0
  0
LINE
  5
255
100
AcDbEntity
  8
Calque_1
 62
1
100
AcDbLine
 10
293.413370
 20
242.029626
 30
0.0
 11
293.413370
 21
250.735186
 31
0.0
  0
LINE
  5
256
100
AcDbEntity
  8
Calque_1
 62
1
100
AcDbLine
 10
293.413370
 20
250.735186
 30
0.0
 11
297.413390
 21
250.735186
 31
0.0
  0
LINE
  5
257
100
AcDbEntity
  8
Calque_1
 62
1
100
AcDbLine
 10
297.413390
 20
250.735186
 30
0.0
 11
297.413390
 21
259.140736
 31
0.0
  0
LINE
  5
258
100
AcDbEntity
  8
Calque_1
 62
1
100
AcDbLine
 10
297.413390
 20
259.140736
 30
0.0
 11
293.413370
 21
259.140736
 31
0.0
  0
LINE
  5
259
100
AcDbEntity
  8
Calque_1
 62
1
100
AcDbLine
 10
293.413370
 20
259.140736
 30
0.0
 11
293.413370
 21
267.846296
 31
0.0
  0
LINE
  5
25a
100
AcDbEntity
  8
Calque_1
 62
1
100
AcDbLine
 10
293.413370
 20
267.846296
 30
0.0
 11
297.413390
 21
267.846296
 31
0.0
  0
LINE
  5
25b
100
AcDbEntity
  8
Calque_1
 62
1
100
AcDbLine
 10
297.413390
 20
267.846296
 30
0.0
 11
297.413390
 21
276.251846
 31
0.0
  0
LINE
  5
25c
100
AcDbEntity
  8
Calque_1
 62
1
100
AcDbLine
 10
297.413390
 20
276.251846
 30
0.0
 11
293.413370
 21
276.251846
 31
0.0
  0
LINE
  5
25d
100
AcDbEntity
  8
Calque_1
 62
1
100
AcDbLine
 10
293.413370
 20
276.251846
 30
0.0
 11
293.413370
 21
284.957406
 31
0.0
  0
LINE
  5
25e
100
AcDbEntity
  8
Calque_1
 62
1
100
AcDbLine
 10
293.413370
 20
284.957406
 30
0.0
 11
297.413390
 21
284.957406
 31
0.0
  0
LINE
  5
25f
100
AcDbEntity
  8
Calque_1
 62
1
100
AcDbLine
 10
297.413390
 20
284.957406
 30
0.0
 11
297.413390
 21
293.437907
 31
0.0
  0
LINE
  5
260
100
AcDbEntity
  8
Calque_1
 62
1
100
AcDbLine
 10
589.998610
 20
241.138017
 30
0.0
 11
589.998610
 21
232.729677
 31
0.0
  0
LINE
  5
261
100
AcDbEntity
  8
Calque_1
 62
1
100
AcDbLine
 10
589.998610
 20
232.729677
 30
0.0
 11
585.998590
 21
232.729677
 31
0.0
  0
LINE
  5
262
100
AcDbEntity
  8
Calque_1
 62
1
100
AcDbLine
 10
585.998590
 20
232.729677
 30
0.0
 11
585.998590
 21
224.546347
 31
0.0
  0
LINE
  5
263
100
AcDbEntity
  8
Calque_1
 62
1
100
AcDbLine
 10
585.998590
 20
224.546347
 30
0.0
 11
589.998610
 21
224.546347
 31
0.0
  0
LINE
  5
264
100
AcDbEntity
  8
Calque_1
 62
1
100
AcDbLine
 10
589.998610
 20
224.546347
 30
0.0
 11
589.998610
 21
216.138017
 31
0.0
  0
LINE
  5
265
100
AcDbEntity
  8
Calque_1
 62
1
100
AcDbLine
 10
589.998610
 20
216.138017
 30
0.0
 11
581.590230
 21
216.138017
 31
0.0
  0
LINE
  5
266
100
AcDbEntity
  8
Calque_1
 62
1
100
AcDbLine
 10
581.590230
 20
216.138017
 30
0.0
 11
581.590230
 21
220.138017
 31
0.0
  0
LINE
  5
267
100
AcDbEntity
  8
Calque_1
 62
1
100
AcDbLine
 10
581.590230
 20
220.138017
 30
0.0
 11
573.406850
 21
220.138017
 31
0.0
  0
LINE
  5
268
100
AcDbEntity
  8
Calque_1
 62
1
100
AcDbLine
 10
573.406850
 20
220.138017
 30
0.0
 11
573.406850
 21
216.138017
 31
0.0
  0
LINE
  5
269
100
AcDbEntity
  8
Calque_1
 62
1
100
AcDbLine
 10
573.406850
 20
216.138017
 30
0.0
 11
564.998470
 21
216.138017
 31
0.0
  0
LINE
  5
26a
100
AcDbEntity
  8
Calque_1
 62
1
100
AcDbLine
 10
564.998470
 20
216.138017
 30
0.0
 11
365.464540
 21
216.079517
 31
0.0
  0
LINE
  5
26b
100
AcDbEntity
  8
Calque_1
 62
1
100
AcDbLine
 10
365.464540
 20
216.079517
 30
0.0
 11
357.056200
 21
216.079517
 31
0.0
  0
LINE
  5
26c
100
AcDbEntity
  8
Calque_1
 62
1
100
AcDbLine
 10
357.056200
 20
216.079517
 30
0.0
 11
357.056200
 21
220.079537
 31
0.0
  0
LINE
  5
26d
100
AcDbEntity
  8
Calque_1
 62
1
100
AcDbLine
 10
357.056200
 20
220.079537
 30
0.0
 11
348.872870
 21
220.079537
 31
0.0
  0
LINE
  5
26e
100
AcDbEntity
  8
Calque_1
 62
1
100
AcDbLine
 10
348.872870
 20
220.079537
 30
0.0
 11
348.872870
 21
216.079517
 31
0.0
  0
LINE
  5
26f
100
AcDbEntity
  8
Calque_1
 62
1
100
AcDbLine
 10
348.872870
 20
216.079517
 30
0.0
 11
340.464540
 21
216.079517
 31
0.0
  0
LINE
  5
270
100
AcDbEntity
  8
Calque_1
 62
1
100
AcDbLine
 10
340.464540
 20
216.079517
 30
0.0
 11
340.464540
 21
224.487897
 31
0.0
  0
LINE
  5
271
100
AcDbEntity
  8
Calque_1
 62
1
100
AcDbLine
 10
340.464540
 20
224.487897
 30
0.0
 11
344.464540
 21
224.487897
 31
0.0
  0
LINE
  5
272
100
AcDbEntity
  8
Calque_1
 62
1
100
AcDbLine
 10
344.464540
 20
224.487897
 30
0.0
 11
344.464540
 21
232.671277
 31
0.0
  0
LINE
  5
273
100
AcDbEntity
  8
Calque_1
 62
1
100
AcDbLine
 10
344.464540
 20
232.671277
 30
0.0
 11
340.464540
 21
232.671277
 31
0.0
  0
LINE
  5
274
100
AcDbEntity
  8
Calque_1
 62
1
100
AcDbLine
 10
340.464540
 20
232.671277
 30
0.0
 11
340.464540
 21
241.079657
 31
0.0
  0
LINE
  5
275
100
AcDbEntity
  8
Calque_1
 62
1
100
AcDbLine
 10
340.464540
 20
241.079657
 30
0.0
 11
340.842450
 21
365.607097
 31
0.0
  0
LINE
  5
276
100
AcDbEntity
  8
Calque_1
 62
1
100
AcDbLine
 10
340.842450
 20
365.607097
 30
0.0
 11
340.842450
 21
374.015388
 31
0.0
  0
LINE
  5
277
100
AcDbEntity
  8
Calque_1
 62
1
100
AcDbLine
 10
340.842450
 20
374.015388
 30
0.0
 11
344.842470
 21
374.015388
 31
0.0
  0
LINE
  5
278
100
AcDbEntity
  8
Calque_1
 62
1
100
AcDbLine
 10
344.842470
 20
374.015388
 30
0.0
 11
344.842470
 21
382.198708
 31
0.0
  0
LINE
  5
279
100
AcDbEntity
  8
Calque_1
 62
1
100
AcDbLine
 10
344.842470
 20
382.198708
 30
0.0
 11
340.842450
 21
382.198708
 31
0.0
  0
LINE
  5
27a
100
AcDbEntity
  8
Calque_1
 62
1
100
AcDbLine
 10
340.842450
 20
382.198708
 30
0.0
 11
340.842450
 21
390.607038
 31
0.0
  0
LINE
  5
27b
100
AcDbEntity
  8
Calque_1
 62
1
100
AcDbLine
 10
340.842450
 20
390.607038
 30
0.0
 11
349.250830
 21
390.607038
 31
0.0
  0
LINE
  5
27c
100
AcDbEntity
  8
Calque_1
 62
1
100
AcDbLine
 10
349.250830
 20
390.607038
 30
0.0
 11
349.250830
 21
386.607038
 31
0.0
  0
LINE
  5
27d
100
AcDbEntity
  8
Calque_1
 62
1
100
AcDbLine
 10
349.250830
 20
386.607038
 30
0.0
 11
357.434210
 21
386.607038
 31
0.0
  0
LINE
  5
27e
100
AcDbEntity
  8
Calque_1
 62
1
100
AcDbLine
 10
357.434210
 20
386.607038
 30
0.0
 11
357.434210
 21
390.607038
 31
0.0
  0
LINE
  5
27f
100
AcDbEntity
  8
Calque_1
 62
1
100
AcDbLine
 10
357.434210
 20
390.607038
 30
0.0
 11
365.842590
 21
390.607038
 31
0.0
  0
LINE
  5
280
100
AcDbEntity
  8
Calque_1
 62
1
100
AcDbLine
 10
365.842590
 20
390.607038
 30
0.0
 11
565.231930
 21
390.847141
 31
0.0
  0
LINE
  5
281
100
AcDbEntity
  8
Calque_1
 62
1
100
AcDbLine
 10
565.231930
 20
390.847141
 30
0.0
 11
573.640220
 21
390.847141
 31
0.0
  0
LINE
  5
282
100
AcDbEntity
  8
Calque_1
 62
1
100
AcDbLine
 10
573.640220
 20
390.847141
 30
0.0
 11
573.640220
 21
386.847120
 31
0.0
  0
LINE
  5
283
100
AcDbEntity
  8
Calque_1
 62
1
100
AcDbLine
 10
573.640220
 20
386.847120
 30
0.0
 11
581.823510
 21
386.847120
 31
0.0
  0
LINE
  5
284
100
AcDbEntity
  8
Calque_1
 62
1
100
AcDbLine
 10
581.823510
 20
386.847120
 30
0.0
 11
581.823510
 21
390.847141
 31
0.0
  0
LINE
  5
285
100
AcDbEntity
  8
Calque_1
 62
1
100
AcDbLine
 10
581.823510
 20
390.847141
 30
0.0
 11
590.231790
 21
390.847141
 31
0.0
  0
LINE
  5
286
100
AcDbEntity
  8
Calque_1
 62
1
100
AcDbLine
 10
590.231790
 20
390.847141
 30
0.0
 11
590.231790
 21
382.438760
 31
0.0
  0
LINE
  5
287
100
AcDbEntity
  8
Calque_1
 62
1
100
AcDbLine
 10
590.231790
 20
382.438760
 30
0.0
 11
586.231810
 21
382.438760
 31
0.0
  0
LINE
  5
288
100
AcDbEntity
  8
Calque_1
 62
1
100
AcDbLine
 10
586.231810
 20
382.438760
 30
0.0
 11
586.231810
 21
374.255380
 31
0.0
  0
LINE
  5
289
100
AcDbEntity
  8
Calque_1
 62
1
100
AcDbLine
 10
586.231810
 20
374.255380
 30
0.0
 11
590.231790
 21
374.255380
 31
0.0
  0
LINE
  5
28a
100
AcDbEntity
  8
Calque_1
 62
1
100
AcDbLine
 10
590.231790
 20
374.255380
 30
0.0
 11
590.231790
 21
365.846999
 31
0.0
  0
LINE
  5
28b
100
AcDbEntity
  8
Calque_1
 62
1
100
AcDbLine
 10
590.231790
 20
365.846999
 30
0.0
 11
589.998610
 21
241.138017
 31
0.0
  0
LINE
  5
28c
100
AcDbEntity
  8
Calque_1
 62
5
100
AcDbLine
 10
587.860460
 20
44.309660
 30
0.0
 11
587.860460
 21
35.901320
 31
0.0
  0
LINE
  5
28d
100
AcDbEntity
  8
Calque_1
 62
5
100
AcDbLine
 10
587.860460
 20
35.901320
 30
0.0
 11
583.860440
 21
35.901320
 31
0.0
  0
LINE
  5
28e
100
AcDbEntity
  8
Calque_1
 62
5
100
AcDbLine
 10
583.860440
 20
35.901320
 30
0.0
 11
583.860440
 21
27.717990
 31
0.0
  0
LINE
  5
28f
100
AcDbEntity
  8
Calque_1
 62
5
100
AcDbLine
 10
583.860440
 20
27.717990
 30
0.0
 11
587.860460
 21
27.717990
 31
0.0
  0
LINE
  5
290
100
AcDbEntity
  8
Calque_1
 62
5
100
AcDbLine
 10
587.860460
 20
27.717990
 30
0.0
 11
587.860460
 21
19.309660
 31
0.0
  0
LINE
  5
291
100
AcDbEntity
  8
Calque_1
 62
5
100
AcDbLine
 10
587.860460
 20
19.309660
 30
0.0
 11
579.452080
 21
19.309660
 31
0.0
  0
LINE
  5
292
100
AcDbEntity
  8
Calque_1
 62
5
100
AcDbLine
 10
579.452080
 20
19.309660
 30
0.0
 11
579.452080
 21
23.309660
 31
0.0
  0
LINE
  5
293
100
AcDbEntity
  8
Calque_1
 62
5
100
AcDbLine
 10
579.452080
 20
23.309660
 30
0.0
 11
571.268700
 21
23.309660
 31
0.0
  0
LINE
  5
294
100
AcDbEntity
  8
Calque_1
 62
5
100
AcDbLine
 10
571.268700
 20
23.309660
 30
0.0
 11
571.268700
 21
19.309660
 31
0.0
  0
LINE
  5
295
100
AcDbEntity
  8
Calque_1
 62
5
100
AcDbLine
 10
571.268700
 20
19.309660
 30
0.0
 11
562.860320
 21
19.309660
 31
0.0
  0
LINE
  5
296
100
AcDbEntity
  8
Calque_1
 62
5
100
AcDbLine
 10
562.860320
 20
19.309660
 30
0.0
 11
363.326390
 21
19.251160
 31
0.0
  0
LINE
  5
297
100
AcDbEntity
  8
Calque_1
 62
5
100
AcDbLine
 10
363.326390
 20
19.251160
 30
0.0
 11
354.918050
 21
19.251160
 31
0.0
  0
LINE
  5
298
100
AcDbEntity
  8
Calque_1
 62
5
100
AcDbLine
 10
354.918050
 20
19.251160
 30
0.0
 11
354.918050
 21
23.251180
 31
0.0
  0
LINE
  5
299
100
AcDbEntity
  8
Calque_1
 62
5
100
AcDbLine
 10
354.918050
 20
23.251180
 30
0.0
 11
346.734720
 21
23.251180
 31
0.0
  0
LINE
  5
29a
100
AcDbEntity
  8
Calque_1
 62
5
100
AcDbLine
 10
346.734720
 20
23.251180
 30
0.0
 11
346.734720
 21
19.251160
 31
0.0
  0
LINE
  5
29b
100
AcDbEntity
  8
Calque_1
 62
5
100
AcDbLine
 10
346.734720
 20
19.251160
 30
0.0
 11
338.326390
 21
19.251160
 31
0.0
  0
LINE
  5
29c
100
AcDbEntity
  8
Calque_1
 62
5
100
AcDbLine
 10
338.326390
 20
19.251160
 30
0.0
 11
338.326390
 21
27.659540
 31
0.0
  0
LINE
  5
29d
100
AcDbEntity
  8
Calque_1
 62
5
100
AcDbLine
 10
338.326390
 20
27.659540
 30
0.0
 11
342.326390
 21
27.659540
 31
0.0
  0
LINE
  5
29e
100
AcDbEntity
  8
Calque_1
 62
5
100
AcDbLine
 10
342.326390
 20
27.659540
 30
0.0
 11
342.326390
 21
35.842920
 31
0.0
  0
LINE
  5
29f
100
AcDbEntity
  8
Calque_1
 62
5
100
AcDbLine
 10
342.326390
 20
35.842920
 30
0.0
 11
338.326390
 21
35.842920
 31
0.0
  0
LINE
  5
2a0
100
AcDbEntity
  8
Calque_1
 62
5
100
AcDbLine
 10
338.326390
 20
35.842920
 30
0.0
 11
338.326390
 21
44.251300
 31
0.0
  0
LINE
  5
2a1
100
AcDbEntity
  8
Calque_1
 62
5
100
AcDbLine
 10
338.326390
 20
44.251300
 30
0.0
 11
338.704300
 21
168.778960
 31
0.0
  0
LINE
  5
2a2
100
AcDbEntity
  8
Calque_1
 62
5
100
AcDbLine
 10
338.704300
 20
168.778960
 30
0.0
 11
338.704300
 21
177.187250
 31
0.0
  0
LINE
  5
2a3
100
AcDbEntity
  8
Calque_1
 62
5
100
AcDbLine
 10
338.704300
 20
177.187250
 30
0.0
 11
342.704320
 21
177.187250
 31
0.0
  0
LINE
  5
2a4
100
AcDbEntity
  8
Calque_1
 62
5
100
AcDbLine
 10
342.704320
 20
177.187250
 30
0.0
 11
342.704320
 21
185.370560
 31
0.0
  0
LINE
  5
2a5
100
AcDbEntity
  8
Calque_1
 62
5
100
AcDbLine
 10
342.704320
 20
185.370560
 30
0.0
 11
338.704300
 21
185.370560
 31
0.0
  0
LINE
  5
2a6
100
AcDbEntity
  8
Calque_1
 62
5
100
AcDbLine
 10
338.704300
 20
185.370560
 30
0.0
 11
338.704300
 21
193.778890
 31
0.0
  0
LINE
  5
2a7
100
AcDbEntity
  8
Calque_1
 62
5
100
AcDbLine
 10
338.704300
 20
193.778890
 30
0.0
 11
347.112680
 21
193.778890
 31
0.0
  0
LINE
  5
2a8
100
AcDbEntity
  8
Calque_1
 62
5
100
AcDbLine
 10
347.112680
 20
193.778890
 30
0.0
 11
347.112680
 21
189.778890
 31
0.0
  0
LINE
  5
2a9
100
AcDbEntity
  8
Calque_1
 62
5
100
AcDbLine
 10
347.112680
 20
189.778890
 30
0.0
 11
355.296060
 21
189.778890
 31
0.0
  0
LINE
  5
2aa
100
AcDbEntity
  8
Calque_1
 62
5
100
AcDbLine
 10
355.296060
 20
189.778890
 30
0.0
 11
355.296060
 21
193.778890
 31
0.0
  0
LINE
  5
2ab
100
AcDbEntity
  8
Calque_1
 62
5
100
AcDbLine
 10
355.296060
 20
193.778890
 30
0.0
 11
363.704440
 21
193.778890
 31
0.0
  0
LINE
  5
2ac
100
AcDbEntity
  8
Calque_1
 62
5
100
AcDbLine
 10
363.704440
 20
193.778890
 30
0.0
 11
563.093770
 21
194.018990
 31
0.0
  0
LINE
  5
2ad
100
AcDbEntity
  8
Calque_1
 62
5
100
AcDbLine
 10
563.093770
 20
194.018990
 30
0.0
 11
571.502060
 21
194.018990
 31
0.0
  0
LINE
  5
2ae
100
AcDbEntity
  8
Calque_1
 62
5
100
AcDbLine
 10
571.502060
 20
194.018990
 30
0.0
 11
571.502060
 21
190.018970
 31
0.0
  0
LINE
  5
2af
100
AcDbEntity
  8
Calque_1
 62
5
100
AcDbLine
 10
571.502060
 20
190.018970
 30
0.0
 11
579.685350
 21
190.018970
 31
0.0
  0
LINE
  5
2b0
100
AcDbEntity
  8
Calque_1
 62
5
100
AcDbLine
 10
579.685350
 20
190.018970
 30
0.0
 11
579.685350
 21
194.018990
 31
0.0
  0
LINE
  5
2b1
100
AcDbEntity
  8
Calque_1
 62
5
100
AcDbLine
 10
579.685350
 20
194.018990
 30
0.0
 11
588.093630
 21
194.018990
 31
0.0
  0
LINE
  5
2b2
100
AcDbEntity
  8
Calque_1
 62
5
100
AcDbLine
 10
588.093630
 20
194.018990
 30
0.0
 11
588.093630
 21
185.610620
 31
0.0
  0
LINE
  5
2b3
100
AcDbEntity
  8
Calque_1
 62
5
100
AcDbLine
 10
588.093630
 20
185.610620
 30
0.0
 11
584.093650
 21
185.610620
 31
0.0
  0
LINE
  5
2b4
100
AcDbEntity
  8
Calque_1
 62
5
100
AcDbLine
 10
584.093650
 20
185.610620
 30
0.0
 11
584.093650
 21
177.427240
 31
0.0
  0
LINE
  5
2b5
100
AcDbEntity
  8
Calque_1
 62
5
100
AcDbLine
 10
584.093650
 20
177.427240
 30
0.0
 11
588.093630
 21
177.427240
 31
0.0
  0
LINE
  5
2b6
100
AcDbEntity
  8
Calque_1
 62
5
100
AcDbLine
 10
588.093630
 20
177.427240
 30
0.0
 11
588.093630
 21
169.018860
 31
0.0
  0
LINE
  5
2b7
100
AcDbEntity
  8
Calque_1
 62
5
100
AcDbLine
 10
588.093630
 20
169.018860
 30
0.0
 11
587.860460
 21
44.309660
 31
0.0
  0
LINE
  5
2b8
100
AcDbEntity
  8
Calque_1
 62
1
100
AcDbLine
 10
170.062984
 20
96.579599
 30
0.0
 11
268.895760
 21
96.579599
 31
0.0
  0
LINE
  5
2b9
100
AcDbEntity
  8
Calque_1
 62
1
100
AcDbLine
 10
252.795770
 20
68.306204
 30
0.0
 11
249.331650
 21
70.306214
 31
0.0
  0
LINE
  5
2ba
100
AcDbEntity
  8
Calque_1
 62
1
100
AcDbLine
 10
249.331650
 20
70.306214
 30
0.0
 11
232.589977
 21
41.308796
 31
0.0
  0
LINE
  5
2bb
100
AcDbEntity
  8
Calque_1
 62
1
100
AcDbLine
 10
232.589977
 20
41.308796
 30
0.0
 11
236.054097
 21
39.308786
 31
0.0
  0
LINE
  5
2bc
100
AcDbEntity
  8
Calque_1
 62
1
100
AcDbLine
 10
236.054097
 20
39.308786
 30
0.0
 11
219.424927
 21
10.506220
 31
0.0
  0
LINE
  5
2bd
100
AcDbEntity
  8
Calque_1
 62
1
100
AcDbLine
 10
269.424930
 20
97.108766
 30
0.0
 11
252.795770
 21
68.306204
 31
0.0
  0
LINE
  5
2be
100
AcDbEntity
  8
Calque_1
 62
1
100
AcDbLine
 10
186.162984
 20
68.306205
 30
0.0
 11
182.698865
 21
66.306195
 31
0.0
  0
LINE
  5
2bf
100
AcDbEntity
  8
Calque_1
 62
1
100
AcDbLine
 10
182.698865
 20
66.306195
 30
0.0
 11
199.440534
 21
37.308773
 31
0.0
  0
LINE
  5
2c0
100
AcDbEntity
  8
Calque_1
 62
1
100
AcDbLine
 10
199.440534
 20
37.308773
 30
0.0
 11
202.904653
 21
39.308783
 31
0.0
  0
LINE
  5
2c1
100
AcDbEntity
  8
Calque_1
 62
1
100
AcDbLine
 10
202.904653
 20
39.308783
 30
0.0
 11
219.533817
 21
10.506220
 31
0.0
  0
LINE
  5
2c2
100
AcDbEntity
  8
Calque_1
 62
1
100
AcDbLine
 10
169.533817
 20
97.108766
 30
0.0
 11
186.162984
 21
68.306205
 31
0.0
  0
LINE
  5
2c3
100
AcDbEntity
  8
Calque_1
 62
1
100
AcDbLine
 10
175.128844
 20
197.177169
 30
0.0
 11
273.961620
 21
197.177169
 31
0.0
  0
LINE
  5
2c4
100
AcDbEntity
  8
Calque_1
 62
1
100
AcDbLine
 10
257.861630
 20
168.903774
 30
0.0
 11
254.397510
 21
170.903784
 31
0.0
  0
LINE
  5
2c5
100
AcDbEntity
  8
Calque_1
 62
1
100
AcDbLine
 10
254.397510
 20
170.903784
 30
0.0
 11
237.655837
 21
141.906366
 31
0.0
  0
LINE
  5
2c6
100
AcDbEntity
  8
Calque_1
 62
1
100
AcDbLine
 10
237.655837
 20
141.906366
 30
0.0
 11
241.119957
 21
139.906356
 31
0.0
  0
LINE
  5
2c7
100
AcDbEntity
  8
Calque_1
 62
1
100
AcDbLine
 10
241.119957
 20
139.906356
 30
0.0
 11
224.490787
 21
111.103790
 31
0.0
  0
LINE
  5
2c8
100
AcDbEntity
  8
Calque_1
 62
1
100
AcDbLine
 10
274.490790
 20
197.706336
 30
0.0
 11
257.861630
 21
168.903774
 31
0.0
  0
LINE
  5
2c9
100
AcDbEntity
  8
Calque_1
 62
1
100
AcDbLine
 10
191.228844
 20
168.903775
 30
0.0
 11
187.764725
 21
166.903765
 31
0.0
  0
LINE
  5
2ca
100
AcDbEntity
  8
Calque_1
 62
1
100
AcDbLine
 10
187.764725
 20
166.903765
 30
0.0
 11
204.506394
 21
137.906343
 31
0.0
  0
LINE
  5
2cb
100
AcDbEntity
  8
Calque_1
 62
1
100
AcDbLine
 10
204.506394
 20
137.906343
 30
0.0
 11
207.970513
 21
139.906353
 31
0.0
  0
LINE
  5
2cc
100
AcDbEntity
  8
Calque_1
 62
1
100
AcDbLine
 10
207.970513
 20
139.906353
 30
0.0
 11
224.599677
 21
111.103790
 31
0.0
  0
LINE
  5
2cd
100
AcDbEntity
  8
Calque_1
 62
1
100
AcDbLine
 10
174.599677
 20
197.706336
 30
0.0
 11
191.228844
 21
168.903775
 31
0.0
  0
LINE
  5
2ce
100
AcDbEntity
  8
Calque_1
 62
1
100
AcDbLine
 10
333.635566
 20
110.574481
 30
0.0
 11
234.802790
 21
110.574481
 31
0.0
  0
LINE
  5
2cf
100
AcDbEntity
  8
Calque_1
 62
1
100
AcDbLine
 10
250.902780
 20
138.847876
 30
0.0
 11
254.366900
 21
136.847866
 31
0.0
  0
LINE
  5
2d0
100
AcDbEntity
  8
Calque_1
 62
1
100
AcDbLine
 10
254.366900
 20
136.847866
 30
0.0
 11
271.108573
 21
165.845284
 31
0.0
  0
LINE
  5
2d1
100
AcDbEntity
  8
Calque_1
 62
1
100
AcDbLine
 10
271.108573
 20
165.845284
 30
0.0
 11
267.644453
 21
167.845294
 31
0.0
  0
LINE
  5
2d2
100
AcDbEntity
  8
Calque_1
 62
1
100
AcDbLine
 10
267.644453
 20
167.845294
 30
0.0
 11
284.273623
 21
196.647860
 31
0.0
  0
LINE
  5
2d3
100
AcDbEntity
  8
Calque_1
 62
1
100
AcDbLine
 10
234.273620
 20
110.045314
 30
0.0
 11
250.902780
 21
138.847876
 31
0.0
  0
LINE
  5
2d4
100
AcDbEntity
  8
Calque_1
 62
1
100
AcDbLine
 10
317.535566
 20
138.847875
 30
0.0
 11
320.999685
 21
140.847885
 31
0.0
  0
LINE
  5
2d5
100
AcDbEntity
  8
Calque_1
 62
1
100
AcDbLine
 10
320.999685
 20
140.847885
 30
0.0
 11
304.258016
 21
169.845307
 31
0.0
  0
LINE
  5
2d6
100
AcDbEntity
  8
Calque_1
 62
1
100
AcDbLine
 10
304.258016
 20
169.845307
 30
0.0
 11
300.793897
 21
167.845297
 31
0.0
  0
LINE
  5
2d7
100
AcDbEntity
  8
Calque_1
 62
1
100
AcDbLine
 10
300.793897
 20
167.845297
 30
0.0
 11
284.164733
 21
196.647860
 31
0.0
  0
LINE
  5
2d8
100
AcDbEntity
  8
Calque_1
 62
1
100
AcDbLine
 10
334.164733
 20
110.045314
 30
0.0
 11
317.535566
 21
138.847875
 31
0.0
  0
LINE
  5
2d9
100
AcDbEntity
  8
Calque_1
 62
1
100
AcDbLine
 10
334.182466
 20
14.263901
 30
0.0
 11
235.349690
 21
14.263901
 31
0.0
  0
LINE
  5
2da
100
AcDbEntity
  8
Calque_1
 62
1
100
AcDbLine
 10
251.449680
 20
42.537296
 30
0.0
 11
254.913800
 21
40.537286
 31
0.0
  0
LINE
  5
2db
100
AcDbEntity
  8
Calque_1
 62
1
100
AcDbLine
 10
254.913800
 20
40.537286
 30
0.0
 11
271.655473
 21
69.534704
 31
0.0
  0
LINE
  5
2dc
100
AcDbEntity
  8
Calque_1
 62
1
100
AcDbLine
 10
271.655473
 20
69.534704
 30
0.0
 11
268.191353
 21
71.534714
 31
0.0
  0
LINE
  5
2dd
100
AcDbEntity
  8
Calque_1
 62
1
100
AcDbLine
 10
268.191353
 20
71.534714
 30
0.0
 11
284.820523
 21
100.337280
 31
0.0
  0
LINE
  5
2de
100
AcDbEntity
  8
Calque_1
 62
1
100
AcDbLine
 10
234.820520
 20
13.734734
 30
0.0
 11
251.449680
 21
42.537296
 31
0.0
  0
LINE
  5
2df
100
AcDbEntity
  8
Calque_1
 62
1
100
AcDbLine
 10
318.082466
 20
42.537295
 30
0.0
 11
321.546585
 21
44.537305
 31
0.0
  0
LINE
  5
2e0
100
AcDbEntity
  8
Calque_1
 62
1
100
AcDbLine
 10
321.546585
 20
44.537305
 30
0.0
 11
304.804916
 21
73.534727
 31
0.0
  0
LINE
  5
2e1
100
AcDbEntity
  8
Calque_1
 62
1
100
AcDbLine
 10
304.804916
 20
73.534727
 30
0.0
 11
301.340797
 21
71.534717
 31
0.0
  0
LINE
  5
2e2
100
AcDbEntity
  8
Calque_1
 62
1
100
AcDbLine
 10
301.340797
 20
71.534717
 30
0.0
 11
284.711633
 21
100.337280
 31
0.0
  0
LINE
  5
2e3
100
AcDbEntity
  8
Calque_1
 62
1
100
AcDbLine
 10
334.711633
 20
13.734734
 30
0.0
 11
318.082466
 21
42.537295
 31
0.0
  0
ENDSEC
  0
SECTION
  2
OBJECTS
  0
DICTIONARY
  5
C
330
0
100
AcDbDictionary
  3
ACAD_GROUP
350
D
  3
ACAD_MLINESTYLE
350
17
  0
DICTIONARY
  5
D
330
C
100
AcDbDictionary
  0
DICTIONARY
  5
1A
330
C
100
AcDbDictionary
  0
DICTIONARY
  5
17
330
C
100
AcDbDictionary
  3
STANDARD
350
18
  0
DICTIONARY
  5
19
330
C
100
AcDbDictionary
  0
ENDSEC
  0
EOF
