  0
SECTION
  2
HEADER
  9
$ACADVER
  1
AC1014
  9
$HANDSEED
  5
FFFF
  9
$MEASUREMENT
 70
     1
  0
ENDSEC
  0
SECTION
  2
TABLES
  0
TABLE
  2
VPORT
  5
8
330
0
100
AcDbSymbolTable
 70
     4
  0
VPORT
  5
2E
330
8
100
AcDbSymbolTableRecord
100
AcDbViewportTableRecord
  2
*ACTIVE
 70
     0
 10
0.0
 20
0.0
 11
1.0
 21
1.0
 12
210.0
 22
148.5
 13
0.0
 23
0.0
 14
10.0
 24
10.0
 15
10.0
 25
10.0
 16
0.0
 26
0.0
 36
1.0
 17
0.0
 27
0.0
 37
0.0
 40
341.0
 41
1.24
 42
50.0
 43
0.0
 44
0.0
 50
0.0
 51
0.0
 71
     0
 72
   100
 73
     1
 74
     3
 75
     0
 76
     0
 77
     0
 78
     0
  0
ENDTAB
  0
TABLE
  2
LTYPE
  5
5
330
0
100
AcDbSymbolTable
 70
     1
  0
LTYPE
  5
14
330
5
100
AcDbSymbolTableRecord
100
AcDbLinetypeTableRecord
  2
BYBLOCK
 70
     0
  3

 72
    65
 73
     0
 40
0.0
  0
LTYPE
  5
15
330
5
100
AcDbSymbolTableRecord
100
AcDbLinetypeTableRecord
  2
BYLAYER
 70
     0
  3

 72
    65
 73
     0
 40
0.0
  0
LTYPE
  5
16
330
5
100
AcDbSymbolTableRecord
100
AcDbLinetypeTableRecord
  2
CONTINUOUS
 70
     0
  3
Solid line
 72
    65
 73
     0
 40
0.0
  0
ENDTAB
  0
TABLE
  2
LAYER
  5
2
100
AcDbSymbolTable
 70
2
  0
LAYER
  5
50
100
AcDbSymbolTableRecord
100
AcDbLayerTableRecord
  2
0
 70
0
  6
CONTINUOUS
  0
LAYER
  5
51
100
AcDbSymbolTableRecord
100
AcDbLayerTableRecord
  2
Calque_1
 70
0
  6
CONTINUOUS
  0
ENDTAB
  0
TABLE
  2
STYLE
  5
3
330
0
100
AcDbSymbolTable
 70
     1
  0
STYLE
  5
11
330
3
100
AcDbSymbolTableRecord
100
AcDbTextStyleTableRecord
  2
STANDARD
 70
     0
 40
0.0
 41
1.0
 50
0.0
 71
     0
 42
2.5
  3
txt
  4

  0
ENDTAB
  0
TABLE
  2
VIEW
  5
6
330
0
100
AcDbSymbolTable
 70
     0
  0
ENDTAB
  0
TABLE
  2
UCS
  5
7
330
0
100
AcDbSymbolTable
 70
     0
  0
ENDTAB
  0
TABLE
  2
APPID
  5
9
330
0
100
AcDbSymbolTable
 70
     2
  0
APPID
  5
12
330
9
100
AcDbSymbolTableRecord
100
AcDbRegAppTableRecord
  2
ACAD
 70
     0
  0
ENDTAB
  0
TABLE
  2
DIMSTYLE
  5
A
330
0
100
AcDbSymbolTable
 70
     1
  0
DIMSTYLE
105
27
330
A
100
AcDbSymbolTableRecord
100
AcDbDimStyleTableRecord
  2
ISO-25
 70
     0
  3

  4

  5

  6

  7

 40
1.0
 41
2.5
 42
0.625
 43
3.75
 44
1.25
 45
0.0
 46
0.0
 47
0.0
 48
0.0
140
2.5
141
2.5
142
0.0
143
0.03937007874016
144
1.0
145
0.0
146
1.0
147
0.625
 71
     0
 72
     0
 73
     0
 74
     0
 75
     0
 76
     0
 77
     1
 78
     8
170
     0
171
     3
172
     1
173
     0
174
     0
175
     0
176
     0
177
     0
178
     0
270
     2
271
     2
272
     2
273
     2
274
     3
340
11
275
     0
280
     0
281
     0
282
     0
283
     0
284
     8
285
     0
286
     0
287
     3
288
     0
  0
ENDTAB
  0
TABLE
  2
BLOCK_RECORD
  5
1
330
0
100
AcDbSymbolTable
 70
     1
  0
BLOCK_RECORD
  5
1F
330
1
100
AcDbSymbolTableRecord
100
AcDbBlockTableRecord
  2
*MODEL_SPACE
  0
BLOCK_RECORD
  5
1B
330
1
100
AcDbSymbolTableRecord
100
AcDbBlockTableRecord
  2
*PAPER_SPACE
  0
ENDTAB
  0
ENDSEC
  0
SECTION
  2
BLOCKS
  0
BLOCK
  5
20
330
1F
100
AcDbEntity
  8
0
100
AcDbBlockBegin
  2
*MODEL_SPACE
 70
     0
 10
0.0
 20
0.0
 30
0.0
  3
*MODEL_SPACE
  1

  0
ENDBLK
  5
21
330
1F
100
AcDbEntity
  8
0
100
AcDbBlockEnd
  0
BLOCK
  5
1C
330
1B
100
AcDbEntity
 67
     1
  8
0
100
AcDbBlockBegin
  2
*PAPER_SPACE
  1

  0
ENDBLK
  5
1D
330
1B
100
AcDbEntity
 67
     1
  8
0
100
AcDbBlockEnd
  0
ENDSEC
  0
SECTION
  2
ENTITIES
  0
LINE
  5
100
100
AcDbEntity
  8
Calque_1
 62
6
100
AcDbLine
 10
25.845515
 20
284.890622
 30
0.0
 11
15.939479
 21
286.864399
 31
0.0
  0
LINE
  5
101
100
AcDbEntity
  8
Calque_1
 62
6
100
AcDbLine
 10
15.939479
 20
286.864399
 30
0.0
 11
22.601838
 21
294.456389
 31
0.0
  0
LINE
  5
102
100
AcDbEntity
  8
Calque_1
 62
6
100
AcDbLine
 10
22.601838
 20
294.456389
 30
0.0
 11
25.845515
 21
284.890622
 31
0.0
  0
LINE
  5
103
100
AcDbEntity
  8
Calque_1
 62
5
100
AcDbLine
 10
25.845515
 20
273.037289
 30
0.0
 11
15.939479
 21
275.011065
 31
0.0
  0
LINE
  5
104
100
AcDbEntity
  8
Calque_1
 62
5
100
AcDbLine
 10
15.939479
 20
275.011065
 30
0.0
 11
22.601838
 21
282.603056
 31
0.0
  0
LINE
  5
105
100
AcDbEntity
  8
Calque_1
 62
5
100
AcDbLine
 10
22.601838
 20
282.603056
 30
0.0
 11
25.845515
 21
273.037289
 31
0.0
  0
LINE
  5
106
100
AcDbEntity
  8
Calque_1
 62
3
100
AcDbLine
 10
25.845515
 20
262.312843
 30
0.0
 11
15.939479
 21
264.286620
 31
0.0
  0
LINE
  5
107
100
AcDbEntity
  8
Calque_1
 62
3
100
AcDbLine
 10
15.939479
 20
264.286620
 30
0.0
 11
22.601838
 21
271.878611
 31
0.0
  0
LINE
  5
108
100
AcDbEntity
  8
Calque_1
 62
3
100
AcDbLine
 10
22.601838
 20
271.878611
 30
0.0
 11
25.845515
 21
262.312843
 31
0.0
  0
LINE
  5
109
100
AcDbEntity
  8
Calque_1
 62
7
100
AcDbLine
 10
35.319809
 20
288.093907
 30
0.0
 11
34.337955
 21
290.665671
 31
0.0
  0
LINE
  5
10a
100
AcDbEntity
  8
Calque_1
 62
7
100
AcDbLine
 10
34.337955
 20
290.665671
 30
0.0
 11
34.701412
 21
290.665671
 31
0.0
  0
LINE
  5
10b
100
AcDbEntity
  8
Calque_1
 62
7
100
AcDbLine
 10
34.701412
 20
290.665671
 30
0.0
 11
35.516179
 21
288.500429
 31
0.0
  0
LINE
  5
10c
100
AcDbEntity
  8
Calque_1
 62
7
100
AcDbLine
 10
35.516179
 20
288.500429
 30
0.0
 11
36.332665
 21
290.665671
 31
0.0
  0
LINE
  5
10d
100
AcDbEntity
  8
Calque_1
 62
7
100
AcDbLine
 10
36.332665
 20
290.665671
 30
0.0
 11
36.694401
 21
290.665671
 31
0.0
  0
LINE
  5
10e
100
AcDbEntity
  8
Calque_1
 62
7
100
AcDbLine
 10
36.694401
 20
290.665671
 30
0.0
 11
35.714271
 21
288.093907
 31
0.0
  0
LINE
  5
10f
100
AcDbEntity
  8
Calque_1
 62
7
100
AcDbLine
 10
35.714271
 20
288.093907
 30
0.0
 11
35.319809
 21
288.093907
 31
0.0
  0
LINE
  5
110
100
AcDbEntity
  8
Calque_1
 62
7
100
AcDbLine
 10
35.319809
 20
288.093907
 30
0.0
 11
35.319809
 21
288.093907
 31
0.0
  0
LINE
  5
111
100
AcDbEntity
  8
Calque_1
 62
7
100
AcDbLine
 10
36.845985
 20
288.531435
 30
0.0
 11
37.209442
 21
288.531435
 31
0.0
  0
LINE
  5
112
100
AcDbEntity
  8
Calque_1
 62
7
100
AcDbLine
 10
37.209442
 20
288.531435
 30
0.0
 11
37.209442
 21
288.093907
 31
0.0
  0
LINE
  5
113
100
AcDbEntity
  8
Calque_1
 62
7
100
AcDbLine
 10
37.209442
 20
288.093907
 30
0.0
 11
36.845985
 21
288.093907
 31
0.0
  0
LINE
  5
114
100
AcDbEntity
  8
Calque_1
 62
7
100
AcDbLine
 10
36.845985
 20
288.093907
 30
0.0
 11
36.845985
 21
288.531435
 31
0.0
  0
LINE
  5
115
100
AcDbEntity
  8
Calque_1
 62
7
100
AcDbLine
 10
36.845985
 20
288.531435
 30
0.0
 11
36.845985
 21
288.531435
 31
0.0
  0
LINE
  5
116
100
AcDbEntity
  8
Calque_1
 62
7
100
AcDbLine
 10
36.845985
 20
289.918085
 30
0.0
 11
37.209442
 21
289.918085
 31
0.0
  0
LINE
  5
117
100
AcDbEntity
  8
Calque_1
 62
7
100
AcDbLine
 10
37.209442
 20
289.918085
 30
0.0
 11
37.209442
 21
289.480558
 31
0.0
  0
LINE
  5
118
100
AcDbEntity
  8
Calque_1
 62
7
100
AcDbLine
 10
37.209442
 20
289.480558
 30
0.0
 11
36.845985
 21
289.480558
 31
0.0
  0
LINE
  5
119
100
AcDbEntity
  8
Calque_1
 62
7
100
AcDbLine
 10
36.845985
 20
289.480558
 30
0.0
 11
36.845985
 21
289.918085
 31
0.0
  0
LINE
  5
11a
100
AcDbEntity
  8
Calque_1
 62
7
100
AcDbLine
 10
36.845985
 20
289.918085
 30
0.0
 11
36.845985
 21
289.918085
 31
0.0
  0
LINE
  5
11b
100
AcDbEntity
  8
Calque_1
 62
7
100
AcDbLine
 10
38.301538
 20
288.386741
 30
0.0
 11
39.515934
 21
288.386741
 31
0.0
  0
LINE
  5
11c
100
AcDbEntity
  8
Calque_1
 62
7
100
AcDbLine
 10
39.515934
 20
288.386741
 30
0.0
 11
39.515934
 21
288.093907
 31
0.0
  0
LINE
  5
11d
100
AcDbEntity
  8
Calque_1
 62
7
100
AcDbLine
 10
39.515934
 20
288.093907
 30
0.0
 11
37.882960
 21
288.093907
 31
0.0
  0
LINE
  5
11e
100
AcDbEntity
  8
Calque_1
 62
7
100
AcDbLine
 10
37.882960
 20
288.093907
 30
0.0
 11
37.882960
 21
288.386741
 31
0.0
  0
SPLINE
  5
11f
100
AcDbEntity
  8
Calque_1
 62
7
100
AcDbSpline
 70
8
 71
3
 72
8
 73
4
 74
0
 40
0
 40
0
 40
0
 40
0
 40
1
 40
1
 40
1
 40
1
 10
37.882960
 20
288.386741
 30
0.0
 10
38.015021
 20
288.523396
 30
0.0
 10
38.194740
 20
288.706560
 30
0.0
 10
38.422117
 20
288.936233
 30
0.0
  0
SPLINE
  5
120
100
AcDbEntity
  8
Calque_1
 62
7
100
AcDbSpline
 70
8
 71
3
 72
8
 73
4
 74
0
 40
0
 40
0
 40
0
 40
0
 40
1
 40
1
 40
1
 40
1
 10
38.422117
 20
288.936233
 30
0.0
 10
38.650642
 20
289.167055
 30
0.0
 10
38.794188
 20
289.315768
 30
0.0
 10
38.852754
 20
289.382373
 30
0.0
  0
SPLINE
  5
121
100
AcDbEntity
  8
Calque_1
 62
7
100
AcDbSpline
 70
8
 71
3
 72
8
 73
4
 74
0
 40
0
 40
0
 40
0
 40
0
 40
1
 40
1
 40
1
 40
1
 10
38.852754
 20
289.382373
 30
0.0
 10
38.964146
 20
289.507545
 30
0.0
 10
39.041660
 20
289.613195
 30
0.0
 10
39.085297
 20
289.699322
 30
0.0
  0
SPLINE
  5
122
100
AcDbEntity
  8
Calque_1
 62
7
100
AcDbSpline
 70
8
 71
3
 72
8
 73
4
 74
0
 40
0
 40
0
 40
0
 40
0
 40
1
 40
1
 40
1
 40
1
 10
39.085297
 20
289.699322
 30
0.0
 10
39.130084
 20
289.786598
 30
0.0
 10
39.152477
 20
289.872151
 30
0.0
 10
39.152477
 20
289.955982
 30
0.0
  0
SPLINE
  5
123
100
AcDbEntity
  8
Calque_1
 62
7
100
AcDbSpline
 70
8
 71
3
 72
8
 73
4
 74
0
 40
0
 40
0
 40
0
 40
0
 40
1
 40
1
 40
1
 40
1
 10
39.152477
 20
289.955982
 30
0.0
 10
39.152477
 20
290.092637
 30
0.0
 10
39.104245
 20
290.204028
 30
0.0
 10
39.007782
 20
290.290156
 30
0.0
  0
SPLINE
  5
124
100
AcDbEntity
  8
Calque_1
 62
7
100
AcDbSpline
 70
8
 71
3
 72
8
 73
4
 74
0
 40
0
 40
0
 40
0
 40
0
 40
1
 40
1
 40
1
 40
1
 10
39.007782
 20
290.290156
 30
0.0
 10
38.912468
 20
290.376283
 30
0.0
 10
38.787871
 20
290.419347
 30
0.0
 10
38.633990
 20
290.419347
 30
0.0
  0
SPLINE
  5
125
100
AcDbEntity
  8
Calque_1
 62
7
100
AcDbSpline
 70
8
 71
3
 72
8
 73
4
 74
0
 40
0
 40
0
 40
0
 40
0
 40
1
 40
1
 40
1
 40
1
 10
38.633990
 20
290.419347
 30
0.0
 10
38.524896
 20
290.419347
 30
0.0
 10
38.409485
 20
290.400399
 30
0.0
 10
38.287757
 20
290.362503
 30
0.0
  0
SPLINE
  5
126
100
AcDbEntity
  8
Calque_1
 62
7
100
AcDbSpline
 70
8
 71
3
 72
8
 73
4
 74
0
 40
0
 40
0
 40
0
 40
0
 40
1
 40
1
 40
1
 40
1
 10
38.287757
 20
290.362503
 30
0.0
 10
38.167178
 20
290.324607
 30
0.0
 10
38.037987
 20
290.267189
 30
0.0
 10
37.900184
 20
290.190248
 30
0.0
  0
LINE
  5
127
100
AcDbEntity
  8
Calque_1
 62
7
100
AcDbLine
 10
37.900184
 20
290.190248
 30
0.0
 11
37.900184
 21
290.541648
 31
0.0
  0
SPLINE
  5
128
100
AcDbEntity
  8
Calque_1
 62
7
100
AcDbSpline
 70
8
 71
3
 72
8
 73
4
 74
0
 40
0
 40
0
 40
0
 40
0
 40
1
 40
1
 40
1
 40
1
 10
37.900184
 20
290.541648
 30
0.0
 10
38.040285
 20
290.597918
 30
0.0
 10
38.171198
 20
290.640407
 30
0.0
 10
38.292924
 20
290.669116
 30
0.0
  0
SPLINE
  5
129
100
AcDbEntity
  8
Calque_1
 62
7
100
AcDbSpline
 70
8
 71
3
 72
8
 73
4
 74
0
 40
0
 40
0
 40
0
 40
0
 40
1
 40
1
 40
1
 40
1
 10
38.292924
 20
290.669116
 30
0.0
 10
38.414652
 20
290.697825
 30
0.0
 10
38.526045
 20
290.712180
 30
0.0
 10
38.627101
 20
290.712180
 30
0.0
  0
SPLINE
  5
12a
100
AcDbEntity
  8
Calque_1
 62
7
100
AcDbSpline
 70
8
 71
3
 72
8
 73
4
 74
0
 40
0
 40
0
 40
0
 40
0
 40
1
 40
1
 40
1
 40
1
 10
38.627101
 20
290.712180
 30
0.0
 10
38.893520
 20
290.712180
 30
0.0
 10
39.105968
 20
290.645575
 30
0.0
 10
39.264443
 20
290.512364
 30
0.0
  0
SPLINE
  5
12b
100
AcDbEntity
  8
Calque_1
 62
7
100
AcDbSpline
 70
8
 71
3
 72
8
 73
4
 74
0
 40
0
 40
0
 40
0
 40
0
 40
1
 40
1
 40
1
 40
1
 10
39.264443
 20
290.512364
 30
0.0
 10
39.422917
 20
290.379154
 30
0.0
 10
39.502153
 20
290.201157
 30
0.0
 10
39.502153
 20
289.978375
 30
0.0
  0
SPLINE
  5
12c
100
AcDbEntity
  8
Calque_1
 62
7
100
AcDbSpline
 70
8
 71
3
 72
8
 73
4
 74
0
 40
0
 40
0
 40
0
 40
0
 40
1
 40
1
 40
1
 40
1
 10
39.502153
 20
289.978375
 30
0.0
 10
39.502153
 20
289.872725
 30
0.0
 10
39.482057
 20
289.772243
 30
0.0
 10
39.441865
 20
289.676929
 30
0.0
  0
SPLINE
  5
12d
100
AcDbEntity
  8
Calque_1
 62
7
100
AcDbSpline
 70
8
 71
3
 72
8
 73
4
 74
0
 40
0
 40
0
 40
0
 40
0
 40
1
 40
1
 40
1
 40
1
 10
39.441865
 20
289.676929
 30
0.0
 10
39.402821
 20
289.582763
 30
0.0
 10
39.331048
 20
289.471372
 30
0.0
 10
39.226546
 20
289.342755
 30
0.0
  0
SPLINE
  5
12e
100
AcDbEntity
  8
Calque_1
 62
7
100
AcDbSpline
 70
8
 71
3
 72
8
 73
4
 74
0
 40
0
 40
0
 40
0
 40
0
 40
1
 40
1
 40
1
 40
1
 10
39.226546
 20
289.342755
 30
0.0
 10
39.197837
 20
289.309452
 30
0.0
 10
39.106542
 20
289.212989
 30
0.0
 10
38.952661
 20
289.053366
 30
0.0
  0
SPLINE
  5
12f
100
AcDbEntity
  8
Calque_1
 62
7
100
AcDbSpline
 70
8
 71
3
 72
8
 73
4
 74
0
 40
0
 40
0
 40
0
 40
0
 40
1
 40
1
 40
1
 40
1
 10
38.952661
 20
289.053366
 30
0.0
 10
38.798780
 20
288.894892
 30
0.0
 10
38.581739
 20
288.672683
 30
0.0
 10
38.301538
 20
288.386741
 30
0.0
  0
LINE
  5
130
100
AcDbEntity
  8
Calque_1
 62
7
100
AcDbLine
 10
38.301538
 20
288.386741
 30
0.0
 11
38.301538
 21
288.386741
 31
0.0
  0
SPLINE
  5
131
100
AcDbEntity
  8
Calque_1
 62
7
100
AcDbSpline
 70
8
 71
3
 72
8
 73
4
 74
0
 40
0
 40
0
 40
0
 40
0
 40
1
 40
1
 40
1
 40
1
 10
40.992157
 20
290.436572
 30
0.0
 10
40.813012
 20
290.436572
 30
0.0
 10
40.678079
 20
290.348148
 30
0.0
 10
40.587360
 20
290.171300
 30
0.0
  0
SPLINE
  5
132
100
AcDbEntity
  8
Calque_1
 62
7
100
AcDbSpline
 70
8
 71
3
 72
8
 73
4
 74
0
 40
0
 40
0
 40
0
 40
0
 40
1
 40
1
 40
1
 40
1
 10
40.587360
 20
290.171300
 30
0.0
 10
40.497786
 20
289.995600
 30
0.0
 10
40.453000
 20
289.730902
 30
0.0
 10
40.453000
 20
289.377205
 30
0.0
  0
SPLINE
  5
133
100
AcDbEntity
  8
Calque_1
 62
7
100
AcDbSpline
 70
8
 71
3
 72
8
 73
4
 74
0
 40
0
 40
0
 40
0
 40
0
 40
1
 40
1
 40
1
 40
1
 10
40.453000
 20
289.377205
 30
0.0
 10
40.453000
 20
289.024657
 30
0.0
 10
40.497786
 20
288.759959
 30
0.0
 10
40.587360
 20
288.583111
 30
0.0
  0
SPLINE
  5
134
100
AcDbEntity
  8
Calque_1
 62
7
100
AcDbSpline
 70
8
 71
3
 72
8
 73
4
 74
0
 40
0
 40
0
 40
0
 40
0
 40
1
 40
1
 40
1
 40
1
 10
40.587360
 20
288.583111
 30
0.0
 10
40.678079
 20
288.407411
 30
0.0
 10
40.813012
 20
288.319561
 30
0.0
 10
40.992157
 20
288.319561
 30
0.0
  0
SPLINE
  5
135
100
AcDbEntity
  8
Calque_1
 62
7
100
AcDbSpline
 70
8
 71
3
 72
8
 73
4
 74
0
 40
0
 40
0
 40
0
 40
0
 40
1
 40
1
 40
1
 40
1
 10
40.992157
 20
288.319561
 30
0.0
 10
41.172450
 20
288.319561
 30
0.0
 10
41.307383
 20
288.407411
 30
0.0
 10
41.396957
 20
288.583111
 30
0.0
  0
SPLINE
  5
136
100
AcDbEntity
  8
Calque_1
 62
7
100
AcDbSpline
 70
8
 71
3
 72
8
 73
4
 74
0
 40
0
 40
0
 40
0
 40
0
 40
1
 40
1
 40
1
 40
1
 10
41.396957
 20
288.583111
 30
0.0
 10
41.487678
 20
288.759959
 30
0.0
 10
41.533039
 20
289.024657
 30
0.0
 10
41.533039
 20
289.377205
 30
0.0
  0
SPLINE
  5
137
100
AcDbEntity
  8
Calque_1
 62
7
100
AcDbSpline
 70
8
 71
3
 72
8
 73
4
 74
0
 40
0
 40
0
 40
0
 40
0
 40
1
 40
1
 40
1
 40
1
 10
41.533039
 20
289.377205
 30
0.0
 10
41.533039
 20
289.730902
 30
0.0
 10
41.487678
 20
289.995600
 30
0.0
 10
41.396957
 20
290.171300
 30
0.0
  0
SPLINE
  5
138
100
AcDbEntity
  8
Calque_1
 62
7
100
AcDbSpline
 70
8
 71
3
 72
8
 73
4
 74
0
 40
0
 40
0
 40
0
 40
0
 40
1
 40
1
 40
1
 40
1
 10
41.396957
 20
290.171300
 30
0.0
 10
41.307383
 20
290.348148
 30
0.0
 10
41.172450
 20
290.436572
 30
0.0
 10
40.992157
 20
290.436572
 30
0.0
  0
LINE
  5
139
100
AcDbEntity
  8
Calque_1
 62
7
100
AcDbLine
 10
40.992157
 20
290.436572
 30
0.0
 11
40.992157
 21
290.436572
 31
0.0
  0
SPLINE
  5
13a
100
AcDbEntity
  8
Calque_1
 62
7
100
AcDbSpline
 70
8
 71
3
 72
8
 73
4
 74
0
 40
0
 40
0
 40
0
 40
0
 40
1
 40
1
 40
1
 40
1
 10
40.992157
 20
290.712180
 30
0.0
 10
41.280398
 20
290.712180
 30
0.0
 10
41.500310
 20
290.597918
 30
0.0
 10
41.651894
 20
290.369393
 30
0.0
  0
SPLINE
  5
13b
100
AcDbEntity
  8
Calque_1
 62
7
100
AcDbSpline
 70
8
 71
3
 72
8
 73
4
 74
0
 40
0
 40
0
 40
0
 40
0
 40
1
 40
1
 40
1
 40
1
 10
41.651894
 20
290.369393
 30
0.0
 10
41.804627
 20
290.142017
 30
0.0
 10
41.880993
 20
289.811287
 30
0.0
 10
41.880993
 20
289.377205
 30
0.0
  0
SPLINE
  5
13c
100
AcDbEntity
  8
Calque_1
 62
7
100
AcDbSpline
 70
8
 71
3
 72
8
 73
4
 74
0
 40
0
 40
0
 40
0
 40
0
 40
1
 40
1
 40
1
 40
1
 10
41.880993
 20
289.377205
 30
0.0
 10
41.880993
 20
288.944272
 30
0.0
 10
41.804627
 20
288.613543
 30
0.0
 10
41.651894
 20
288.385018
 30
0.0
  0
SPLINE
  5
13d
100
AcDbEntity
  8
Calque_1
 62
7
100
AcDbSpline
 70
8
 71
3
 72
8
 73
4
 74
0
 40
0
 40
0
 40
0
 40
0
 40
1
 40
1
 40
1
 40
1
 10
41.651894
 20
288.385018
 30
0.0
 10
41.500310
 20
288.157642
 30
0.0
 10
41.280398
 20
288.043954
 30
0.0
 10
40.992157
 20
288.043954
 30
0.0
  0
SPLINE
  5
13e
100
AcDbEntity
  8
Calque_1
 62
7
100
AcDbSpline
 70
8
 71
3
 72
8
 73
4
 74
0
 40
0
 40
0
 40
0
 40
0
 40
1
 40
1
 40
1
 40
1
 10
40.992157
 20
288.043954
 30
0.0
 10
40.703918
 20
288.043954
 30
0.0
 10
40.483432
 20
288.157642
 30
0.0
 10
40.330699
 20
288.385018
 30
0.0
  0
SPLINE
  5
13f
100
AcDbEntity
  8
Calque_1
 62
7
100
AcDbSpline
 70
8
 71
3
 72
8
 73
4
 74
0
 40
0
 40
0
 40
0
 40
0
 40
1
 40
1
 40
1
 40
1
 10
40.330699
 20
288.385018
 30
0.0
 10
40.179115
 20
288.613543
 30
0.0
 10
40.103323
 20
288.944272
 30
0.0
 10
40.103323
 20
289.377205
 30
0.0
  0
SPLINE
  5
140
100
AcDbEntity
  8
Calque_1
 62
7
100
AcDbSpline
 70
8
 71
3
 72
8
 73
4
 74
0
 40
0
 40
0
 40
0
 40
0
 40
1
 40
1
 40
1
 40
1
 10
40.103323
 20
289.377205
 30
0.0
 10
40.103323
 20
289.811287
 30
0.0
 10
40.179115
 20
290.142017
 30
0.0
 10
40.330699
 20
290.369393
 30
0.0
  0
SPLINE
  5
141
100
AcDbEntity
  8
Calque_1
 62
7
100
AcDbSpline
 70
8
 71
3
 72
8
 73
4
 74
0
 40
0
 40
0
 40
0
 40
0
 40
1
 40
1
 40
1
 40
1
 10
40.330699
 20
290.369393
 30
0.0
 10
40.483432
 20
290.597918
 30
0.0
 10
40.703918
 20
290.712180
 30
0.0
 10
40.992157
 20
290.712180
 30
0.0
  0
LINE
  5
142
100
AcDbEntity
  8
Calque_1
 62
7
100
AcDbLine
 10
40.992157
 20
290.712180
 30
0.0
 11
40.992157
 21
290.712180
 31
0.0
  0
LINE
  5
143
100
AcDbEntity
  8
Calque_1
 62
7
100
AcDbLine
 10
43.934270
 20
290.379728
 30
0.0
 11
43.934270
 21
289.413379
 31
0.0
  0
LINE
  5
144
100
AcDbEntity
  8
Calque_1
 62
7
100
AcDbLine
 10
43.934270
 20
289.413379
 30
0.0
 11
44.371796
 21
289.413379
 31
0.0
  0
SPLINE
  5
145
100
AcDbEntity
  8
Calque_1
 62
7
100
AcDbSpline
 70
8
 71
3
 72
8
 73
4
 74
0
 40
0
 40
0
 40
0
 40
0
 40
1
 40
1
 40
1
 40
1
 10
44.371796
 20
289.413379
 30
0.0
 10
44.533717
 20
289.413379
 30
0.0
 10
44.658889
 20
289.455294
 30
0.0
 10
44.747313
 20
289.539125
 30
0.0
  0
SPLINE
  5
146
100
AcDbEntity
  8
Calque_1
 62
7
100
AcDbSpline
 70
8
 71
3
 72
8
 73
4
 74
0
 40
0
 40
0
 40
0
 40
0
 40
1
 40
1
 40
1
 40
1
 10
44.747313
 20
289.539125
 30
0.0
 10
44.835737
 20
289.622956
 30
0.0
 10
44.879949
 20
289.742386
 30
0.0
 10
44.879949
 20
289.897415
 30
0.0
  0
SPLINE
  5
147
100
AcDbEntity
  8
Calque_1
 62
7
100
AcDbSpline
 70
8
 71
3
 72
8
 73
4
 74
0
 40
0
 40
0
 40
0
 40
0
 40
1
 40
1
 40
1
 40
1
 10
44.879949
 20
289.897415
 30
0.0
 10
44.879949
 20
290.051296
 30
0.0
 10
44.835737
 20
290.170152
 30
0.0
 10
44.747313
 20
290.253982
 30
0.0
  0
SPLINE
  5
148
100
AcDbEntity
  8
Calque_1
 62
7
100
AcDbSpline
 70
8
 71
3
 72
8
 73
4
 74
0
 40
0
 40
0
 40
0
 40
0
 40
1
 40
1
 40
1
 40
1
 10
44.747313
 20
290.253982
 30
0.0
 10
44.658889
 20
290.337813
 30
0.0
 10
44.533717
 20
290.379728
 30
0.0
 10
44.371796
 20
290.379728
 30
0.0
  0
LINE
  5
149
100
AcDbEntity
  8
Calque_1
 62
7
100
AcDbLine
 10
44.371796
 20
290.379728
 30
0.0
 11
43.934270
 21
290.379728
 31
0.0
  0
LINE
  5
14a
100
AcDbEntity
  8
Calque_1
 62
7
100
AcDbLine
 10
43.934270
 20
290.379728
 30
0.0
 11
43.934270
 21
290.379728
 31
0.0
  0
LINE
  5
14b
100
AcDbEntity
  8
Calque_1
 62
7
100
AcDbLine
 10
43.586315
 20
290.665671
 30
0.0
 11
44.371796
 21
290.665671
 31
0.0
  0
SPLINE
  5
14c
100
AcDbEntity
  8
Calque_1
 62
7
100
AcDbSpline
 70
8
 71
3
 72
8
 73
4
 74
0
 40
0
 40
0
 40
0
 40
0
 40
1
 40
1
 40
1
 40
1
 10
44.371796
 20
290.665671
 30
0.0
 10
44.660035
 20
290.665671
 30
0.0
 10
44.877650
 20
290.600214
 30
0.0
 10
45.024641
 20
290.469301
 30
0.0
  0
SPLINE
  5
14d
100
AcDbEntity
  8
Calque_1
 62
7
100
AcDbSpline
 70
8
 71
3
 72
8
 73
4
 74
0
 40
0
 40
0
 40
0
 40
0
 40
1
 40
1
 40
1
 40
1
 10
45.024641
 20
290.469301
 30
0.0
 10
45.172781
 20
290.339536
 30
0.0
 10
45.246852
 20
290.148907
 30
0.0
 10
45.246852
 20
289.897415
 30
0.0
  0
SPLINE
  5
14e
100
AcDbEntity
  8
Calque_1
 62
7
100
AcDbSpline
 70
8
 71
3
 72
8
 73
4
 74
0
 40
0
 40
0
 40
0
 40
0
 40
1
 40
1
 40
1
 40
1
 10
45.246852
 20
289.897415
 30
0.0
 10
45.246852
 20
289.643626
 30
0.0
 10
45.172781
 20
289.451849
 30
0.0
 10
45.024641
 20
289.322084
 30
0.0
  0
SPLINE
  5
14f
100
AcDbEntity
  8
Calque_1
 62
7
100
AcDbSpline
 70
8
 71
3
 72
8
 73
4
 74
0
 40
0
 40
0
 40
0
 40
0
 40
1
 40
1
 40
1
 40
1
 10
45.024641
 20
289.322084
 30
0.0
 10
44.877650
 20
289.192319
 30
0.0
 10
44.660035
 20
289.127436
 30
0.0
 10
44.371796
 20
289.127436
 30
0.0
  0
LINE
  5
150
100
AcDbEntity
  8
Calque_1
 62
7
100
AcDbLine
 10
44.371796
 20
289.127436
 30
0.0
 11
43.934270
 21
289.127436
 31
0.0
  0
LINE
  5
151
100
AcDbEntity
  8
Calque_1
 62
7
100
AcDbLine
 10
43.934270
 20
289.127436
 30
0.0
 11
43.934270
 21
288.093907
 31
0.0
  0
LINE
  5
152
100
AcDbEntity
  8
Calque_1
 62
7
100
AcDbLine
 10
43.934270
 20
288.093907
 30
0.0
 11
43.586315
 21
288.093907
 31
0.0
  0
LINE
  5
153
100
AcDbEntity
  8
Calque_1
 62
7
100
AcDbLine
 10
43.586315
 20
288.093907
 30
0.0
 11
43.586315
 21
290.665671
 31
0.0
  0
LINE
  5
154
100
AcDbEntity
  8
Calque_1
 62
7
100
AcDbLine
 10
43.586315
 20
290.665671
 30
0.0
 11
43.586315
 21
290.665671
 31
0.0
  0
LINE
  5
155
100
AcDbEntity
  8
Calque_1
 62
7
100
AcDbLine
 10
45.782563
 20
288.531435
 30
0.0
 11
46.146020
 21
288.531435
 31
0.0
  0
LINE
  5
156
100
AcDbEntity
  8
Calque_1
 62
7
100
AcDbLine
 10
46.146020
 20
288.531435
 30
0.0
 11
46.146020
 21
288.093907
 31
0.0
  0
LINE
  5
157
100
AcDbEntity
  8
Calque_1
 62
7
100
AcDbLine
 10
46.146020
 20
288.093907
 30
0.0
 11
45.782563
 21
288.093907
 31
0.0
  0
LINE
  5
158
100
AcDbEntity
  8
Calque_1
 62
7
100
AcDbLine
 10
45.782563
 20
288.093907
 30
0.0
 11
45.782563
 21
288.531435
 31
0.0
  0
LINE
  5
159
100
AcDbEntity
  8
Calque_1
 62
7
100
AcDbLine
 10
45.782563
 20
288.531435
 30
0.0
 11
45.782563
 21
288.531435
 31
0.0
  0
LINE
  5
15a
100
AcDbEntity
  8
Calque_1
 62
7
100
AcDbLine
 10
45.782563
 20
289.918085
 30
0.0
 11
46.146020
 21
289.918085
 31
0.0
  0
LINE
  5
15b
100
AcDbEntity
  8
Calque_1
 62
7
100
AcDbLine
 10
46.146020
 20
289.918085
 30
0.0
 11
46.146020
 21
289.480558
 31
0.0
  0
LINE
  5
15c
100
AcDbEntity
  8
Calque_1
 62
7
100
AcDbLine
 10
46.146020
 20
289.480558
 30
0.0
 11
45.782563
 21
289.480558
 31
0.0
  0
LINE
  5
15d
100
AcDbEntity
  8
Calque_1
 62
7
100
AcDbLine
 10
45.782563
 20
289.480558
 30
0.0
 11
45.782563
 21
289.918085
 31
0.0
  0
LINE
  5
15e
100
AcDbEntity
  8
Calque_1
 62
7
100
AcDbLine
 10
45.782563
 20
289.918085
 30
0.0
 11
45.782563
 21
289.918085
 31
0.0
  0
LINE
  5
15f
100
AcDbEntity
  8
Calque_1
 62
7
100
AcDbLine
 10
46.941839
 20
290.665671
 30
0.0
 11
48.307817
 21
290.665671
 31
0.0
  0
LINE
  5
160
100
AcDbEntity
  8
Calque_1
 62
7
100
AcDbLine
 10
48.307817
 20
290.665671
 30
0.0
 11
48.307817
 21
290.372838
 31
0.0
  0
LINE
  5
161
100
AcDbEntity
  8
Calque_1
 62
7
100
AcDbLine
 10
48.307817
 20
290.372838
 30
0.0
 11
47.260510
 21
290.372838
 31
0.0
  0
LINE
  5
162
100
AcDbEntity
  8
Calque_1
 62
7
100
AcDbLine
 10
47.260510
 20
290.372838
 30
0.0
 11
47.260510
 21
289.742386
 31
0.0
  0
SPLINE
  5
163
100
AcDbEntity
  8
Calque_1
 62
7
100
AcDbSpline
 70
8
 71
3
 72
8
 73
4
 74
0
 40
0
 40
0
 40
0
 40
0
 40
1
 40
1
 40
1
 40
1
 10
47.260510
 20
289.742386
 30
0.0
 10
47.311037
 20
289.759611
 30
0.0
 10
47.361565
 20
289.772243
 30
0.0
 10
47.412094
 20
289.780282
 30
0.0
  0
SPLINE
  5
164
100
AcDbEntity
  8
Calque_1
 62
7
100
AcDbSpline
 70
8
 71
3
 72
8
 73
4
 74
0
 40
0
 40
0
 40
0
 40
0
 40
1
 40
1
 40
1
 40
1
 10
47.412094
 20
289.780282
 30
0.0
 10
47.462622
 20
289.789469
 30
0.0
 10
47.513149
 20
289.794063
 30
0.0
 10
47.563676
 20
289.794063
 30
0.0
  0
SPLINE
  5
165
100
AcDbEntity
  8
Calque_1
 62
7
100
AcDbSpline
 70
8
 71
3
 72
8
 73
4
 74
0
 40
0
 40
0
 40
0
 40
0
 40
1
 40
1
 40
1
 40
1
 10
47.563676
 20
289.794063
 30
0.0
 10
47.850767
 20
289.794063
 30
0.0
 10
48.078144
 20
289.715400
 30
0.0
 10
48.245807
 20
289.558074
 30
0.0
  0
SPLINE
  5
166
100
AcDbEntity
  8
Calque_1
 62
7
100
AcDbSpline
 70
8
 71
3
 72
8
 73
4
 74
0
 40
0
 40
0
 40
0
 40
0
 40
1
 40
1
 40
1
 40
1
 10
48.245807
 20
289.558074
 30
0.0
 10
48.413468
 20
289.400748
 30
0.0
 10
48.497298
 20
289.187726
 30
0.0
 10
48.497298
 20
288.919008
 30
0.0
  0
SPLINE
  5
167
100
AcDbEntity
  8
Calque_1
 62
7
100
AcDbSpline
 70
8
 71
3
 72
8
 73
4
 74
0
 40
0
 40
0
 40
0
 40
0
 40
1
 40
1
 40
1
 40
1
 10
48.497298
 20
288.919008
 30
0.0
 10
48.497298
 20
288.642252
 30
0.0
 10
48.411170
 20
288.426934
 30
0.0
 10
48.238915
 20
288.273053
 30
0.0
  0
SPLINE
  5
168
100
AcDbEntity
  8
Calque_1
 62
7
100
AcDbSpline
 70
8
 71
3
 72
8
 73
4
 74
0
 40
0
 40
0
 40
0
 40
0
 40
1
 40
1
 40
1
 40
1
 10
48.238915
 20
288.273053
 30
0.0
 10
48.066662
 20
288.120320
 30
0.0
 10
47.823783
 20
288.043954
 30
0.0
 10
47.510279
 20
288.043954
 30
0.0
  0
SPLINE
  5
169
100
AcDbEntity
  8
Calque_1
 62
7
100
AcDbSpline
 70
8
 71
3
 72
8
 73
4
 74
0
 40
0
 40
0
 40
0
 40
0
 40
1
 40
1
 40
1
 40
1
 10
47.510279
 20
288.043954
 30
0.0
 10
47.402333
 20
288.043954
 30
0.0
 10
47.292090
 20
288.053141
 30
0.0
 10
47.179549
 20
288.071516
 30
0.0
  0
SPLINE
  5
16a
100
AcDbEntity
  8
Calque_1
 62
7
100
AcDbSpline
 70
8
 71
3
 72
8
 73
4
 74
0
 40
0
 40
0
 40
0
 40
0
 40
1
 40
1
 40
1
 40
1
 10
47.179549
 20
288.071516
 30
0.0
 10
47.068158
 20
288.089890
 30
0.0
 10
46.952747
 20
288.117451
 30
0.0
 10
46.833316
 20
288.154198
 30
0.0
  0
LINE
  5
16b
100
AcDbEntity
  8
Calque_1
 62
7
100
AcDbLine
 10
46.833316
 20
288.154198
 30
0.0
 11
46.833316
 21
288.503875
 31
0.0
  0
SPLINE
  5
16c
100
AcDbEntity
  8
Calque_1
 62
7
100
AcDbSpline
 70
8
 71
3
 72
8
 73
4
 74
0
 40
0
 40
0
 40
0
 40
0
 40
1
 40
1
 40
1
 40
1
 10
46.833316
 20
288.503875
 30
0.0
 10
46.936669
 20
288.447605
 30
0.0
 10
47.043468
 20
288.405690
 30
0.0
 10
47.153711
 20
288.378129
 30
0.0
  0
SPLINE
  5
16d
100
AcDbEntity
  8
Calque_1
 62
7
100
AcDbSpline
 70
8
 71
3
 72
8
 73
4
 74
0
 40
0
 40
0
 40
0
 40
0
 40
1
 40
1
 40
1
 40
1
 10
47.153711
 20
288.378129
 30
0.0
 10
47.263955
 20
288.350568
 30
0.0
 10
47.380514
 20
288.336788
 30
0.0
 10
47.503388
 20
288.336788
 30
0.0
  0
SPLINE
  5
16e
100
AcDbEntity
  8
Calque_1
 62
7
100
AcDbSpline
 70
8
 71
3
 72
8
 73
4
 74
0
 40
0
 40
0
 40
0
 40
0
 40
1
 40
1
 40
1
 40
1
 10
47.503388
 20
288.336788
 30
0.0
 10
47.702055
 20
288.336788
 30
0.0
 10
47.859382
 20
288.389039
 30
0.0
 10
47.975368
 20
288.493540
 30
0.0
  0
SPLINE
  5
16f
100
AcDbEntity
  8
Calque_1
 62
7
100
AcDbSpline
 70
8
 71
3
 72
8
 73
4
 74
0
 40
0
 40
0
 40
0
 40
0
 40
1
 40
1
 40
1
 40
1
 10
47.975368
 20
288.493540
 30
0.0
 10
48.091352
 20
288.598041
 30
0.0
 10
48.149343
 20
288.739864
 30
0.0
 10
48.149343
 20
288.919009
 30
0.0
  0
SPLINE
  5
170
100
AcDbEntity
  8
Calque_1
 62
7
100
AcDbSpline
 70
8
 71
3
 72
8
 73
4
 74
0
 40
0
 40
0
 40
0
 40
0
 40
1
 40
1
 40
1
 40
1
 10
48.149343
 20
288.919009
 30
0.0
 10
48.149343
 20
289.098154
 30
0.0
 10
48.091352
 20
289.239977
 30
0.0
 10
47.975368
 20
289.344479
 30
0.0
  0
SPLINE
  5
171
100
AcDbEntity
  8
Calque_1
 62
7
100
AcDbSpline
 70
8
 71
3
 72
8
 73
4
 74
0
 40
0
 40
0
 40
0
 40
0
 40
1
 40
1
 40
1
 40
1
 10
47.975368
 20
289.344479
 30
0.0
 10
47.859382
 20
289.448980
 30
0.0
 10
47.702055
 20
289.501231
 30
0.0
 10
47.503388
 20
289.501231
 30
0.0
  0
SPLINE
  5
172
100
AcDbEntity
  8
Calque_1
 62
7
100
AcDbSpline
 70
8
 71
3
 72
8
 73
4
 74
0
 40
0
 40
0
 40
0
 40
0
 40
1
 40
1
 40
1
 40
1
 10
47.503388
 20
289.501231
 30
0.0
 10
47.410371
 20
289.501231
 30
0.0
 10
47.317353
 20
289.490895
 30
0.0
 10
47.224335
 20
289.470224
 30
0.0
  0
SPLINE
  5
173
100
AcDbEntity
  8
Calque_1
 62
7
100
AcDbSpline
 70
8
 71
3
 72
8
 73
4
 74
0
 40
0
 40
0
 40
0
 40
0
 40
1
 40
1
 40
1
 40
1
 10
47.224335
 20
289.470224
 30
0.0
 10
47.132466
 20
289.449554
 30
0.0
 10
47.038300
 20
289.417400
 30
0.0
 10
46.941839
 20
289.373762
 30
0.0
  0
LINE
  5
174
100
AcDbEntity
  8
Calque_1
 62
7
100
AcDbLine
 10
46.941839
 20
289.373762
 30
0.0
 11
46.941839
 21
290.665673
 31
0.0
  0
LINE
  5
175
100
AcDbEntity
  8
Calque_1
 62
7
100
AcDbLine
 10
46.941839
 20
290.665673
 30
0.0
 11
46.941839
 21
290.665671
 31
0.0
  0
SPLINE
  5
176
100
AcDbEntity
  8
Calque_1
 62
7
100
AcDbSpline
 70
8
 71
3
 72
8
 73
4
 74
0
 40
0
 40
0
 40
0
 40
0
 40
1
 40
1
 40
1
 40
1
 10
49.928735
 20
290.436572
 30
0.0
 10
49.749590
 20
290.436572
 30
0.0
 10
49.614657
 20
290.348148
 30
0.0
 10
49.523938
 20
290.171300
 30
0.0
  0
SPLINE
  5
177
100
AcDbEntity
  8
Calque_1
 62
7
100
AcDbSpline
 70
8
 71
3
 72
8
 73
4
 74
0
 40
0
 40
0
 40
0
 40
0
 40
1
 40
1
 40
1
 40
1
 10
49.523938
 20
290.171300
 30
0.0
 10
49.434364
 20
289.995600
 30
0.0
 10
49.389578
 20
289.730902
 30
0.0
 10
49.389578
 20
289.377205
 30
0.0
  0
SPLINE
  5
178
100
AcDbEntity
  8
Calque_1
 62
7
100
AcDbSpline
 70
8
 71
3
 72
8
 73
4
 74
0
 40
0
 40
0
 40
0
 40
0
 40
1
 40
1
 40
1
 40
1
 10
49.389578
 20
289.377205
 30
0.0
 10
49.389578
 20
289.024657
 30
0.0
 10
49.434364
 20
288.759959
 30
0.0
 10
49.523938
 20
288.583111
 30
0.0
  0
SPLINE
  5
179
100
AcDbEntity
  8
Calque_1
 62
7
100
AcDbSpline
 70
8
 71
3
 72
8
 73
4
 74
0
 40
0
 40
0
 40
0
 40
0
 40
1
 40
1
 40
1
 40
1
 10
49.523938
 20
288.583111
 30
0.0
 10
49.614657
 20
288.407411
 30
0.0
 10
49.749590
 20
288.319561
 30
0.0
 10
49.928735
 20
288.319561
 30
0.0
  0
SPLINE
  5
17a
100
AcDbEntity
  8
Calque_1
 62
7
100
AcDbSpline
 70
8
 71
3
 72
8
 73
4
 74
0
 40
0
 40
0
 40
0
 40
0
 40
1
 40
1
 40
1
 40
1
 10
49.928735
 20
288.319561
 30
0.0
 10
50.109028
 20
288.319561
 30
0.0
 10
50.243961
 20
288.407411
 30
0.0
 10
50.333535
 20
288.583111
 30
0.0
  0
SPLINE
  5
17b
100
AcDbEntity
  8
Calque_1
 62
7
100
AcDbSpline
 70
8
 71
3
 72
8
 73
4
 74
0
 40
0
 40
0
 40
0
 40
0
 40
1
 40
1
 40
1
 40
1
 10
50.333535
 20
288.583111
 30
0.0
 10
50.424256
 20
288.759959
 30
0.0
 10
50.469617
 20
289.024657
 30
0.0
 10
50.469617
 20
289.377205
 30
0.0
  0
SPLINE
  5
17c
100
AcDbEntity
  8
Calque_1
 62
7
100
AcDbSpline
 70
8
 71
3
 72
8
 73
4
 74
0
 40
0
 40
0
 40
0
 40
0
 40
1
 40
1
 40
1
 40
1
 10
50.469617
 20
289.377205
 30
0.0
 10
50.469617
 20
289.730902
 30
0.0
 10
50.424256
 20
289.995600
 30
0.0
 10
50.333535
 20
290.171300
 30
0.0
  0
SPLINE
  5
17d
100
AcDbEntity
  8
Calque_1
 62
7
100
AcDbSpline
 70
8
 71
3
 72
8
 73
4
 74
0
 40
0
 40
0
 40
0
 40
0
 40
1
 40
1
 40
1
 40
1
 10
50.333535
 20
290.171300
 30
0.0
 10
50.243961
 20
290.348148
 30
0.0
 10
50.109028
 20
290.436572
 30
0.0
 10
49.928735
 20
290.436572
 30
0.0
  0
LINE
  5
17e
100
AcDbEntity
  8
Calque_1
 62
7
100
AcDbLine
 10
49.928735
 20
290.436572
 30
0.0
 11
49.928735
 21
290.436572
 31
0.0
  0
SPLINE
  5
17f
100
AcDbEntity
  8
Calque_1
 62
7
100
AcDbSpline
 70
8
 71
3
 72
8
 73
4
 74
0
 40
0
 40
0
 40
0
 40
0
 40
1
 40
1
 40
1
 40
1
 10
49.928735
 20
290.712180
 30
0.0
 10
50.216974
 20
290.712180
 30
0.0
 10
50.436886
 20
290.597918
 30
0.0
 10
50.588472
 20
290.369393
 30
0.0
  0
SPLINE
  5
180
100
AcDbEntity
  8
Calque_1
 62
7
100
AcDbSpline
 70
8
 71
3
 72
8
 73
4
 74
0
 40
0
 40
0
 40
0
 40
0
 40
1
 40
1
 40
1
 40
1
 10
50.588472
 20
290.369393
 30
0.0
 10
50.741205
 20
290.142017
 30
0.0
 10
50.817571
 20
289.811287
 30
0.0
 10
50.817571
 20
289.377205
 30
0.0
  0
SPLINE
  5
181
100
AcDbEntity
  8
Calque_1
 62
7
100
AcDbSpline
 70
8
 71
3
 72
8
 73
4
 74
0
 40
0
 40
0
 40
0
 40
0
 40
1
 40
1
 40
1
 40
1
 10
50.817571
 20
289.377205
 30
0.0
 10
50.817571
 20
288.944272
 30
0.0
 10
50.741205
 20
288.613543
 30
0.0
 10
50.588472
 20
288.385018
 30
0.0
  0
SPLINE
  5
182
100
AcDbEntity
  8
Calque_1
 62
7
100
AcDbSpline
 70
8
 71
3
 72
8
 73
4
 74
0
 40
0
 40
0
 40
0
 40
0
 40
1
 40
1
 40
1
 40
1
 10
50.588472
 20
288.385018
 30
0.0
 10
50.436886
 20
288.157642
 30
0.0
 10
50.216974
 20
288.043954
 30
0.0
 10
49.928735
 20
288.043954
 30
0.0
  0
SPLINE
  5
183
100
AcDbEntity
  8
Calque_1
 62
7
100
AcDbSpline
 70
8
 71
3
 72
8
 73
4
 74
0
 40
0
 40
0
 40
0
 40
0
 40
1
 40
1
 40
1
 40
1
 10
49.928735
 20
288.043954
 30
0.0
 10
49.640496
 20
288.043954
 30
0.0
 10
49.420010
 20
288.157642
 30
0.0
 10
49.267277
 20
288.385018
 30
0.0
  0
SPLINE
  5
184
100
AcDbEntity
  8
Calque_1
 62
7
100
AcDbSpline
 70
8
 71
3
 72
8
 73
4
 74
0
 40
0
 40
0
 40
0
 40
0
 40
1
 40
1
 40
1
 40
1
 10
49.267277
 20
288.385018
 30
0.0
 10
49.115693
 20
288.613543
 30
0.0
 10
49.039901
 20
288.944272
 30
0.0
 10
49.039901
 20
289.377205
 30
0.0
  0
SPLINE
  5
185
100
AcDbEntity
  8
Calque_1
 62
7
100
AcDbSpline
 70
8
 71
3
 72
8
 73
4
 74
0
 40
0
 40
0
 40
0
 40
0
 40
1
 40
1
 40
1
 40
1
 10
49.039901
 20
289.377205
 30
0.0
 10
49.039901
 20
289.811287
 30
0.0
 10
49.115693
 20
290.142017
 30
0.0
 10
49.267277
 20
290.369393
 30
0.0
  0
SPLINE
  5
186
100
AcDbEntity
  8
Calque_1
 62
7
100
AcDbSpline
 70
8
 71
3
 72
8
 73
4
 74
0
 40
0
 40
0
 40
0
 40
0
 40
1
 40
1
 40
1
 40
1
 10
49.267277
 20
290.369393
 30
0.0
 10
49.420010
 20
290.597918
 30
0.0
 10
49.640496
 20
290.712180
 30
0.0
 10
49.928735
 20
290.712180
 30
0.0
  0
LINE
  5
187
100
AcDbEntity
  8
Calque_1
 62
7
100
AcDbLine
 10
49.928735
 20
290.712180
 30
0.0
 11
49.928735
 21
290.712180
 31
0.0
  0
LINE
  5
188
100
AcDbEntity
  8
Calque_1
 62
7
100
AcDbLine
 10
35.319809
 20
275.111685
 30
0.0
 11
34.337955
 21
277.683449
 31
0.0
  0
LINE
  5
189
100
AcDbEntity
  8
Calque_1
 62
7
100
AcDbLine
 10
34.337955
 20
277.683449
 30
0.0
 11
34.701412
 21
277.683449
 31
0.0
  0
LINE
  5
18a
100
AcDbEntity
  8
Calque_1
 62
7
100
AcDbLine
 10
34.701412
 20
277.683449
 30
0.0
 11
35.516179
 21
275.518207
 31
0.0
  0
LINE
  5
18b
100
AcDbEntity
  8
Calque_1
 62
7
100
AcDbLine
 10
35.516179
 20
275.518207
 30
0.0
 11
36.332665
 21
277.683449
 31
0.0
  0
LINE
  5
18c
100
AcDbEntity
  8
Calque_1
 62
7
100
AcDbLine
 10
36.332665
 20
277.683449
 30
0.0
 11
36.694401
 21
277.683449
 31
0.0
  0
LINE
  5
18d
100
AcDbEntity
  8
Calque_1
 62
7
100
AcDbLine
 10
36.694401
 20
277.683449
 30
0.0
 11
35.714271
 21
275.111685
 31
0.0
  0
LINE
  5
18e
100
AcDbEntity
  8
Calque_1
 62
7
100
AcDbLine
 10
35.714271
 20
275.111685
 30
0.0
 11
35.319809
 21
275.111685
 31
0.0
  0
LINE
  5
18f
100
AcDbEntity
  8
Calque_1
 62
7
100
AcDbLine
 10
35.319809
 20
275.111685
 30
0.0
 11
35.319809
 21
275.111685
 31
0.0
  0
LINE
  5
190
100
AcDbEntity
  8
Calque_1
 62
7
100
AcDbLine
 10
36.845985
 20
275.549212
 30
0.0
 11
37.209442
 21
275.549212
 31
0.0
  0
LINE
  5
191
100
AcDbEntity
  8
Calque_1
 62
7
100
AcDbLine
 10
37.209442
 20
275.549212
 30
0.0
 11
37.209442
 21
275.111685
 31
0.0
  0
LINE
  5
192
100
AcDbEntity
  8
Calque_1
 62
7
100
AcDbLine
 10
37.209442
 20
275.111685
 30
0.0
 11
36.845985
 21
275.111685
 31
0.0
  0
LINE
  5
193
100
AcDbEntity
  8
Calque_1
 62
7
100
AcDbLine
 10
36.845985
 20
275.111685
 30
0.0
 11
36.845985
 21
275.549212
 31
0.0
  0
LINE
  5
194
100
AcDbEntity
  8
Calque_1
 62
7
100
AcDbLine
 10
36.845985
 20
275.549212
 30
0.0
 11
36.845985
 21
275.549212
 31
0.0
  0
LINE
  5
195
100
AcDbEntity
  8
Calque_1
 62
7
100
AcDbLine
 10
36.845985
 20
276.935863
 30
0.0
 11
37.209442
 21
276.935863
 31
0.0
  0
LINE
  5
196
100
AcDbEntity
  8
Calque_1
 62
7
100
AcDbLine
 10
37.209442
 20
276.935863
 30
0.0
 11
37.209442
 21
276.498336
 31
0.0
  0
LINE
  5
197
100
AcDbEntity
  8
Calque_1
 62
7
100
AcDbLine
 10
37.209442
 20
276.498336
 30
0.0
 11
36.845985
 21
276.498336
 31
0.0
  0
LINE
  5
198
100
AcDbEntity
  8
Calque_1
 62
7
100
AcDbLine
 10
36.845985
 20
276.498336
 30
0.0
 11
36.845985
 21
276.935863
 31
0.0
  0
LINE
  5
199
100
AcDbEntity
  8
Calque_1
 62
7
100
AcDbLine
 10
36.845985
 20
276.935863
 30
0.0
 11
36.845985
 21
276.935863
 31
0.0
  0
LINE
  5
19a
100
AcDbEntity
  8
Calque_1
 62
7
100
AcDbLine
 10
38.062103
 20
275.404518
 30
0.0
 11
38.630544
 21
275.404518
 31
0.0
  0
LINE
  5
19b
100
AcDbEntity
  8
Calque_1
 62
7
100
AcDbLine
 10
38.630544
 20
275.404518
 30
0.0
 11
38.630544
 21
277.366500
 31
0.0
  0
LINE
  5
19c
100
AcDbEntity
  8
Calque_1
 62
7
100
AcDbLine
 10
38.630544
 20
277.366500
 30
0.0
 11
38.012150
 21
277.242477
 31
0.0
  0
LINE
  5
19d
100
AcDbEntity
  8
Calque_1
 62
7
100
AcDbLine
 10
38.012150
 20
277.242477
 30
0.0
 11
38.012150
 21
277.559426
 31
0.0
  0
LINE
  5
19e
100
AcDbEntity
  8
Calque_1
 62
7
100
AcDbLine
 10
38.012150
 20
277.559426
 30
0.0
 11
38.627101
 21
277.683449
 31
0.0
  0
LINE
  5
19f
100
AcDbEntity
  8
Calque_1
 62
7
100
AcDbLine
 10
38.627101
 20
277.683449
 30
0.0
 11
38.975055
 21
277.683449
 31
0.0
  0
LINE
  5
1a0
100
AcDbEntity
  8
Calque_1
 62
7
100
AcDbLine
 10
38.975055
 20
277.683449
 30
0.0
 11
38.975055
 21
275.404518
 31
0.0
  0
LINE
  5
1a1
100
AcDbEntity
  8
Calque_1
 62
7
100
AcDbLine
 10
38.975055
 20
275.404518
 30
0.0
 11
39.543496
 21
275.404518
 31
0.0
  0
LINE
  5
1a2
100
AcDbEntity
  8
Calque_1
 62
7
100
AcDbLine
 10
39.543496
 20
275.404518
 30
0.0
 11
39.543496
 21
275.111685
 31
0.0
  0
LINE
  5
1a3
100
AcDbEntity
  8
Calque_1
 62
7
100
AcDbLine
 10
39.543496
 20
275.111685
 30
0.0
 11
38.062103
 21
275.111685
 31
0.0
  0
LINE
  5
1a4
100
AcDbEntity
  8
Calque_1
 62
7
100
AcDbLine
 10
38.062103
 20
275.111685
 30
0.0
 11
38.062103
 21
275.404518
 31
0.0
  0
LINE
  5
1a5
100
AcDbEntity
  8
Calque_1
 62
7
100
AcDbLine
 10
38.062103
 20
275.404518
 30
0.0
 11
38.062103
 21
275.404518
 31
0.0
  0
LINE
  5
1a6
100
AcDbEntity
  8
Calque_1
 62
7
100
AcDbLine
 10
40.251462
 20
277.683449
 30
0.0
 11
41.617443
 21
277.683449
 31
0.0
  0
LINE
  5
1a7
100
AcDbEntity
  8
Calque_1
 62
7
100
AcDbLine
 10
41.617443
 20
277.683449
 30
0.0
 11
41.617443
 21
277.390616
 31
0.0
  0
LINE
  5
1a8
100
AcDbEntity
  8
Calque_1
 62
7
100
AcDbLine
 10
41.617443
 20
277.390616
 30
0.0
 11
40.570133
 21
277.390616
 31
0.0
  0
LINE
  5
1a9
100
AcDbEntity
  8
Calque_1
 62
7
100
AcDbLine
 10
40.570133
 20
277.390616
 30
0.0
 11
40.570133
 21
276.760164
 31
0.0
  0
SPLINE
  5
1aa
100
AcDbEntity
  8
Calque_1
 62
7
100
AcDbSpline
 70
8
 71
3
 72
8
 73
4
 74
0
 40
0
 40
0
 40
0
 40
0
 40
1
 40
1
 40
1
 40
1
 10
40.570133
 20
276.760164
 30
0.0
 10
40.620662
 20
276.777388
 30
0.0
 10
40.671190
 20
276.790020
 30
0.0
 10
40.721717
 20
276.798059
 30
0.0
  0
SPLINE
  5
1ab
100
AcDbEntity
  8
Calque_1
 62
7
100
AcDbSpline
 70
8
 71
3
 72
8
 73
4
 74
0
 40
0
 40
0
 40
0
 40
0
 40
1
 40
1
 40
1
 40
1
 10
40.721717
 20
276.798059
 30
0.0
 10
40.772247
 20
276.807247
 30
0.0
 10
40.822775
 20
276.811840
 30
0.0
 10
40.873302
 20
276.811840
 30
0.0
  0
SPLINE
  5
1ac
100
AcDbEntity
  8
Calque_1
 62
7
100
AcDbSpline
 70
8
 71
3
 72
8
 73
4
 74
0
 40
0
 40
0
 40
0
 40
0
 40
1
 40
1
 40
1
 40
1
 10
40.873302
 20
276.811840
 30
0.0
 10
41.160393
 20
276.811840
 30
0.0
 10
41.387769
 20
276.733177
 30
0.0
 10
41.555430
 20
276.575852
 30
0.0
  0
SPLINE
  5
1ad
100
AcDbEntity
  8
Calque_1
 62
7
100
AcDbSpline
 70
8
 71
3
 72
8
 73
4
 74
0
 40
0
 40
0
 40
0
 40
0
 40
1
 40
1
 40
1
 40
1
 10
41.555430
 20
276.575852
 30
0.0
 10
41.723093
 20
276.418525
 30
0.0
 10
41.806924
 20
276.205504
 30
0.0
 10
41.806924
 20
275.936786
 30
0.0
  0
SPLINE
  5
1ae
100
AcDbEntity
  8
Calque_1
 62
7
100
AcDbSpline
 70
8
 71
3
 72
8
 73
4
 74
0
 40
0
 40
0
 40
0
 40
0
 40
1
 40
1
 40
1
 40
1
 10
41.806924
 20
275.936786
 30
0.0
 10
41.806924
 20
275.660030
 30
0.0
 10
41.720796
 20
275.444712
 30
0.0
 10
41.548541
 20
275.290831
 30
0.0
  0
SPLINE
  5
1af
100
AcDbEntity
  8
Calque_1
 62
7
100
AcDbSpline
 70
8
 71
3
 72
8
 73
4
 74
0
 40
0
 40
0
 40
0
 40
0
 40
1
 40
1
 40
1
 40
1
 10
41.548541
 20
275.290831
 30
0.0
 10
41.376286
 20
275.138098
 30
0.0
 10
41.133406
 20
275.061732
 30
0.0
 10
40.819903
 20
275.061732
 30
0.0
  0
SPLINE
  5
1b0
100
AcDbEntity
  8
Calque_1
 62
7
100
AcDbSpline
 70
8
 71
3
 72
8
 73
4
 74
0
 40
0
 40
0
 40
0
 40
0
 40
1
 40
1
 40
1
 40
1
 10
40.819903
 20
275.061732
 30
0.0
 10
40.711956
 20
275.061732
 30
0.0
 10
40.601714
 20
275.070919
 30
0.0
 10
40.489175
 20
275.089294
 30
0.0
  0
SPLINE
  5
1b1
100
AcDbEntity
  8
Calque_1
 62
7
100
AcDbSpline
 70
8
 71
3
 72
8
 73
4
 74
0
 40
0
 40
0
 40
0
 40
0
 40
1
 40
1
 40
1
 40
1
 10
40.489175
 20
275.089294
 30
0.0
 10
40.377784
 20
275.107668
 30
0.0
 10
40.262373
 20
275.135229
 30
0.0
 10
40.142942
 20
275.171976
 30
0.0
  0
LINE
  5
1b2
100
AcDbEntity
  8
Calque_1
 62
7
100
AcDbLine
 10
40.142942
 20
275.171976
 30
0.0
 11
40.142942
 21
275.521653
 31
0.0
  0
SPLINE
  5
1b3
100
AcDbEntity
  8
Calque_1
 62
7
100
AcDbSpline
 70
8
 71
3
 72
8
 73
4
 74
0
 40
0
 40
0
 40
0
 40
0
 40
1
 40
1
 40
1
 40
1
 10
40.142942
 20
275.521653
 30
0.0
 10
40.246295
 20
275.465383
 30
0.0
 10
40.353093
 20
275.423468
 30
0.0
 10
40.463335
 20
275.395907
 30
0.0
  0
SPLINE
  5
1b4
100
AcDbEntity
  8
Calque_1
 62
7
100
AcDbSpline
 70
8
 71
3
 72
8
 73
4
 74
0
 40
0
 40
0
 40
0
 40
0
 40
1
 40
1
 40
1
 40
1
 10
40.463335
 20
275.395907
 30
0.0
 10
40.573578
 20
275.368346
 30
0.0
 10
40.690138
 20
275.354566
 30
0.0
 10
40.813014
 20
275.354566
 30
0.0
  0
SPLINE
  5
1b5
100
AcDbEntity
  8
Calque_1
 62
7
100
AcDbSpline
 70
8
 71
3
 72
8
 73
4
 74
0
 40
0
 40
0
 40
0
 40
0
 40
1
 40
1
 40
1
 40
1
 10
40.813014
 20
275.354566
 30
0.0
 10
41.011681
 20
275.354566
 30
0.0
 10
41.169007
 20
275.406817
 30
0.0
 10
41.284991
 20
275.511318
 30
0.0
  0
SPLINE
  5
1b6
100
AcDbEntity
  8
Calque_1
 62
7
100
AcDbSpline
 70
8
 71
3
 72
8
 73
4
 74
0
 40
0
 40
0
 40
0
 40
0
 40
1
 40
1
 40
1
 40
1
 10
41.284991
 20
275.511318
 30
0.0
 10
41.400976
 20
275.615819
 30
0.0
 10
41.458969
 20
275.757642
 30
0.0
 10
41.458969
 20
275.936787
 30
0.0
  0
SPLINE
  5
1b7
100
AcDbEntity
  8
Calque_1
 62
7
100
AcDbSpline
 70
8
 71
3
 72
8
 73
4
 74
0
 40
0
 40
0
 40
0
 40
0
 40
1
 40
1
 40
1
 40
1
 10
41.458969
 20
275.936787
 30
0.0
 10
41.458969
 20
276.115932
 30
0.0
 10
41.400976
 20
276.257755
 30
0.0
 10
41.284991
 20
276.362256
 30
0.0
  0
SPLINE
  5
1b8
100
AcDbEntity
  8
Calque_1
 62
7
100
AcDbSpline
 70
8
 71
3
 72
8
 73
4
 74
0
 40
0
 40
0
 40
0
 40
0
 40
1
 40
1
 40
1
 40
1
 10
41.284991
 20
276.362256
 30
0.0
 10
41.169007
 20
276.466758
 30
0.0
 10
41.011681
 20
276.519008
 30
0.0
 10
40.813014
 20
276.519008
 30
0.0
  0
SPLINE
  5
1b9
100
AcDbEntity
  8
Calque_1
 62
7
100
AcDbSpline
 70
8
 71
3
 72
8
 73
4
 74
0
 40
0
 40
0
 40
0
 40
0
 40
1
 40
1
 40
1
 40
1
 10
40.813014
 20
276.519008
 30
0.0
 10
40.719995
 20
276.519008
 30
0.0
 10
40.626977
 20
276.508673
 30
0.0
 10
40.533961
 20
276.488002
 30
0.0
  0
SPLINE
  5
1ba
100
AcDbEntity
  8
Calque_1
 62
7
100
AcDbSpline
 70
8
 71
3
 72
8
 73
4
 74
0
 40
0
 40
0
 40
0
 40
0
 40
1
 40
1
 40
1
 40
1
 10
40.533961
 20
276.488002
 30
0.0
 10
40.442092
 20
276.467332
 30
0.0
 10
40.347925
 20
276.435177
 30
0.0
 10
40.251462
 20
276.391540
 30
0.0
  0
LINE
  5
1bb
100
AcDbEntity
  8
Calque_1
 62
7
100
AcDbLine
 10
40.251462
 20
276.391540
 30
0.0
 11
40.251462
 21
277.683450
 31
0.0
  0
LINE
  5
1bc
100
AcDbEntity
  8
Calque_1
 62
7
100
AcDbLine
 10
40.251462
 20
277.683450
 30
0.0
 11
40.251462
 21
277.683449
 31
0.0
  0
LINE
  5
1bd
100
AcDbEntity
  8
Calque_1
 62
7
100
AcDbLine
 10
43.934270
 20
277.397506
 30
0.0
 11
43.934270
 21
276.431157
 31
0.0
  0
LINE
  5
1be
100
AcDbEntity
  8
Calque_1
 62
7
100
AcDbLine
 10
43.934270
 20
276.431157
 30
0.0
 11
44.371796
 21
276.431157
 31
0.0
  0
SPLINE
  5
1bf
100
AcDbEntity
  8
Calque_1
 62
7
100
AcDbSpline
 70
8
 71
3
 72
8
 73
4
 74
0
 40
0
 40
0
 40
0
 40
0
 40
1
 40
1
 40
1
 40
1
 10
44.371796
 20
276.431157
 30
0.0
 10
44.533717
 20
276.431157
 30
0.0
 10
44.658889
 20
276.473072
 30
0.0
 10
44.747313
 20
276.556903
 30
0.0
  0
SPLINE
  5
1c0
100
AcDbEntity
  8
Calque_1
 62
7
100
AcDbSpline
 70
8
 71
3
 72
8
 73
4
 74
0
 40
0
 40
0
 40
0
 40
0
 40
1
 40
1
 40
1
 40
1
 10
44.747313
 20
276.556903
 30
0.0
 10
44.835737
 20
276.640733
 30
0.0
 10
44.879949
 20
276.760163
 30
0.0
 10
44.879949
 20
276.915193
 30
0.0
  0
SPLINE
  5
1c1
100
AcDbEntity
  8
Calque_1
 62
7
100
AcDbSpline
 70
8
 71
3
 72
8
 73
4
 74
0
 40
0
 40
0
 40
0
 40
0
 40
1
 40
1
 40
1
 40
1
 10
44.879949
 20
276.915193
 30
0.0
 10
44.879949
 20
277.069074
 30
0.0
 10
44.835737
 20
277.187929
 30
0.0
 10
44.747313
 20
277.271760
 30
0.0
  0
SPLINE
  5
1c2
100
AcDbEntity
  8
Calque_1
 62
7
100
AcDbSpline
 70
8
 71
3
 72
8
 73
4
 74
0
 40
0
 40
0
 40
0
 40
0
 40
1
 40
1
 40
1
 40
1
 10
44.747313
 20
277.271760
 30
0.0
 10
44.658889
 20
277.355591
 30
0.0
 10
44.533717
 20
277.397506
 30
0.0
 10
44.371796
 20
277.397506
 30
0.0
  0
LINE
  5
1c3
100
AcDbEntity
  8
Calque_1
 62
7
100
AcDbLine
 10
44.371796
 20
277.397506
 30
0.0
 11
43.934270
 21
277.397506
 31
0.0
  0
LINE
  5
1c4
100
AcDbEntity
  8
Calque_1
 62
7
100
AcDbLine
 10
43.934270
 20
277.397506
 30
0.0
 11
43.934270
 21
277.397506
 31
0.0
  0
LINE
  5
1c5
100
AcDbEntity
  8
Calque_1
 62
7
100
AcDbLine
 10
43.586315
 20
277.683449
 30
0.0
 11
44.371796
 21
277.683449
 31
0.0
  0
SPLINE
  5
1c6
100
AcDbEntity
  8
Calque_1
 62
7
100
AcDbSpline
 70
8
 71
3
 72
8
 73
4
 74
0
 40
0
 40
0
 40
0
 40
0
 40
1
 40
1
 40
1
 40
1
 10
44.371796
 20
277.683449
 30
0.0
 10
44.660035
 20
277.683449
 30
0.0
 10
44.877650
 20
277.617992
 30
0.0
 10
45.024641
 20
277.487079
 30
0.0
  0
SPLINE
  5
1c7
100
AcDbEntity
  8
Calque_1
 62
7
100
AcDbSpline
 70
8
 71
3
 72
8
 73
4
 74
0
 40
0
 40
0
 40
0
 40
0
 40
1
 40
1
 40
1
 40
1
 10
45.024641
 20
277.487079
 30
0.0
 10
45.172781
 20
277.357313
 30
0.0
 10
45.246852
 20
277.166685
 30
0.0
 10
45.246852
 20
276.915193
 30
0.0
  0
SPLINE
  5
1c8
100
AcDbEntity
  8
Calque_1
 62
7
100
AcDbSpline
 70
8
 71
3
 72
8
 73
4
 74
0
 40
0
 40
0
 40
0
 40
0
 40
1
 40
1
 40
1
 40
1
 10
45.246852
 20
276.915193
 30
0.0
 10
45.246852
 20
276.661404
 30
0.0
 10
45.172781
 20
276.469627
 30
0.0
 10
45.024641
 20
276.339862
 30
0.0
  0
SPLINE
  5
1c9
100
AcDbEntity
  8
Calque_1
 62
7
100
AcDbSpline
 70
8
 71
3
 72
8
 73
4
 74
0
 40
0
 40
0
 40
0
 40
0
 40
1
 40
1
 40
1
 40
1
 10
45.024641
 20
276.339862
 30
0.0
 10
44.877650
 20
276.210097
 30
0.0
 10
44.660035
 20
276.145214
 30
0.0
 10
44.371796
 20
276.145214
 30
0.0
  0
LINE
  5
1ca
100
AcDbEntity
  8
Calque_1
 62
7
100
AcDbLine
 10
44.371796
 20
276.145214
 30
0.0
 11
43.934270
 21
276.145214
 31
0.0
  0
LINE
  5
1cb
100
AcDbEntity
  8
Calque_1
 62
7
100
AcDbLine
 10
43.934270
 20
276.145214
 30
0.0
 11
43.934270
 21
275.111685
 31
0.0
  0
LINE
  5
1cc
100
AcDbEntity
  8
Calque_1
 62
7
100
AcDbLine
 10
43.934270
 20
275.111685
 30
0.0
 11
43.586315
 21
275.111685
 31
0.0
  0
LINE
  5
1cd
100
AcDbEntity
  8
Calque_1
 62
7
100
AcDbLine
 10
43.586315
 20
275.111685
 30
0.0
 11
43.586315
 21
277.683449
 31
0.0
  0
LINE
  5
1ce
100
AcDbEntity
  8
Calque_1
 62
7
100
AcDbLine
 10
43.586315
 20
277.683449
 30
0.0
 11
43.586315
 21
277.683449
 31
0.0
  0
LINE
  5
1cf
100
AcDbEntity
  8
Calque_1
 62
7
100
AcDbLine
 10
45.782563
 20
275.549212
 30
0.0
 11
46.146020
 21
275.549212
 31
0.0
  0
LINE
  5
1d0
100
AcDbEntity
  8
Calque_1
 62
7
100
AcDbLine
 10
46.146020
 20
275.549212
 30
0.0
 11
46.146020
 21
275.111685
 31
0.0
  0
LINE
  5
1d1
100
AcDbEntity
  8
Calque_1
 62
7
100
AcDbLine
 10
46.146020
 20
275.111685
 30
0.0
 11
45.782563
 21
275.111685
 31
0.0
  0
LINE
  5
1d2
100
AcDbEntity
  8
Calque_1
 62
7
100
AcDbLine
 10
45.782563
 20
275.111685
 30
0.0
 11
45.782563
 21
275.549212
 31
0.0
  0
LINE
  5
1d3
100
AcDbEntity
  8
Calque_1
 62
7
100
AcDbLine
 10
45.782563
 20
275.549212
 30
0.0
 11
45.782563
 21
275.549212
 31
0.0
  0
LINE
  5
1d4
100
AcDbEntity
  8
Calque_1
 62
7
100
AcDbLine
 10
45.782563
 20
276.935863
 30
0.0
 11
46.146020
 21
276.935863
 31
0.0
  0
LINE
  5
1d5
100
AcDbEntity
  8
Calque_1
 62
7
100
AcDbLine
 10
46.146020
 20
276.935863
 30
0.0
 11
46.146020
 21
276.498336
 31
0.0
  0
LINE
  5
1d6
100
AcDbEntity
  8
Calque_1
 62
7
100
AcDbLine
 10
46.146020
 20
276.498336
 30
0.0
 11
45.782563
 21
276.498336
 31
0.0
  0
LINE
  5
1d7
100
AcDbEntity
  8
Calque_1
 62
7
100
AcDbLine
 10
45.782563
 20
276.498336
 30
0.0
 11
45.782563
 21
276.935863
 31
0.0
  0
LINE
  5
1d8
100
AcDbEntity
  8
Calque_1
 62
7
100
AcDbLine
 10
45.782563
 20
276.935863
 30
0.0
 11
45.782563
 21
276.935863
 31
0.0
  0
LINE
  5
1d9
100
AcDbEntity
  8
Calque_1
 62
7
100
AcDbLine
 10
47.894407
 20
277.380281
 30
0.0
 11
47.015908
 21
276.007410
 31
0.0
  0
LINE
  5
1da
100
AcDbEntity
  8
Calque_1
 62
7
100
AcDbLine
 10
47.015908
 20
276.007410
 30
0.0
 11
47.894407
 21
276.007410
 31
0.0
  0
LINE
  5
1db
100
AcDbEntity
  8
Calque_1
 62
7
100
AcDbLine
 10
47.894407
 20
276.007410
 30
0.0
 11
47.894407
 21
277.380281
 31
0.0
  0
LINE
  5
1dc
100
AcDbEntity
  8
Calque_1
 62
7
100
AcDbLine
 10
47.894407
 20
277.380281
 30
0.0
 11
47.894407
 21
277.380281
 31
0.0
  0
LINE
  5
1dd
100
AcDbEntity
  8
Calque_1
 62
7
100
AcDbLine
 10
47.803110
 20
277.683449
 30
0.0
 11
48.240640
 21
277.683449
 31
0.0
  0
LINE
  5
1de
100
AcDbEntity
  8
Calque_1
 62
7
100
AcDbLine
 10
48.240640
 20
277.683449
 30
0.0
 11
48.240640
 21
276.007410
 31
0.0
  0
LINE
  5
1df
100
AcDbEntity
  8
Calque_1
 62
7
100
AcDbLine
 10
48.240640
 20
276.007410
 30
0.0
 11
48.607543
 21
276.007410
 31
0.0
  0
LINE
  5
1e0
100
AcDbEntity
  8
Calque_1
 62
7
100
AcDbLine
 10
48.607543
 20
276.007410
 30
0.0
 11
48.607543
 21
275.718022
 31
0.0
  0
LINE
  5
1e1
100
AcDbEntity
  8
Calque_1
 62
7
100
AcDbLine
 10
48.607543
 20
275.718022
 30
0.0
 11
48.240640
 21
275.718022
 31
0.0
  0
LINE
  5
1e2
100
AcDbEntity
  8
Calque_1
 62
7
100
AcDbLine
 10
48.240640
 20
275.718022
 30
0.0
 11
48.240640
 21
275.111685
 31
0.0
  0
LINE
  5
1e3
100
AcDbEntity
  8
Calque_1
 62
7
100
AcDbLine
 10
48.240640
 20
275.111685
 30
0.0
 11
47.894407
 21
275.111685
 31
0.0
  0
LINE
  5
1e4
100
AcDbEntity
  8
Calque_1
 62
7
100
AcDbLine
 10
47.894407
 20
275.111685
 30
0.0
 11
47.894407
 21
275.718022
 31
0.0
  0
LINE
  5
1e5
100
AcDbEntity
  8
Calque_1
 62
7
100
AcDbLine
 10
47.894407
 20
275.718022
 30
0.0
 11
46.733409
 21
275.718022
 31
0.0
  0
LINE
  5
1e6
100
AcDbEntity
  8
Calque_1
 62
7
100
AcDbLine
 10
46.733409
 20
275.718022
 30
0.0
 11
46.733409
 21
276.053919
 31
0.0
  0
LINE
  5
1e7
100
AcDbEntity
  8
Calque_1
 62
7
100
AcDbLine
 10
46.733409
 20
276.053919
 30
0.0
 11
47.803110
 21
277.683449
 31
0.0
  0
LINE
  5
1e8
100
AcDbEntity
  8
Calque_1
 62
7
100
AcDbLine
 10
47.803110
 20
277.683449
 30
0.0
 11
47.803110
 21
277.683449
 31
0.0
  0
LINE
  5
1e9
100
AcDbEntity
  8
Calque_1
 62
7
100
AcDbLine
 10
49.188040
 20
277.683449
 30
0.0
 11
50.554021
 21
277.683449
 31
0.0
  0
LINE
  5
1ea
100
AcDbEntity
  8
Calque_1
 62
7
100
AcDbLine
 10
50.554021
 20
277.683449
 30
0.0
 11
50.554021
 21
277.390616
 31
0.0
  0
LINE
  5
1eb
100
AcDbEntity
  8
Calque_1
 62
7
100
AcDbLine
 10
50.554021
 20
277.390616
 30
0.0
 11
49.506711
 21
277.390616
 31
0.0
  0
LINE
  5
1ec
100
AcDbEntity
  8
Calque_1
 62
7
100
AcDbLine
 10
49.506711
 20
277.390616
 30
0.0
 11
49.506711
 21
276.760164
 31
0.0
  0
SPLINE
  5
1ed
100
AcDbEntity
  8
Calque_1
 62
7
100
AcDbSpline
 70
8
 71
3
 72
8
 73
4
 74
0
 40
0
 40
0
 40
0
 40
0
 40
1
 40
1
 40
1
 40
1
 10
49.506711
 20
276.760164
 30
0.0
 10
49.557240
 20
276.777388
 30
0.0
 10
49.607768
 20
276.790020
 30
0.0
 10
49.658295
 20
276.798059
 30
0.0
  0
SPLINE
  5
1ee
100
AcDbEntity
  8
Calque_1
 62
7
100
AcDbSpline
 70
8
 71
3
 72
8
 73
4
 74
0
 40
0
 40
0
 40
0
 40
0
 40
1
 40
1
 40
1
 40
1
 10
49.658295
 20
276.798059
 30
0.0
 10
49.708823
 20
276.807247
 30
0.0
 10
49.759351
 20
276.811840
 30
0.0
 10
49.809880
 20
276.811840
 30
0.0
  0
SPLINE
  5
1ef
100
AcDbEntity
  8
Calque_1
 62
7
100
AcDbSpline
 70
8
 71
3
 72
8
 73
4
 74
0
 40
0
 40
0
 40
0
 40
0
 40
1
 40
1
 40
1
 40
1
 10
49.809880
 20
276.811840
 30
0.0
 10
50.096971
 20
276.811840
 30
0.0
 10
50.324347
 20
276.733177
 30
0.0
 10
50.492008
 20
276.575852
 30
0.0
  0
SPLINE
  5
1f0
100
AcDbEntity
  8
Calque_1
 62
7
100
AcDbSpline
 70
8
 71
3
 72
8
 73
4
 74
0
 40
0
 40
0
 40
0
 40
0
 40
1
 40
1
 40
1
 40
1
 10
50.492008
 20
276.575852
 30
0.0
 10
50.659669
 20
276.418525
 30
0.0
 10
50.743499
 20
276.205504
 30
0.0
 10
50.743499
 20
275.936786
 30
0.0
  0
SPLINE
  5
1f1
100
AcDbEntity
  8
Calque_1
 62
7
100
AcDbSpline
 70
8
 71
3
 72
8
 73
4
 74
0
 40
0
 40
0
 40
0
 40
0
 40
1
 40
1
 40
1
 40
1
 10
50.743499
 20
275.936786
 30
0.0
 10
50.743499
 20
275.660030
 30
0.0
 10
50.657372
 20
275.444712
 30
0.0
 10
50.485119
 20
275.290831
 30
0.0
  0
SPLINE
  5
1f2
100
AcDbEntity
  8
Calque_1
 62
7
100
AcDbSpline
 70
8
 71
3
 72
8
 73
4
 74
0
 40
0
 40
0
 40
0
 40
0
 40
1
 40
1
 40
1
 40
1
 10
50.485119
 20
275.290831
 30
0.0
 10
50.312864
 20
275.138098
 30
0.0
 10
50.069984
 20
275.061732
 30
0.0
 10
49.756481
 20
275.061732
 30
0.0
  0
SPLINE
  5
1f3
100
AcDbEntity
  8
Calque_1
 62
7
100
AcDbSpline
 70
8
 71
3
 72
8
 73
4
 74
0
 40
0
 40
0
 40
0
 40
0
 40
1
 40
1
 40
1
 40
1
 10
49.756481
 20
275.061732
 30
0.0
 10
49.648534
 20
275.061732
 30
0.0
 10
49.538292
 20
275.070919
 30
0.0
 10
49.425753
 20
275.089294
 30
0.0
  0
SPLINE
  5
1f4
100
AcDbEntity
  8
Calque_1
 62
7
100
AcDbSpline
 70
8
 71
3
 72
8
 73
4
 74
0
 40
0
 40
0
 40
0
 40
0
 40
1
 40
1
 40
1
 40
1
 10
49.425753
 20
275.089294
 30
0.0
 10
49.314360
 20
275.107668
 30
0.0
 10
49.198949
 20
275.135229
 30
0.0
 10
49.079520
 20
275.171976
 30
0.0
  0
LINE
  5
1f5
100
AcDbEntity
  8
Calque_1
 62
7
100
AcDbLine
 10
49.079520
 20
275.171976
 30
0.0
 11
49.079520
 21
275.521653
 31
0.0
  0
SPLINE
  5
1f6
100
AcDbEntity
  8
Calque_1
 62
7
100
AcDbSpline
 70
8
 71
3
 72
8
 73
4
 74
0
 40
0
 40
0
 40
0
 40
0
 40
1
 40
1
 40
1
 40
1
 10
49.079520
 20
275.521653
 30
0.0
 10
49.182871
 20
275.465383
 30
0.0
 10
49.289669
 20
275.423468
 30
0.0
 10
49.399912
 20
275.395907
 30
0.0
  0
SPLINE
  5
1f7
100
AcDbEntity
  8
Calque_1
 62
7
100
AcDbSpline
 70
8
 71
3
 72
8
 73
4
 74
0
 40
0
 40
0
 40
0
 40
0
 40
1
 40
1
 40
1
 40
1
 10
49.399912
 20
275.395907
 30
0.0
 10
49.510156
 20
275.368346
 30
0.0
 10
49.626716
 20
275.354566
 30
0.0
 10
49.749591
 20
275.354566
 30
0.0
  0
SPLINE
  5
1f8
100
AcDbEntity
  8
Calque_1
 62
7
100
AcDbSpline
 70
8
 71
3
 72
8
 73
4
 74
0
 40
0
 40
0
 40
0
 40
0
 40
1
 40
1
 40
1
 40
1
 10
49.749591
 20
275.354566
 30
0.0
 10
49.948257
 20
275.354566
 30
0.0
 10
50.105583
 20
275.406817
 30
0.0
 10
50.221569
 20
275.511318
 30
0.0
  0
SPLINE
  5
1f9
100
AcDbEntity
  8
Calque_1
 62
7
100
AcDbSpline
 70
8
 71
3
 72
8
 73
4
 74
0
 40
0
 40
0
 40
0
 40
0
 40
1
 40
1
 40
1
 40
1
 10
50.221569
 20
275.511318
 30
0.0
 10
50.337553
 20
275.615819
 30
0.0
 10
50.395545
 20
275.757642
 30
0.0
 10
50.395545
 20
275.936787
 30
0.0
  0
SPLINE
  5
1fa
100
AcDbEntity
  8
Calque_1
 62
7
100
AcDbSpline
 70
8
 71
3
 72
8
 73
4
 74
0
 40
0
 40
0
 40
0
 40
0
 40
1
 40
1
 40
1
 40
1
 10
50.395545
 20
275.936787
 30
0.0
 10
50.395545
 20
276.115932
 30
0.0
 10
50.337553
 20
276.257755
 30
0.0
 10
50.221569
 20
276.362256
 30
0.0
  0
SPLINE
  5
1fb
100
AcDbEntity
  8
Calque_1
 62
7
100
AcDbSpline
 70
8
 71
3
 72
8
 73
4
 74
0
 40
0
 40
0
 40
0
 40
0
 40
1
 40
1
 40
1
 40
1
 10
50.221569
 20
276.362256
 30
0.0
 10
50.105583
 20
276.466758
 30
0.0
 10
49.948257
 20
276.519008
 30
0.0
 10
49.749591
 20
276.519008
 30
0.0
  0
SPLINE
  5
1fc
100
AcDbEntity
  8
Calque_1
 62
7
100
AcDbSpline
 70
8
 71
3
 72
8
 73
4
 74
0
 40
0
 40
0
 40
0
 40
0
 40
1
 40
1
 40
1
 40
1
 10
49.749591
 20
276.519008
 30
0.0
 10
49.656573
 20
276.519008
 30
0.0
 10
49.563555
 20
276.508673
 30
0.0
 10
49.470539
 20
276.488002
 30
0.0
  0
SPLINE
  5
1fd
100
AcDbEntity
  8
Calque_1
 62
7
100
AcDbSpline
 70
8
 71
3
 72
8
 73
4
 74
0
 40
0
 40
0
 40
0
 40
0
 40
1
 40
1
 40
1
 40
1
 10
49.470539
 20
276.488002
 30
0.0
 10
49.378670
 20
276.467332
 30
0.0
 10
49.284503
 20
276.435177
 30
0.0
 10
49.188040
 20
276.391540
 30
0.0
  0
LINE
  5
1fe
100
AcDbEntity
  8
Calque_1
 62
7
100
AcDbLine
 10
49.188040
 20
276.391540
 30
0.0
 11
49.188040
 21
277.683450
 31
0.0
  0
LINE
  5
1ff
100
AcDbEntity
  8
Calque_1
 62
7
100
AcDbLine
 10
49.188040
 20
277.683450
 30
0.0
 11
49.188040
 21
277.683449
 31
0.0
  0
LINE
  5
200
100
AcDbEntity
  8
Calque_1
 62
7
100
AcDbLine
 10
35.319809
 20
264.387241
 30
0.0
 11
34.337955
 21
266.959005
 31
0.0
  0
LINE
  5
201
100
AcDbEntity
  8
Calque_1
 62
7
100
AcDbLine
 10
34.337955
 20
266.959005
 30
0.0
 11
34.701412
 21
266.959005
 31
0.0
  0
LINE
  5
202
100
AcDbEntity
  8
Calque_1
 62
7
100
AcDbLine
 10
34.701412
 20
266.959005
 30
0.0
 11
35.516179
 21
264.793762
 31
0.0
  0
LINE
  5
203
100
AcDbEntity
  8
Calque_1
 62
7
100
AcDbLine
 10
35.516179
 20
264.793762
 30
0.0
 11
36.332665
 21
266.959005
 31
0.0
  0
LINE
  5
204
100
AcDbEntity
  8
Calque_1
 62
7
100
AcDbLine
 10
36.332665
 20
266.959005
 30
0.0
 11
36.694401
 21
266.959005
 31
0.0
  0
LINE
  5
205
100
AcDbEntity
  8
Calque_1
 62
7
100
AcDbLine
 10
36.694401
 20
266.959005
 30
0.0
 11
35.714271
 21
264.387241
 31
0.0
  0
LINE
  5
206
100
AcDbEntity
  8
Calque_1
 62
7
100
AcDbLine
 10
35.714271
 20
264.387241
 30
0.0
 11
35.319809
 21
264.387241
 31
0.0
  0
LINE
  5
207
100
AcDbEntity
  8
Calque_1
 62
7
100
AcDbLine
 10
35.319809
 20
264.387241
 30
0.0
 11
35.319809
 21
264.387241
 31
0.0
  0
LINE
  5
208
100
AcDbEntity
  8
Calque_1
 62
7
100
AcDbLine
 10
36.845985
 20
264.824768
 30
0.0
 11
37.209442
 21
264.824768
 31
0.0
  0
LINE
  5
209
100
AcDbEntity
  8
Calque_1
 62
7
100
AcDbLine
 10
37.209442
 20
264.824768
 30
0.0
 11
37.209442
 21
264.387241
 31
0.0
  0
LINE
  5
20a
100
AcDbEntity
  8
Calque_1
 62
7
100
AcDbLine
 10
37.209442
 20
264.387241
 30
0.0
 11
36.845985
 21
264.387241
 31
0.0
  0
LINE
  5
20b
100
AcDbEntity
  8
Calque_1
 62
7
100
AcDbLine
 10
36.845985
 20
264.387241
 30
0.0
 11
36.845985
 21
264.824768
 31
0.0
  0
LINE
  5
20c
100
AcDbEntity
  8
Calque_1
 62
7
100
AcDbLine
 10
36.845985
 20
264.824768
 30
0.0
 11
36.845985
 21
264.824768
 31
0.0
  0
LINE
  5
20d
100
AcDbEntity
  8
Calque_1
 62
7
100
AcDbLine
 10
36.845985
 20
266.211419
 30
0.0
 11
37.209442
 21
266.211419
 31
0.0
  0
LINE
  5
20e
100
AcDbEntity
  8
Calque_1
 62
7
100
AcDbLine
 10
37.209442
 20
266.211419
 30
0.0
 11
37.209442
 21
265.773892
 31
0.0
  0
LINE
  5
20f
100
AcDbEntity
  8
Calque_1
 62
7
100
AcDbLine
 10
37.209442
 20
265.773892
 30
0.0
 11
36.845985
 21
265.773892
 31
0.0
  0
LINE
  5
210
100
AcDbEntity
  8
Calque_1
 62
7
100
AcDbLine
 10
36.845985
 20
265.773892
 30
0.0
 11
36.845985
 21
266.211419
 31
0.0
  0
LINE
  5
211
100
AcDbEntity
  8
Calque_1
 62
7
100
AcDbLine
 10
36.845985
 20
266.211419
 30
0.0
 11
36.845985
 21
266.211419
 31
0.0
  0
LINE
  5
212
100
AcDbEntity
  8
Calque_1
 62
7
100
AcDbLine
 10
38.062103
 20
264.680074
 30
0.0
 11
38.630544
 21
264.680074
 31
0.0
  0
LINE
  5
213
100
AcDbEntity
  8
Calque_1
 62
7
100
AcDbLine
 10
38.630544
 20
264.680074
 30
0.0
 11
38.630544
 21
266.642056
 31
0.0
  0
LINE
  5
214
100
AcDbEntity
  8
Calque_1
 62
7
100
AcDbLine
 10
38.630544
 20
266.642056
 30
0.0
 11
38.012150
 21
266.518032
 31
0.0
  0
LINE
  5
215
100
AcDbEntity
  8
Calque_1
 62
7
100
AcDbLine
 10
38.012150
 20
266.518032
 30
0.0
 11
38.012150
 21
266.834981
 31
0.0
  0
LINE
  5
216
100
AcDbEntity
  8
Calque_1
 62
7
100
AcDbLine
 10
38.012150
 20
266.834981
 30
0.0
 11
38.627101
 21
266.959005
 31
0.0
  0
LINE
  5
217
100
AcDbEntity
  8
Calque_1
 62
7
100
AcDbLine
 10
38.627101
 20
266.959005
 30
0.0
 11
38.975055
 21
266.959005
 31
0.0
  0
LINE
  5
218
100
AcDbEntity
  8
Calque_1
 62
7
100
AcDbLine
 10
38.975055
 20
266.959005
 30
0.0
 11
38.975055
 21
264.680074
 31
0.0
  0
LINE
  5
219
100
AcDbEntity
  8
Calque_1
 62
7
100
AcDbLine
 10
38.975055
 20
264.680074
 30
0.0
 11
39.543496
 21
264.680074
 31
0.0
  0
LINE
  5
21a
100
AcDbEntity
  8
Calque_1
 62
7
100
AcDbLine
 10
39.543496
 20
264.680074
 30
0.0
 11
39.543496
 21
264.387241
 31
0.0
  0
LINE
  5
21b
100
AcDbEntity
  8
Calque_1
 62
7
100
AcDbLine
 10
39.543496
 20
264.387241
 30
0.0
 11
38.062103
 21
264.387241
 31
0.0
  0
LINE
  5
21c
100
AcDbEntity
  8
Calque_1
 62
7
100
AcDbLine
 10
38.062103
 20
264.387241
 30
0.0
 11
38.062103
 21
264.680074
 31
0.0
  0
LINE
  5
21d
100
AcDbEntity
  8
Calque_1
 62
7
100
AcDbLine
 10
38.062103
 20
264.680074
 30
0.0
 11
38.062103
 21
264.680074
 31
0.0
  0
LINE
  5
21e
100
AcDbEntity
  8
Calque_1
 62
7
100
AcDbLine
 10
40.251462
 20
266.959005
 30
0.0
 11
41.617443
 21
266.959005
 31
0.0
  0
LINE
  5
21f
100
AcDbEntity
  8
Calque_1
 62
7
100
AcDbLine
 10
41.617443
 20
266.959005
 30
0.0
 11
41.617443
 21
266.666171
 31
0.0
  0
LINE
  5
220
100
AcDbEntity
  8
Calque_1
 62
7
100
AcDbLine
 10
41.617443
 20
266.666171
 30
0.0
 11
40.570133
 21
266.666171
 31
0.0
  0
LINE
  5
221
100
AcDbEntity
  8
Calque_1
 62
7
100
AcDbLine
 10
40.570133
 20
266.666171
 30
0.0
 11
40.570133
 21
266.035719
 31
0.0
  0
SPLINE
  5
222
100
AcDbEntity
  8
Calque_1
 62
7
100
AcDbSpline
 70
8
 71
3
 72
8
 73
4
 74
0
 40
0
 40
0
 40
0
 40
0
 40
1
 40
1
 40
1
 40
1
 10
40.570133
 20
266.035719
 30
0.0
 10
40.620662
 20
266.052944
 30
0.0
 10
40.671190
 20
266.065576
 30
0.0
 10
40.721717
 20
266.073615
 30
0.0
  0
SPLINE
  5
223
100
AcDbEntity
  8
Calque_1
 62
7
100
AcDbSpline
 70
8
 71
3
 72
8
 73
4
 74
0
 40
0
 40
0
 40
0
 40
0
 40
1
 40
1
 40
1
 40
1
 10
40.721717
 20
266.073615
 30
0.0
 10
40.772247
 20
266.082802
 30
0.0
 10
40.822775
 20
266.087396
 30
0.0
 10
40.873302
 20
266.087396
 30
0.0
  0
SPLINE
  5
224
100
AcDbEntity
  8
Calque_1
 62
7
100
AcDbSpline
 70
8
 71
3
 72
8
 73
4
 74
0
 40
0
 40
0
 40
0
 40
0
 40
1
 40
1
 40
1
 40
1
 10
40.873302
 20
266.087396
 30
0.0
 10
41.160393
 20
266.087396
 30
0.0
 10
41.387769
 20
266.008733
 30
0.0
 10
41.555430
 20
265.851407
 30
0.0
  0
SPLINE
  5
225
100
AcDbEntity
  8
Calque_1
 62
7
100
AcDbSpline
 70
8
 71
3
 72
8
 73
4
 74
0
 40
0
 40
0
 40
0
 40
0
 40
1
 40
1
 40
1
 40
1
 10
41.555430
 20
265.851407
 30
0.0
 10
41.723093
 20
265.694081
 30
0.0
 10
41.806924
 20
265.481059
 30
0.0
 10
41.806924
 20
265.212342
 30
0.0
  0
SPLINE
  5
226
100
AcDbEntity
  8
Calque_1
 62
7
100
AcDbSpline
 70
8
 71
3
 72
8
 73
4
 74
0
 40
0
 40
0
 40
0
 40
0
 40
1
 40
1
 40
1
 40
1
 10
41.806924
 20
265.212342
 30
0.0
 10
41.806924
 20
264.935586
 30
0.0
 10
41.720796
 20
264.720267
 30
0.0
 10
41.548541
 20
264.566386
 30
0.0
  0
SPLINE
  5
227
100
AcDbEntity
  8
Calque_1
 62
7
100
AcDbSpline
 70
8
 71
3
 72
8
 73
4
 74
0
 40
0
 40
0
 40
0
 40
0
 40
1
 40
1
 40
1
 40
1
 10
41.548541
 20
264.566386
 30
0.0
 10
41.376286
 20
264.413654
 30
0.0
 10
41.133406
 20
264.337287
 30
0.0
 10
40.819903
 20
264.337287
 30
0.0
  0
SPLINE
  5
228
100
AcDbEntity
  8
Calque_1
 62
7
100
AcDbSpline
 70
8
 71
3
 72
8
 73
4
 74
0
 40
0
 40
0
 40
0
 40
0
 40
1
 40
1
 40
1
 40
1
 10
40.819903
 20
264.337287
 30
0.0
 10
40.711956
 20
264.337287
 30
0.0
 10
40.601714
 20
264.346475
 30
0.0
 10
40.489175
 20
264.364849
 30
0.0
  0
SPLINE
  5
229
100
AcDbEntity
  8
Calque_1
 62
7
100
AcDbSpline
 70
8
 71
3
 72
8
 73
4
 74
0
 40
0
 40
0
 40
0
 40
0
 40
1
 40
1
 40
1
 40
1
 10
40.489175
 20
264.364849
 30
0.0
 10
40.377784
 20
264.383224
 30
0.0
 10
40.262373
 20
264.410784
 30
0.0
 10
40.142942
 20
264.447531
 30
0.0
  0
LINE
  5
22a
100
AcDbEntity
  8
Calque_1
 62
7
100
AcDbLine
 10
40.142942
 20
264.447531
 30
0.0
 11
40.142942
 21
264.797209
 31
0.0
  0
SPLINE
  5
22b
100
AcDbEntity
  8
Calque_1
 62
7
100
AcDbSpline
 70
8
 71
3
 72
8
 73
4
 74
0
 40
0
 40
0
 40
0
 40
0
 40
1
 40
1
 40
1
 40
1
 10
40.142942
 20
264.797209
 30
0.0
 10
40.246295
 20
264.740939
 30
0.0
 10
40.353093
 20
264.699023
 30
0.0
 10
40.463335
 20
264.671463
 30
0.0
  0
SPLINE
  5
22c
100
AcDbEntity
  8
Calque_1
 62
7
100
AcDbSpline
 70
8
 71
3
 72
8
 73
4
 74
0
 40
0
 40
0
 40
0
 40
0
 40
1
 40
1
 40
1
 40
1
 10
40.463335
 20
264.671463
 30
0.0
 10
40.573578
 20
264.643902
 30
0.0
 10
40.690138
 20
264.630121
 30
0.0
 10
40.813014
 20
264.630121
 30
0.0
  0
SPLINE
  5
22d
100
AcDbEntity
  8
Calque_1
 62
7
100
AcDbSpline
 70
8
 71
3
 72
8
 73
4
 74
0
 40
0
 40
0
 40
0
 40
0
 40
1
 40
1
 40
1
 40
1
 10
40.813014
 20
264.630121
 30
0.0
 10
41.011681
 20
264.630121
 30
0.0
 10
41.169007
 20
264.682372
 30
0.0
 10
41.284991
 20
264.786873
 30
0.0
  0
SPLINE
  5
22e
100
AcDbEntity
  8
Calque_1
 62
7
100
AcDbSpline
 70
8
 71
3
 72
8
 73
4
 74
0
 40
0
 40
0
 40
0
 40
0
 40
1
 40
1
 40
1
 40
1
 10
41.284991
 20
264.786873
 30
0.0
 10
41.400976
 20
264.891375
 30
0.0
 10
41.458969
 20
265.033198
 30
0.0
 10
41.458969
 20
265.212343
 30
0.0
  0
SPLINE
  5
22f
100
AcDbEntity
  8
Calque_1
 62
7
100
AcDbSpline
 70
8
 71
3
 72
8
 73
4
 74
0
 40
0
 40
0
 40
0
 40
0
 40
1
 40
1
 40
1
 40
1
 10
41.458969
 20
265.212343
 30
0.0
 10
41.458969
 20
265.391488
 30
0.0
 10
41.400976
 20
265.533311
 30
0.0
 10
41.284991
 20
265.637812
 30
0.0
  0
SPLINE
  5
230
100
AcDbEntity
  8
Calque_1
 62
7
100
AcDbSpline
 70
8
 71
3
 72
8
 73
4
 74
0
 40
0
 40
0
 40
0
 40
0
 40
1
 40
1
 40
1
 40
1
 10
41.284991
 20
265.637812
 30
0.0
 10
41.169007
 20
265.742313
 30
0.0
 10
41.011681
 20
265.794564
 30
0.0
 10
40.813014
 20
265.794564
 30
0.0
  0
SPLINE
  5
231
100
AcDbEntity
  8
Calque_1
 62
7
100
AcDbSpline
 70
8
 71
3
 72
8
 73
4
 74
0
 40
0
 40
0
 40
0
 40
0
 40
1
 40
1
 40
1
 40
1
 10
40.813014
 20
265.794564
 30
0.0
 10
40.719995
 20
265.794564
 30
0.0
 10
40.626977
 20
265.784229
 30
0.0
 10
40.533961
 20
265.763558
 30
0.0
  0
SPLINE
  5
232
100
AcDbEntity
  8
Calque_1
 62
7
100
AcDbSpline
 70
8
 71
3
 72
8
 73
4
 74
0
 40
0
 40
0
 40
0
 40
0
 40
1
 40
1
 40
1
 40
1
 10
40.533961
 20
265.763558
 30
0.0
 10
40.442092
 20
265.742887
 30
0.0
 10
40.347925
 20
265.710733
 30
0.0
 10
40.251462
 20
265.667095
 30
0.0
  0
LINE
  5
233
100
AcDbEntity
  8
Calque_1
 62
7
100
AcDbLine
 10
40.251462
 20
265.667095
 30
0.0
 11
40.251462
 21
266.959006
 31
0.0
  0
LINE
  5
234
100
AcDbEntity
  8
Calque_1
 62
7
100
AcDbLine
 10
40.251462
 20
266.959006
 30
0.0
 11
40.251462
 21
266.959005
 31
0.0
  0
LINE
  5
235
100
AcDbEntity
  8
Calque_1
 62
7
100
AcDbLine
 10
43.934270
 20
266.673062
 30
0.0
 11
43.934270
 21
265.706712
 31
0.0
  0
LINE
  5
236
100
AcDbEntity
  8
Calque_1
 62
7
100
AcDbLine
 10
43.934270
 20
265.706712
 30
0.0
 11
44.371796
 21
265.706712
 31
0.0
  0
SPLINE
  5
237
100
AcDbEntity
  8
Calque_1
 62
7
100
AcDbSpline
 70
8
 71
3
 72
8
 73
4
 74
0
 40
0
 40
0
 40
0
 40
0
 40
1
 40
1
 40
1
 40
1
 10
44.371796
 20
265.706712
 30
0.0
 10
44.533717
 20
265.706712
 30
0.0
 10
44.658889
 20
265.748628
 30
0.0
 10
44.747313
 20
265.832458
 30
0.0
  0
SPLINE
  5
238
100
AcDbEntity
  8
Calque_1
 62
7
100
AcDbSpline
 70
8
 71
3
 72
8
 73
4
 74
0
 40
0
 40
0
 40
0
 40
0
 40
1
 40
1
 40
1
 40
1
 10
44.747313
 20
265.832458
 30
0.0
 10
44.835737
 20
265.916289
 30
0.0
 10
44.879949
 20
266.035719
 30
0.0
 10
44.879949
 20
266.190748
 30
0.0
  0
SPLINE
  5
239
100
AcDbEntity
  8
Calque_1
 62
7
100
AcDbSpline
 70
8
 71
3
 72
8
 73
4
 74
0
 40
0
 40
0
 40
0
 40
0
 40
1
 40
1
 40
1
 40
1
 10
44.879949
 20
266.190748
 30
0.0
 10
44.879949
 20
266.344629
 30
0.0
 10
44.835737
 20
266.463485
 30
0.0
 10
44.747313
 20
266.547316
 30
0.0
  0
SPLINE
  5
23a
100
AcDbEntity
  8
Calque_1
 62
7
100
AcDbSpline
 70
8
 71
3
 72
8
 73
4
 74
0
 40
0
 40
0
 40
0
 40
0
 40
1
 40
1
 40
1
 40
1
 10
44.747313
 20
266.547316
 30
0.0
 10
44.658889
 20
266.631146
 30
0.0
 10
44.533717
 20
266.673062
 30
0.0
 10
44.371796
 20
266.673062
 30
0.0
  0
LINE
  5
23b
100
AcDbEntity
  8
Calque_1
 62
7
100
AcDbLine
 10
44.371796
 20
266.673062
 30
0.0
 11
43.934270
 21
266.673062
 31
0.0
  0
LINE
  5
23c
100
AcDbEntity
  8
Calque_1
 62
7
100
AcDbLine
 10
43.934270
 20
266.673062
 30
0.0
 11
43.934270
 21
266.673062
 31
0.0
  0
LINE
  5
23d
100
AcDbEntity
  8
Calque_1
 62
7
100
AcDbLine
 10
43.586315
 20
266.959005
 30
0.0
 11
44.371796
 21
266.959005
 31
0.0
  0
SPLINE
  5
23e
100
AcDbEntity
  8
Calque_1
 62
7
100
AcDbSpline
 70
8
 71
3
 72
8
 73
4
 74
0
 40
0
 40
0
 40
0
 40
0
 40
1
 40
1
 40
1
 40
1
 10
44.371796
 20
266.959005
 30
0.0
 10
44.660035
 20
266.959005
 30
0.0
 10
44.877650
 20
266.893548
 30
0.0
 10
45.024641
 20
266.762634
 30
0.0
  0
SPLINE
  5
23f
100
AcDbEntity
  8
Calque_1
 62
7
100
AcDbSpline
 70
8
 71
3
 72
8
 73
4
 74
0
 40
0
 40
0
 40
0
 40
0
 40
1
 40
1
 40
1
 40
1
 10
45.024641
 20
266.762634
 30
0.0
 10
45.172781
 20
266.632869
 30
0.0
 10
45.246852
 20
266.442240
 30
0.0
 10
45.246852
 20
266.190748
 30
0.0
  0
SPLINE
  5
240
100
AcDbEntity
  8
Calque_1
 62
7
100
AcDbSpline
 70
8
 71
3
 72
8
 73
4
 74
0
 40
0
 40
0
 40
0
 40
0
 40
1
 40
1
 40
1
 40
1
 10
45.246852
 20
266.190748
 30
0.0
 10
45.246852
 20
265.936960
 30
0.0
 10
45.172781
 20
265.745183
 30
0.0
 10
45.024641
 20
265.615417
 30
0.0
  0
SPLINE
  5
241
100
AcDbEntity
  8
Calque_1
 62
7
100
AcDbSpline
 70
8
 71
3
 72
8
 73
4
 74
0
 40
0
 40
0
 40
0
 40
0
 40
1
 40
1
 40
1
 40
1
 10
45.024641
 20
265.615417
 30
0.0
 10
44.877650
 20
265.485652
 30
0.0
 10
44.660035
 20
265.420770
 30
0.0
 10
44.371796
 20
265.420770
 30
0.0
  0
LINE
  5
242
100
AcDbEntity
  8
Calque_1
 62
7
100
AcDbLine
 10
44.371796
 20
265.420770
 30
0.0
 11
43.934270
 21
265.420770
 31
0.0
  0
LINE
  5
243
100
AcDbEntity
  8
Calque_1
 62
7
100
AcDbLine
 10
43.934270
 20
265.420770
 30
0.0
 11
43.934270
 21
264.387241
 31
0.0
  0
LINE
  5
244
100
AcDbEntity
  8
Calque_1
 62
7
100
AcDbLine
 10
43.934270
 20
264.387241
 30
0.0
 11
43.586315
 21
264.387241
 31
0.0
  0
LINE
  5
245
100
AcDbEntity
  8
Calque_1
 62
7
100
AcDbLine
 10
43.586315
 20
264.387241
 30
0.0
 11
43.586315
 21
266.959005
 31
0.0
  0
LINE
  5
246
100
AcDbEntity
  8
Calque_1
 62
7
100
AcDbLine
 10
43.586315
 20
266.959005
 30
0.0
 11
43.586315
 21
266.959005
 31
0.0
  0
LINE
  5
247
100
AcDbEntity
  8
Calque_1
 62
7
100
AcDbLine
 10
45.782563
 20
264.824768
 30
0.0
 11
46.146020
 21
264.824768
 31
0.0
  0
LINE
  5
248
100
AcDbEntity
  8
Calque_1
 62
7
100
AcDbLine
 10
46.146020
 20
264.824768
 30
0.0
 11
46.146020
 21
264.387241
 31
0.0
  0
LINE
  5
249
100
AcDbEntity
  8
Calque_1
 62
7
100
AcDbLine
 10
46.146020
 20
264.387241
 30
0.0
 11
45.782563
 21
264.387241
 31
0.0
  0
LINE
  5
24a
100
AcDbEntity
  8
Calque_1
 62
7
100
AcDbLine
 10
45.782563
 20
264.387241
 30
0.0
 11
45.782563
 21
264.824768
 31
0.0
  0
LINE
  5
24b
100
AcDbEntity
  8
Calque_1
 62
7
100
AcDbLine
 10
45.782563
 20
264.824768
 30
0.0
 11
45.782563
 21
264.824768
 31
0.0
  0
LINE
  5
24c
100
AcDbEntity
  8
Calque_1
 62
7
100
AcDbLine
 10
45.782563
 20
266.211419
 30
0.0
 11
46.146020
 21
266.211419
 31
0.0
  0
LINE
  5
24d
100
AcDbEntity
  8
Calque_1
 62
7
100
AcDbLine
 10
46.146020
 20
266.211419
 30
0.0
 11
46.146020
 21
265.773892
 31
0.0
  0
LINE
  5
24e
100
AcDbEntity
  8
Calque_1
 62
7
100
AcDbLine
 10
46.146020
 20
265.773892
 30
0.0
 11
45.782563
 21
265.773892
 31
0.0
  0
LINE
  5
24f
100
AcDbEntity
  8
Calque_1
 62
7
100
AcDbLine
 10
45.782563
 20
265.773892
 30
0.0
 11
45.782563
 21
266.211419
 31
0.0
  0
LINE
  5
250
100
AcDbEntity
  8
Calque_1
 62
7
100
AcDbLine
 10
45.782563
 20
266.211419
 30
0.0
 11
45.782563
 21
266.211419
 31
0.0
  0
LINE
  5
251
100
AcDbEntity
  8
Calque_1
 62
7
100
AcDbLine
 10
47.894407
 20
266.655836
 30
0.0
 11
47.015908
 21
265.282966
 31
0.0
  0
LINE
  5
252
100
AcDbEntity
  8
Calque_1
 62
7
100
AcDbLine
 10
47.015908
 20
265.282966
 30
0.0
 11
47.894407
 21
265.282966
 31
0.0
  0
LINE
  5
253
100
AcDbEntity
  8
Calque_1
 62
7
100
AcDbLine
 10
47.894407
 20
265.282966
 30
0.0
 11
47.894407
 21
266.655836
 31
0.0
  0
LINE
  5
254
100
AcDbEntity
  8
Calque_1
 62
7
100
AcDbLine
 10
47.894407
 20
266.655836
 30
0.0
 11
47.894407
 21
266.655836
 31
0.0
  0
LINE
  5
255
100
AcDbEntity
  8
Calque_1
 62
7
100
AcDbLine
 10
47.803110
 20
266.959005
 30
0.0
 11
48.240640
 21
266.959005
 31
0.0
  0
LINE
  5
256
100
AcDbEntity
  8
Calque_1
 62
7
100
AcDbLine
 10
48.240640
 20
266.959005
 30
0.0
 11
48.240640
 21
265.282966
 31
0.0
  0
LINE
  5
257
100
AcDbEntity
  8
Calque_1
 62
7
100
AcDbLine
 10
48.240640
 20
265.282966
 30
0.0
 11
48.607543
 21
265.282966
 31
0.0
  0
LINE
  5
258
100
AcDbEntity
  8
Calque_1
 62
7
100
AcDbLine
 10
48.607543
 20
265.282966
 30
0.0
 11
48.607543
 21
264.993578
 31
0.0
  0
LINE
  5
259
100
AcDbEntity
  8
Calque_1
 62
7
100
AcDbLine
 10
48.607543
 20
264.993578
 30
0.0
 11
48.240640
 21
264.993578
 31
0.0
  0
LINE
  5
25a
100
AcDbEntity
  8
Calque_1
 62
7
100
AcDbLine
 10
48.240640
 20
264.993578
 30
0.0
 11
48.240640
 21
264.387241
 31
0.0
  0
LINE
  5
25b
100
AcDbEntity
  8
Calque_1
 62
7
100
AcDbLine
 10
48.240640
 20
264.387241
 30
0.0
 11
47.894407
 21
264.387241
 31
0.0
  0
LINE
  5
25c
100
AcDbEntity
  8
Calque_1
 62
7
100
AcDbLine
 10
47.894407
 20
264.387241
 30
0.0
 11
47.894407
 21
264.993578
 31
0.0
  0
LINE
  5
25d
100
AcDbEntity
  8
Calque_1
 62
7
100
AcDbLine
 10
47.894407
 20
264.993578
 30
0.0
 11
46.733409
 21
264.993578
 31
0.0
  0
LINE
  5
25e
100
AcDbEntity
  8
Calque_1
 62
7
100
AcDbLine
 10
46.733409
 20
264.993578
 30
0.0
 11
46.733409
 21
265.329474
 31
0.0
  0
LINE
  5
25f
100
AcDbEntity
  8
Calque_1
 62
7
100
AcDbLine
 10
46.733409
 20
265.329474
 30
0.0
 11
47.803110
 21
266.959005
 31
0.0
  0
LINE
  5
260
100
AcDbEntity
  8
Calque_1
 62
7
100
AcDbLine
 10
47.803110
 20
266.959005
 30
0.0
 11
47.803110
 21
266.959005
 31
0.0
  0
SPLINE
  5
261
100
AcDbEntity
  8
Calque_1
 62
7
100
AcDbSpline
 70
8
 71
3
 72
8
 73
4
 74
0
 40
0
 40
0
 40
0
 40
0
 40
1
 40
1
 40
1
 40
1
 10
49.928735
 20
266.729906
 30
0.0
 10
49.749590
 20
266.729906
 30
0.0
 10
49.614657
 20
266.641482
 30
0.0
 10
49.523938
 20
266.464633
 30
0.0
  0
SPLINE
  5
262
100
AcDbEntity
  8
Calque_1
 62
7
100
AcDbSpline
 70
8
 71
3
 72
8
 73
4
 74
0
 40
0
 40
0
 40
0
 40
0
 40
1
 40
1
 40
1
 40
1
 10
49.523938
 20
266.464633
 30
0.0
 10
49.434364
 20
266.288933
 30
0.0
 10
49.389578
 20
266.024235
 30
0.0
 10
49.389578
 20
265.670539
 30
0.0
  0
SPLINE
  5
263
100
AcDbEntity
  8
Calque_1
 62
7
100
AcDbSpline
 70
8
 71
3
 72
8
 73
4
 74
0
 40
0
 40
0
 40
0
 40
0
 40
1
 40
1
 40
1
 40
1
 10
49.389578
 20
265.670539
 30
0.0
 10
49.389578
 20
265.317991
 30
0.0
 10
49.434364
 20
265.053293
 30
0.0
 10
49.523938
 20
264.876444
 30
0.0
  0
SPLINE
  5
264
100
AcDbEntity
  8
Calque_1
 62
7
100
AcDbSpline
 70
8
 71
3
 72
8
 73
4
 74
0
 40
0
 40
0
 40
0
 40
0
 40
1
 40
1
 40
1
 40
1
 10
49.523938
 20
264.876444
 30
0.0
 10
49.614657
 20
264.700745
 30
0.0
 10
49.749590
 20
264.612895
 30
0.0
 10
49.928735
 20
264.612895
 30
0.0
  0
SPLINE
  5
265
100
AcDbEntity
  8
Calque_1
 62
7
100
AcDbSpline
 70
8
 71
3
 72
8
 73
4
 74
0
 40
0
 40
0
 40
0
 40
0
 40
1
 40
1
 40
1
 40
1
 10
49.928735
 20
264.612895
 30
0.0
 10
50.109028
 20
264.612895
 30
0.0
 10
50.243961
 20
264.700745
 30
0.0
 10
50.333535
 20
264.876444
 30
0.0
  0
SPLINE
  5
266
100
AcDbEntity
  8
Calque_1
 62
7
100
AcDbSpline
 70
8
 71
3
 72
8
 73
4
 74
0
 40
0
 40
0
 40
0
 40
0
 40
1
 40
1
 40
1
 40
1
 10
50.333535
 20
264.876444
 30
0.0
 10
50.424256
 20
265.053293
 30
0.0
 10
50.469617
 20
265.317991
 30
0.0
 10
50.469617
 20
265.670539
 30
0.0
  0
SPLINE
  5
267
100
AcDbEntity
  8
Calque_1
 62
7
100
AcDbSpline
 70
8
 71
3
 72
8
 73
4
 74
0
 40
0
 40
0
 40
0
 40
0
 40
1
 40
1
 40
1
 40
1
 10
50.469617
 20
265.670539
 30
0.0
 10
50.469617
 20
266.024235
 30
0.0
 10
50.424256
 20
266.288933
 30
0.0
 10
50.333535
 20
266.464633
 30
0.0
  0
SPLINE
  5
268
100
AcDbEntity
  8
Calque_1
 62
7
100
AcDbSpline
 70
8
 71
3
 72
8
 73
4
 74
0
 40
0
 40
0
 40
0
 40
0
 40
1
 40
1
 40
1
 40
1
 10
50.333535
 20
266.464633
 30
0.0
 10
50.243961
 20
266.641482
 30
0.0
 10
50.109028
 20
266.729906
 30
0.0
 10
49.928735
 20
266.729906
 30
0.0
  0
LINE
  5
269
100
AcDbEntity
  8
Calque_1
 62
7
100
AcDbLine
 10
49.928735
 20
266.729906
 30
0.0
 11
49.928735
 21
266.729906
 31
0.0
  0
SPLINE
  5
26a
100
AcDbEntity
  8
Calque_1
 62
7
100
AcDbSpline
 70
8
 71
3
 72
8
 73
4
 74
0
 40
0
 40
0
 40
0
 40
0
 40
1
 40
1
 40
1
 40
1
 10
49.928735
 20
267.005513
 30
0.0
 10
50.216974
 20
267.005513
 30
0.0
 10
50.436886
 20
266.891251
 30
0.0
 10
50.588472
 20
266.662726
 30
0.0
  0
SPLINE
  5
26b
100
AcDbEntity
  8
Calque_1
 62
7
100
AcDbSpline
 70
8
 71
3
 72
8
 73
4
 74
0
 40
0
 40
0
 40
0
 40
0
 40
1
 40
1
 40
1
 40
1
 10
50.588472
 20
266.662726
 30
0.0
 10
50.741205
 20
266.435350
 30
0.0
 10
50.817571
 20
266.104621
 30
0.0
 10
50.817571
 20
265.670539
 30
0.0
  0
SPLINE
  5
26c
100
AcDbEntity
  8
Calque_1
 62
7
100
AcDbSpline
 70
8
 71
3
 72
8
 73
4
 74
0
 40
0
 40
0
 40
0
 40
0
 40
1
 40
1
 40
1
 40
1
 10
50.817571
 20
265.670539
 30
0.0
 10
50.817571
 20
265.237605
 30
0.0
 10
50.741205
 20
264.906876
 30
0.0
 10
50.588472
 20
264.678351
 30
0.0
  0
SPLINE
  5
26d
100
AcDbEntity
  8
Calque_1
 62
7
100
AcDbSpline
 70
8
 71
3
 72
8
 73
4
 74
0
 40
0
 40
0
 40
0
 40
0
 40
1
 40
1
 40
1
 40
1
 10
50.588472
 20
264.678351
 30
0.0
 10
50.436886
 20
264.450975
 30
0.0
 10
50.216974
 20
264.337287
 30
0.0
 10
49.928735
 20
264.337287
 30
0.0
  0
SPLINE
  5
26e
100
AcDbEntity
  8
Calque_1
 62
7
100
AcDbSpline
 70
8
 71
3
 72
8
 73
4
 74
0
 40
0
 40
0
 40
0
 40
0
 40
1
 40
1
 40
1
 40
1
 10
49.928735
 20
264.337287
 30
0.0
 10
49.640496
 20
264.337287
 30
0.0
 10
49.420010
 20
264.450975
 30
0.0
 10
49.267277
 20
264.678351
 30
0.0
  0
SPLINE
  5
26f
100
AcDbEntity
  8
Calque_1
 62
7
100
AcDbSpline
 70
8
 71
3
 72
8
 73
4
 74
0
 40
0
 40
0
 40
0
 40
0
 40
1
 40
1
 40
1
 40
1
 10
49.267277
 20
264.678351
 30
0.0
 10
49.115693
 20
264.906876
 30
0.0
 10
49.039901
 20
265.237605
 30
0.0
 10
49.039901
 20
265.670539
 30
0.0
  0
SPLINE
  5
270
100
AcDbEntity
  8
Calque_1
 62
7
100
AcDbSpline
 70
8
 71
3
 72
8
 73
4
 74
0
 40
0
 40
0
 40
0
 40
0
 40
1
 40
1
 40
1
 40
1
 10
49.039901
 20
265.670539
 30
0.0
 10
49.039901
 20
266.104621
 30
0.0
 10
49.115693
 20
266.435350
 30
0.0
 10
49.267277
 20
266.662726
 30
0.0
  0
SPLINE
  5
271
100
AcDbEntity
  8
Calque_1
 62
7
100
AcDbSpline
 70
8
 71
3
 72
8
 73
4
 74
0
 40
0
 40
0
 40
0
 40
0
 40
1
 40
1
 40
1
 40
1
 10
49.267277
 20
266.662726
 30
0.0
 10
49.420010
 20
266.891251
 30
0.0
 10
49.640496
 20
267.005513
 30
0.0
 10
49.928735
 20
267.005513
 30
0.0
  0
LINE
  5
272
100
AcDbEntity
  8
Calque_1
 62
7
100
AcDbLine
 10
49.928735
 20
267.005513
 30
0.0
 11
49.928735
 21
267.005513
 31
0.0
  0
ENDSEC
  0
SECTION
  2
OBJECTS
  0
DICTIONARY
  5
C
330
0
100
AcDbDictionary
  3
ACAD_GROUP
350
D
  3
ACAD_MLINESTYLE
350
17
  0
DICTIONARY
  5
D
330
C
100
AcDbDictionary
  0
DICTIONARY
  5
1A
330
C
100
AcDbDictionary
  0
DICTIONARY
  5
17
330
C
100
AcDbDictionary
  3
STANDARD
350
18
  0
DICTIONARY
  5
19
330
C
100
AcDbDictionary
  0
ENDSEC
  0
EOF
