  0
SECTION
  2
HEADER
  9
$ACADVER
  1
AC1014
  9
$HANDSEED
  5
FFFF
  9
$MEASUREMENT
 70
     1
  0
ENDSEC
  0
SECTION
  2
TABLES
  0
TABLE
  2
VPORT
  5
8
330
0
100
AcDbSymbolTable
 70
     4
  0
VPORT
  5
2E
330
8
100
AcDbSymbolTableRecord
100
AcDbViewportTableRecord
  2
*ACTIVE
 70
     0
 10
0.0
 20
0.0
 11
1.0
 21
1.0
 12
210.0
 22
148.5
 13
0.0
 23
0.0
 14
10.0
 24
10.0
 15
10.0
 25
10.0
 16
0.0
 26
0.0
 36
1.0
 17
0.0
 27
0.0
 37
0.0
 40
341.0
 41
1.24
 42
50.0
 43
0.0
 44
0.0
 50
0.0
 51
0.0
 71
     0
 72
   100
 73
     1
 74
     3
 75
     0
 76
     0
 77
     0
 78
     0
  0
ENDTAB
  0
TABLE
  2
LTYPE
  5
5
330
0
100
AcDbSymbolTable
 70
     1
  0
LTYPE
  5
14
330
5
100
AcDbSymbolTableRecord
100
AcDbLinetypeTableRecord
  2
BYBLOCK
 70
     0
  3

 72
    65
 73
     0
 40
0.0
  0
LTYPE
  5
15
330
5
100
AcDbSymbolTableRecord
100
AcDbLinetypeTableRecord
  2
BYLAYER
 70
     0
  3

 72
    65
 73
     0
 40
0.0
  0
LTYPE
  5
16
330
5
100
AcDbSymbolTableRecord
100
AcDbLinetypeTableRecord
  2
CONTINUOUS
 70
     0
  3
Solid line
 72
    65
 73
     0
 40
0.0
  0
ENDTAB
  0
TABLE
  2
LAYER
  5
2
100
AcDbSymbolTable
 70
2
  0
LAYER
  5
50
100
AcDbSymbolTableRecord
100
AcDbLayerTableRecord
  2
0
 70
0
  6
CONTINUOUS
  0
LAYER
  5
51
100
AcDbSymbolTableRecord
100
AcDbLayerTableRecord
  2
Calque_1
 70
0
  6
CONTINUOUS
  0
ENDTAB
  0
TABLE
  2
STYLE
  5
3
330
0
100
AcDbSymbolTable
 70
     1
  0
STYLE
  5
11
330
3
100
AcDbSymbolTableRecord
100
AcDbTextStyleTableRecord
  2
STANDARD
 70
     0
 40
0.0
 41
1.0
 50
0.0
 71
     0
 42
2.5
  3
txt
  4

  0
ENDTAB
  0
TABLE
  2
VIEW
  5
6
330
0
100
AcDbSymbolTable
 70
     0
  0
ENDTAB
  0
TABLE
  2
UCS
  5
7
330
0
100
AcDbSymbolTable
 70
     0
  0
ENDTAB
  0
TABLE
  2
APPID
  5
9
330
0
100
AcDbSymbolTable
 70
     2
  0
APPID
  5
12
330
9
100
AcDbSymbolTableRecord
100
AcDbRegAppTableRecord
  2
ACAD
 70
     0
  0
ENDTAB
  0
TABLE
  2
DIMSTYLE
  5
A
330
0
100
AcDbSymbolTable
 70
     1
  0
DIMSTYLE
105
27
330
A
100
AcDbSymbolTableRecord
100
AcDbDimStyleTableRecord
  2
ISO-25
 70
     0
  3

  4

  5

  6

  7

 40
1.0
 41
2.5
 42
0.625
 43
3.75
 44
1.25
 45
0.0
 46
0.0
 47
0.0
 48
0.0
140
2.5
141
2.5
142
0.0
143
0.03937007874016
144
1.0
145
0.0
146
1.0
147
0.625
 71
     0
 72
     0
 73
     0
 74
     0
 75
     0
 76
     0
 77
     1
 78
     8
170
     0
171
     3
172
     1
173
     0
174
     0
175
     0
176
     0
177
     0
178
     0
270
     2
271
     2
272
     2
273
     2
274
     3
340
11
275
     0
280
     0
281
     0
282
     0
283
     0
284
     8
285
     0
286
     0
287
     3
288
     0
  0
ENDTAB
  0
TABLE
  2
BLOCK_RECORD
  5
1
330
0
100
AcDbSymbolTable
 70
     1
  0
BLOCK_RECORD
  5
1F
330
1
100
AcDbSymbolTableRecord
100
AcDbBlockTableRecord
  2
*MODEL_SPACE
  0
BLOCK_RECORD
  5
1B
330
1
100
AcDbSymbolTableRecord
100
AcDbBlockTableRecord
  2
*PAPER_SPACE
  0
ENDTAB
  0
ENDSEC
  0
SECTION
  2
BLOCKS
  0
BLOCK
  5
20
330
1F
100
AcDbEntity
  8
0
100
AcDbBlockBegin
  2
*MODEL_SPACE
 70
     0
 10
0.0
 20
0.0
 30
0.0
  3
*MODEL_SPACE
  1

  0
ENDBLK
  5
21
330
1F
100
AcDbEntity
  8
0
100
AcDbBlockEnd
  0
BLOCK
  5
1C
330
1B
100
AcDbEntity
 67
     1
  8
0
100
AcDbBlockBegin
  2
*PAPER_SPACE
  1

  0
ENDBLK
  5
1D
330
1B
100
AcDbEntity
 67
     1
  8
0
100
AcDbBlockEnd
  0
ENDSEC
  0
SECTION
  2
ENTITIES
  0
LWPOLYLINE
  5
100
100
AcDbEntity
  8
Calque_1
 62
1
100
AcDbPolyline
 90
28
 70
1
 10
96.006289
 20
237.264738
 30
0.0
 10
96.006289
 20
232.924019
 30
0.0
 10
91.662759
 20
232.924019
 30
0.0
 10
91.662759
 20
140.690000
 30
0.0
 10
96.006289
 20
140.690000
 30
0.0
 10
96.006289
 20
136.349840
 30
0.0
 10
105.211460
 20
136.349840
 30
0.0
 10
105.211460
 20
140.690000
 30
0.0
 10
114.172720
 20
140.690000
 30
0.0
 10
114.172720
 20
151.019470
 30
0.0
 10
109.832560
 20
151.019470
 30
0.0
 10
109.832560
 20
161.105010
 30
0.0
 10
114.172720
 20
161.105010
 30
0.0
 10
114.172720
 20
171.515800
 30
0.0
 10
109.832560
 20
171.515800
 30
0.0
 10
109.832560
 20
181.601340
 30
0.0
 10
114.172720
 20
181.601340
 30
0.0
 10
114.172720
 20
192.012680
 30
0.0
 10
109.832560
 20
192.012680
 30
0.0
 10
109.832560
 20
202.098219
 30
0.0
 10
114.172720
 20
202.098219
 30
0.0
 10
114.172720
 20
212.508999
 30
0.0
 10
109.832560
 20
212.508999
 30
0.0
 10
109.832560
 20
222.594539
 30
0.0
 10
114.172720
 20
222.594539
 30
0.0
 10
114.172720
 20
232.924019
 30
0.0
 10
105.211460
 20
232.924019
 30
0.0
 10
105.211460
 20
237.264738
 30
0.0
  0
LWPOLYLINE
  5
101
100
AcDbEntity
  8
Calque_1
 62
1
100
AcDbPolyline
 90
44
 70
1
 10
125.828630
 20
237.190330
 30
0.0
 10
125.828630
 20
232.849609
 30
0.0
 10
121.208090
 20
232.849609
 30
0.0
 10
121.208090
 20
222.682739
 30
0.0
 10
116.867370
 20
222.682739
 30
0.0
 10
116.867370
 20
212.271969
 30
0.0
 10
121.208090
 20
212.271969
 30
0.0
 10
121.208090
 20
202.186419
 30
0.0
 10
116.867370
 20
202.186419
 30
0.0
 10
116.867370
 20
191.775080
 30
0.0
 10
121.208090
 20
191.775080
 30
0.0
 10
121.208090
 20
181.690110
 30
0.0
 10
116.867370
 20
181.690110
 30
0.0
 10
116.867370
 20
171.278760
 30
0.0
 10
121.208090
 20
171.278760
 30
0.0
 10
121.208090
 20
161.193220
 30
0.0
 10
116.867370
 20
161.193220
 30
0.0
 10
116.867370
 20
150.782450
 30
0.0
 10
121.208090
 20
150.782450
 30
0.0
 10
121.208090
 20
140.615600
 30
0.0
 10
125.828630
 20
140.615600
 30
0.0
 10
125.828630
 20
136.275430
 30
0.0
 10
135.033800
 20
136.275430
 30
0.0
 10
135.033800
 20
140.615600
 30
0.0
 10
139.654890
 20
140.615600
 30
0.0
 10
139.654890
 20
150.782450
 30
0.0
 10
139.713790
 20
150.782450
 30
0.0
 10
139.713790
 20
161.193220
 30
0.0
 10
139.654890
 20
161.193220
 30
0.0
 10
139.654890
 20
171.278760
 30
0.0
 10
139.713790
 20
171.278760
 30
0.0
 10
139.713790
 20
181.690110
 30
0.0
 10
139.654890
 20
181.690110
 30
0.0
 10
139.654890
 20
191.775080
 30
0.0
 10
139.713790
 20
191.775080
 30
0.0
 10
139.713790
 20
202.186419
 30
0.0
 10
139.654890
 20
202.186419
 30
0.0
 10
139.654890
 20
212.271969
 30
0.0
 10
139.713790
 20
212.271969
 30
0.0
 10
139.713790
 20
222.682739
 30
0.0
 10
139.654890
 20
222.682739
 30
0.0
 10
139.654890
 20
232.849609
 30
0.0
 10
135.033800
 20
232.849609
 30
0.0
 10
135.033800
 20
237.190330
 30
0.0
  0
LWPOLYLINE
  5
102
100
AcDbEntity
  8
Calque_1
 62
1
100
AcDbPolyline
 90
28
 70
1
 10
147.864950
 20
237.264738
 30
0.0
 10
147.864950
 20
232.924019
 30
0.0
 10
143.521420
 20
232.924019
 30
0.0
 10
143.521420
 20
140.690000
 30
0.0
 10
147.864950
 20
140.690000
 30
0.0
 10
147.864950
 20
136.349840
 30
0.0
 10
157.070120
 20
136.349840
 30
0.0
 10
157.070120
 20
140.690000
 30
0.0
 10
166.031380
 20
140.690000
 30
0.0
 10
166.031380
 20
151.019470
 30
0.0
 10
161.691220
 20
151.019470
 30
0.0
 10
161.691220
 20
161.105010
 30
0.0
 10
166.031380
 20
161.105010
 30
0.0
 10
166.031380
 20
171.515800
 30
0.0
 10
161.691220
 20
171.515800
 30
0.0
 10
161.691220
 20
181.601340
 30
0.0
 10
166.031380
 20
181.601340
 30
0.0
 10
166.031380
 20
192.012680
 30
0.0
 10
161.691220
 20
192.012680
 30
0.0
 10
161.691220
 20
202.098219
 30
0.0
 10
166.031380
 20
202.098219
 30
0.0
 10
166.031380
 20
212.508999
 30
0.0
 10
161.691220
 20
212.508999
 30
0.0
 10
161.691220
 20
222.594539
 30
0.0
 10
166.031380
 20
222.594539
 30
0.0
 10
166.031380
 20
232.924019
 30
0.0
 10
157.070120
 20
232.924019
 30
0.0
 10
157.070120
 20
237.264738
 30
0.0
  0
LWPOLYLINE
  5
103
100
AcDbEntity
  8
Calque_1
 62
1
100
AcDbPolyline
 90
44
 70
1
 10
177.687290
 20
237.190330
 30
0.0
 10
177.687290
 20
232.849609
 30
0.0
 10
173.066750
 20
232.849609
 30
0.0
 10
173.066750
 20
222.682739
 30
0.0
 10
168.726030
 20
222.682739
 30
0.0
 10
168.726030
 20
212.271969
 30
0.0
 10
173.066750
 20
212.271969
 30
0.0
 10
173.066750
 20
202.186419
 30
0.0
 10
168.726030
 20
202.186419
 30
0.0
 10
168.726030
 20
191.775080
 30
0.0
 10
173.066750
 20
191.775080
 30
0.0
 10
173.066750
 20
181.690110
 30
0.0
 10
168.726030
 20
181.690110
 30
0.0
 10
168.726030
 20
171.278760
 30
0.0
 10
173.066750
 20
171.278760
 30
0.0
 10
173.066750
 20
161.193220
 30
0.0
 10
168.726030
 20
161.193220
 30
0.0
 10
168.726030
 20
150.782450
 30
0.0
 10
173.066750
 20
150.782450
 30
0.0
 10
173.066750
 20
140.615600
 30
0.0
 10
177.687290
 20
140.615600
 30
0.0
 10
177.687290
 20
136.275430
 30
0.0
 10
186.892460
 20
136.275430
 30
0.0
 10
186.892460
 20
140.615600
 30
0.0
 10
191.513550
 20
140.615600
 30
0.0
 10
191.513550
 20
150.782450
 30
0.0
 10
191.572450
 20
150.782450
 30
0.0
 10
191.572450
 20
161.193220
 30
0.0
 10
191.513550
 20
161.193220
 30
0.0
 10
191.513550
 20
171.278760
 30
0.0
 10
191.572450
 20
171.278760
 30
0.0
 10
191.572450
 20
181.690110
 30
0.0
 10
191.513550
 20
181.690110
 30
0.0
 10
191.513550
 20
191.775080
 30
0.0
 10
191.572450
 20
191.775080
 30
0.0
 10
191.572450
 20
202.186419
 30
0.0
 10
191.513550
 20
202.186419
 30
0.0
 10
191.513550
 20
212.271969
 30
0.0
 10
191.572450
 20
212.271969
 30
0.0
 10
191.572450
 20
222.682739
 30
0.0
 10
191.513550
 20
222.682739
 30
0.0
 10
191.513550
 20
232.849609
 30
0.0
 10
186.892460
 20
232.849609
 30
0.0
 10
186.892460
 20
237.190330
 30
0.0
  0
LWPOLYLINE
  5
104
100
AcDbEntity
  8
Calque_1
 62
1
100
AcDbPolyline
 90
28
 70
1
 10
148.394120
 20
133.018330
 30
0.0
 10
148.394120
 20
128.677580
 30
0.0
 10
144.050590
 20
128.677580
 30
0.0
 10
144.050590
 20
36.443510
 30
0.0
 10
148.394120
 20
36.443510
 30
0.0
 10
148.394120
 20
32.103350
 30
0.0
 10
157.599290
 20
32.103350
 30
0.0
 10
157.599290
 20
36.443510
 30
0.0
 10
166.560550
 20
36.443510
 30
0.0
 10
166.560550
 20
46.772980
 30
0.0
 10
162.220390
 20
46.772980
 30
0.0
 10
162.220390
 20
56.858520
 30
0.0
 10
166.560550
 20
56.858520
 30
0.0
 10
166.560550
 20
67.269310
 30
0.0
 10
162.220390
 20
67.269310
 30
0.0
 10
162.220390
 20
77.354850
 30
0.0
 10
166.560550
 20
77.354850
 30
0.0
 10
166.560550
 20
87.766190
 30
0.0
 10
162.220390
 20
87.766190
 30
0.0
 10
162.220390
 20
97.851730
 30
0.0
 10
166.560550
 20
97.851730
 30
0.0
 10
166.560550
 20
108.262510
 30
0.0
 10
162.220390
 20
108.262510
 30
0.0
 10
162.220390
 20
118.348050
 30
0.0
 10
166.560550
 20
118.348050
 30
0.0
 10
166.560550
 20
128.677580
 30
0.0
 10
157.599290
 20
128.677580
 30
0.0
 10
157.599290
 20
133.018330
 30
0.0
  0
LWPOLYLINE
  5
105
100
AcDbEntity
  8
Calque_1
 62
1
100
AcDbPolyline
 90
44
 70
1
 10
178.216460
 20
132.943920
 30
0.0
 10
178.216460
 20
128.603170
 30
0.0
 10
173.595920
 20
128.603170
 30
0.0
 10
173.595920
 20
118.436250
 30
0.0
 10
169.255200
 20
118.436250
 30
0.0
 10
169.255200
 20
108.025480
 30
0.0
 10
173.595920
 20
108.025480
 30
0.0
 10
173.595920
 20
97.939930
 30
0.0
 10
169.255200
 20
97.939930
 30
0.0
 10
169.255200
 20
87.528590
 30
0.0
 10
173.595920
 20
87.528590
 30
0.0
 10
173.595920
 20
77.443620
 30
0.0
 10
169.255200
 20
77.443620
 30
0.0
 10
169.255200
 20
67.032270
 30
0.0
 10
173.595920
 20
67.032270
 30
0.0
 10
173.595920
 20
56.946730
 30
0.0
 10
169.255200
 20
56.946730
 30
0.0
 10
169.255200
 20
46.535960
 30
0.0
 10
173.595920
 20
46.535960
 30
0.0
 10
173.595920
 20
36.369110
 30
0.0
 10
178.216460
 20
36.369110
 30
0.0
 10
178.216460
 20
32.028940
 30
0.0
 10
187.421630
 20
32.028940
 30
0.0
 10
187.421630
 20
36.369110
 30
0.0
 10
192.042720
 20
36.369110
 30
0.0
 10
192.042720
 20
46.535960
 30
0.0
 10
192.101620
 20
46.535960
 30
0.0
 10
192.101620
 20
56.946730
 30
0.0
 10
192.042720
 20
56.946730
 30
0.0
 10
192.042720
 20
67.032270
 30
0.0
 10
192.101620
 20
67.032270
 30
0.0
 10
192.101620
 20
77.443620
 30
0.0
 10
192.042720
 20
77.443620
 30
0.0
 10
192.042720
 20
87.528590
 30
0.0
 10
192.101620
 20
87.528590
 30
0.0
 10
192.101620
 20
97.939930
 30
0.0
 10
192.042720
 20
97.939930
 30
0.0
 10
192.042720
 20
108.025480
 30
0.0
 10
192.101620
 20
108.025480
 30
0.0
 10
192.101620
 20
118.436250
 30
0.0
 10
192.042720
 20
118.436250
 30
0.0
 10
192.042720
 20
128.603170
 30
0.0
 10
187.421630
 20
128.603170
 30
0.0
 10
187.421630
 20
132.943920
 30
0.0
  0
LWPOLYLINE
  5
106
100
AcDbEntity
  8
Calque_1
 62
1
100
AcDbPolyline
 90
28
 70
1
 10
96.006289
 20
133.018330
 30
0.0
 10
96.006289
 20
128.677580
 30
0.0
 10
91.662759
 20
128.677580
 30
0.0
 10
91.662759
 20
36.443510
 30
0.0
 10
96.006289
 20
36.443510
 30
0.0
 10
96.006289
 20
32.103350
 30
0.0
 10
105.211460
 20
32.103350
 30
0.0
 10
105.211460
 20
36.443510
 30
0.0
 10
114.172720
 20
36.443510
 30
0.0
 10
114.172720
 20
46.772980
 30
0.0
 10
109.832560
 20
46.772980
 30
0.0
 10
109.832560
 20
56.858520
 30
0.0
 10
114.172720
 20
56.858520
 30
0.0
 10
114.172720
 20
67.269310
 30
0.0
 10
109.832560
 20
67.269310
 30
0.0
 10
109.832560
 20
77.354850
 30
0.0
 10
114.172720
 20
77.354850
 30
0.0
 10
114.172720
 20
87.766190
 30
0.0
 10
109.832560
 20
87.766190
 30
0.0
 10
109.832560
 20
97.851730
 30
0.0
 10
114.172720
 20
97.851730
 30
0.0
 10
114.172720
 20
108.262510
 30
0.0
 10
109.832560
 20
108.262510
 30
0.0
 10
109.832560
 20
118.348050
 30
0.0
 10
114.172720
 20
118.348050
 30
0.0
 10
114.172720
 20
128.677580
 30
0.0
 10
105.211460
 20
128.677580
 30
0.0
 10
105.211460
 20
133.018330
 30
0.0
  0
LWPOLYLINE
  5
107
100
AcDbEntity
  8
Calque_1
 62
1
100
AcDbPolyline
 90
44
 70
1
 10
126.357800
 20
132.943920
 30
0.0
 10
126.357800
 20
128.603170
 30
0.0
 10
121.737260
 20
128.603170
 30
0.0
 10
121.737260
 20
118.436250
 30
0.0
 10
117.396540
 20
118.436250
 30
0.0
 10
117.396540
 20
108.025480
 30
0.0
 10
121.737260
 20
108.025480
 30
0.0
 10
121.737260
 20
97.939930
 30
0.0
 10
117.396540
 20
97.939930
 30
0.0
 10
117.396540
 20
87.528590
 30
0.0
 10
121.737260
 20
87.528590
 30
0.0
 10
121.737260
 20
77.443620
 30
0.0
 10
117.396540
 20
77.443620
 30
0.0
 10
117.396540
 20
67.032270
 30
0.0
 10
121.737260
 20
67.032270
 30
0.0
 10
121.737260
 20
56.946730
 30
0.0
 10
117.396540
 20
56.946730
 30
0.0
 10
117.396540
 20
46.535960
 30
0.0
 10
121.737260
 20
46.535960
 30
0.0
 10
121.737260
 20
36.369110
 30
0.0
 10
126.357800
 20
36.369110
 30
0.0
 10
126.357800
 20
32.028940
 30
0.0
 10
135.562970
 20
32.028940
 30
0.0
 10
135.562970
 20
36.369110
 30
0.0
 10
140.184060
 20
36.369110
 30
0.0
 10
140.184060
 20
46.535960
 30
0.0
 10
140.242960
 20
46.535960
 30
0.0
 10
140.242960
 20
56.946730
 30
0.0
 10
140.184060
 20
56.946730
 30
0.0
 10
140.184060
 20
67.032270
 30
0.0
 10
140.242960
 20
67.032270
 30
0.0
 10
140.242960
 20
77.443620
 30
0.0
 10
140.184060
 20
77.443620
 30
0.0
 10
140.184060
 20
87.528590
 30
0.0
 10
140.242960
 20
87.528590
 30
0.0
 10
140.242960
 20
97.939930
 30
0.0
 10
140.184060
 20
97.939930
 30
0.0
 10
140.184060
 20
108.025480
 30
0.0
 10
140.242960
 20
108.025480
 30
0.0
 10
140.242960
 20
118.436250
 30
0.0
 10
140.184060
 20
118.436250
 30
0.0
 10
140.184060
 20
128.603170
 30
0.0
 10
135.562970
 20
128.603170
 30
0.0
 10
135.562970
 20
132.943920
 30
0.0
  0
ENDSEC
  0
SECTION
  2
OBJECTS
  0
DICTIONARY
  5
C
330
0
100
AcDbDictionary
  3
ACAD_GROUP
350
D
  3
ACAD_MLINESTYLE
350
17
  0
DICTIONARY
  5
D
330
C
100
AcDbDictionary
  0
DICTIONARY
  5
1A
330
C
100
AcDbDictionary
  0
DICTIONARY
  5
17
330
C
100
AcDbDictionary
  3
STANDARD
350
18
  0
DICTIONARY
  5
19
330
C
100
AcDbDictionary
  0
ENDSEC
  0
EOF
