<?xml version="1.0" encoding="UTF-8" standalone="no"?>
<!-- Created with Inkscape (http://www.inkscape.org/) -->

<svg
   xmlns:dc="http://purl.org/dc/elements/1.1/"
   xmlns:cc="http://creativecommons.org/ns#"
   xmlns:rdf="http://www.w3.org/1999/02/22-rdf-syntax-ns#"
   xmlns:svg="http://www.w3.org/2000/svg"
   xmlns="http://www.w3.org/2000/svg"
   xmlns:sodipodi="http://sodipodi.sourceforge.net/DTD/sodipodi-0.dtd"
   xmlns:inkscape="http://www.inkscape.org/namespaces/inkscape"
   sodipodi:docname="hologrammeV0.svg"
   inkscape:version="0.92.3 (unknown)"
   id="svg8"
   version="1.1"
   viewBox="0 0 200 250"
   height="250mm"
   width="200mm">
  <sodipodi:namedview
     inkscape:window-maximized="1"
     inkscape:window-y="0"
     inkscape:window-x="0"
     inkscape:window-height="718"
     inkscape:window-width="1366"
     showgrid="false"
     inkscape:current-layer="layer1"
     inkscape:document-units="mm"
     inkscape:cy="726.62256"
     inkscape:cx="1533.6229"
     inkscape:zoom="0.26317139"
     inkscape:pageshadow="2"
     inkscape:pageopacity="0.0"
     borderopacity="1.0"
     bordercolor="#666666"
     pagecolor="#ffffff"
     id="base" />
  <defs
     id="defs2" />
  <metadata
     id="metadata5">
    <rdf:RDF>
      <cc:Work
         rdf:about="">
        <dc:format>image/svg+xml</dc:format>
        <dc:type
           rdf:resource="http://purl.org/dc/dcmitype/StillImage" />
        <dc:title></dc:title>
      </cc:Work>
    </rdf:RDF>
  </metadata>
  <g
     transform="translate(0,-47)"
     inkscape:label="Calque 1"
     inkscape:groupmode="layer"
     id="layer1">
    <path
       style="fill:none;stroke:#ff0000;stroke-width:1.08510625;stroke-miterlimit:4;stroke-dasharray:none"
       d="m 96.006289,59.735262 v 4.340719 h -4.34353 V 156.31 h 4.34353 v 4.34016 h 9.205171 V 156.31 h 8.96126 v -10.32947 h -4.34016 v -10.08554 h 4.34016 V 125.4842 h -4.34016 v -10.08554 h 4.34016 v -10.41134 h -4.34016 V 94.901781 h 4.34016 v -10.41078 h -4.34016 v -10.08554 h 4.34016 v -10.32948 h -8.96126 v -4.340719 z"
       id="box_back"
       inkscape:connector-curvature="0" />
    <path
       style="fill:none;stroke:#ff0000;stroke-width:1.08510625;stroke-miterlimit:4;stroke-dasharray:none"
       d="m 125.82863,59.80967 v 4.340721 h -4.62054 v 10.16687 h -4.34072 v 10.41077 h 4.34072 v 10.08555 h -4.34072 v 10.411339 h 4.34072 v 10.08497 h -4.34072 v 10.41135 h 4.34072 v 10.08554 h -4.34072 v 10.41077 h 4.34072 v 10.16685 h 4.62054 v 4.34017 h 9.20517 v -4.34017 h 4.62109 v -10.16685 h 0.0589 v -10.41077 h -0.0589 v -10.08554 h 0.0589 v -10.41135 h -0.0589 v -10.08497 h 0.0589 V 94.813581 h -0.0589 v -10.08555 h 0.0589 v -10.41077 h -0.0589 V 64.150391 H 135.0338 V 59.80967 Z"
       id="box_right_side"
       inkscape:connector-curvature="0" />
    <path
       inkscape:connector-curvature="0"
       id="path1903"
       d="m 147.86495,59.735262 v 4.340719 h -4.34353 V 156.31 h 4.34353 v 4.34016 h 9.20517 V 156.31 h 8.96126 v -10.32947 h -4.34016 v -10.08554 h 4.34016 V 125.4842 h -4.34016 v -10.08554 h 4.34016 v -10.41134 h -4.34016 V 94.901781 h 4.34016 v -10.41078 h -4.34016 v -10.08554 h 4.34016 v -10.32948 h -8.96126 v -4.340719 z"
       style="fill:none;stroke:#ff0000;stroke-width:1.08510625;stroke-miterlimit:4;stroke-dasharray:none" />
    <path
       inkscape:connector-curvature="0"
       id="path1905"
       d="m 177.68729,59.80967 v 4.340721 h -4.62054 v 10.16687 h -4.34072 v 10.41077 h 4.34072 v 10.08555 h -4.34072 v 10.411339 h 4.34072 v 10.08497 h -4.34072 v 10.41135 h 4.34072 v 10.08554 h -4.34072 v 10.41077 h 4.34072 v 10.16685 h 4.62054 v 4.34017 h 9.20517 v -4.34017 h 4.62109 v -10.16685 h 0.0589 v -10.41077 h -0.0589 v -10.08554 h 0.0589 v -10.41135 h -0.0589 v -10.08497 h 0.0589 V 94.813581 h -0.0589 v -10.08555 h 0.0589 v -10.41077 h -0.0589 v -10.16687 h -4.62109 V 59.80967 Z"
       style="fill:none;stroke:#ff0000;stroke-width:1.08510625;stroke-miterlimit:4;stroke-dasharray:none" />
    <path
       style="fill:none;stroke:#ff0000;stroke-width:1.08510625;stroke-miterlimit:4;stroke-dasharray:none"
       d="m 148.39412,163.98167 v 4.34075 h -4.34353 v 92.23407 h 4.34353 v 4.34016 h 9.20517 v -4.34016 h 8.96126 v -10.32947 h -4.34016 v -10.08554 h 4.34016 v -10.41079 h -4.34016 v -10.08554 h 4.34016 v -10.41134 h -4.34016 v -10.08554 h 4.34016 v -10.41078 h -4.34016 v -10.08554 h 4.34016 v -10.32953 h -8.96126 v -4.34075 z"
       id="path1907"
       inkscape:connector-curvature="0" />
    <path
       style="fill:none;stroke:#ff0000;stroke-width:1.08510625;stroke-miterlimit:4;stroke-dasharray:none"
       d="m 178.21646,164.05608 v 4.34075 h -4.62054 v 10.16692 h -4.34072 v 10.41077 h 4.34072 v 10.08555 h -4.34072 v 10.41134 h 4.34072 v 10.08497 h -4.34072 v 10.41135 h 4.34072 v 10.08554 h -4.34072 v 10.41077 h 4.34072 v 10.16685 h 4.62054 v 4.34017 h 9.20517 v -4.34017 h 4.62109 v -10.16685 h 0.0589 v -10.41077 h -0.0589 v -10.08554 h 0.0589 v -10.41135 h -0.0589 v -10.08497 h 0.0589 v -10.41134 h -0.0589 v -10.08555 h 0.0589 v -10.41077 h -0.0589 v -10.16692 h -4.62109 v -4.34075 z"
       id="path1909"
       inkscape:connector-curvature="0" />
    <path
       inkscape:connector-curvature="0"
       id="path1911"
       d="m 96.006289,163.98167 v 4.34075 h -4.34353 v 92.23407 h 4.34353 v 4.34016 h 9.205171 v -4.34016 h 8.96126 v -10.32947 h -4.34016 v -10.08554 h 4.34016 v -10.41079 h -4.34016 v -10.08554 h 4.34016 v -10.41134 h -4.34016 v -10.08554 h 4.34016 v -10.41078 h -4.34016 v -10.08554 h 4.34016 v -10.32953 h -8.96126 v -4.34075 z"
       style="fill:none;stroke:#ff0000;stroke-width:1.08510625;stroke-miterlimit:4;stroke-dasharray:none" />
    <path
       inkscape:connector-curvature="0"
       id="path1913"
       d="m 126.3578,164.05608 v 4.34075 h -4.62054 v 10.16692 h -4.34072 v 10.41077 h 4.34072 v 10.08555 h -4.34072 v 10.41134 h 4.34072 v 10.08497 h -4.34072 v 10.41135 h 4.34072 v 10.08554 h -4.34072 v 10.41077 h 4.34072 v 10.16685 h 4.62054 v 4.34017 h 9.20517 v -4.34017 h 4.62109 v -10.16685 h 0.0589 v -10.41077 h -0.0589 v -10.08554 h 0.0589 v -10.41135 h -0.0589 v -10.08497 h 0.0589 v -10.41134 h -0.0589 v -10.08555 h 0.0589 v -10.41077 h -0.0589 v -10.16692 h -4.62109 v -4.34075 z"
       style="fill:none;stroke:#ff0000;stroke-width:1.08510625;stroke-miterlimit:4;stroke-dasharray:none" />
  </g>
</svg>
